%TF.GenerationSoftware,KiCad,Pcbnew,5.1.9-73d0e3b20d~88~ubuntu20.04.1*%
%TF.CreationDate,2021-04-18T23:12:54+02:00*%
%TF.ProjectId,interrupter,696e7465-7272-4757-9074-65722e6b6963,rev?*%
%TF.SameCoordinates,Original*%
%TF.FileFunction,Soldermask,Bot*%
%TF.FilePolarity,Negative*%
%FSLAX46Y46*%
G04 Gerber Fmt 4.6, Leading zero omitted, Abs format (unit mm)*
G04 Created by KiCad (PCBNEW 5.1.9-73d0e3b20d~88~ubuntu20.04.1) date 2021-04-18 23:12:54*
%MOMM*%
%LPD*%
G01*
G04 APERTURE LIST*
%ADD10O,1.700000X1.700000*%
%ADD11R,1.700000X1.700000*%
%ADD12C,7.000000*%
%ADD13C,3.200000*%
%ADD14C,1.600000*%
%ADD15R,1.208000X1.208000*%
%ADD16O,1.905000X2.000000*%
%ADD17R,1.905000X2.000000*%
%ADD18O,1.600000X1.600000*%
%ADD19R,1.050000X1.500000*%
%ADD20O,1.050000X1.500000*%
%ADD21C,1.200000*%
G04 APERTURE END LIST*
D10*
%TO.C,J2*%
X188214000Y-117856000D03*
D11*
X185674000Y-117856000D03*
%TD*%
D12*
%TO.C,REF\u002A\u002A*%
X220980000Y-115570000D03*
%TD*%
%TO.C,REF\u002A\u002A*%
X178054000Y-115570000D03*
%TD*%
D10*
%TO.C,J3*%
X194945000Y-77470000D03*
D11*
X192405000Y-77470000D03*
%TD*%
D12*
%TO.C,REF\u002A\u002A*%
X177927000Y-80137000D03*
%TD*%
%TO.C,REF\u002A\u002A*%
X220980000Y-80010000D03*
%TD*%
D13*
%TO.C,U6*%
X216515000Y-97890000D03*
D14*
X224115000Y-100390000D03*
X224115000Y-95390000D03*
D15*
X221615000Y-99090000D03*
X221615000Y-96490000D03*
%TD*%
D16*
%TO.C,U1*%
X195072000Y-116332000D03*
X197612000Y-116332000D03*
D17*
X200152000Y-116332000D03*
%TD*%
D18*
%TO.C,R14*%
X221615000Y-104140000D03*
D14*
X211455000Y-104140000D03*
%TD*%
D19*
%TO.C,Q2*%
X185928000Y-89916000D03*
D20*
X188468000Y-89916000D03*
X187198000Y-89916000D03*
%TD*%
D19*
%TO.C,Q1*%
X179832000Y-89916000D03*
D20*
X182372000Y-89916000D03*
X181102000Y-89916000D03*
%TD*%
D10*
%TO.C,J10*%
X207645000Y-101600000D03*
D11*
X205105000Y-101600000D03*
%TD*%
D10*
%TO.C,J8*%
X210058000Y-96012000D03*
X207518000Y-96012000D03*
D11*
X204978000Y-96012000D03*
%TD*%
D10*
%TO.C,J7*%
X205105000Y-105410000D03*
D11*
X207645000Y-105410000D03*
%TD*%
D10*
%TO.C,J6*%
X212090000Y-81280000D03*
D11*
X209550000Y-81280000D03*
%TD*%
D10*
%TO.C,J5*%
X212090000Y-77470000D03*
D11*
X209550000Y-77470000D03*
%TD*%
D10*
%TO.C,J4*%
X190246000Y-103124000D03*
X190246000Y-100584000D03*
D11*
X190246000Y-98044000D03*
%TD*%
D10*
%TO.C,J1*%
X220980000Y-108966000D03*
D11*
X218440000Y-108966000D03*
%TD*%
D14*
%TO.C,C9*%
X211272000Y-115824000D03*
X207772000Y-115824000D03*
%TD*%
D21*
%TO.C,C6*%
X189738000Y-108482000D03*
X189738000Y-109982000D03*
%TD*%
%TO.C,C4*%
X202414000Y-82804000D03*
X200914000Y-82804000D03*
%TD*%
D10*
%TO.C,J9*%
X203200000Y-77470000D03*
D11*
X200660000Y-77470000D03*
%TD*%
M02*
