M48
; DRILL file {KiCad 5.1.9-73d0e3b20d~88~ubuntu20.04.1} date Sun Apr 18 23:12:50 2021
; FORMAT={-:-/ absolute / inch / decimal}
; #@! TF.CreationDate,2021-04-18T23:12:50+02:00
; #@! TF.GenerationSoftware,Kicad,Pcbnew,5.1.9-73d0e3b20d~88~ubuntu20.04.1
; #@! TF.FileFunction,Plated,1,2,PTH
FMAT,2
INCH
T1C0.0157
T2C0.0236
T3C0.0276
T4C0.0295
T5C0.0315
T6C0.0394
T7C0.0433
T8C0.1378
%
G90
G05
T1
X7.05Y-3.925
X7.075Y-4.2
X7.125Y-3.85
X7.125Y-4.125
X7.175Y-4.44
X7.2336Y-3.2
X7.4Y-4.4
X7.42Y-3.22
X7.46Y-3.34
X7.48Y-3.24
X7.55Y-4.375
X7.55Y-4.375
X7.5614Y-3.4886
X7.625Y-3.15
X7.625Y-3.325
X7.625Y-3.675
X7.725Y-3.85
X7.725Y-4.175
X7.725Y-4.325
X7.75Y-4.425
X7.8Y-3.15
X7.825Y-3.575
X7.85Y-3.375
X8.0Y-3.5
X8.06Y-3.34
X8.075Y-3.675
X8.15Y-3.35
X8.2Y-3.5
X8.2Y-3.6
X8.35Y-3.45
X8.4Y-3.5
X8.475Y-3.325
T2
X7.47Y-4.2709
X7.47Y-4.33
X7.91Y-3.26
X7.9691Y-3.26
T3
X8.725Y-3.7988
X8.725Y-3.9012
T4
X7.08Y-3.54
X7.13Y-3.54
X7.18Y-3.54
X7.32Y-3.54
X7.37Y-3.54
X7.42Y-3.54
T5
X8.18Y-4.56
X8.3178Y-4.56
X8.325Y-4.1
X8.725Y-4.1
T6
X7.31Y-4.64
X7.41Y-4.64
X7.49Y-3.86
X7.49Y-3.96
X7.49Y-4.06
X7.575Y-3.05
X7.675Y-3.05
X7.9Y-3.05
X8.0Y-3.05
X8.07Y-3.78
X8.075Y-4.0
X8.075Y-4.15
X8.17Y-3.78
X8.175Y-4.0
X8.175Y-4.15
X8.25Y-3.05
X8.25Y-3.2
X8.27Y-3.78
X8.35Y-3.05
X8.35Y-3.2
X8.6Y-4.29
X8.7Y-4.29
T7
X7.68Y-4.58
X7.78Y-4.58
X7.88Y-4.58
T8
X7.005Y-3.155
X7.01Y-4.55
X8.7Y-3.15
X8.7Y-4.55
T0
M30
