%TF.GenerationSoftware,KiCad,Pcbnew,5.1.9-73d0e3b20d~88~ubuntu20.04.1*%
%TF.CreationDate,2021-04-18T23:12:53+02:00*%
%TF.ProjectId,interrupter,696e7465-7272-4757-9074-65722e6b6963,rev?*%
%TF.SameCoordinates,Original*%
%TF.FileFunction,Copper,L1,Top*%
%TF.FilePolarity,Positive*%
%FSLAX46Y46*%
G04 Gerber Fmt 4.6, Leading zero omitted, Abs format (unit mm)*
G04 Created by KiCad (PCBNEW 5.1.9-73d0e3b20d~88~ubuntu20.04.1) date 2021-04-18 23:12:53*
%MOMM*%
%LPD*%
G01*
G04 APERTURE LIST*
%TA.AperFunction,SMDPad,CuDef*%
%ADD10R,1.800000X3.500000*%
%TD*%
%TA.AperFunction,SMDPad,CuDef*%
%ADD11R,1.500000X1.500000*%
%TD*%
%TA.AperFunction,ComponentPad*%
%ADD12O,1.700000X1.700000*%
%TD*%
%TA.AperFunction,ComponentPad*%
%ADD13R,1.700000X1.700000*%
%TD*%
%TA.AperFunction,ComponentPad*%
%ADD14C,7.000000*%
%TD*%
%TA.AperFunction,ComponentPad*%
%ADD15R,1.208000X1.208000*%
%TD*%
%TA.AperFunction,ComponentPad*%
%ADD16O,1.905000X2.000000*%
%TD*%
%TA.AperFunction,ComponentPad*%
%ADD17R,1.905000X2.000000*%
%TD*%
%TA.AperFunction,ComponentPad*%
%ADD18O,1.600000X1.600000*%
%TD*%
%TA.AperFunction,ComponentPad*%
%ADD19C,1.600000*%
%TD*%
%TA.AperFunction,ComponentPad*%
%ADD20R,1.050000X1.500000*%
%TD*%
%TA.AperFunction,ComponentPad*%
%ADD21O,1.050000X1.500000*%
%TD*%
%TA.AperFunction,ComponentPad*%
%ADD22C,1.200000*%
%TD*%
%TA.AperFunction,ViaPad*%
%ADD23C,0.800000*%
%TD*%
%TA.AperFunction,Conductor*%
%ADD24C,0.508000*%
%TD*%
%TA.AperFunction,Conductor*%
%ADD25C,0.711200*%
%TD*%
%TA.AperFunction,Conductor*%
%ADD26C,0.406400*%
%TD*%
%TA.AperFunction,Conductor*%
%ADD27C,0.381000*%
%TD*%
%TA.AperFunction,Conductor*%
%ADD28C,0.100000*%
%TD*%
G04 APERTURE END LIST*
D10*
%TO.P,D1,2*%
%TO.N,Net-(C1-Pad1)*%
X175768000Y-86400000D03*
%TO.P,D1,1*%
%TO.N,+9V*%
X175768000Y-91400000D03*
%TD*%
D11*
%TO.P,OUT,1*%
%TO.N,Net-(J10-Pad2)*%
X175260000Y-107315000D03*
%TD*%
%TO.P,BME,1*%
%TO.N,BME*%
X175260000Y-104140000D03*
%TD*%
%TO.P,9V,1*%
%TO.N,+9V*%
X175260000Y-96520000D03*
%TD*%
%TO.P,GND,1*%
%TO.N,GND*%
X175260000Y-100330000D03*
%TD*%
D12*
%TO.P,J2,2*%
%TO.N,Net-(J2-Pad2)*%
X188214000Y-117856000D03*
D13*
%TO.P,J2,1*%
%TO.N,Net-(J2-Pad1)*%
X185674000Y-117856000D03*
%TD*%
D14*
%TO.P,REF\u002A\u002A,1*%
%TO.N,N/C*%
X220980000Y-115570000D03*
%TD*%
%TO.P,REF\u002A\u002A,1*%
%TO.N,N/C*%
X178054000Y-115570000D03*
%TD*%
D12*
%TO.P,J3,2*%
%TO.N,Net-(J3-Pad2)*%
X194945000Y-77470000D03*
D13*
%TO.P,J3,1*%
%TO.N,Net-(C1-Pad2)*%
X192405000Y-77470000D03*
%TD*%
D14*
%TO.P,REF\u002A\u002A,1*%
%TO.N,N/C*%
X177927000Y-80137000D03*
%TD*%
%TO.P,REF\u002A\u002A,1*%
%TO.N,N/C*%
X220980000Y-80010000D03*
%TD*%
D15*
%TO.P,U6,P$1*%
%TO.N,Net-(R14-Pad2)*%
X221615000Y-99090000D03*
%TO.P,U6,P$2*%
%TO.N,Net-(J10-Pad1)*%
X221615000Y-96490000D03*
%TD*%
%TO.P,U5,8*%
%TO.N,+9V*%
%TA.AperFunction,SMDPad,CuDef*%
G36*
G01*
X214225000Y-86510000D02*
X214225000Y-86210000D01*
G75*
G02*
X214375000Y-86060000I150000J0D01*
G01*
X216025000Y-86060000D01*
G75*
G02*
X216175000Y-86210000I0J-150000D01*
G01*
X216175000Y-86510000D01*
G75*
G02*
X216025000Y-86660000I-150000J0D01*
G01*
X214375000Y-86660000D01*
G75*
G02*
X214225000Y-86510000I0J150000D01*
G01*
G37*
%TD.AperFunction*%
%TO.P,U5,7*%
%TO.N,Net-(C11-Pad2)*%
%TA.AperFunction,SMDPad,CuDef*%
G36*
G01*
X214225000Y-87780000D02*
X214225000Y-87480000D01*
G75*
G02*
X214375000Y-87330000I150000J0D01*
G01*
X216025000Y-87330000D01*
G75*
G02*
X216175000Y-87480000I0J-150000D01*
G01*
X216175000Y-87780000D01*
G75*
G02*
X216025000Y-87930000I-150000J0D01*
G01*
X214375000Y-87930000D01*
G75*
G02*
X214225000Y-87780000I0J150000D01*
G01*
G37*
%TD.AperFunction*%
%TO.P,U5,6*%
%TA.AperFunction,SMDPad,CuDef*%
G36*
G01*
X214225000Y-89050000D02*
X214225000Y-88750000D01*
G75*
G02*
X214375000Y-88600000I150000J0D01*
G01*
X216025000Y-88600000D01*
G75*
G02*
X216175000Y-88750000I0J-150000D01*
G01*
X216175000Y-89050000D01*
G75*
G02*
X216025000Y-89200000I-150000J0D01*
G01*
X214375000Y-89200000D01*
G75*
G02*
X214225000Y-89050000I0J150000D01*
G01*
G37*
%TD.AperFunction*%
%TO.P,U5,5*%
%TO.N,Net-(C10-Pad1)*%
%TA.AperFunction,SMDPad,CuDef*%
G36*
G01*
X214225000Y-90320000D02*
X214225000Y-90020000D01*
G75*
G02*
X214375000Y-89870000I150000J0D01*
G01*
X216025000Y-89870000D01*
G75*
G02*
X216175000Y-90020000I0J-150000D01*
G01*
X216175000Y-90320000D01*
G75*
G02*
X216025000Y-90470000I-150000J0D01*
G01*
X214375000Y-90470000D01*
G75*
G02*
X214225000Y-90320000I0J150000D01*
G01*
G37*
%TD.AperFunction*%
%TO.P,U5,4*%
%TO.N,Net-(J5-Pad2)*%
%TA.AperFunction,SMDPad,CuDef*%
G36*
G01*
X209275000Y-90320000D02*
X209275000Y-90020000D01*
G75*
G02*
X209425000Y-89870000I150000J0D01*
G01*
X211075000Y-89870000D01*
G75*
G02*
X211225000Y-90020000I0J-150000D01*
G01*
X211225000Y-90320000D01*
G75*
G02*
X211075000Y-90470000I-150000J0D01*
G01*
X209425000Y-90470000D01*
G75*
G02*
X209275000Y-90320000I0J150000D01*
G01*
G37*
%TD.AperFunction*%
%TO.P,U5,3*%
%TO.N,Net-(J8-Pad1)*%
%TA.AperFunction,SMDPad,CuDef*%
G36*
G01*
X209275000Y-89050000D02*
X209275000Y-88750000D01*
G75*
G02*
X209425000Y-88600000I150000J0D01*
G01*
X211075000Y-88600000D01*
G75*
G02*
X211225000Y-88750000I0J-150000D01*
G01*
X211225000Y-89050000D01*
G75*
G02*
X211075000Y-89200000I-150000J0D01*
G01*
X209425000Y-89200000D01*
G75*
G02*
X209275000Y-89050000I0J150000D01*
G01*
G37*
%TD.AperFunction*%
%TO.P,U5,2*%
%TO.N,Net-(C1-Pad1)*%
%TA.AperFunction,SMDPad,CuDef*%
G36*
G01*
X209275000Y-87780000D02*
X209275000Y-87480000D01*
G75*
G02*
X209425000Y-87330000I150000J0D01*
G01*
X211075000Y-87330000D01*
G75*
G02*
X211225000Y-87480000I0J-150000D01*
G01*
X211225000Y-87780000D01*
G75*
G02*
X211075000Y-87930000I-150000J0D01*
G01*
X209425000Y-87930000D01*
G75*
G02*
X209275000Y-87780000I0J150000D01*
G01*
G37*
%TD.AperFunction*%
%TO.P,U5,1*%
%TO.N,GND*%
%TA.AperFunction,SMDPad,CuDef*%
G36*
G01*
X209275000Y-86510000D02*
X209275000Y-86210000D01*
G75*
G02*
X209425000Y-86060000I150000J0D01*
G01*
X211075000Y-86060000D01*
G75*
G02*
X211225000Y-86210000I0J-150000D01*
G01*
X211225000Y-86510000D01*
G75*
G02*
X211075000Y-86660000I-150000J0D01*
G01*
X209425000Y-86660000D01*
G75*
G02*
X209275000Y-86510000I0J150000D01*
G01*
G37*
%TD.AperFunction*%
%TD*%
%TO.P,U4,14*%
%TO.N,N/C*%
%TA.AperFunction,SMDPad,CuDef*%
G36*
G01*
X198096000Y-97178000D02*
X198096000Y-96878000D01*
G75*
G02*
X198246000Y-96728000I150000J0D01*
G01*
X199896000Y-96728000D01*
G75*
G02*
X200046000Y-96878000I0J-150000D01*
G01*
X200046000Y-97178000D01*
G75*
G02*
X199896000Y-97328000I-150000J0D01*
G01*
X198246000Y-97328000D01*
G75*
G02*
X198096000Y-97178000I0J150000D01*
G01*
G37*
%TD.AperFunction*%
%TO.P,U4,13*%
%TA.AperFunction,SMDPad,CuDef*%
G36*
G01*
X198096000Y-98448000D02*
X198096000Y-98148000D01*
G75*
G02*
X198246000Y-97998000I150000J0D01*
G01*
X199896000Y-97998000D01*
G75*
G02*
X200046000Y-98148000I0J-150000D01*
G01*
X200046000Y-98448000D01*
G75*
G02*
X199896000Y-98598000I-150000J0D01*
G01*
X198246000Y-98598000D01*
G75*
G02*
X198096000Y-98448000I0J150000D01*
G01*
G37*
%TD.AperFunction*%
%TO.P,U4,12*%
%TA.AperFunction,SMDPad,CuDef*%
G36*
G01*
X198096000Y-99718000D02*
X198096000Y-99418000D01*
G75*
G02*
X198246000Y-99268000I150000J0D01*
G01*
X199896000Y-99268000D01*
G75*
G02*
X200046000Y-99418000I0J-150000D01*
G01*
X200046000Y-99718000D01*
G75*
G02*
X199896000Y-99868000I-150000J0D01*
G01*
X198246000Y-99868000D01*
G75*
G02*
X198096000Y-99718000I0J150000D01*
G01*
G37*
%TD.AperFunction*%
%TO.P,U4,11*%
%TO.N,GND*%
%TA.AperFunction,SMDPad,CuDef*%
G36*
G01*
X198096000Y-100988000D02*
X198096000Y-100688000D01*
G75*
G02*
X198246000Y-100538000I150000J0D01*
G01*
X199896000Y-100538000D01*
G75*
G02*
X200046000Y-100688000I0J-150000D01*
G01*
X200046000Y-100988000D01*
G75*
G02*
X199896000Y-101138000I-150000J0D01*
G01*
X198246000Y-101138000D01*
G75*
G02*
X198096000Y-100988000I0J150000D01*
G01*
G37*
%TD.AperFunction*%
%TO.P,U4,10*%
%TO.N,N/C*%
%TA.AperFunction,SMDPad,CuDef*%
G36*
G01*
X198096000Y-102258000D02*
X198096000Y-101958000D01*
G75*
G02*
X198246000Y-101808000I150000J0D01*
G01*
X199896000Y-101808000D01*
G75*
G02*
X200046000Y-101958000I0J-150000D01*
G01*
X200046000Y-102258000D01*
G75*
G02*
X199896000Y-102408000I-150000J0D01*
G01*
X198246000Y-102408000D01*
G75*
G02*
X198096000Y-102258000I0J150000D01*
G01*
G37*
%TD.AperFunction*%
%TO.P,U4,9*%
%TA.AperFunction,SMDPad,CuDef*%
G36*
G01*
X198096000Y-103528000D02*
X198096000Y-103228000D01*
G75*
G02*
X198246000Y-103078000I150000J0D01*
G01*
X199896000Y-103078000D01*
G75*
G02*
X200046000Y-103228000I0J-150000D01*
G01*
X200046000Y-103528000D01*
G75*
G02*
X199896000Y-103678000I-150000J0D01*
G01*
X198246000Y-103678000D01*
G75*
G02*
X198096000Y-103528000I0J150000D01*
G01*
G37*
%TD.AperFunction*%
%TO.P,U4,8*%
%TA.AperFunction,SMDPad,CuDef*%
G36*
G01*
X198096000Y-104798000D02*
X198096000Y-104498000D01*
G75*
G02*
X198246000Y-104348000I150000J0D01*
G01*
X199896000Y-104348000D01*
G75*
G02*
X200046000Y-104498000I0J-150000D01*
G01*
X200046000Y-104798000D01*
G75*
G02*
X199896000Y-104948000I-150000J0D01*
G01*
X198246000Y-104948000D01*
G75*
G02*
X198096000Y-104798000I0J150000D01*
G01*
G37*
%TD.AperFunction*%
%TO.P,U4,7*%
%TA.AperFunction,SMDPad,CuDef*%
G36*
G01*
X193146000Y-104798000D02*
X193146000Y-104498000D01*
G75*
G02*
X193296000Y-104348000I150000J0D01*
G01*
X194946000Y-104348000D01*
G75*
G02*
X195096000Y-104498000I0J-150000D01*
G01*
X195096000Y-104798000D01*
G75*
G02*
X194946000Y-104948000I-150000J0D01*
G01*
X193296000Y-104948000D01*
G75*
G02*
X193146000Y-104798000I0J150000D01*
G01*
G37*
%TD.AperFunction*%
%TO.P,U4,6*%
%TA.AperFunction,SMDPad,CuDef*%
G36*
G01*
X193146000Y-103528000D02*
X193146000Y-103228000D01*
G75*
G02*
X193296000Y-103078000I150000J0D01*
G01*
X194946000Y-103078000D01*
G75*
G02*
X195096000Y-103228000I0J-150000D01*
G01*
X195096000Y-103528000D01*
G75*
G02*
X194946000Y-103678000I-150000J0D01*
G01*
X193296000Y-103678000D01*
G75*
G02*
X193146000Y-103528000I0J150000D01*
G01*
G37*
%TD.AperFunction*%
%TO.P,U4,5*%
%TA.AperFunction,SMDPad,CuDef*%
G36*
G01*
X193146000Y-102258000D02*
X193146000Y-101958000D01*
G75*
G02*
X193296000Y-101808000I150000J0D01*
G01*
X194946000Y-101808000D01*
G75*
G02*
X195096000Y-101958000I0J-150000D01*
G01*
X195096000Y-102258000D01*
G75*
G02*
X194946000Y-102408000I-150000J0D01*
G01*
X193296000Y-102408000D01*
G75*
G02*
X193146000Y-102258000I0J150000D01*
G01*
G37*
%TD.AperFunction*%
%TO.P,U4,4*%
%TO.N,+9V*%
%TA.AperFunction,SMDPad,CuDef*%
G36*
G01*
X193146000Y-100988000D02*
X193146000Y-100688000D01*
G75*
G02*
X193296000Y-100538000I150000J0D01*
G01*
X194946000Y-100538000D01*
G75*
G02*
X195096000Y-100688000I0J-150000D01*
G01*
X195096000Y-100988000D01*
G75*
G02*
X194946000Y-101138000I-150000J0D01*
G01*
X193296000Y-101138000D01*
G75*
G02*
X193146000Y-100988000I0J150000D01*
G01*
G37*
%TD.AperFunction*%
%TO.P,U4,3*%
%TO.N,Net-(J4-Pad2)*%
%TA.AperFunction,SMDPad,CuDef*%
G36*
G01*
X193146000Y-99718000D02*
X193146000Y-99418000D01*
G75*
G02*
X193296000Y-99268000I150000J0D01*
G01*
X194946000Y-99268000D01*
G75*
G02*
X195096000Y-99418000I0J-150000D01*
G01*
X195096000Y-99718000D01*
G75*
G02*
X194946000Y-99868000I-150000J0D01*
G01*
X193296000Y-99868000D01*
G75*
G02*
X193146000Y-99718000I0J150000D01*
G01*
G37*
%TD.AperFunction*%
%TO.P,U4,2*%
%TO.N,Net-(C6-Pad1)*%
%TA.AperFunction,SMDPad,CuDef*%
G36*
G01*
X193146000Y-98448000D02*
X193146000Y-98148000D01*
G75*
G02*
X193296000Y-97998000I150000J0D01*
G01*
X194946000Y-97998000D01*
G75*
G02*
X195096000Y-98148000I0J-150000D01*
G01*
X195096000Y-98448000D01*
G75*
G02*
X194946000Y-98598000I-150000J0D01*
G01*
X193296000Y-98598000D01*
G75*
G02*
X193146000Y-98448000I0J150000D01*
G01*
G37*
%TD.AperFunction*%
%TO.P,U4,1*%
%TO.N,Net-(R11-Pad1)*%
%TA.AperFunction,SMDPad,CuDef*%
G36*
G01*
X193146000Y-97178000D02*
X193146000Y-96878000D01*
G75*
G02*
X193296000Y-96728000I150000J0D01*
G01*
X194946000Y-96728000D01*
G75*
G02*
X195096000Y-96878000I0J-150000D01*
G01*
X195096000Y-97178000D01*
G75*
G02*
X194946000Y-97328000I-150000J0D01*
G01*
X193296000Y-97328000D01*
G75*
G02*
X193146000Y-97178000I0J150000D01*
G01*
G37*
%TD.AperFunction*%
%TD*%
%TO.P,U3,8*%
%TO.N,+9V*%
%TA.AperFunction,SMDPad,CuDef*%
G36*
G01*
X195810000Y-82319000D02*
X195810000Y-82019000D01*
G75*
G02*
X195960000Y-81869000I150000J0D01*
G01*
X197610000Y-81869000D01*
G75*
G02*
X197760000Y-82019000I0J-150000D01*
G01*
X197760000Y-82319000D01*
G75*
G02*
X197610000Y-82469000I-150000J0D01*
G01*
X195960000Y-82469000D01*
G75*
G02*
X195810000Y-82319000I0J150000D01*
G01*
G37*
%TD.AperFunction*%
%TO.P,U3,7*%
%TO.N,GND*%
%TA.AperFunction,SMDPad,CuDef*%
G36*
G01*
X195810000Y-83589000D02*
X195810000Y-83289000D01*
G75*
G02*
X195960000Y-83139000I150000J0D01*
G01*
X197610000Y-83139000D01*
G75*
G02*
X197760000Y-83289000I0J-150000D01*
G01*
X197760000Y-83589000D01*
G75*
G02*
X197610000Y-83739000I-150000J0D01*
G01*
X195960000Y-83739000D01*
G75*
G02*
X195810000Y-83589000I0J150000D01*
G01*
G37*
%TD.AperFunction*%
%TO.P,U3,6*%
%TO.N,Net-(C4-Pad1)*%
%TA.AperFunction,SMDPad,CuDef*%
G36*
G01*
X195810000Y-84859000D02*
X195810000Y-84559000D01*
G75*
G02*
X195960000Y-84409000I150000J0D01*
G01*
X197610000Y-84409000D01*
G75*
G02*
X197760000Y-84559000I0J-150000D01*
G01*
X197760000Y-84859000D01*
G75*
G02*
X197610000Y-85009000I-150000J0D01*
G01*
X195960000Y-85009000D01*
G75*
G02*
X195810000Y-84859000I0J150000D01*
G01*
G37*
%TD.AperFunction*%
%TO.P,U3,5*%
%TO.N,Net-(C3-Pad2)*%
%TA.AperFunction,SMDPad,CuDef*%
G36*
G01*
X195810000Y-86129000D02*
X195810000Y-85829000D01*
G75*
G02*
X195960000Y-85679000I150000J0D01*
G01*
X197610000Y-85679000D01*
G75*
G02*
X197760000Y-85829000I0J-150000D01*
G01*
X197760000Y-86129000D01*
G75*
G02*
X197610000Y-86279000I-150000J0D01*
G01*
X195960000Y-86279000D01*
G75*
G02*
X195810000Y-86129000I0J150000D01*
G01*
G37*
%TD.AperFunction*%
%TO.P,U3,4*%
%TO.N,+9V*%
%TA.AperFunction,SMDPad,CuDef*%
G36*
G01*
X190860000Y-86129000D02*
X190860000Y-85829000D01*
G75*
G02*
X191010000Y-85679000I150000J0D01*
G01*
X192660000Y-85679000D01*
G75*
G02*
X192810000Y-85829000I0J-150000D01*
G01*
X192810000Y-86129000D01*
G75*
G02*
X192660000Y-86279000I-150000J0D01*
G01*
X191010000Y-86279000D01*
G75*
G02*
X190860000Y-86129000I0J150000D01*
G01*
G37*
%TD.AperFunction*%
%TO.P,U3,3*%
%TO.N,Net-(C1-Pad2)*%
%TA.AperFunction,SMDPad,CuDef*%
G36*
G01*
X190860000Y-84859000D02*
X190860000Y-84559000D01*
G75*
G02*
X191010000Y-84409000I150000J0D01*
G01*
X192660000Y-84409000D01*
G75*
G02*
X192810000Y-84559000I0J-150000D01*
G01*
X192810000Y-84859000D01*
G75*
G02*
X192660000Y-85009000I-150000J0D01*
G01*
X191010000Y-85009000D01*
G75*
G02*
X190860000Y-84859000I0J150000D01*
G01*
G37*
%TD.AperFunction*%
%TO.P,U3,2*%
%TO.N,Net-(C4-Pad1)*%
%TA.AperFunction,SMDPad,CuDef*%
G36*
G01*
X190860000Y-83589000D02*
X190860000Y-83289000D01*
G75*
G02*
X191010000Y-83139000I150000J0D01*
G01*
X192660000Y-83139000D01*
G75*
G02*
X192810000Y-83289000I0J-150000D01*
G01*
X192810000Y-83589000D01*
G75*
G02*
X192660000Y-83739000I-150000J0D01*
G01*
X191010000Y-83739000D01*
G75*
G02*
X190860000Y-83589000I0J150000D01*
G01*
G37*
%TD.AperFunction*%
%TO.P,U3,1*%
%TO.N,GND*%
%TA.AperFunction,SMDPad,CuDef*%
G36*
G01*
X190860000Y-82319000D02*
X190860000Y-82019000D01*
G75*
G02*
X191010000Y-81869000I150000J0D01*
G01*
X192660000Y-81869000D01*
G75*
G02*
X192810000Y-82019000I0J-150000D01*
G01*
X192810000Y-82319000D01*
G75*
G02*
X192660000Y-82469000I-150000J0D01*
G01*
X191010000Y-82469000D01*
G75*
G02*
X190860000Y-82319000I0J150000D01*
G01*
G37*
%TD.AperFunction*%
%TD*%
%TO.P,U2,8*%
%TO.N,+9V*%
%TA.AperFunction,SMDPad,CuDef*%
G36*
G01*
X198096000Y-108735000D02*
X198096000Y-108435000D01*
G75*
G02*
X198246000Y-108285000I150000J0D01*
G01*
X199896000Y-108285000D01*
G75*
G02*
X200046000Y-108435000I0J-150000D01*
G01*
X200046000Y-108735000D01*
G75*
G02*
X199896000Y-108885000I-150000J0D01*
G01*
X198246000Y-108885000D01*
G75*
G02*
X198096000Y-108735000I0J150000D01*
G01*
G37*
%TD.AperFunction*%
%TO.P,U2,7*%
%TO.N,Net-(U2-Pad7)*%
%TA.AperFunction,SMDPad,CuDef*%
G36*
G01*
X198096000Y-110005000D02*
X198096000Y-109705000D01*
G75*
G02*
X198246000Y-109555000I150000J0D01*
G01*
X199896000Y-109555000D01*
G75*
G02*
X200046000Y-109705000I0J-150000D01*
G01*
X200046000Y-110005000D01*
G75*
G02*
X199896000Y-110155000I-150000J0D01*
G01*
X198246000Y-110155000D01*
G75*
G02*
X198096000Y-110005000I0J150000D01*
G01*
G37*
%TD.AperFunction*%
%TO.P,U2,6*%
%TO.N,Net-(C6-Pad1)*%
%TA.AperFunction,SMDPad,CuDef*%
G36*
G01*
X198096000Y-111275000D02*
X198096000Y-110975000D01*
G75*
G02*
X198246000Y-110825000I150000J0D01*
G01*
X199896000Y-110825000D01*
G75*
G02*
X200046000Y-110975000I0J-150000D01*
G01*
X200046000Y-111275000D01*
G75*
G02*
X199896000Y-111425000I-150000J0D01*
G01*
X198246000Y-111425000D01*
G75*
G02*
X198096000Y-111275000I0J150000D01*
G01*
G37*
%TD.AperFunction*%
%TO.P,U2,5*%
%TO.N,Net-(U2-Pad5)*%
%TA.AperFunction,SMDPad,CuDef*%
G36*
G01*
X198096000Y-112545000D02*
X198096000Y-112245000D01*
G75*
G02*
X198246000Y-112095000I150000J0D01*
G01*
X199896000Y-112095000D01*
G75*
G02*
X200046000Y-112245000I0J-150000D01*
G01*
X200046000Y-112545000D01*
G75*
G02*
X199896000Y-112695000I-150000J0D01*
G01*
X198246000Y-112695000D01*
G75*
G02*
X198096000Y-112545000I0J150000D01*
G01*
G37*
%TD.AperFunction*%
%TO.P,U2,4*%
%TO.N,+9V*%
%TA.AperFunction,SMDPad,CuDef*%
G36*
G01*
X193146000Y-112545000D02*
X193146000Y-112245000D01*
G75*
G02*
X193296000Y-112095000I150000J0D01*
G01*
X194946000Y-112095000D01*
G75*
G02*
X195096000Y-112245000I0J-150000D01*
G01*
X195096000Y-112545000D01*
G75*
G02*
X194946000Y-112695000I-150000J0D01*
G01*
X193296000Y-112695000D01*
G75*
G02*
X193146000Y-112545000I0J150000D01*
G01*
G37*
%TD.AperFunction*%
%TO.P,U2,3*%
%TO.N,Net-(J2-Pad2)*%
%TA.AperFunction,SMDPad,CuDef*%
G36*
G01*
X193146000Y-111275000D02*
X193146000Y-110975000D01*
G75*
G02*
X193296000Y-110825000I150000J0D01*
G01*
X194946000Y-110825000D01*
G75*
G02*
X195096000Y-110975000I0J-150000D01*
G01*
X195096000Y-111275000D01*
G75*
G02*
X194946000Y-111425000I-150000J0D01*
G01*
X193296000Y-111425000D01*
G75*
G02*
X193146000Y-111275000I0J150000D01*
G01*
G37*
%TD.AperFunction*%
%TO.P,U2,2*%
%TO.N,Net-(C6-Pad1)*%
%TA.AperFunction,SMDPad,CuDef*%
G36*
G01*
X193146000Y-110005000D02*
X193146000Y-109705000D01*
G75*
G02*
X193296000Y-109555000I150000J0D01*
G01*
X194946000Y-109555000D01*
G75*
G02*
X195096000Y-109705000I0J-150000D01*
G01*
X195096000Y-110005000D01*
G75*
G02*
X194946000Y-110155000I-150000J0D01*
G01*
X193296000Y-110155000D01*
G75*
G02*
X193146000Y-110005000I0J150000D01*
G01*
G37*
%TD.AperFunction*%
%TO.P,U2,1*%
%TO.N,GND*%
%TA.AperFunction,SMDPad,CuDef*%
G36*
G01*
X193146000Y-108735000D02*
X193146000Y-108435000D01*
G75*
G02*
X193296000Y-108285000I150000J0D01*
G01*
X194946000Y-108285000D01*
G75*
G02*
X195096000Y-108435000I0J-150000D01*
G01*
X195096000Y-108735000D01*
G75*
G02*
X194946000Y-108885000I-150000J0D01*
G01*
X193296000Y-108885000D01*
G75*
G02*
X193146000Y-108735000I0J150000D01*
G01*
G37*
%TD.AperFunction*%
%TD*%
D16*
%TO.P,U1,3*%
%TO.N,+9V*%
X195072000Y-116332000D03*
%TO.P,U1,2*%
%TO.N,GND*%
X197612000Y-116332000D03*
D17*
%TO.P,U1,1*%
%TO.N,Net-(J1-Pad1)*%
X200152000Y-116332000D03*
%TD*%
%TO.P,R15,2*%
%TO.N,BME*%
%TA.AperFunction,SMDPad,CuDef*%
G36*
G01*
X196488000Y-91636001D02*
X196488000Y-90735999D01*
G75*
G02*
X196737999Y-90486000I249999J0D01*
G01*
X197438001Y-90486000D01*
G75*
G02*
X197688000Y-90735999I0J-249999D01*
G01*
X197688000Y-91636001D01*
G75*
G02*
X197438001Y-91886000I-249999J0D01*
G01*
X196737999Y-91886000D01*
G75*
G02*
X196488000Y-91636001I0J249999D01*
G01*
G37*
%TD.AperFunction*%
%TO.P,R15,1*%
%TO.N,Net-(Q2-Pad3)*%
%TA.AperFunction,SMDPad,CuDef*%
G36*
G01*
X194488000Y-91636001D02*
X194488000Y-90735999D01*
G75*
G02*
X194737999Y-90486000I249999J0D01*
G01*
X195438001Y-90486000D01*
G75*
G02*
X195688000Y-90735999I0J-249999D01*
G01*
X195688000Y-91636001D01*
G75*
G02*
X195438001Y-91886000I-249999J0D01*
G01*
X194737999Y-91886000D01*
G75*
G02*
X194488000Y-91636001I0J249999D01*
G01*
G37*
%TD.AperFunction*%
%TD*%
D18*
%TO.P,R14,2*%
%TO.N,Net-(R14-Pad2)*%
X221615000Y-104140000D03*
D19*
%TO.P,R14,1*%
%TO.N,GND*%
X211455000Y-104140000D03*
%TD*%
%TO.P,R13,2*%
%TO.N,Net-(Q2-Pad3)*%
%TA.AperFunction,SMDPad,CuDef*%
G36*
G01*
X183804000Y-95192001D02*
X183804000Y-94291999D01*
G75*
G02*
X184053999Y-94042000I249999J0D01*
G01*
X184754001Y-94042000D01*
G75*
G02*
X185004000Y-94291999I0J-249999D01*
G01*
X185004000Y-95192001D01*
G75*
G02*
X184754001Y-95442000I-249999J0D01*
G01*
X184053999Y-95442000D01*
G75*
G02*
X183804000Y-95192001I0J249999D01*
G01*
G37*
%TD.AperFunction*%
%TO.P,R13,1*%
%TO.N,GND*%
%TA.AperFunction,SMDPad,CuDef*%
G36*
G01*
X181804000Y-95192001D02*
X181804000Y-94291999D01*
G75*
G02*
X182053999Y-94042000I249999J0D01*
G01*
X182754001Y-94042000D01*
G75*
G02*
X183004000Y-94291999I0J-249999D01*
G01*
X183004000Y-95192001D01*
G75*
G02*
X182754001Y-95442000I-249999J0D01*
G01*
X182053999Y-95442000D01*
G75*
G02*
X181804000Y-95192001I0J249999D01*
G01*
G37*
%TD.AperFunction*%
%TD*%
%TO.P,R12,2*%
%TO.N,+9V*%
%TA.AperFunction,SMDPad,CuDef*%
G36*
G01*
X205086000Y-89719999D02*
X205086000Y-90620001D01*
G75*
G02*
X204836001Y-90870000I-249999J0D01*
G01*
X204135999Y-90870000D01*
G75*
G02*
X203886000Y-90620001I0J249999D01*
G01*
X203886000Y-89719999D01*
G75*
G02*
X204135999Y-89470000I249999J0D01*
G01*
X204836001Y-89470000D01*
G75*
G02*
X205086000Y-89719999I0J-249999D01*
G01*
G37*
%TD.AperFunction*%
%TO.P,R12,1*%
%TO.N,Net-(J5-Pad2)*%
%TA.AperFunction,SMDPad,CuDef*%
G36*
G01*
X207086000Y-89719999D02*
X207086000Y-90620001D01*
G75*
G02*
X206836001Y-90870000I-249999J0D01*
G01*
X206135999Y-90870000D01*
G75*
G02*
X205886000Y-90620001I0J249999D01*
G01*
X205886000Y-89719999D01*
G75*
G02*
X206135999Y-89470000I249999J0D01*
G01*
X206836001Y-89470000D01*
G75*
G02*
X207086000Y-89719999I0J-249999D01*
G01*
G37*
%TD.AperFunction*%
%TD*%
%TO.P,R11,2*%
%TO.N,Net-(Q1-Pad2)*%
%TA.AperFunction,SMDPad,CuDef*%
G36*
G01*
X195688000Y-93021999D02*
X195688000Y-93922001D01*
G75*
G02*
X195438001Y-94172000I-249999J0D01*
G01*
X194737999Y-94172000D01*
G75*
G02*
X194488000Y-93922001I0J249999D01*
G01*
X194488000Y-93021999D01*
G75*
G02*
X194737999Y-92772000I249999J0D01*
G01*
X195438001Y-92772000D01*
G75*
G02*
X195688000Y-93021999I0J-249999D01*
G01*
G37*
%TD.AperFunction*%
%TO.P,R11,1*%
%TO.N,Net-(R11-Pad1)*%
%TA.AperFunction,SMDPad,CuDef*%
G36*
G01*
X197688000Y-93021999D02*
X197688000Y-93922001D01*
G75*
G02*
X197438001Y-94172000I-249999J0D01*
G01*
X196737999Y-94172000D01*
G75*
G02*
X196488000Y-93922001I0J249999D01*
G01*
X196488000Y-93021999D01*
G75*
G02*
X196737999Y-92772000I249999J0D01*
G01*
X197438001Y-92772000D01*
G75*
G02*
X197688000Y-93021999I0J-249999D01*
G01*
G37*
%TD.AperFunction*%
%TD*%
%TO.P,R10,2*%
%TO.N,GND*%
%TA.AperFunction,SMDPad,CuDef*%
G36*
G01*
X205102000Y-86163999D02*
X205102000Y-87064001D01*
G75*
G02*
X204852001Y-87314000I-249999J0D01*
G01*
X204151999Y-87314000D01*
G75*
G02*
X203902000Y-87064001I0J249999D01*
G01*
X203902000Y-86163999D01*
G75*
G02*
X204151999Y-85914000I249999J0D01*
G01*
X204852001Y-85914000D01*
G75*
G02*
X205102000Y-86163999I0J-249999D01*
G01*
G37*
%TD.AperFunction*%
%TO.P,R10,1*%
%TO.N,Net-(J6-Pad1)*%
%TA.AperFunction,SMDPad,CuDef*%
G36*
G01*
X207102000Y-86163999D02*
X207102000Y-87064001D01*
G75*
G02*
X206852001Y-87314000I-249999J0D01*
G01*
X206151999Y-87314000D01*
G75*
G02*
X205902000Y-87064001I0J249999D01*
G01*
X205902000Y-86163999D01*
G75*
G02*
X206151999Y-85914000I249999J0D01*
G01*
X206852001Y-85914000D01*
G75*
G02*
X207102000Y-86163999I0J-249999D01*
G01*
G37*
%TD.AperFunction*%
%TD*%
%TO.P,R9,2*%
%TO.N,Net-(R7-Pad2)*%
%TA.AperFunction,SMDPad,CuDef*%
G36*
G01*
X183804000Y-103066001D02*
X183804000Y-102165999D01*
G75*
G02*
X184053999Y-101916000I249999J0D01*
G01*
X184754001Y-101916000D01*
G75*
G02*
X185004000Y-102165999I0J-249999D01*
G01*
X185004000Y-103066001D01*
G75*
G02*
X184754001Y-103316000I-249999J0D01*
G01*
X184053999Y-103316000D01*
G75*
G02*
X183804000Y-103066001I0J249999D01*
G01*
G37*
%TD.AperFunction*%
%TO.P,R9,1*%
%TO.N,GND*%
%TA.AperFunction,SMDPad,CuDef*%
G36*
G01*
X181804000Y-103066001D02*
X181804000Y-102165999D01*
G75*
G02*
X182053999Y-101916000I249999J0D01*
G01*
X182754001Y-101916000D01*
G75*
G02*
X183004000Y-102165999I0J-249999D01*
G01*
X183004000Y-103066001D01*
G75*
G02*
X182754001Y-103316000I-249999J0D01*
G01*
X182053999Y-103316000D01*
G75*
G02*
X181804000Y-103066001I0J249999D01*
G01*
G37*
%TD.AperFunction*%
%TD*%
%TO.P,R8,2*%
%TO.N,GND*%
%TA.AperFunction,SMDPad,CuDef*%
G36*
G01*
X182972000Y-109531999D02*
X182972000Y-110432001D01*
G75*
G02*
X182722001Y-110682000I-249999J0D01*
G01*
X182021999Y-110682000D01*
G75*
G02*
X181772000Y-110432001I0J249999D01*
G01*
X181772000Y-109531999D01*
G75*
G02*
X182021999Y-109282000I249999J0D01*
G01*
X182722001Y-109282000D01*
G75*
G02*
X182972000Y-109531999I0J-249999D01*
G01*
G37*
%TD.AperFunction*%
%TO.P,R8,1*%
%TO.N,Net-(R6-Pad1)*%
%TA.AperFunction,SMDPad,CuDef*%
G36*
G01*
X184972000Y-109531999D02*
X184972000Y-110432001D01*
G75*
G02*
X184722001Y-110682000I-249999J0D01*
G01*
X184021999Y-110682000D01*
G75*
G02*
X183772000Y-110432001I0J249999D01*
G01*
X183772000Y-109531999D01*
G75*
G02*
X184021999Y-109282000I249999J0D01*
G01*
X184722001Y-109282000D01*
G75*
G02*
X184972000Y-109531999I0J-249999D01*
G01*
G37*
%TD.AperFunction*%
%TD*%
%TO.P,R7,2*%
%TO.N,Net-(R7-Pad2)*%
%TA.AperFunction,SMDPad,CuDef*%
G36*
G01*
X183788000Y-100526001D02*
X183788000Y-99625999D01*
G75*
G02*
X184037999Y-99376000I249999J0D01*
G01*
X184738001Y-99376000D01*
G75*
G02*
X184988000Y-99625999I0J-249999D01*
G01*
X184988000Y-100526001D01*
G75*
G02*
X184738001Y-100776000I-249999J0D01*
G01*
X184037999Y-100776000D01*
G75*
G02*
X183788000Y-100526001I0J249999D01*
G01*
G37*
%TD.AperFunction*%
%TO.P,R7,1*%
%TO.N,Net-(J4-Pad1)*%
%TA.AperFunction,SMDPad,CuDef*%
G36*
G01*
X181788000Y-100526001D02*
X181788000Y-99625999D01*
G75*
G02*
X182037999Y-99376000I249999J0D01*
G01*
X182738001Y-99376000D01*
G75*
G02*
X182988000Y-99625999I0J-249999D01*
G01*
X182988000Y-100526001D01*
G75*
G02*
X182738001Y-100776000I-249999J0D01*
G01*
X182037999Y-100776000D01*
G75*
G02*
X181788000Y-100526001I0J249999D01*
G01*
G37*
%TD.AperFunction*%
%TD*%
%TO.P,R6,2*%
%TO.N,Net-(J4-Pad3)*%
%TA.AperFunction,SMDPad,CuDef*%
G36*
G01*
X182972000Y-106991999D02*
X182972000Y-107892001D01*
G75*
G02*
X182722001Y-108142000I-249999J0D01*
G01*
X182021999Y-108142000D01*
G75*
G02*
X181772000Y-107892001I0J249999D01*
G01*
X181772000Y-106991999D01*
G75*
G02*
X182021999Y-106742000I249999J0D01*
G01*
X182722001Y-106742000D01*
G75*
G02*
X182972000Y-106991999I0J-249999D01*
G01*
G37*
%TD.AperFunction*%
%TO.P,R6,1*%
%TO.N,Net-(R6-Pad1)*%
%TA.AperFunction,SMDPad,CuDef*%
G36*
G01*
X184972000Y-106991999D02*
X184972000Y-107892001D01*
G75*
G02*
X184722001Y-108142000I-249999J0D01*
G01*
X184021999Y-108142000D01*
G75*
G02*
X183772000Y-107892001I0J249999D01*
G01*
X183772000Y-106991999D01*
G75*
G02*
X184021999Y-106742000I249999J0D01*
G01*
X184722001Y-106742000D01*
G75*
G02*
X184972000Y-106991999I0J-249999D01*
G01*
G37*
%TD.AperFunction*%
%TD*%
%TO.P,R5,2*%
%TO.N,+9V*%
%TA.AperFunction,SMDPad,CuDef*%
G36*
G01*
X183788000Y-97986001D02*
X183788000Y-97085999D01*
G75*
G02*
X184037999Y-96836000I249999J0D01*
G01*
X184738001Y-96836000D01*
G75*
G02*
X184988000Y-97085999I0J-249999D01*
G01*
X184988000Y-97986001D01*
G75*
G02*
X184738001Y-98236000I-249999J0D01*
G01*
X184037999Y-98236000D01*
G75*
G02*
X183788000Y-97986001I0J249999D01*
G01*
G37*
%TD.AperFunction*%
%TO.P,R5,1*%
%TO.N,Net-(J4-Pad1)*%
%TA.AperFunction,SMDPad,CuDef*%
G36*
G01*
X181788000Y-97986001D02*
X181788000Y-97085999D01*
G75*
G02*
X182037999Y-96836000I249999J0D01*
G01*
X182738001Y-96836000D01*
G75*
G02*
X182988000Y-97085999I0J-249999D01*
G01*
X182988000Y-97986001D01*
G75*
G02*
X182738001Y-98236000I-249999J0D01*
G01*
X182037999Y-98236000D01*
G75*
G02*
X181788000Y-97986001I0J249999D01*
G01*
G37*
%TD.AperFunction*%
%TD*%
%TO.P,R4,2*%
%TO.N,Net-(J4-Pad3)*%
%TA.AperFunction,SMDPad,CuDef*%
G36*
G01*
X182988000Y-104705999D02*
X182988000Y-105606001D01*
G75*
G02*
X182738001Y-105856000I-249999J0D01*
G01*
X182037999Y-105856000D01*
G75*
G02*
X181788000Y-105606001I0J249999D01*
G01*
X181788000Y-104705999D01*
G75*
G02*
X182037999Y-104456000I249999J0D01*
G01*
X182738001Y-104456000D01*
G75*
G02*
X182988000Y-104705999I0J-249999D01*
G01*
G37*
%TD.AperFunction*%
%TO.P,R4,1*%
%TO.N,+9V*%
%TA.AperFunction,SMDPad,CuDef*%
G36*
G01*
X184988000Y-104705999D02*
X184988000Y-105606001D01*
G75*
G02*
X184738001Y-105856000I-249999J0D01*
G01*
X184037999Y-105856000D01*
G75*
G02*
X183788000Y-105606001I0J249999D01*
G01*
X183788000Y-104705999D01*
G75*
G02*
X184037999Y-104456000I249999J0D01*
G01*
X184738001Y-104456000D01*
G75*
G02*
X184988000Y-104705999I0J-249999D01*
G01*
G37*
%TD.AperFunction*%
%TD*%
%TO.P,R3,2*%
%TO.N,Net-(C4-Pad1)*%
%TA.AperFunction,SMDPad,CuDef*%
G36*
G01*
X186836000Y-83762001D02*
X186836000Y-82861999D01*
G75*
G02*
X187085999Y-82612000I249999J0D01*
G01*
X187786001Y-82612000D01*
G75*
G02*
X188036000Y-82861999I0J-249999D01*
G01*
X188036000Y-83762001D01*
G75*
G02*
X187786001Y-84012000I-249999J0D01*
G01*
X187085999Y-84012000D01*
G75*
G02*
X186836000Y-83762001I0J249999D01*
G01*
G37*
%TD.AperFunction*%
%TO.P,R3,1*%
%TO.N,Net-(J3-Pad2)*%
%TA.AperFunction,SMDPad,CuDef*%
G36*
G01*
X184836000Y-83762001D02*
X184836000Y-82861999D01*
G75*
G02*
X185085999Y-82612000I249999J0D01*
G01*
X185786001Y-82612000D01*
G75*
G02*
X186036000Y-82861999I0J-249999D01*
G01*
X186036000Y-83762001D01*
G75*
G02*
X185786001Y-84012000I-249999J0D01*
G01*
X185085999Y-84012000D01*
G75*
G02*
X184836000Y-83762001I0J249999D01*
G01*
G37*
%TD.AperFunction*%
%TD*%
%TO.P,R2,2*%
%TO.N,Net-(C1-Pad1)*%
%TA.AperFunction,SMDPad,CuDef*%
G36*
G01*
X186852000Y-80714001D02*
X186852000Y-79813999D01*
G75*
G02*
X187101999Y-79564000I249999J0D01*
G01*
X187802001Y-79564000D01*
G75*
G02*
X188052000Y-79813999I0J-249999D01*
G01*
X188052000Y-80714001D01*
G75*
G02*
X187802001Y-80964000I-249999J0D01*
G01*
X187101999Y-80964000D01*
G75*
G02*
X186852000Y-80714001I0J249999D01*
G01*
G37*
%TD.AperFunction*%
%TO.P,R2,1*%
%TO.N,+9V*%
%TA.AperFunction,SMDPad,CuDef*%
G36*
G01*
X184852000Y-80714001D02*
X184852000Y-79813999D01*
G75*
G02*
X185101999Y-79564000I249999J0D01*
G01*
X185802001Y-79564000D01*
G75*
G02*
X186052000Y-79813999I0J-249999D01*
G01*
X186052000Y-80714001D01*
G75*
G02*
X185802001Y-80964000I-249999J0D01*
G01*
X185101999Y-80964000D01*
G75*
G02*
X184852000Y-80714001I0J249999D01*
G01*
G37*
%TD.AperFunction*%
%TD*%
%TO.P,R1,2*%
%TO.N,Net-(J2-Pad1)*%
%TA.AperFunction,SMDPad,CuDef*%
G36*
G01*
X186290000Y-113849999D02*
X186290000Y-114750001D01*
G75*
G02*
X186040001Y-115000000I-249999J0D01*
G01*
X185339999Y-115000000D01*
G75*
G02*
X185090000Y-114750001I0J249999D01*
G01*
X185090000Y-113849999D01*
G75*
G02*
X185339999Y-113600000I249999J0D01*
G01*
X186040001Y-113600000D01*
G75*
G02*
X186290000Y-113849999I0J-249999D01*
G01*
G37*
%TD.AperFunction*%
%TO.P,R1,1*%
%TO.N,Net-(C6-Pad1)*%
%TA.AperFunction,SMDPad,CuDef*%
G36*
G01*
X188290000Y-113849999D02*
X188290000Y-114750001D01*
G75*
G02*
X188040001Y-115000000I-249999J0D01*
G01*
X187339999Y-115000000D01*
G75*
G02*
X187090000Y-114750001I0J249999D01*
G01*
X187090000Y-113849999D01*
G75*
G02*
X187339999Y-113600000I249999J0D01*
G01*
X188040001Y-113600000D01*
G75*
G02*
X188290000Y-113849999I0J-249999D01*
G01*
G37*
%TD.AperFunction*%
%TD*%
D20*
%TO.P,Q2,1*%
%TO.N,+9V*%
X185928000Y-89916000D03*
D21*
%TO.P,Q2,3*%
%TO.N,Net-(Q2-Pad3)*%
X188468000Y-89916000D03*
%TO.P,Q2,2*%
%TO.N,Net-(Q1-Pad3)*%
X187198000Y-89916000D03*
%TD*%
D20*
%TO.P,Q1,1*%
%TO.N,+9V*%
X179832000Y-89916000D03*
D21*
%TO.P,Q1,3*%
%TO.N,Net-(Q1-Pad3)*%
X182372000Y-89916000D03*
%TO.P,Q1,2*%
%TO.N,Net-(Q1-Pad2)*%
X181102000Y-89916000D03*
%TD*%
D12*
%TO.P,J10,2*%
%TO.N,Net-(J10-Pad2)*%
X207645000Y-101600000D03*
D13*
%TO.P,J10,1*%
%TO.N,Net-(J10-Pad1)*%
X205105000Y-101600000D03*
%TD*%
D12*
%TO.P,J8,3*%
%TO.N,BME*%
X210058000Y-96012000D03*
%TO.P,J8,2*%
%TO.N,Net-(J10-Pad2)*%
X207518000Y-96012000D03*
D13*
%TO.P,J8,1*%
%TO.N,Net-(J8-Pad1)*%
X204978000Y-96012000D03*
%TD*%
D12*
%TO.P,J7,2*%
%TO.N,Net-(J10-Pad1)*%
X205105000Y-105410000D03*
D13*
%TO.P,J7,1*%
%TO.N,Net-(J10-Pad2)*%
X207645000Y-105410000D03*
%TD*%
D12*
%TO.P,J6,2*%
%TO.N,Net-(J5-Pad2)*%
X212090000Y-81280000D03*
D13*
%TO.P,J6,1*%
%TO.N,Net-(J6-Pad1)*%
X209550000Y-81280000D03*
%TD*%
D12*
%TO.P,J5,2*%
%TO.N,Net-(J5-Pad2)*%
X212090000Y-77470000D03*
D13*
%TO.P,J5,1*%
%TO.N,BME*%
X209550000Y-77470000D03*
%TD*%
D12*
%TO.P,J4,3*%
%TO.N,Net-(J4-Pad3)*%
X190246000Y-103124000D03*
%TO.P,J4,2*%
%TO.N,Net-(J4-Pad2)*%
X190246000Y-100584000D03*
D13*
%TO.P,J4,1*%
%TO.N,Net-(J4-Pad1)*%
X190246000Y-98044000D03*
%TD*%
D12*
%TO.P,J1,2*%
%TO.N,GND*%
X220980000Y-108966000D03*
D13*
%TO.P,J1,1*%
%TO.N,Net-(J1-Pad1)*%
X218440000Y-108966000D03*
%TD*%
%TO.P,C11,2*%
%TO.N,Net-(C11-Pad2)*%
%TA.AperFunction,SMDPad,CuDef*%
G36*
G01*
X221800000Y-88425000D02*
X221800000Y-89375000D01*
G75*
G02*
X221550000Y-89625000I-250000J0D01*
G01*
X220875000Y-89625000D01*
G75*
G02*
X220625000Y-89375000I0J250000D01*
G01*
X220625000Y-88425000D01*
G75*
G02*
X220875000Y-88175000I250000J0D01*
G01*
X221550000Y-88175000D01*
G75*
G02*
X221800000Y-88425000I0J-250000D01*
G01*
G37*
%TD.AperFunction*%
%TO.P,C11,1*%
%TO.N,GND*%
%TA.AperFunction,SMDPad,CuDef*%
G36*
G01*
X223875000Y-88425000D02*
X223875000Y-89375000D01*
G75*
G02*
X223625000Y-89625000I-250000J0D01*
G01*
X222950000Y-89625000D01*
G75*
G02*
X222700000Y-89375000I0J250000D01*
G01*
X222700000Y-88425000D01*
G75*
G02*
X222950000Y-88175000I250000J0D01*
G01*
X223625000Y-88175000D01*
G75*
G02*
X223875000Y-88425000I0J-250000D01*
G01*
G37*
%TD.AperFunction*%
%TD*%
%TO.P,C10,2*%
%TO.N,GND*%
%TA.AperFunction,SMDPad,CuDef*%
G36*
G01*
X222700000Y-91915000D02*
X222700000Y-90965000D01*
G75*
G02*
X222950000Y-90715000I250000J0D01*
G01*
X223625000Y-90715000D01*
G75*
G02*
X223875000Y-90965000I0J-250000D01*
G01*
X223875000Y-91915000D01*
G75*
G02*
X223625000Y-92165000I-250000J0D01*
G01*
X222950000Y-92165000D01*
G75*
G02*
X222700000Y-91915000I0J250000D01*
G01*
G37*
%TD.AperFunction*%
%TO.P,C10,1*%
%TO.N,Net-(C10-Pad1)*%
%TA.AperFunction,SMDPad,CuDef*%
G36*
G01*
X220625000Y-91915000D02*
X220625000Y-90965000D01*
G75*
G02*
X220875000Y-90715000I250000J0D01*
G01*
X221550000Y-90715000D01*
G75*
G02*
X221800000Y-90965000I0J-250000D01*
G01*
X221800000Y-91915000D01*
G75*
G02*
X221550000Y-92165000I-250000J0D01*
G01*
X220875000Y-92165000D01*
G75*
G02*
X220625000Y-91915000I0J250000D01*
G01*
G37*
%TD.AperFunction*%
%TD*%
D19*
%TO.P,C9,2*%
%TO.N,GND*%
X211272000Y-115824000D03*
%TO.P,C9,1*%
%TO.N,+9V*%
X207772000Y-115824000D03*
%TD*%
%TO.P,C8,2*%
%TO.N,GND*%
%TA.AperFunction,SMDPad,CuDef*%
G36*
G01*
X203163500Y-109187000D02*
X203163500Y-108237000D01*
G75*
G02*
X203413500Y-107987000I250000J0D01*
G01*
X204088500Y-107987000D01*
G75*
G02*
X204338500Y-108237000I0J-250000D01*
G01*
X204338500Y-109187000D01*
G75*
G02*
X204088500Y-109437000I-250000J0D01*
G01*
X203413500Y-109437000D01*
G75*
G02*
X203163500Y-109187000I0J250000D01*
G01*
G37*
%TD.AperFunction*%
%TO.P,C8,1*%
%TO.N,+9V*%
%TA.AperFunction,SMDPad,CuDef*%
G36*
G01*
X201088500Y-109187000D02*
X201088500Y-108237000D01*
G75*
G02*
X201338500Y-107987000I250000J0D01*
G01*
X202013500Y-107987000D01*
G75*
G02*
X202263500Y-108237000I0J-250000D01*
G01*
X202263500Y-109187000D01*
G75*
G02*
X202013500Y-109437000I-250000J0D01*
G01*
X201338500Y-109437000D01*
G75*
G02*
X201088500Y-109187000I0J250000D01*
G01*
G37*
%TD.AperFunction*%
%TD*%
%TO.P,C7,2*%
%TO.N,GND*%
%TA.AperFunction,SMDPad,CuDef*%
G36*
G01*
X201342500Y-92931000D02*
X201342500Y-91981000D01*
G75*
G02*
X201592500Y-91731000I250000J0D01*
G01*
X202267500Y-91731000D01*
G75*
G02*
X202517500Y-91981000I0J-250000D01*
G01*
X202517500Y-92931000D01*
G75*
G02*
X202267500Y-93181000I-250000J0D01*
G01*
X201592500Y-93181000D01*
G75*
G02*
X201342500Y-92931000I0J250000D01*
G01*
G37*
%TD.AperFunction*%
%TO.P,C7,1*%
%TO.N,+9V*%
%TA.AperFunction,SMDPad,CuDef*%
G36*
G01*
X199267500Y-92931000D02*
X199267500Y-91981000D01*
G75*
G02*
X199517500Y-91731000I250000J0D01*
G01*
X200192500Y-91731000D01*
G75*
G02*
X200442500Y-91981000I0J-250000D01*
G01*
X200442500Y-92931000D01*
G75*
G02*
X200192500Y-93181000I-250000J0D01*
G01*
X199517500Y-93181000D01*
G75*
G02*
X199267500Y-92931000I0J250000D01*
G01*
G37*
%TD.AperFunction*%
%TD*%
D22*
%TO.P,C6,2*%
%TO.N,GND*%
X189738000Y-108482000D03*
%TO.P,C6,1*%
%TO.N,Net-(C6-Pad1)*%
X189738000Y-109982000D03*
%TD*%
%TO.P,C5,2*%
%TO.N,GND*%
%TA.AperFunction,SMDPad,CuDef*%
G36*
G01*
X201364000Y-89375000D02*
X201364000Y-88425000D01*
G75*
G02*
X201614000Y-88175000I250000J0D01*
G01*
X202289000Y-88175000D01*
G75*
G02*
X202539000Y-88425000I0J-250000D01*
G01*
X202539000Y-89375000D01*
G75*
G02*
X202289000Y-89625000I-250000J0D01*
G01*
X201614000Y-89625000D01*
G75*
G02*
X201364000Y-89375000I0J250000D01*
G01*
G37*
%TD.AperFunction*%
%TO.P,C5,1*%
%TO.N,+9V*%
%TA.AperFunction,SMDPad,CuDef*%
G36*
G01*
X199289000Y-89375000D02*
X199289000Y-88425000D01*
G75*
G02*
X199539000Y-88175000I250000J0D01*
G01*
X200214000Y-88175000D01*
G75*
G02*
X200464000Y-88425000I0J-250000D01*
G01*
X200464000Y-89375000D01*
G75*
G02*
X200214000Y-89625000I-250000J0D01*
G01*
X199539000Y-89625000D01*
G75*
G02*
X199289000Y-89375000I0J250000D01*
G01*
G37*
%TD.AperFunction*%
%TD*%
%TO.P,C4,2*%
%TO.N,GND*%
X202414000Y-82804000D03*
%TO.P,C4,1*%
%TO.N,Net-(C4-Pad1)*%
X200914000Y-82804000D03*
%TD*%
%TO.P,C3,2*%
%TO.N,Net-(C3-Pad2)*%
%TA.AperFunction,SMDPad,CuDef*%
G36*
G01*
X196538000Y-89375000D02*
X196538000Y-88425000D01*
G75*
G02*
X196788000Y-88175000I250000J0D01*
G01*
X197463000Y-88175000D01*
G75*
G02*
X197713000Y-88425000I0J-250000D01*
G01*
X197713000Y-89375000D01*
G75*
G02*
X197463000Y-89625000I-250000J0D01*
G01*
X196788000Y-89625000D01*
G75*
G02*
X196538000Y-89375000I0J250000D01*
G01*
G37*
%TD.AperFunction*%
%TO.P,C3,1*%
%TO.N,GND*%
%TA.AperFunction,SMDPad,CuDef*%
G36*
G01*
X194463000Y-89375000D02*
X194463000Y-88425000D01*
G75*
G02*
X194713000Y-88175000I250000J0D01*
G01*
X195388000Y-88175000D01*
G75*
G02*
X195638000Y-88425000I0J-250000D01*
G01*
X195638000Y-89375000D01*
G75*
G02*
X195388000Y-89625000I-250000J0D01*
G01*
X194713000Y-89625000D01*
G75*
G02*
X194463000Y-89375000I0J250000D01*
G01*
G37*
%TD.AperFunction*%
%TD*%
%TO.P,C2,2*%
%TO.N,GND*%
%TA.AperFunction,SMDPad,CuDef*%
G36*
G01*
X222700000Y-86835000D02*
X222700000Y-85885000D01*
G75*
G02*
X222950000Y-85635000I250000J0D01*
G01*
X223625000Y-85635000D01*
G75*
G02*
X223875000Y-85885000I0J-250000D01*
G01*
X223875000Y-86835000D01*
G75*
G02*
X223625000Y-87085000I-250000J0D01*
G01*
X222950000Y-87085000D01*
G75*
G02*
X222700000Y-86835000I0J250000D01*
G01*
G37*
%TD.AperFunction*%
%TO.P,C2,1*%
%TO.N,+9V*%
%TA.AperFunction,SMDPad,CuDef*%
G36*
G01*
X220625000Y-86835000D02*
X220625000Y-85885000D01*
G75*
G02*
X220875000Y-85635000I250000J0D01*
G01*
X221550000Y-85635000D01*
G75*
G02*
X221800000Y-85885000I0J-250000D01*
G01*
X221800000Y-86835000D01*
G75*
G02*
X221550000Y-87085000I-250000J0D01*
G01*
X220875000Y-87085000D01*
G75*
G02*
X220625000Y-86835000I0J250000D01*
G01*
G37*
%TD.AperFunction*%
%TD*%
%TO.P,C1,2*%
%TO.N,Net-(C1-Pad2)*%
%TA.AperFunction,SMDPad,CuDef*%
G36*
G01*
X186886000Y-77945000D02*
X186886000Y-76995000D01*
G75*
G02*
X187136000Y-76745000I250000J0D01*
G01*
X187811000Y-76745000D01*
G75*
G02*
X188061000Y-76995000I0J-250000D01*
G01*
X188061000Y-77945000D01*
G75*
G02*
X187811000Y-78195000I-250000J0D01*
G01*
X187136000Y-78195000D01*
G75*
G02*
X186886000Y-77945000I0J250000D01*
G01*
G37*
%TD.AperFunction*%
%TO.P,C1,1*%
%TO.N,Net-(C1-Pad1)*%
%TA.AperFunction,SMDPad,CuDef*%
G36*
G01*
X184811000Y-77945000D02*
X184811000Y-76995000D01*
G75*
G02*
X185061000Y-76745000I250000J0D01*
G01*
X185736000Y-76745000D01*
G75*
G02*
X185986000Y-76995000I0J-250000D01*
G01*
X185986000Y-77945000D01*
G75*
G02*
X185736000Y-78195000I-250000J0D01*
G01*
X185061000Y-78195000D01*
G75*
G02*
X184811000Y-77945000I0J250000D01*
G01*
G37*
%TD.AperFunction*%
%TD*%
D12*
%TO.P,J9,2*%
%TO.N,+9V*%
X203200000Y-77470000D03*
D13*
%TO.P,J9,1*%
%TO.N,Net-(C11-Pad2)*%
X200660000Y-77470000D03*
%TD*%
D23*
%TO.N,+9V*%
X199390000Y-85725000D03*
X212090000Y-87630000D03*
X215265000Y-84455000D03*
X205105000Y-93345000D03*
X192059610Y-88610390D03*
X183734000Y-81280000D03*
%TO.N,Net-(C1-Pad2)*%
X193675000Y-84455000D03*
%TO.N,Net-(C1-Pad1)*%
X198120000Y-80010000D03*
X193675000Y-80010000D03*
%TO.N,GND*%
X203200000Y-88900000D03*
X204724000Y-84836000D03*
X189484000Y-84836000D03*
X189992000Y-82296000D03*
X182245000Y-112776000D03*
%TO.N,Net-(C6-Pad1)*%
X187960000Y-111760000D03*
X196215000Y-109855000D03*
X196850000Y-112395000D03*
X196215000Y-97790000D03*
X196215000Y-106045000D03*
%TO.N,Net-(J2-Pad2)*%
X191770000Y-111125000D03*
X191770000Y-111125000D03*
%TO.N,Net-(J3-Pad2)*%
X188468000Y-81788000D03*
%TO.N,Net-(J4-Pad3)*%
X180975000Y-104775000D03*
%TO.N,Net-(J4-Pad1)*%
X180975000Y-97790000D03*
%TO.N,Net-(J5-Pad2)*%
X213360000Y-88900000D03*
%TO.N,BME*%
X198755000Y-90805000D03*
X179070000Y-99695000D03*
%TO.N,Net-(J6-Pad1)*%
X207010000Y-85090000D03*
%TO.N,Net-(J8-Pad1)*%
X208280000Y-91440000D03*
X208280000Y-88900000D03*
%TO.N,Net-(Q1-Pad2)*%
X193675000Y-93345000D03*
%TO.N,Net-(J10-Pad2)*%
X179705000Y-106680000D03*
%TD*%
D24*
%TO.N,+9V*%
X199876500Y-88900000D02*
X199876500Y-86211500D01*
X199876500Y-86211500D02*
X199390000Y-85725000D01*
X199390000Y-85725000D02*
X199390000Y-85725000D01*
D25*
X195072000Y-113346000D02*
X194121000Y-112395000D01*
X195072000Y-116332000D02*
X195072000Y-113346000D01*
X198096000Y-108585000D02*
X199071000Y-108585000D01*
X197540390Y-109140610D02*
X198096000Y-108585000D01*
X197540390Y-109950610D02*
X197540390Y-109140610D01*
X195096000Y-112395000D02*
X197540390Y-109950610D01*
X194121000Y-112395000D02*
X195096000Y-112395000D01*
X201549000Y-108585000D02*
X201676000Y-108712000D01*
X199071000Y-108585000D02*
X201549000Y-108585000D01*
X201676000Y-109728000D02*
X207772000Y-115824000D01*
X201676000Y-108712000D02*
X201676000Y-109728000D01*
X194823884Y-100838000D02*
X194121000Y-100838000D01*
X197540390Y-103554506D02*
X194823884Y-100838000D01*
X197540390Y-107054390D02*
X197540390Y-103554506D01*
X199071000Y-108585000D02*
X197540390Y-107054390D01*
X199855000Y-93181000D02*
X199855000Y-92456000D01*
X197540390Y-95495610D02*
X199855000Y-93181000D01*
X197540390Y-98393610D02*
X197540390Y-95495610D01*
X195096000Y-100838000D02*
X197540390Y-98393610D01*
X194121000Y-100838000D02*
X195096000Y-100838000D01*
X204486000Y-90170000D02*
X204470000Y-90170000D01*
X199855000Y-88921500D02*
X199876500Y-88900000D01*
X199855000Y-92456000D02*
X199855000Y-88921500D01*
X204475390Y-90180610D02*
X204486000Y-90170000D01*
X201157110Y-90180610D02*
X204475390Y-90180610D01*
X199876500Y-88900000D02*
X201157110Y-90180610D01*
X212090000Y-87630000D02*
X212090000Y-87630000D01*
X215265000Y-86295000D02*
X215200000Y-86360000D01*
X215265000Y-84455000D02*
X215265000Y-86295000D01*
X215200000Y-86360000D02*
X221212500Y-86360000D01*
X184388000Y-105156000D02*
X186690000Y-102854000D01*
X186690000Y-99838000D02*
X184388000Y-97536000D01*
X186690000Y-102854000D02*
X186690000Y-99838000D01*
X190440710Y-112395000D02*
X194121000Y-112395000D01*
X185527610Y-107481900D02*
X190440710Y-112395000D01*
X185527610Y-106295610D02*
X185527610Y-107481900D01*
X184388000Y-105156000D02*
X185527610Y-106295610D01*
D24*
X204486000Y-90170000D02*
X204486000Y-92726000D01*
X204486000Y-92726000D02*
X205105000Y-93345000D01*
D25*
X191835000Y-88385780D02*
X192059610Y-88610390D01*
X191835000Y-85979000D02*
X191835000Y-88385780D01*
X201794399Y-76064399D02*
X203200000Y-77470000D01*
X199365519Y-76064399D02*
X201794399Y-76064399D01*
X196785000Y-78644918D02*
X199365519Y-76064399D01*
X196785000Y-82169000D02*
X196785000Y-78644918D01*
X175260000Y-91908000D02*
X175768000Y-91400000D01*
X175260000Y-96520000D02*
X175260000Y-91908000D01*
X178348000Y-91400000D02*
X179832000Y-89916000D01*
X175768000Y-91400000D02*
X178348000Y-91400000D01*
X184750000Y-80264000D02*
X183734000Y-81280000D01*
X185452000Y-80264000D02*
X184750000Y-80264000D01*
D24*
%TO.N,Net-(C1-Pad2)*%
X192405000Y-77470000D02*
X187473500Y-77470000D01*
X192089000Y-84455000D02*
X191835000Y-84709000D01*
X193675000Y-84455000D02*
X192089000Y-84455000D01*
%TO.N,Net-(C1-Pad1)*%
X187452000Y-79523500D02*
X185398500Y-77470000D01*
X187452000Y-80264000D02*
X187452000Y-79523500D01*
D25*
X203835000Y-83093290D02*
X203835000Y-82514710D01*
X203346390Y-83581900D02*
X203835000Y-83093290D01*
X203346390Y-87397696D02*
X203346390Y-83581900D01*
X203878694Y-87930000D02*
X203346390Y-87397696D01*
X209950000Y-87930000D02*
X203878694Y-87930000D01*
X203835000Y-82514710D02*
X201330290Y-80010000D01*
X210250000Y-87630000D02*
X209950000Y-87930000D01*
X201330290Y-80010000D02*
X198120000Y-80010000D01*
X187706000Y-80010000D02*
X187452000Y-80264000D01*
X193675000Y-80010000D02*
X187706000Y-80010000D01*
X181982601Y-80885899D02*
X185398500Y-77470000D01*
X181982601Y-82083689D02*
X181982601Y-80885899D01*
X177666290Y-86400000D02*
X181982601Y-82083689D01*
X175768000Y-86400000D02*
X177666290Y-86400000D01*
D24*
%TO.N,GND*%
X176816000Y-100330000D02*
X182404000Y-94742000D01*
X175260000Y-100330000D02*
X176816000Y-100330000D01*
X196225800Y-83439000D02*
X196785000Y-83439000D01*
X194955800Y-82169000D02*
X196225800Y-83439000D01*
X191835000Y-82169000D02*
X194955800Y-82169000D01*
X201359999Y-81749999D02*
X202414000Y-82804000D01*
X200408079Y-81749999D02*
X201359999Y-81749999D01*
X198719078Y-83439000D02*
X200408079Y-81749999D01*
X196785000Y-83439000D02*
X198719078Y-83439000D01*
X201951500Y-83266500D02*
X202414000Y-82804000D01*
X201951500Y-88900000D02*
X201951500Y-83266500D01*
X201951500Y-88900000D02*
X203200000Y-88900000D01*
X204724000Y-86392000D02*
X204502000Y-86614000D01*
X204724000Y-84836000D02*
X204724000Y-86392000D01*
X195050500Y-88900000D02*
X194056000Y-88900000D01*
X194056000Y-88900000D02*
X193491609Y-89464391D01*
X193491609Y-89464391D02*
X193040000Y-89916000D01*
X193040000Y-89916000D02*
X192101298Y-89916000D01*
X192101298Y-89916000D02*
X191516000Y-89916000D01*
X189484000Y-87884000D02*
X189484000Y-84836000D01*
X191516000Y-89916000D02*
X189484000Y-87884000D01*
X191708000Y-82296000D02*
X191835000Y-82169000D01*
X189992000Y-82296000D02*
X191708000Y-82296000D01*
X182245000Y-110109000D02*
X182372000Y-109982000D01*
X182245000Y-112776000D02*
X182245000Y-110109000D01*
%TO.N,Net-(C3-Pad2)*%
X196785000Y-88559500D02*
X197125500Y-88900000D01*
X196785000Y-85979000D02*
X196785000Y-88559500D01*
%TO.N,Net-(C4-Pad1)*%
X199009000Y-84709000D02*
X200914000Y-82804000D01*
X196785000Y-84709000D02*
X199009000Y-84709000D01*
X191708000Y-83312000D02*
X191835000Y-83439000D01*
X187436000Y-83312000D02*
X191708000Y-83312000D01*
X196225800Y-84709000D02*
X196785000Y-84709000D01*
X194955800Y-83439000D02*
X196225800Y-84709000D01*
X191835000Y-83439000D02*
X194955800Y-83439000D01*
D25*
%TO.N,Net-(C6-Pad1)*%
X193994000Y-109982000D02*
X194121000Y-109855000D01*
X189738000Y-109982000D02*
X193994000Y-109982000D01*
X187690000Y-114300000D02*
X187690000Y-112030000D01*
X187690000Y-112030000D02*
X187960000Y-111760000D01*
X187960000Y-111760000D02*
X187960000Y-111760000D01*
D24*
X194121000Y-109855000D02*
X196215000Y-109855000D01*
X196215000Y-109855000D02*
X196215000Y-109855000D01*
X198120000Y-111125000D02*
X199071000Y-111125000D01*
X196850000Y-112395000D02*
X198120000Y-111125000D01*
X194121000Y-98298000D02*
X195707000Y-98298000D01*
X195707000Y-98298000D02*
X196215000Y-97790000D01*
X196215000Y-106045000D02*
X196215000Y-109855000D01*
%TO.N,Net-(C10-Pad1)*%
X219942500Y-90170000D02*
X221212500Y-91440000D01*
X215200000Y-90170000D02*
X219942500Y-90170000D01*
D25*
%TO.N,Net-(J2-Pad2)*%
X191770000Y-111125000D02*
X194121000Y-111125000D01*
%TO.N,Net-(J2-Pad1)*%
X185690000Y-117840000D02*
X185674000Y-117856000D01*
X185690000Y-114300000D02*
X185690000Y-117840000D01*
D24*
%TO.N,Net-(J3-Pad2)*%
X185436000Y-83312000D02*
X186960000Y-81788000D01*
X186960000Y-81788000D02*
X188468000Y-81788000D01*
X188468000Y-81788000D02*
X188468000Y-81788000D01*
D25*
%TO.N,Net-(J4-Pad3)*%
X182372000Y-105172000D02*
X182388000Y-105156000D01*
X182372000Y-107442000D02*
X182372000Y-105172000D01*
X182388000Y-105156000D02*
X181356000Y-105156000D01*
X181356000Y-105156000D02*
X180975000Y-104775000D01*
X180975000Y-104775000D02*
X180975000Y-104775000D01*
%TO.N,Net-(J4-Pad2)*%
X191262000Y-99568000D02*
X194121000Y-99568000D01*
X190246000Y-100584000D02*
X191262000Y-99568000D01*
%TO.N,Net-(J4-Pad1)*%
X182388000Y-100076000D02*
X182388000Y-97536000D01*
X182388000Y-97536000D02*
X181229000Y-97536000D01*
X181229000Y-97536000D02*
X180975000Y-97790000D01*
X180975000Y-97790000D02*
X180975000Y-97790000D01*
D24*
%TO.N,Net-(J5-Pad2)*%
X210250000Y-90170000D02*
X206486000Y-90170000D01*
X206486000Y-90170000D02*
X207010000Y-90170000D01*
X212090000Y-90170000D02*
X213360000Y-88900000D01*
X210250000Y-90170000D02*
X212090000Y-90170000D01*
D25*
%TO.N,BME*%
X197469000Y-90805000D02*
X197088000Y-91186000D01*
X198755000Y-90805000D02*
X197469000Y-90805000D01*
D24*
X175260000Y-104140000D02*
X175260000Y-103505000D01*
X175260000Y-103505000D02*
X179070000Y-99695000D01*
%TO.N,Net-(J6-Pad1)*%
X206502000Y-86614000D02*
X206502000Y-85598000D01*
X206502000Y-85598000D02*
X207010000Y-85090000D01*
X207010000Y-85090000D02*
X207010000Y-85090000D01*
%TO.N,Net-(J8-Pad1)*%
X204978000Y-94742000D02*
X208280000Y-91440000D01*
X204978000Y-96012000D02*
X204978000Y-94742000D01*
X208280000Y-88900000D02*
X210250000Y-88900000D01*
%TO.N,Net-(Q1-Pad3)*%
X187198000Y-90738202D02*
X187198000Y-89916000D01*
X186816201Y-91120001D02*
X187198000Y-90738202D01*
X183576001Y-91120001D02*
X186816201Y-91120001D01*
X182372000Y-89916000D02*
X183576001Y-91120001D01*
D26*
%TO.N,Net-(Q1-Pad2)*%
X194961000Y-93345000D02*
X195088000Y-93472000D01*
X193675000Y-93345000D02*
X194961000Y-93345000D01*
D24*
%TO.N,Net-(Q2-Pad3)*%
X189738000Y-91186000D02*
X188468000Y-89916000D01*
X195088000Y-91186000D02*
X189738000Y-91186000D01*
X184900000Y-94742000D02*
X184404000Y-94742000D01*
X188468000Y-91174000D02*
X184900000Y-94742000D01*
X188468000Y-89916000D02*
X188468000Y-91174000D01*
D25*
%TO.N,Net-(R6-Pad1)*%
X184372000Y-107442000D02*
X184372000Y-109982000D01*
%TO.N,Net-(R7-Pad2)*%
X184388000Y-102600000D02*
X184404000Y-102616000D01*
X184388000Y-100076000D02*
X184388000Y-102600000D01*
D24*
%TO.N,Net-(R11-Pad1)*%
X197088000Y-94061000D02*
X194121000Y-97028000D01*
X197088000Y-93472000D02*
X197088000Y-94061000D01*
%TO.N,Net-(C11-Pad2)*%
X215200000Y-88900000D02*
X215200000Y-87630000D01*
X215200000Y-88900000D02*
X221212500Y-88900000D01*
X205774001Y-82584001D02*
X208314001Y-82584001D01*
X200660000Y-77470000D02*
X205774001Y-82584001D01*
X213360000Y-87630000D02*
X215200000Y-87630000D01*
X208314001Y-82584001D02*
X213360000Y-87630000D01*
D25*
%TO.N,Net-(J10-Pad2)*%
X207518000Y-101473000D02*
X207645000Y-101600000D01*
X207518000Y-96012000D02*
X207518000Y-101473000D01*
X207645000Y-101600000D02*
X207645000Y-105410000D01*
D24*
X176541010Y-108596010D02*
X177788990Y-108596010D01*
X175260000Y-107315000D02*
X176541010Y-108596010D01*
X177788990Y-108596010D02*
X179705000Y-106680000D01*
%TD*%
D27*
%TO.N,GND*%
X225336500Y-74965536D02*
X225336501Y-74965546D01*
X225336500Y-94520876D01*
X225278961Y-94434762D01*
X225070238Y-94226039D01*
X224824806Y-94062046D01*
X224552096Y-93949086D01*
X224262589Y-93891500D01*
X223967411Y-93891500D01*
X223677904Y-93949086D01*
X223405194Y-94062046D01*
X223159762Y-94226039D01*
X222951039Y-94434762D01*
X222787046Y-94680194D01*
X222674086Y-94952904D01*
X222616500Y-95242411D01*
X222616500Y-95308611D01*
X222608943Y-95302409D01*
X222487597Y-95237548D01*
X222355930Y-95197607D01*
X222219000Y-95184121D01*
X221011000Y-95184121D01*
X220874070Y-95197607D01*
X220742403Y-95237548D01*
X220621057Y-95302409D01*
X220514697Y-95389697D01*
X220427409Y-95496057D01*
X220362548Y-95617403D01*
X220322607Y-95749070D01*
X220309121Y-95886000D01*
X220309121Y-97094000D01*
X220322607Y-97230930D01*
X220362548Y-97362597D01*
X220427409Y-97483943D01*
X220514697Y-97590303D01*
X220621057Y-97677591D01*
X220742403Y-97742452D01*
X220874070Y-97782393D01*
X220951308Y-97790000D01*
X220874070Y-97797607D01*
X220742403Y-97837548D01*
X220621057Y-97902409D01*
X220514697Y-97989697D01*
X220427409Y-98096057D01*
X220362548Y-98217403D01*
X220322607Y-98349070D01*
X220309121Y-98486000D01*
X220309121Y-99694000D01*
X220322607Y-99830930D01*
X220362548Y-99962597D01*
X220427409Y-100083943D01*
X220514697Y-100190303D01*
X220621057Y-100277591D01*
X220742403Y-100342452D01*
X220874070Y-100382393D01*
X221011000Y-100395879D01*
X222219000Y-100395879D01*
X222355930Y-100382393D01*
X222487597Y-100342452D01*
X222608943Y-100277591D01*
X222616500Y-100271389D01*
X222616500Y-100537589D01*
X222674086Y-100827096D01*
X222787046Y-101099806D01*
X222951039Y-101345238D01*
X223159762Y-101553961D01*
X223405194Y-101717954D01*
X223677904Y-101830914D01*
X223967411Y-101888500D01*
X224262589Y-101888500D01*
X224552096Y-101830914D01*
X224824806Y-101717954D01*
X225070238Y-101553961D01*
X225278961Y-101345238D01*
X225336500Y-101259125D01*
X225336500Y-107985535D01*
X225336501Y-107985545D01*
X225336500Y-109184464D01*
X225336500Y-109184465D01*
X225336501Y-119344455D01*
X225336500Y-119344465D01*
X225336500Y-119926500D01*
X173443500Y-119926500D01*
X173443500Y-115156484D01*
X173855500Y-115156484D01*
X173855500Y-115983516D01*
X174016846Y-116794657D01*
X174333337Y-117558736D01*
X174792812Y-118246388D01*
X175377612Y-118831188D01*
X176065264Y-119290663D01*
X176829343Y-119607154D01*
X177640484Y-119768500D01*
X178467516Y-119768500D01*
X179278657Y-119607154D01*
X180042736Y-119290663D01*
X180730388Y-118831188D01*
X181315188Y-118246388D01*
X181774663Y-117558736D01*
X182091154Y-116794657D01*
X182252500Y-115983516D01*
X182252500Y-115156484D01*
X182091154Y-114345343D01*
X181774663Y-113581264D01*
X181315188Y-112893612D01*
X180730388Y-112308812D01*
X180042736Y-111849337D01*
X179278657Y-111532846D01*
X178467516Y-111371500D01*
X177640484Y-111371500D01*
X176829343Y-111532846D01*
X176065264Y-111849337D01*
X175377612Y-112308812D01*
X174792812Y-112893612D01*
X174333337Y-113581264D01*
X174016846Y-114345343D01*
X173855500Y-115156484D01*
X173443500Y-115156484D01*
X173443500Y-110682000D01*
X181070120Y-110682000D01*
X181083606Y-110818930D01*
X181123547Y-110950598D01*
X181188408Y-111071944D01*
X181275696Y-111178304D01*
X181382056Y-111265592D01*
X181503402Y-111330453D01*
X181635070Y-111370394D01*
X181772000Y-111383880D01*
X182133875Y-111380500D01*
X182308500Y-111205875D01*
X182308500Y-110045500D01*
X181248125Y-110045500D01*
X181073500Y-110220125D01*
X181070120Y-110682000D01*
X173443500Y-110682000D01*
X173443500Y-106565000D01*
X173808121Y-106565000D01*
X173808121Y-108065000D01*
X173821607Y-108201930D01*
X173861548Y-108333597D01*
X173926409Y-108454943D01*
X174013697Y-108561303D01*
X174120057Y-108648591D01*
X174241403Y-108713452D01*
X174373070Y-108753393D01*
X174510000Y-108766879D01*
X175364840Y-108766879D01*
X175834407Y-109236446D01*
X175864232Y-109272788D01*
X176009269Y-109391816D01*
X176092005Y-109436039D01*
X176174740Y-109480262D01*
X176264514Y-109507494D01*
X176354287Y-109534727D01*
X176494225Y-109548510D01*
X176541010Y-109553118D01*
X176587795Y-109548510D01*
X177742205Y-109548510D01*
X177788990Y-109553118D01*
X177835775Y-109548510D01*
X177975713Y-109534727D01*
X178155259Y-109480262D01*
X178320731Y-109391816D01*
X178465768Y-109272788D01*
X178495597Y-109236441D01*
X179988386Y-107743652D01*
X180025421Y-107736285D01*
X180225335Y-107653478D01*
X180405253Y-107533261D01*
X180558261Y-107380253D01*
X180678478Y-107200335D01*
X180761285Y-107000421D01*
X180803500Y-106788193D01*
X180803500Y-106571807D01*
X180761285Y-106359579D01*
X180678478Y-106159665D01*
X180558261Y-105979747D01*
X180405253Y-105826739D01*
X180225335Y-105706522D01*
X180025421Y-105623715D01*
X179813193Y-105581500D01*
X179596807Y-105581500D01*
X179384579Y-105623715D01*
X179184665Y-105706522D01*
X179004747Y-105826739D01*
X178851739Y-105979747D01*
X178731522Y-106159665D01*
X178648715Y-106359579D01*
X178641348Y-106396614D01*
X177394452Y-107643510D01*
X176935549Y-107643510D01*
X176711879Y-107419840D01*
X176711879Y-106565000D01*
X176698393Y-106428070D01*
X176658452Y-106296403D01*
X176593591Y-106175057D01*
X176506303Y-106068697D01*
X176399943Y-105981409D01*
X176278597Y-105916548D01*
X176146930Y-105876607D01*
X176010000Y-105863121D01*
X174510000Y-105863121D01*
X174373070Y-105876607D01*
X174241403Y-105916548D01*
X174120057Y-105981409D01*
X174013697Y-106068697D01*
X173926409Y-106175057D01*
X173861548Y-106296403D01*
X173821607Y-106428070D01*
X173808121Y-106565000D01*
X173443500Y-106565000D01*
X173443500Y-103390000D01*
X173808121Y-103390000D01*
X173808121Y-104890000D01*
X173821607Y-105026930D01*
X173861548Y-105158597D01*
X173926409Y-105279943D01*
X174013697Y-105386303D01*
X174120057Y-105473591D01*
X174241403Y-105538452D01*
X174373070Y-105578393D01*
X174510000Y-105591879D01*
X176010000Y-105591879D01*
X176146930Y-105578393D01*
X176278597Y-105538452D01*
X176399943Y-105473591D01*
X176506303Y-105386303D01*
X176593591Y-105279943D01*
X176658452Y-105158597D01*
X176698393Y-105026930D01*
X176711879Y-104890000D01*
X176711879Y-103400159D01*
X179353386Y-100758652D01*
X179390421Y-100751285D01*
X179590335Y-100668478D01*
X179770253Y-100548261D01*
X179923261Y-100395253D01*
X180043478Y-100215335D01*
X180126285Y-100015421D01*
X180168500Y-99803193D01*
X180168500Y-99586807D01*
X180126285Y-99374579D01*
X180043478Y-99174665D01*
X179923261Y-98994747D01*
X179770253Y-98841739D01*
X179590335Y-98721522D01*
X179390421Y-98638715D01*
X179178193Y-98596500D01*
X178961807Y-98596500D01*
X178749579Y-98638715D01*
X178549665Y-98721522D01*
X178369747Y-98841739D01*
X178216739Y-98994747D01*
X178096522Y-99174665D01*
X178013715Y-99374579D01*
X178006348Y-99411614D01*
X176709427Y-100708535D01*
X176708500Y-100568125D01*
X176533875Y-100393500D01*
X175323500Y-100393500D01*
X175323500Y-101603875D01*
X175498125Y-101778500D01*
X175638535Y-101779427D01*
X174729841Y-102688121D01*
X174510000Y-102688121D01*
X174373070Y-102701607D01*
X174241403Y-102741548D01*
X174120057Y-102806409D01*
X174013697Y-102893697D01*
X173926409Y-103000057D01*
X173861548Y-103121403D01*
X173821607Y-103253070D01*
X173808121Y-103390000D01*
X173443500Y-103390000D01*
X173443500Y-101080000D01*
X173808120Y-101080000D01*
X173821606Y-101216930D01*
X173861547Y-101348598D01*
X173926408Y-101469944D01*
X174013696Y-101576304D01*
X174120056Y-101663592D01*
X174241402Y-101728453D01*
X174373070Y-101768394D01*
X174510000Y-101781880D01*
X175021875Y-101778500D01*
X175196500Y-101603875D01*
X175196500Y-100393500D01*
X173986125Y-100393500D01*
X173811500Y-100568125D01*
X173808120Y-101080000D01*
X173443500Y-101080000D01*
X173443500Y-99580000D01*
X173808120Y-99580000D01*
X173811500Y-100091875D01*
X173986125Y-100266500D01*
X175196500Y-100266500D01*
X175196500Y-99056125D01*
X175323500Y-99056125D01*
X175323500Y-100266500D01*
X176533875Y-100266500D01*
X176708500Y-100091875D01*
X176711880Y-99580000D01*
X176698394Y-99443070D01*
X176658453Y-99311402D01*
X176593592Y-99190056D01*
X176506304Y-99083696D01*
X176399944Y-98996408D01*
X176278598Y-98931547D01*
X176146930Y-98891606D01*
X176010000Y-98878120D01*
X175498125Y-98881500D01*
X175323500Y-99056125D01*
X175196500Y-99056125D01*
X175021875Y-98881500D01*
X174510000Y-98878120D01*
X174373070Y-98891606D01*
X174241402Y-98931547D01*
X174120056Y-98996408D01*
X174013696Y-99083696D01*
X173926408Y-99190056D01*
X173861547Y-99311402D01*
X173821606Y-99443070D01*
X173808120Y-99580000D01*
X173443500Y-99580000D01*
X173443500Y-79723484D01*
X173728500Y-79723484D01*
X173728500Y-80550516D01*
X173889846Y-81361657D01*
X174206337Y-82125736D01*
X174665812Y-82813388D01*
X175250612Y-83398188D01*
X175938264Y-83857663D01*
X176156650Y-83948121D01*
X174868000Y-83948121D01*
X174731070Y-83961607D01*
X174599403Y-84001548D01*
X174478057Y-84066409D01*
X174371697Y-84153697D01*
X174284409Y-84260057D01*
X174219548Y-84381403D01*
X174179607Y-84513070D01*
X174166121Y-84650000D01*
X174166121Y-88150000D01*
X174179607Y-88286930D01*
X174219548Y-88418597D01*
X174284409Y-88539943D01*
X174371697Y-88646303D01*
X174478057Y-88733591D01*
X174599403Y-88798452D01*
X174731070Y-88838393D01*
X174868000Y-88851879D01*
X176668000Y-88851879D01*
X176804930Y-88838393D01*
X176936597Y-88798452D01*
X177057943Y-88733591D01*
X177164303Y-88646303D01*
X177251591Y-88539943D01*
X177316452Y-88418597D01*
X177356393Y-88286930D01*
X177369879Y-88150000D01*
X177369879Y-87454100D01*
X177614508Y-87454100D01*
X177666290Y-87459200D01*
X177718072Y-87454100D01*
X177872930Y-87438848D01*
X178071628Y-87378573D01*
X178254750Y-87280693D01*
X178415258Y-87148968D01*
X178448277Y-87108734D01*
X182691340Y-82865672D01*
X182731569Y-82832657D01*
X182863294Y-82672149D01*
X182898689Y-82605930D01*
X182961174Y-82489028D01*
X183021449Y-82290329D01*
X183036724Y-82135250D01*
X183213665Y-82253478D01*
X183413579Y-82336285D01*
X183625807Y-82378500D01*
X183842193Y-82378500D01*
X184054421Y-82336285D01*
X184254335Y-82253478D01*
X184434253Y-82133261D01*
X184587261Y-81980253D01*
X184707478Y-81800335D01*
X184709664Y-81795057D01*
X184870903Y-81633819D01*
X184916297Y-81647589D01*
X185101999Y-81665879D01*
X185735083Y-81665879D01*
X185490841Y-81910121D01*
X185085999Y-81910121D01*
X184900297Y-81928411D01*
X184721731Y-81982578D01*
X184557164Y-82070541D01*
X184412920Y-82188920D01*
X184294541Y-82333164D01*
X184206578Y-82497731D01*
X184152411Y-82676297D01*
X184134121Y-82861999D01*
X184134121Y-83762001D01*
X184152411Y-83947703D01*
X184206578Y-84126269D01*
X184294541Y-84290836D01*
X184412920Y-84435080D01*
X184557164Y-84553459D01*
X184721731Y-84641422D01*
X184900297Y-84695589D01*
X185085999Y-84713879D01*
X185786001Y-84713879D01*
X185971703Y-84695589D01*
X186150269Y-84641422D01*
X186314836Y-84553459D01*
X186436000Y-84454021D01*
X186557164Y-84553459D01*
X186721731Y-84641422D01*
X186900297Y-84695589D01*
X187085999Y-84713879D01*
X187786001Y-84713879D01*
X187971703Y-84695589D01*
X188150269Y-84641422D01*
X188314836Y-84553459D01*
X188459080Y-84435080D01*
X188577459Y-84290836D01*
X188591536Y-84264500D01*
X190213411Y-84264500D01*
X190174490Y-84392807D01*
X190158121Y-84559000D01*
X190158121Y-84859000D01*
X190174490Y-85025193D01*
X190222966Y-85185000D01*
X190301688Y-85332279D01*
X190311307Y-85344000D01*
X190301688Y-85355721D01*
X190222966Y-85503000D01*
X190174490Y-85662807D01*
X190158121Y-85829000D01*
X190158121Y-86129000D01*
X190174490Y-86295193D01*
X190222966Y-86455000D01*
X190301688Y-86602279D01*
X190407631Y-86731369D01*
X190536721Y-86837312D01*
X190684000Y-86916034D01*
X190780900Y-86945428D01*
X190780901Y-88333989D01*
X190775800Y-88385780D01*
X190796152Y-88592419D01*
X190856428Y-88791118D01*
X190951426Y-88968848D01*
X190954308Y-88974240D01*
X191086033Y-89134748D01*
X191092204Y-89139812D01*
X191206349Y-89310643D01*
X191359357Y-89463651D01*
X191539275Y-89583868D01*
X191739189Y-89666675D01*
X191951417Y-89708890D01*
X192167803Y-89708890D01*
X192380031Y-89666675D01*
X192579945Y-89583868D01*
X192759863Y-89463651D01*
X192912871Y-89310643D01*
X193033088Y-89130725D01*
X193115895Y-88930811D01*
X193158110Y-88718583D01*
X193158110Y-88502197D01*
X193115895Y-88289969D01*
X193068274Y-88175000D01*
X193761120Y-88175000D01*
X193764500Y-88661875D01*
X193939125Y-88836500D01*
X194987000Y-88836500D01*
X194987000Y-87651125D01*
X194812375Y-87476500D01*
X194463000Y-87473120D01*
X194326070Y-87486606D01*
X194194402Y-87526547D01*
X194073056Y-87591408D01*
X193966696Y-87678696D01*
X193879408Y-87785056D01*
X193814547Y-87906402D01*
X193774606Y-88038070D01*
X193761120Y-88175000D01*
X193068274Y-88175000D01*
X193033088Y-88090055D01*
X192912871Y-87910137D01*
X192889100Y-87886366D01*
X192889100Y-86945428D01*
X192986000Y-86916034D01*
X193133279Y-86837312D01*
X193262369Y-86731369D01*
X193368312Y-86602279D01*
X193447034Y-86455000D01*
X193495510Y-86295193D01*
X193511879Y-86129000D01*
X193511879Y-85829000D01*
X193495510Y-85662807D01*
X193455645Y-85531388D01*
X193566807Y-85553500D01*
X193783193Y-85553500D01*
X193995421Y-85511285D01*
X194195335Y-85428478D01*
X194375253Y-85308261D01*
X194528261Y-85155253D01*
X194648478Y-84975335D01*
X194731285Y-84775421D01*
X194766773Y-84597011D01*
X195116791Y-84947030D01*
X195124490Y-85025193D01*
X195172966Y-85185000D01*
X195251688Y-85332279D01*
X195261307Y-85344000D01*
X195251688Y-85355721D01*
X195172966Y-85503000D01*
X195124490Y-85662807D01*
X195108121Y-85829000D01*
X195108121Y-86129000D01*
X195124490Y-86295193D01*
X195172966Y-86455000D01*
X195251688Y-86602279D01*
X195357631Y-86731369D01*
X195486721Y-86837312D01*
X195634000Y-86916034D01*
X195793807Y-86964510D01*
X195832500Y-86968321D01*
X195832501Y-87504070D01*
X195774930Y-87486606D01*
X195638000Y-87473120D01*
X195288625Y-87476500D01*
X195114000Y-87651125D01*
X195114000Y-88836500D01*
X195134000Y-88836500D01*
X195134000Y-88963500D01*
X195114000Y-88963500D01*
X195114000Y-88983500D01*
X194987000Y-88983500D01*
X194987000Y-88963500D01*
X193939125Y-88963500D01*
X193764500Y-89138125D01*
X193761120Y-89625000D01*
X193774606Y-89761930D01*
X193814547Y-89893598D01*
X193879408Y-90014944D01*
X193966696Y-90121304D01*
X193996758Y-90145975D01*
X193946541Y-90207164D01*
X193932464Y-90233500D01*
X190132539Y-90233500D01*
X189691500Y-89792462D01*
X189691500Y-89630903D01*
X189673796Y-89451152D01*
X189603835Y-89220522D01*
X189490225Y-89007971D01*
X189337331Y-88821669D01*
X189151028Y-88668775D01*
X188938477Y-88555165D01*
X188707847Y-88485204D01*
X188468000Y-88461581D01*
X188228152Y-88485204D01*
X187997522Y-88555165D01*
X187833000Y-88643103D01*
X187668477Y-88555165D01*
X187437847Y-88485204D01*
X187198000Y-88461581D01*
X186958152Y-88485204D01*
X186768639Y-88542692D01*
X186721597Y-88517548D01*
X186589930Y-88477607D01*
X186453000Y-88464121D01*
X185403000Y-88464121D01*
X185266070Y-88477607D01*
X185134403Y-88517548D01*
X185013057Y-88582409D01*
X184906697Y-88669697D01*
X184819409Y-88776057D01*
X184754548Y-88897403D01*
X184714607Y-89029070D01*
X184701121Y-89166000D01*
X184701121Y-90167501D01*
X183970539Y-90167501D01*
X183595500Y-89792462D01*
X183595500Y-89630903D01*
X183577796Y-89451152D01*
X183507835Y-89220522D01*
X183394225Y-89007971D01*
X183241331Y-88821669D01*
X183055028Y-88668775D01*
X182842477Y-88555165D01*
X182611847Y-88485204D01*
X182372000Y-88461581D01*
X182132152Y-88485204D01*
X181901522Y-88555165D01*
X181737000Y-88643103D01*
X181572477Y-88555165D01*
X181341847Y-88485204D01*
X181102000Y-88461581D01*
X180862152Y-88485204D01*
X180672639Y-88542692D01*
X180625597Y-88517548D01*
X180493930Y-88477607D01*
X180357000Y-88464121D01*
X179307000Y-88464121D01*
X179170070Y-88477607D01*
X179038403Y-88517548D01*
X178917057Y-88582409D01*
X178810697Y-88669697D01*
X178723409Y-88776057D01*
X178658548Y-88897403D01*
X178618607Y-89029070D01*
X178605121Y-89166000D01*
X178605121Y-89652157D01*
X177911379Y-90345900D01*
X177369879Y-90345900D01*
X177369879Y-89650000D01*
X177356393Y-89513070D01*
X177316452Y-89381403D01*
X177251591Y-89260057D01*
X177164303Y-89153697D01*
X177057943Y-89066409D01*
X176936597Y-89001548D01*
X176804930Y-88961607D01*
X176668000Y-88948121D01*
X174868000Y-88948121D01*
X174731070Y-88961607D01*
X174599403Y-89001548D01*
X174478057Y-89066409D01*
X174371697Y-89153697D01*
X174284409Y-89260057D01*
X174219548Y-89381403D01*
X174179607Y-89513070D01*
X174166121Y-89650000D01*
X174166121Y-93150000D01*
X174179607Y-93286930D01*
X174205901Y-93373608D01*
X174205900Y-95140525D01*
X174120057Y-95186409D01*
X174013697Y-95273697D01*
X173926409Y-95380057D01*
X173861548Y-95501403D01*
X173821607Y-95633070D01*
X173808121Y-95770000D01*
X173808121Y-97270000D01*
X173821607Y-97406930D01*
X173861548Y-97538597D01*
X173926409Y-97659943D01*
X174013697Y-97766303D01*
X174120057Y-97853591D01*
X174241403Y-97918452D01*
X174373070Y-97958393D01*
X174510000Y-97971879D01*
X176010000Y-97971879D01*
X176146930Y-97958393D01*
X176278597Y-97918452D01*
X176399943Y-97853591D01*
X176506303Y-97766303D01*
X176593591Y-97659943D01*
X176658452Y-97538597D01*
X176698393Y-97406930D01*
X176711879Y-97270000D01*
X176711879Y-95770000D01*
X176698393Y-95633070D01*
X176658452Y-95501403D01*
X176593591Y-95380057D01*
X176506303Y-95273697D01*
X176399943Y-95186409D01*
X176314100Y-95140525D01*
X176314100Y-94042000D01*
X181102120Y-94042000D01*
X181105500Y-94503875D01*
X181280125Y-94678500D01*
X182340500Y-94678500D01*
X182340500Y-93518125D01*
X182165875Y-93343500D01*
X181804000Y-93340120D01*
X181667070Y-93353606D01*
X181535402Y-93393547D01*
X181414056Y-93458408D01*
X181307696Y-93545696D01*
X181220408Y-93652056D01*
X181155547Y-93773402D01*
X181115606Y-93905070D01*
X181102120Y-94042000D01*
X176314100Y-94042000D01*
X176314100Y-93851879D01*
X176668000Y-93851879D01*
X176804930Y-93838393D01*
X176936597Y-93798452D01*
X177057943Y-93733591D01*
X177164303Y-93646303D01*
X177251591Y-93539943D01*
X177316452Y-93418597D01*
X177356393Y-93286930D01*
X177369879Y-93150000D01*
X177369879Y-92454100D01*
X178296218Y-92454100D01*
X178348000Y-92459200D01*
X178399782Y-92454100D01*
X178554640Y-92438848D01*
X178753338Y-92378573D01*
X178936460Y-92280693D01*
X179096968Y-92148968D01*
X179129987Y-92108734D01*
X179870843Y-91367879D01*
X180357000Y-91367879D01*
X180493930Y-91354393D01*
X180625597Y-91314452D01*
X180672639Y-91289307D01*
X180862153Y-91346796D01*
X181102000Y-91370419D01*
X181341848Y-91346796D01*
X181572478Y-91276835D01*
X181737001Y-91188897D01*
X181901523Y-91276835D01*
X182132153Y-91346796D01*
X182372000Y-91370419D01*
X182469753Y-91360791D01*
X182869394Y-91760432D01*
X182899223Y-91796779D01*
X183044260Y-91915807D01*
X183209732Y-92004253D01*
X183389278Y-92058718D01*
X183529216Y-92072501D01*
X183576001Y-92077109D01*
X183622786Y-92072501D01*
X186222460Y-92072501D01*
X184936833Y-93358128D01*
X184754001Y-93340121D01*
X184053999Y-93340121D01*
X183868297Y-93358411D01*
X183689731Y-93412578D01*
X183525164Y-93500541D01*
X183485223Y-93533320D01*
X183393944Y-93458408D01*
X183272598Y-93393547D01*
X183140930Y-93353606D01*
X183004000Y-93340120D01*
X182642125Y-93343500D01*
X182467500Y-93518125D01*
X182467500Y-94678500D01*
X182487500Y-94678500D01*
X182487500Y-94805500D01*
X182467500Y-94805500D01*
X182467500Y-94825500D01*
X182340500Y-94825500D01*
X182340500Y-94805500D01*
X181280125Y-94805500D01*
X181105500Y-94980125D01*
X181102120Y-95442000D01*
X181115606Y-95578930D01*
X181155547Y-95710598D01*
X181220408Y-95831944D01*
X181307696Y-95938304D01*
X181414056Y-96025592D01*
X181535402Y-96090453D01*
X181667070Y-96130394D01*
X181804000Y-96143880D01*
X181953049Y-96142488D01*
X181852297Y-96152411D01*
X181673731Y-96206578D01*
X181509164Y-96294541D01*
X181364920Y-96412920D01*
X181308309Y-96481900D01*
X181280778Y-96481900D01*
X181228999Y-96476800D01*
X181177220Y-96481900D01*
X181177218Y-96481900D01*
X181022360Y-96497152D01*
X180823662Y-96557427D01*
X180640540Y-96655307D01*
X180480032Y-96787032D01*
X180456430Y-96815791D01*
X180454665Y-96816522D01*
X180274747Y-96936739D01*
X180121739Y-97089747D01*
X180001522Y-97269665D01*
X179918715Y-97469579D01*
X179876500Y-97681807D01*
X179876500Y-97898193D01*
X179918715Y-98110421D01*
X180001522Y-98310335D01*
X180121739Y-98490253D01*
X180274747Y-98643261D01*
X180454665Y-98763478D01*
X180654579Y-98846285D01*
X180866807Y-98888500D01*
X181083193Y-98888500D01*
X181295421Y-98846285D01*
X181333900Y-98830346D01*
X181333900Y-98990717D01*
X181246541Y-99097164D01*
X181158578Y-99261731D01*
X181104411Y-99440297D01*
X181086121Y-99625999D01*
X181086121Y-100526001D01*
X181104411Y-100711703D01*
X181158578Y-100890269D01*
X181246541Y-101054836D01*
X181364920Y-101199080D01*
X181482683Y-101295726D01*
X181414056Y-101332408D01*
X181307696Y-101419696D01*
X181220408Y-101526056D01*
X181155547Y-101647402D01*
X181115606Y-101779070D01*
X181102120Y-101916000D01*
X181105500Y-102377875D01*
X181280125Y-102552500D01*
X182340500Y-102552500D01*
X182340500Y-102532500D01*
X182467500Y-102532500D01*
X182467500Y-102552500D01*
X182487500Y-102552500D01*
X182487500Y-102679500D01*
X182467500Y-102679500D01*
X182467500Y-102699500D01*
X182340500Y-102699500D01*
X182340500Y-102679500D01*
X181280125Y-102679500D01*
X181105500Y-102854125D01*
X181102120Y-103316000D01*
X181115606Y-103452930D01*
X181155547Y-103584598D01*
X181219122Y-103703538D01*
X181083193Y-103676500D01*
X180866807Y-103676500D01*
X180654579Y-103718715D01*
X180454665Y-103801522D01*
X180274747Y-103921739D01*
X180121739Y-104074747D01*
X180001522Y-104254665D01*
X179918715Y-104454579D01*
X179876500Y-104666807D01*
X179876500Y-104883193D01*
X179918715Y-105095421D01*
X180001522Y-105295335D01*
X180121739Y-105475253D01*
X180274747Y-105628261D01*
X180454665Y-105748478D01*
X180459942Y-105750664D01*
X180574016Y-105864738D01*
X180607032Y-105904968D01*
X180767540Y-106036693D01*
X180950662Y-106134573D01*
X181149360Y-106194848D01*
X181304218Y-106210100D01*
X181304220Y-106210100D01*
X181308669Y-106210538D01*
X181317901Y-106221787D01*
X181317900Y-106356717D01*
X181230541Y-106463164D01*
X181142578Y-106627731D01*
X181088411Y-106806297D01*
X181070121Y-106991999D01*
X181070121Y-107892001D01*
X181088411Y-108077703D01*
X181142578Y-108256269D01*
X181230541Y-108420836D01*
X181348920Y-108565080D01*
X181460372Y-108656547D01*
X181382056Y-108698408D01*
X181275696Y-108785696D01*
X181188408Y-108892056D01*
X181123547Y-109013402D01*
X181083606Y-109145070D01*
X181070120Y-109282000D01*
X181073500Y-109743875D01*
X181248125Y-109918500D01*
X182308500Y-109918500D01*
X182308500Y-109898500D01*
X182435500Y-109898500D01*
X182435500Y-109918500D01*
X182455500Y-109918500D01*
X182455500Y-110045500D01*
X182435500Y-110045500D01*
X182435500Y-111205875D01*
X182610125Y-111380500D01*
X182972000Y-111383880D01*
X183108930Y-111370394D01*
X183240598Y-111330453D01*
X183361944Y-111265592D01*
X183453223Y-111190680D01*
X183493164Y-111223459D01*
X183657731Y-111311422D01*
X183836297Y-111365589D01*
X184021999Y-111383879D01*
X184722001Y-111383879D01*
X184907703Y-111365589D01*
X185086269Y-111311422D01*
X185250836Y-111223459D01*
X185395080Y-111105080D01*
X185513459Y-110960836D01*
X185601422Y-110796269D01*
X185655589Y-110617703D01*
X185673879Y-110432001D01*
X185673879Y-109531999D01*
X185655589Y-109346297D01*
X185601422Y-109167731D01*
X185513459Y-109003164D01*
X185426100Y-108896718D01*
X185426100Y-108871111D01*
X187380826Y-110825837D01*
X187259747Y-110906739D01*
X187106739Y-111059747D01*
X186986522Y-111239665D01*
X186984336Y-111244943D01*
X186981262Y-111248017D01*
X186941033Y-111281032D01*
X186835611Y-111409490D01*
X186809307Y-111441541D01*
X186711428Y-111624662D01*
X186651152Y-111823361D01*
X186630800Y-112030000D01*
X186635901Y-112081791D01*
X186635901Y-113113580D01*
X186568836Y-113058541D01*
X186404269Y-112970578D01*
X186225703Y-112916411D01*
X186040001Y-112898121D01*
X185339999Y-112898121D01*
X185154297Y-112916411D01*
X184975731Y-112970578D01*
X184811164Y-113058541D01*
X184666920Y-113176920D01*
X184548541Y-113321164D01*
X184460578Y-113485731D01*
X184406411Y-113664297D01*
X184388121Y-113849999D01*
X184388121Y-114750001D01*
X184406411Y-114935703D01*
X184460578Y-115114269D01*
X184548541Y-115278836D01*
X184635900Y-115385283D01*
X184635901Y-116333129D01*
X184555403Y-116357548D01*
X184434057Y-116422409D01*
X184327697Y-116509697D01*
X184240409Y-116616057D01*
X184175548Y-116737403D01*
X184135607Y-116869070D01*
X184122121Y-117006000D01*
X184122121Y-118706000D01*
X184135607Y-118842930D01*
X184175548Y-118974597D01*
X184240409Y-119095943D01*
X184327697Y-119202303D01*
X184434057Y-119289591D01*
X184555403Y-119354452D01*
X184687070Y-119394393D01*
X184824000Y-119407879D01*
X186524000Y-119407879D01*
X186660930Y-119394393D01*
X186792597Y-119354452D01*
X186913943Y-119289591D01*
X187020303Y-119202303D01*
X187107591Y-119095943D01*
X187162084Y-118993995D01*
X187226888Y-119058799D01*
X187480510Y-119228263D01*
X187762319Y-119344992D01*
X188061486Y-119404500D01*
X188366514Y-119404500D01*
X188665681Y-119344992D01*
X188947490Y-119228263D01*
X189201112Y-119058799D01*
X189416799Y-118843112D01*
X189586263Y-118589490D01*
X189702992Y-118307681D01*
X189762500Y-118008514D01*
X189762500Y-117703486D01*
X189702992Y-117404319D01*
X189586263Y-117122510D01*
X189416799Y-116868888D01*
X189201112Y-116653201D01*
X188947490Y-116483737D01*
X188665681Y-116367008D01*
X188366514Y-116307500D01*
X188061486Y-116307500D01*
X187762319Y-116367008D01*
X187480510Y-116483737D01*
X187226888Y-116653201D01*
X187162084Y-116718005D01*
X187107591Y-116616057D01*
X187020303Y-116509697D01*
X186913943Y-116422409D01*
X186792597Y-116357548D01*
X186744100Y-116342837D01*
X186744100Y-115486421D01*
X186811164Y-115541459D01*
X186975731Y-115629422D01*
X187154297Y-115683589D01*
X187339999Y-115701879D01*
X188040001Y-115701879D01*
X188225703Y-115683589D01*
X188404269Y-115629422D01*
X188568836Y-115541459D01*
X188713080Y-115423080D01*
X188831459Y-115278836D01*
X188919422Y-115114269D01*
X188973589Y-114935703D01*
X188991879Y-114750001D01*
X188991879Y-113849999D01*
X188973589Y-113664297D01*
X188919422Y-113485731D01*
X188831459Y-113321164D01*
X188744100Y-113214718D01*
X188744100Y-112529414D01*
X188813261Y-112460253D01*
X188894163Y-112339175D01*
X189658727Y-113103739D01*
X189691742Y-113143968D01*
X189809733Y-113240800D01*
X189852250Y-113275693D01*
X190035371Y-113373573D01*
X190234070Y-113433848D01*
X190440710Y-113454200D01*
X190492492Y-113449100D01*
X193684379Y-113449100D01*
X194017901Y-113782623D01*
X194017900Y-115013772D01*
X193898918Y-115111418D01*
X193692602Y-115362816D01*
X193539295Y-115649633D01*
X193444889Y-115960847D01*
X193421000Y-116203396D01*
X193421000Y-116460603D01*
X193444889Y-116703152D01*
X193539295Y-117014366D01*
X193692602Y-117301183D01*
X193898918Y-117552582D01*
X194150316Y-117758898D01*
X194437133Y-117912205D01*
X194748347Y-118006611D01*
X195072000Y-118038488D01*
X195395652Y-118006611D01*
X195706866Y-117912205D01*
X195993683Y-117758898D01*
X196245082Y-117552582D01*
X196346664Y-117428803D01*
X196410720Y-117511741D01*
X196654692Y-117724343D01*
X196935452Y-117885264D01*
X197242212Y-117988319D01*
X197291200Y-117999033D01*
X197548500Y-117854509D01*
X197548500Y-116395500D01*
X197528500Y-116395500D01*
X197528500Y-116268500D01*
X197548500Y-116268500D01*
X197548500Y-114809491D01*
X197675500Y-114809491D01*
X197675500Y-116268500D01*
X197695500Y-116268500D01*
X197695500Y-116395500D01*
X197675500Y-116395500D01*
X197675500Y-117854509D01*
X197932800Y-117999033D01*
X197981788Y-117988319D01*
X198288548Y-117885264D01*
X198569308Y-117724343D01*
X198601976Y-117695876D01*
X198615909Y-117721943D01*
X198703197Y-117828303D01*
X198809557Y-117915591D01*
X198930903Y-117980452D01*
X199062570Y-118020393D01*
X199199500Y-118033879D01*
X201104500Y-118033879D01*
X201241430Y-118020393D01*
X201373097Y-117980452D01*
X201494443Y-117915591D01*
X201600803Y-117828303D01*
X201688091Y-117721943D01*
X201752952Y-117600597D01*
X201792893Y-117468930D01*
X201806379Y-117332000D01*
X201806379Y-115332000D01*
X201792893Y-115195070D01*
X201752952Y-115063403D01*
X201688091Y-114942057D01*
X201600803Y-114835697D01*
X201494443Y-114748409D01*
X201373097Y-114683548D01*
X201241430Y-114643607D01*
X201104500Y-114630121D01*
X199199500Y-114630121D01*
X199062570Y-114643607D01*
X198930903Y-114683548D01*
X198809557Y-114748409D01*
X198703197Y-114835697D01*
X198615909Y-114942057D01*
X198601976Y-114968124D01*
X198569308Y-114939657D01*
X198288548Y-114778736D01*
X197981788Y-114675681D01*
X197932800Y-114664967D01*
X197675500Y-114809491D01*
X197548500Y-114809491D01*
X197291200Y-114664967D01*
X197242212Y-114675681D01*
X196935452Y-114778736D01*
X196654692Y-114939657D01*
X196410720Y-115152259D01*
X196346664Y-115235197D01*
X196245082Y-115111418D01*
X196126100Y-115013772D01*
X196126100Y-113397778D01*
X196131200Y-113345999D01*
X196122071Y-113253312D01*
X196118496Y-113217010D01*
X196149747Y-113248261D01*
X196329665Y-113368478D01*
X196529579Y-113451285D01*
X196741807Y-113493500D01*
X196958193Y-113493500D01*
X197170421Y-113451285D01*
X197370335Y-113368478D01*
X197550253Y-113248261D01*
X197647758Y-113150756D01*
X197772721Y-113253312D01*
X197920000Y-113332034D01*
X198079807Y-113380510D01*
X198246000Y-113396879D01*
X199896000Y-113396879D01*
X200062193Y-113380510D01*
X200222000Y-113332034D01*
X200369279Y-113253312D01*
X200498369Y-113147369D01*
X200604312Y-113018279D01*
X200683034Y-112871000D01*
X200731510Y-112711193D01*
X200747879Y-112545000D01*
X200747879Y-112245000D01*
X200731510Y-112078807D01*
X200683034Y-111919000D01*
X200604312Y-111771721D01*
X200594693Y-111760000D01*
X200604312Y-111748279D01*
X200683034Y-111601000D01*
X200731510Y-111441193D01*
X200747879Y-111275000D01*
X200747879Y-110975000D01*
X200731510Y-110808807D01*
X200683034Y-110649000D01*
X200604312Y-110501721D01*
X200594693Y-110490000D01*
X200604312Y-110478279D01*
X200683034Y-110331000D01*
X200726496Y-110187722D01*
X200768705Y-110266688D01*
X200795308Y-110316460D01*
X200927033Y-110476968D01*
X200967262Y-110509983D01*
X206273500Y-115816222D01*
X206273500Y-115971589D01*
X206331086Y-116261096D01*
X206444046Y-116533806D01*
X206608039Y-116779238D01*
X206816762Y-116987961D01*
X207062194Y-117151954D01*
X207334904Y-117264914D01*
X207624411Y-117322500D01*
X207919589Y-117322500D01*
X208209096Y-117264914D01*
X208481806Y-117151954D01*
X208727238Y-116987961D01*
X208906121Y-116809078D01*
X210376724Y-116809078D01*
X210439102Y-117078419D01*
X210699831Y-117216806D01*
X210982548Y-117301669D01*
X211276389Y-117329745D01*
X211570061Y-117299957D01*
X211852279Y-117213448D01*
X212104898Y-117078419D01*
X212167276Y-116809078D01*
X211272000Y-115913803D01*
X210376724Y-116809078D01*
X208906121Y-116809078D01*
X208935961Y-116779238D01*
X209099954Y-116533806D01*
X209212914Y-116261096D01*
X209270500Y-115971589D01*
X209270500Y-115828389D01*
X209766255Y-115828389D01*
X209796043Y-116122061D01*
X209882552Y-116404279D01*
X210017581Y-116656898D01*
X210286922Y-116719276D01*
X211182197Y-115824000D01*
X211361803Y-115824000D01*
X212257078Y-116719276D01*
X212526419Y-116656898D01*
X212664806Y-116396169D01*
X212749669Y-116113452D01*
X212777745Y-115819611D01*
X212747957Y-115525939D01*
X212661448Y-115243721D01*
X212614819Y-115156484D01*
X216781500Y-115156484D01*
X216781500Y-115983516D01*
X216942846Y-116794657D01*
X217259337Y-117558736D01*
X217718812Y-118246388D01*
X218303612Y-118831188D01*
X218991264Y-119290663D01*
X219755343Y-119607154D01*
X220566484Y-119768500D01*
X221393516Y-119768500D01*
X222204657Y-119607154D01*
X222968736Y-119290663D01*
X223656388Y-118831188D01*
X224241188Y-118246388D01*
X224700663Y-117558736D01*
X225017154Y-116794657D01*
X225178500Y-115983516D01*
X225178500Y-115156484D01*
X225017154Y-114345343D01*
X224700663Y-113581264D01*
X224241188Y-112893612D01*
X223656388Y-112308812D01*
X222968736Y-111849337D01*
X222204657Y-111532846D01*
X221393516Y-111371500D01*
X220566484Y-111371500D01*
X219755343Y-111532846D01*
X218991264Y-111849337D01*
X218303612Y-112308812D01*
X217718812Y-112893612D01*
X217259337Y-113581264D01*
X216942846Y-114345343D01*
X216781500Y-115156484D01*
X212614819Y-115156484D01*
X212526419Y-114991102D01*
X212257078Y-114928724D01*
X211361803Y-115824000D01*
X211182197Y-115824000D01*
X210286922Y-114928724D01*
X210017581Y-114991102D01*
X209879194Y-115251831D01*
X209794331Y-115534548D01*
X209766255Y-115828389D01*
X209270500Y-115828389D01*
X209270500Y-115676411D01*
X209212914Y-115386904D01*
X209099954Y-115114194D01*
X208935961Y-114868762D01*
X208906121Y-114838922D01*
X210376724Y-114838922D01*
X211272000Y-115734197D01*
X212167276Y-114838922D01*
X212104898Y-114569581D01*
X211844169Y-114431194D01*
X211561452Y-114346331D01*
X211267611Y-114318255D01*
X210973939Y-114348043D01*
X210691721Y-114434552D01*
X210439102Y-114569581D01*
X210376724Y-114838922D01*
X208906121Y-114838922D01*
X208727238Y-114660039D01*
X208481806Y-114496046D01*
X208209096Y-114383086D01*
X207919589Y-114325500D01*
X207764222Y-114325500D01*
X203543548Y-110104827D01*
X203687500Y-109960875D01*
X203687500Y-108775500D01*
X203814500Y-108775500D01*
X203814500Y-109960875D01*
X203989125Y-110135500D01*
X204338500Y-110138880D01*
X204475430Y-110125394D01*
X204607098Y-110085453D01*
X204728444Y-110020592D01*
X204834804Y-109933304D01*
X204922092Y-109826944D01*
X204986953Y-109705598D01*
X205026894Y-109573930D01*
X205040380Y-109437000D01*
X205037000Y-108950125D01*
X204862375Y-108775500D01*
X203814500Y-108775500D01*
X203687500Y-108775500D01*
X203667500Y-108775500D01*
X203667500Y-108648500D01*
X203687500Y-108648500D01*
X203687500Y-107463125D01*
X203814500Y-107463125D01*
X203814500Y-108648500D01*
X204862375Y-108648500D01*
X205037000Y-108473875D01*
X205039484Y-108116000D01*
X216888121Y-108116000D01*
X216888121Y-109816000D01*
X216901607Y-109952930D01*
X216941548Y-110084597D01*
X217006409Y-110205943D01*
X217093697Y-110312303D01*
X217200057Y-110399591D01*
X217321403Y-110464452D01*
X217453070Y-110504393D01*
X217590000Y-110517879D01*
X219290000Y-110517879D01*
X219426930Y-110504393D01*
X219558597Y-110464452D01*
X219679943Y-110399591D01*
X219786303Y-110312303D01*
X219873591Y-110205943D01*
X219930871Y-110098780D01*
X220121951Y-110255036D01*
X220389917Y-110397665D01*
X220675247Y-110484215D01*
X220916500Y-110338407D01*
X220916500Y-109029500D01*
X221043500Y-109029500D01*
X221043500Y-110338407D01*
X221284753Y-110484215D01*
X221570083Y-110397665D01*
X221838049Y-110255036D01*
X222073040Y-110062871D01*
X222266026Y-109828553D01*
X222409591Y-109561088D01*
X222498218Y-109270754D01*
X222352575Y-109029500D01*
X221043500Y-109029500D01*
X220916500Y-109029500D01*
X220896500Y-109029500D01*
X220896500Y-108902500D01*
X220916500Y-108902500D01*
X220916500Y-107593593D01*
X221043500Y-107593593D01*
X221043500Y-108902500D01*
X222352575Y-108902500D01*
X222498218Y-108661246D01*
X222409591Y-108370912D01*
X222266026Y-108103447D01*
X222073040Y-107869129D01*
X221838049Y-107676964D01*
X221570083Y-107534335D01*
X221284753Y-107447785D01*
X221043500Y-107593593D01*
X220916500Y-107593593D01*
X220675247Y-107447785D01*
X220389917Y-107534335D01*
X220121951Y-107676964D01*
X219930871Y-107833220D01*
X219873591Y-107726057D01*
X219786303Y-107619697D01*
X219679943Y-107532409D01*
X219558597Y-107467548D01*
X219426930Y-107427607D01*
X219290000Y-107414121D01*
X217590000Y-107414121D01*
X217453070Y-107427607D01*
X217321403Y-107467548D01*
X217200057Y-107532409D01*
X217093697Y-107619697D01*
X217006409Y-107726057D01*
X216941548Y-107847403D01*
X216901607Y-107979070D01*
X216888121Y-108116000D01*
X205039484Y-108116000D01*
X205040380Y-107987000D01*
X205026894Y-107850070D01*
X204986953Y-107718402D01*
X204922092Y-107597056D01*
X204834804Y-107490696D01*
X204728444Y-107403408D01*
X204607098Y-107338547D01*
X204475430Y-107298606D01*
X204338500Y-107285120D01*
X203989125Y-107288500D01*
X203814500Y-107463125D01*
X203687500Y-107463125D01*
X203512875Y-107288500D01*
X203163500Y-107285120D01*
X203026570Y-107298606D01*
X202894902Y-107338547D01*
X202773556Y-107403408D01*
X202667196Y-107490696D01*
X202639089Y-107524945D01*
X202542336Y-107445542D01*
X202377768Y-107357578D01*
X202199202Y-107303411D01*
X202013500Y-107285121D01*
X201338500Y-107285121D01*
X201152798Y-107303411D01*
X200974232Y-107357578D01*
X200809664Y-107445542D01*
X200705655Y-107530900D01*
X199507623Y-107530900D01*
X198594490Y-106617769D01*
X198594490Y-105649879D01*
X199896000Y-105649879D01*
X200062193Y-105633510D01*
X200222000Y-105585034D01*
X200369279Y-105506312D01*
X200498369Y-105400369D01*
X200604312Y-105271279D01*
X200683034Y-105124000D01*
X200731510Y-104964193D01*
X200747879Y-104798000D01*
X200747879Y-104498000D01*
X200731510Y-104331807D01*
X200683034Y-104172000D01*
X200604312Y-104024721D01*
X200594693Y-104013000D01*
X200604312Y-104001279D01*
X200683034Y-103854000D01*
X200731510Y-103694193D01*
X200747879Y-103528000D01*
X200747879Y-103228000D01*
X200731510Y-103061807D01*
X200683034Y-102902000D01*
X200604312Y-102754721D01*
X200594693Y-102743000D01*
X200604312Y-102731279D01*
X200683034Y-102584000D01*
X200731510Y-102424193D01*
X200747879Y-102258000D01*
X200747879Y-101958000D01*
X200731510Y-101791807D01*
X200683034Y-101632000D01*
X200628274Y-101529550D01*
X200629592Y-101527944D01*
X200694453Y-101406598D01*
X200734394Y-101274930D01*
X200747880Y-101138000D01*
X200744500Y-101076125D01*
X200569875Y-100901500D01*
X199134500Y-100901500D01*
X199134500Y-100921500D01*
X199007500Y-100921500D01*
X199007500Y-100901500D01*
X197572125Y-100901500D01*
X197397500Y-101076125D01*
X197394120Y-101138000D01*
X197407606Y-101274930D01*
X197447547Y-101406598D01*
X197512408Y-101527944D01*
X197513726Y-101529550D01*
X197458966Y-101632000D01*
X197410490Y-101791807D01*
X197397751Y-101921145D01*
X196450663Y-100974058D01*
X197440755Y-99983967D01*
X197458966Y-100044000D01*
X197513726Y-100146450D01*
X197512408Y-100148056D01*
X197447547Y-100269402D01*
X197407606Y-100401070D01*
X197394120Y-100538000D01*
X197397500Y-100599875D01*
X197572125Y-100774500D01*
X199007500Y-100774500D01*
X199007500Y-100754500D01*
X199134500Y-100754500D01*
X199134500Y-100774500D01*
X200569875Y-100774500D01*
X200744500Y-100599875D01*
X200747880Y-100538000D01*
X200734394Y-100401070D01*
X200694453Y-100269402D01*
X200629592Y-100148056D01*
X200628274Y-100146450D01*
X200683034Y-100044000D01*
X200731510Y-99884193D01*
X200747879Y-99718000D01*
X200747879Y-99418000D01*
X200731510Y-99251807D01*
X200683034Y-99092000D01*
X200604312Y-98944721D01*
X200594693Y-98933000D01*
X200604312Y-98921279D01*
X200683034Y-98774000D01*
X200731510Y-98614193D01*
X200747879Y-98448000D01*
X200747879Y-98148000D01*
X200731510Y-97981807D01*
X200683034Y-97822000D01*
X200604312Y-97674721D01*
X200594693Y-97663000D01*
X200604312Y-97651279D01*
X200683034Y-97504000D01*
X200731510Y-97344193D01*
X200747879Y-97178000D01*
X200747879Y-96878000D01*
X200731510Y-96711807D01*
X200683034Y-96552000D01*
X200604312Y-96404721D01*
X200498369Y-96275631D01*
X200369279Y-96169688D01*
X200222000Y-96090966D01*
X200062193Y-96042490D01*
X199896000Y-96026121D01*
X198594490Y-96026121D01*
X198594490Y-95932231D01*
X200563739Y-93962983D01*
X200603968Y-93929968D01*
X200735693Y-93769460D01*
X200791667Y-93664739D01*
X200818089Y-93643055D01*
X200846196Y-93677304D01*
X200952556Y-93764592D01*
X201073902Y-93829453D01*
X201205570Y-93869394D01*
X201342500Y-93882880D01*
X201691875Y-93879500D01*
X201866500Y-93704875D01*
X201866500Y-92519500D01*
X201993500Y-92519500D01*
X201993500Y-93704875D01*
X202168125Y-93879500D01*
X202517500Y-93882880D01*
X202654430Y-93869394D01*
X202786098Y-93829453D01*
X202907444Y-93764592D01*
X203013804Y-93677304D01*
X203101092Y-93570944D01*
X203165953Y-93449598D01*
X203205894Y-93317930D01*
X203219380Y-93181000D01*
X203216000Y-92694125D01*
X203041375Y-92519500D01*
X201993500Y-92519500D01*
X201866500Y-92519500D01*
X201846500Y-92519500D01*
X201846500Y-92392500D01*
X201866500Y-92392500D01*
X201866500Y-92372500D01*
X201993500Y-92372500D01*
X201993500Y-92392500D01*
X203041375Y-92392500D01*
X203216000Y-92217875D01*
X203219380Y-91731000D01*
X203205894Y-91594070D01*
X203165953Y-91462402D01*
X203101092Y-91341056D01*
X203013815Y-91234710D01*
X203415017Y-91234710D01*
X203462920Y-91293080D01*
X203533500Y-91351004D01*
X203533501Y-92679206D01*
X203528892Y-92726000D01*
X203547283Y-92912722D01*
X203601749Y-93092269D01*
X203690194Y-93257740D01*
X203749580Y-93330102D01*
X203809223Y-93402778D01*
X203845565Y-93432603D01*
X204041348Y-93628386D01*
X204048715Y-93665421D01*
X204131522Y-93865335D01*
X204251739Y-94045253D01*
X204287919Y-94081433D01*
X204271399Y-94101563D01*
X204182194Y-94210260D01*
X204093749Y-94375731D01*
X204066306Y-94466197D01*
X203991070Y-94473607D01*
X203859403Y-94513548D01*
X203738057Y-94578409D01*
X203631697Y-94665697D01*
X203544409Y-94772057D01*
X203479548Y-94893403D01*
X203439607Y-95025070D01*
X203426121Y-95162000D01*
X203426121Y-96862000D01*
X203439607Y-96998930D01*
X203479548Y-97130597D01*
X203544409Y-97251943D01*
X203631697Y-97358303D01*
X203738057Y-97445591D01*
X203859403Y-97510452D01*
X203991070Y-97550393D01*
X204128000Y-97563879D01*
X205828000Y-97563879D01*
X205964930Y-97550393D01*
X206096597Y-97510452D01*
X206217943Y-97445591D01*
X206324303Y-97358303D01*
X206411591Y-97251943D01*
X206463900Y-97154080D01*
X206463901Y-100269047D01*
X206451303Y-100253697D01*
X206344943Y-100166409D01*
X206223597Y-100101548D01*
X206091930Y-100061607D01*
X205955000Y-100048121D01*
X204255000Y-100048121D01*
X204118070Y-100061607D01*
X203986403Y-100101548D01*
X203865057Y-100166409D01*
X203758697Y-100253697D01*
X203671409Y-100360057D01*
X203606548Y-100481403D01*
X203566607Y-100613070D01*
X203553121Y-100750000D01*
X203553121Y-102450000D01*
X203566607Y-102586930D01*
X203606548Y-102718597D01*
X203671409Y-102839943D01*
X203758697Y-102946303D01*
X203865057Y-103033591D01*
X203986403Y-103098452D01*
X204118070Y-103138393D01*
X204255000Y-103151879D01*
X205955000Y-103151879D01*
X206091930Y-103138393D01*
X206223597Y-103098452D01*
X206344943Y-103033591D01*
X206451303Y-102946303D01*
X206538591Y-102839943D01*
X206590900Y-102742079D01*
X206590901Y-103891983D01*
X206526403Y-103911548D01*
X206405057Y-103976409D01*
X206298697Y-104063697D01*
X206211409Y-104170057D01*
X206156916Y-104272005D01*
X206092112Y-104207201D01*
X205838490Y-104037737D01*
X205556681Y-103921008D01*
X205257514Y-103861500D01*
X204952486Y-103861500D01*
X204653319Y-103921008D01*
X204371510Y-104037737D01*
X204117888Y-104207201D01*
X203902201Y-104422888D01*
X203732737Y-104676510D01*
X203616008Y-104958319D01*
X203556500Y-105257486D01*
X203556500Y-105562514D01*
X203616008Y-105861681D01*
X203732737Y-106143490D01*
X203902201Y-106397112D01*
X204117888Y-106612799D01*
X204371510Y-106782263D01*
X204653319Y-106898992D01*
X204952486Y-106958500D01*
X205257514Y-106958500D01*
X205556681Y-106898992D01*
X205838490Y-106782263D01*
X206092112Y-106612799D01*
X206156916Y-106547995D01*
X206211409Y-106649943D01*
X206298697Y-106756303D01*
X206405057Y-106843591D01*
X206526403Y-106908452D01*
X206658070Y-106948393D01*
X206795000Y-106961879D01*
X208495000Y-106961879D01*
X208631930Y-106948393D01*
X208763597Y-106908452D01*
X208884943Y-106843591D01*
X208991303Y-106756303D01*
X209078591Y-106649943D01*
X209143452Y-106528597D01*
X209183393Y-106396930D01*
X209196879Y-106260000D01*
X209196879Y-105125078D01*
X210559724Y-105125078D01*
X210622102Y-105394419D01*
X210882831Y-105532806D01*
X211165548Y-105617669D01*
X211459389Y-105645745D01*
X211753061Y-105615957D01*
X212035279Y-105529448D01*
X212287898Y-105394419D01*
X212350276Y-105125078D01*
X211455000Y-104229803D01*
X210559724Y-105125078D01*
X209196879Y-105125078D01*
X209196879Y-104560000D01*
X209183393Y-104423070D01*
X209143452Y-104291403D01*
X209078591Y-104170057D01*
X209057526Y-104144389D01*
X209949255Y-104144389D01*
X209979043Y-104438061D01*
X210065552Y-104720279D01*
X210200581Y-104972898D01*
X210469922Y-105035276D01*
X211365197Y-104140000D01*
X211544803Y-104140000D01*
X212440078Y-105035276D01*
X212709419Y-104972898D01*
X212847806Y-104712169D01*
X212932669Y-104429452D01*
X212960745Y-104135611D01*
X212946220Y-103992411D01*
X220116500Y-103992411D01*
X220116500Y-104287589D01*
X220174086Y-104577096D01*
X220287046Y-104849806D01*
X220451039Y-105095238D01*
X220659762Y-105303961D01*
X220905194Y-105467954D01*
X221177904Y-105580914D01*
X221467411Y-105638500D01*
X221762589Y-105638500D01*
X222052096Y-105580914D01*
X222324806Y-105467954D01*
X222570238Y-105303961D01*
X222778961Y-105095238D01*
X222942954Y-104849806D01*
X223055914Y-104577096D01*
X223113500Y-104287589D01*
X223113500Y-103992411D01*
X223055914Y-103702904D01*
X222942954Y-103430194D01*
X222778961Y-103184762D01*
X222570238Y-102976039D01*
X222324806Y-102812046D01*
X222052096Y-102699086D01*
X221762589Y-102641500D01*
X221467411Y-102641500D01*
X221177904Y-102699086D01*
X220905194Y-102812046D01*
X220659762Y-102976039D01*
X220451039Y-103184762D01*
X220287046Y-103430194D01*
X220174086Y-103702904D01*
X220116500Y-103992411D01*
X212946220Y-103992411D01*
X212930957Y-103841939D01*
X212844448Y-103559721D01*
X212709419Y-103307102D01*
X212440078Y-103244724D01*
X211544803Y-104140000D01*
X211365197Y-104140000D01*
X210469922Y-103244724D01*
X210200581Y-103307102D01*
X210062194Y-103567831D01*
X209977331Y-103850548D01*
X209949255Y-104144389D01*
X209057526Y-104144389D01*
X208991303Y-104063697D01*
X208884943Y-103976409D01*
X208763597Y-103911548D01*
X208699100Y-103891983D01*
X208699100Y-103154922D01*
X210559724Y-103154922D01*
X211455000Y-104050197D01*
X212350276Y-103154922D01*
X212287898Y-102885581D01*
X212027169Y-102747194D01*
X211744452Y-102662331D01*
X211450611Y-102634255D01*
X211156939Y-102664043D01*
X210874721Y-102750552D01*
X210622102Y-102885581D01*
X210559724Y-103154922D01*
X208699100Y-103154922D01*
X208699100Y-102735811D01*
X208847799Y-102587112D01*
X209017263Y-102333490D01*
X209133992Y-102051681D01*
X209193500Y-101752514D01*
X209193500Y-101447486D01*
X209133992Y-101148319D01*
X209017263Y-100866510D01*
X208847799Y-100612888D01*
X208632112Y-100397201D01*
X208572100Y-100357102D01*
X208572100Y-97663618D01*
X214216500Y-97663618D01*
X214216500Y-98116382D01*
X214304831Y-98560448D01*
X214478096Y-98978748D01*
X214729639Y-99355208D01*
X215049792Y-99675361D01*
X215426252Y-99926904D01*
X215844552Y-100100169D01*
X216288618Y-100188500D01*
X216741382Y-100188500D01*
X217185448Y-100100169D01*
X217603748Y-99926904D01*
X217980208Y-99675361D01*
X218300361Y-99355208D01*
X218551904Y-98978748D01*
X218725169Y-98560448D01*
X218813500Y-98116382D01*
X218813500Y-97663618D01*
X218725169Y-97219552D01*
X218551904Y-96801252D01*
X218300361Y-96424792D01*
X217980208Y-96104639D01*
X217603748Y-95853096D01*
X217185448Y-95679831D01*
X216741382Y-95591500D01*
X216288618Y-95591500D01*
X215844552Y-95679831D01*
X215426252Y-95853096D01*
X215049792Y-96104639D01*
X214729639Y-96424792D01*
X214478096Y-96801252D01*
X214304831Y-97219552D01*
X214216500Y-97663618D01*
X208572100Y-97663618D01*
X208572100Y-97147811D01*
X208720799Y-96999112D01*
X208788000Y-96898538D01*
X208855201Y-96999112D01*
X209070888Y-97214799D01*
X209324510Y-97384263D01*
X209606319Y-97500992D01*
X209905486Y-97560500D01*
X210210514Y-97560500D01*
X210509681Y-97500992D01*
X210791490Y-97384263D01*
X211045112Y-97214799D01*
X211260799Y-96999112D01*
X211430263Y-96745490D01*
X211546992Y-96463681D01*
X211606500Y-96164514D01*
X211606500Y-95859486D01*
X211546992Y-95560319D01*
X211430263Y-95278510D01*
X211260799Y-95024888D01*
X211045112Y-94809201D01*
X210791490Y-94639737D01*
X210509681Y-94523008D01*
X210210514Y-94463500D01*
X209905486Y-94463500D01*
X209606319Y-94523008D01*
X209324510Y-94639737D01*
X209070888Y-94809201D01*
X208855201Y-95024888D01*
X208788000Y-95125462D01*
X208720799Y-95024888D01*
X208505112Y-94809201D01*
X208251490Y-94639737D01*
X207969681Y-94523008D01*
X207670514Y-94463500D01*
X207365486Y-94463500D01*
X207066319Y-94523008D01*
X206784510Y-94639737D01*
X206530888Y-94809201D01*
X206466084Y-94874005D01*
X206411591Y-94772057D01*
X206359028Y-94708010D01*
X208563387Y-92503651D01*
X208600421Y-92496285D01*
X208800335Y-92413478D01*
X208980253Y-92293261D01*
X209133261Y-92140253D01*
X209253478Y-91960335D01*
X209336285Y-91760421D01*
X209378500Y-91548193D01*
X209378500Y-91331807D01*
X209345123Y-91164012D01*
X209425000Y-91171879D01*
X211075000Y-91171879D01*
X211241193Y-91155510D01*
X211350014Y-91122500D01*
X212043215Y-91122500D01*
X212090000Y-91127108D01*
X212136785Y-91122500D01*
X212276723Y-91108717D01*
X212456269Y-91054252D01*
X212621741Y-90965806D01*
X212766778Y-90846778D01*
X212796607Y-90810431D01*
X213523121Y-90083918D01*
X213523121Y-90320000D01*
X213539490Y-90486193D01*
X213587966Y-90646000D01*
X213666688Y-90793279D01*
X213772631Y-90922369D01*
X213901721Y-91028312D01*
X214049000Y-91107034D01*
X214208807Y-91155510D01*
X214375000Y-91171879D01*
X216025000Y-91171879D01*
X216191193Y-91155510D01*
X216300014Y-91122500D01*
X219547962Y-91122500D01*
X219923121Y-91497660D01*
X219923121Y-91915000D01*
X219941411Y-92100702D01*
X219995578Y-92279268D01*
X220083542Y-92443836D01*
X220201920Y-92588080D01*
X220346164Y-92706458D01*
X220510732Y-92794422D01*
X220689298Y-92848589D01*
X220875000Y-92866879D01*
X221550000Y-92866879D01*
X221735702Y-92848589D01*
X221914268Y-92794422D01*
X222078836Y-92706458D01*
X222175589Y-92627055D01*
X222203696Y-92661304D01*
X222310056Y-92748592D01*
X222431402Y-92813453D01*
X222563070Y-92853394D01*
X222700000Y-92866880D01*
X223049375Y-92863500D01*
X223224000Y-92688875D01*
X223224000Y-91503500D01*
X223351000Y-91503500D01*
X223351000Y-92688875D01*
X223525625Y-92863500D01*
X223875000Y-92866880D01*
X224011930Y-92853394D01*
X224143598Y-92813453D01*
X224264944Y-92748592D01*
X224371304Y-92661304D01*
X224458592Y-92554944D01*
X224523453Y-92433598D01*
X224563394Y-92301930D01*
X224576880Y-92165000D01*
X224573500Y-91678125D01*
X224398875Y-91503500D01*
X223351000Y-91503500D01*
X223224000Y-91503500D01*
X223204000Y-91503500D01*
X223204000Y-91376500D01*
X223224000Y-91376500D01*
X223224000Y-90191125D01*
X223202875Y-90170000D01*
X223224000Y-90148875D01*
X223224000Y-88963500D01*
X223351000Y-88963500D01*
X223351000Y-90148875D01*
X223372125Y-90170000D01*
X223351000Y-90191125D01*
X223351000Y-91376500D01*
X224398875Y-91376500D01*
X224573500Y-91201875D01*
X224576880Y-90715000D01*
X224563394Y-90578070D01*
X224523453Y-90446402D01*
X224458592Y-90325056D01*
X224371304Y-90218696D01*
X224311968Y-90170000D01*
X224371304Y-90121304D01*
X224458592Y-90014944D01*
X224523453Y-89893598D01*
X224563394Y-89761930D01*
X224576880Y-89625000D01*
X224573500Y-89138125D01*
X224398875Y-88963500D01*
X223351000Y-88963500D01*
X223224000Y-88963500D01*
X223204000Y-88963500D01*
X223204000Y-88836500D01*
X223224000Y-88836500D01*
X223224000Y-87651125D01*
X223202875Y-87630000D01*
X223224000Y-87608875D01*
X223224000Y-86423500D01*
X223351000Y-86423500D01*
X223351000Y-87608875D01*
X223372125Y-87630000D01*
X223351000Y-87651125D01*
X223351000Y-88836500D01*
X224398875Y-88836500D01*
X224573500Y-88661875D01*
X224576880Y-88175000D01*
X224563394Y-88038070D01*
X224523453Y-87906402D01*
X224458592Y-87785056D01*
X224371304Y-87678696D01*
X224311968Y-87630000D01*
X224371304Y-87581304D01*
X224458592Y-87474944D01*
X224523453Y-87353598D01*
X224563394Y-87221930D01*
X224576880Y-87085000D01*
X224573500Y-86598125D01*
X224398875Y-86423500D01*
X223351000Y-86423500D01*
X223224000Y-86423500D01*
X223204000Y-86423500D01*
X223204000Y-86296500D01*
X223224000Y-86296500D01*
X223224000Y-85111125D01*
X223351000Y-85111125D01*
X223351000Y-86296500D01*
X224398875Y-86296500D01*
X224573500Y-86121875D01*
X224576880Y-85635000D01*
X224563394Y-85498070D01*
X224523453Y-85366402D01*
X224458592Y-85245056D01*
X224371304Y-85138696D01*
X224264944Y-85051408D01*
X224143598Y-84986547D01*
X224011930Y-84946606D01*
X223875000Y-84933120D01*
X223525625Y-84936500D01*
X223351000Y-85111125D01*
X223224000Y-85111125D01*
X223049375Y-84936500D01*
X222700000Y-84933120D01*
X222563070Y-84946606D01*
X222431402Y-84986547D01*
X222310056Y-85051408D01*
X222203696Y-85138696D01*
X222175589Y-85172945D01*
X222078836Y-85093542D01*
X221914268Y-85005578D01*
X221735702Y-84951411D01*
X221550000Y-84933121D01*
X220875000Y-84933121D01*
X220689298Y-84951411D01*
X220510732Y-85005578D01*
X220346164Y-85093542D01*
X220201920Y-85211920D01*
X220124793Y-85305900D01*
X216319100Y-85305900D01*
X216319100Y-84780696D01*
X216321285Y-84775421D01*
X216363500Y-84563193D01*
X216363500Y-84346807D01*
X216321285Y-84134579D01*
X216238478Y-83934665D01*
X216118261Y-83754747D01*
X215965253Y-83601739D01*
X215785335Y-83481522D01*
X215585421Y-83398715D01*
X215373193Y-83356500D01*
X215156807Y-83356500D01*
X214944579Y-83398715D01*
X214744665Y-83481522D01*
X214564747Y-83601739D01*
X214411739Y-83754747D01*
X214291522Y-83934665D01*
X214208715Y-84134579D01*
X214166500Y-84346807D01*
X214166500Y-84563193D01*
X214208715Y-84775421D01*
X214210900Y-84780696D01*
X214210900Y-85374284D01*
X214208807Y-85374490D01*
X214049000Y-85422966D01*
X213901721Y-85501688D01*
X213772631Y-85607631D01*
X213666688Y-85736721D01*
X213587966Y-85884000D01*
X213539490Y-86043807D01*
X213523121Y-86210000D01*
X213523121Y-86446082D01*
X209908917Y-82831879D01*
X210400000Y-82831879D01*
X210536930Y-82818393D01*
X210668597Y-82778452D01*
X210789943Y-82713591D01*
X210896303Y-82626303D01*
X210983591Y-82519943D01*
X211038084Y-82417995D01*
X211102888Y-82482799D01*
X211356510Y-82652263D01*
X211638319Y-82768992D01*
X211937486Y-82828500D01*
X212242514Y-82828500D01*
X212541681Y-82768992D01*
X212823490Y-82652263D01*
X213077112Y-82482799D01*
X213292799Y-82267112D01*
X213462263Y-82013490D01*
X213578992Y-81731681D01*
X213638500Y-81432514D01*
X213638500Y-81127486D01*
X213578992Y-80828319D01*
X213462263Y-80546510D01*
X213292799Y-80292888D01*
X213077112Y-80077201D01*
X212823490Y-79907737D01*
X212541681Y-79791008D01*
X212242514Y-79731500D01*
X211937486Y-79731500D01*
X211638319Y-79791008D01*
X211356510Y-79907737D01*
X211102888Y-80077201D01*
X211038084Y-80142005D01*
X210983591Y-80040057D01*
X210896303Y-79933697D01*
X210789943Y-79846409D01*
X210668597Y-79781548D01*
X210536930Y-79741607D01*
X210400000Y-79728121D01*
X208700000Y-79728121D01*
X208563070Y-79741607D01*
X208431403Y-79781548D01*
X208310057Y-79846409D01*
X208203697Y-79933697D01*
X208116409Y-80040057D01*
X208051548Y-80161403D01*
X208011607Y-80293070D01*
X207998121Y-80430000D01*
X207998121Y-81631501D01*
X206168539Y-81631501D01*
X204133522Y-79596484D01*
X216781500Y-79596484D01*
X216781500Y-80423516D01*
X216942846Y-81234657D01*
X217259337Y-81998736D01*
X217718812Y-82686388D01*
X218303612Y-83271188D01*
X218991264Y-83730663D01*
X219755343Y-84047154D01*
X220566484Y-84208500D01*
X221393516Y-84208500D01*
X222204657Y-84047154D01*
X222968736Y-83730663D01*
X223656388Y-83271188D01*
X224241188Y-82686388D01*
X224700663Y-81998736D01*
X225017154Y-81234657D01*
X225178500Y-80423516D01*
X225178500Y-79596484D01*
X225017154Y-78785343D01*
X224700663Y-78021264D01*
X224241188Y-77333612D01*
X223656388Y-76748812D01*
X222968736Y-76289337D01*
X222204657Y-75972846D01*
X221393516Y-75811500D01*
X220566484Y-75811500D01*
X219755343Y-75972846D01*
X218991264Y-76289337D01*
X218303612Y-76748812D01*
X217718812Y-77333612D01*
X217259337Y-78021264D01*
X216942846Y-78785343D01*
X216781500Y-79596484D01*
X204133522Y-79596484D01*
X203521854Y-78984816D01*
X203651681Y-78958992D01*
X203933490Y-78842263D01*
X204187112Y-78672799D01*
X204402799Y-78457112D01*
X204572263Y-78203490D01*
X204688992Y-77921681D01*
X204748500Y-77622514D01*
X204748500Y-77317486D01*
X204688992Y-77018319D01*
X204572263Y-76736510D01*
X204494414Y-76620000D01*
X207998121Y-76620000D01*
X207998121Y-78320000D01*
X208011607Y-78456930D01*
X208051548Y-78588597D01*
X208116409Y-78709943D01*
X208203697Y-78816303D01*
X208310057Y-78903591D01*
X208431403Y-78968452D01*
X208563070Y-79008393D01*
X208700000Y-79021879D01*
X210400000Y-79021879D01*
X210536930Y-79008393D01*
X210668597Y-78968452D01*
X210789943Y-78903591D01*
X210896303Y-78816303D01*
X210983591Y-78709943D01*
X211038084Y-78607995D01*
X211102888Y-78672799D01*
X211356510Y-78842263D01*
X211638319Y-78958992D01*
X211937486Y-79018500D01*
X212242514Y-79018500D01*
X212541681Y-78958992D01*
X212823490Y-78842263D01*
X213077112Y-78672799D01*
X213292799Y-78457112D01*
X213462263Y-78203490D01*
X213578992Y-77921681D01*
X213638500Y-77622514D01*
X213638500Y-77317486D01*
X213578992Y-77018319D01*
X213462263Y-76736510D01*
X213292799Y-76482888D01*
X213077112Y-76267201D01*
X212823490Y-76097737D01*
X212541681Y-75981008D01*
X212242514Y-75921500D01*
X211937486Y-75921500D01*
X211638319Y-75981008D01*
X211356510Y-76097737D01*
X211102888Y-76267201D01*
X211038084Y-76332005D01*
X210983591Y-76230057D01*
X210896303Y-76123697D01*
X210789943Y-76036409D01*
X210668597Y-75971548D01*
X210536930Y-75931607D01*
X210400000Y-75918121D01*
X208700000Y-75918121D01*
X208563070Y-75931607D01*
X208431403Y-75971548D01*
X208310057Y-76036409D01*
X208203697Y-76123697D01*
X208116409Y-76230057D01*
X208051548Y-76351403D01*
X208011607Y-76483070D01*
X207998121Y-76620000D01*
X204494414Y-76620000D01*
X204402799Y-76482888D01*
X204187112Y-76267201D01*
X203933490Y-76097737D01*
X203651681Y-75981008D01*
X203352514Y-75921500D01*
X203142221Y-75921500D01*
X202576386Y-75355665D01*
X202543367Y-75315431D01*
X202382859Y-75183706D01*
X202199737Y-75085826D01*
X202001039Y-75025551D01*
X201846181Y-75010299D01*
X201794399Y-75005199D01*
X201742617Y-75010299D01*
X199417301Y-75010299D01*
X199365519Y-75005199D01*
X199313737Y-75010299D01*
X199158879Y-75025551D01*
X198960181Y-75085826D01*
X198777059Y-75183706D01*
X198616551Y-75315431D01*
X198583536Y-75355660D01*
X196493500Y-77445697D01*
X196493500Y-77317486D01*
X196433992Y-77018319D01*
X196317263Y-76736510D01*
X196147799Y-76482888D01*
X195932112Y-76267201D01*
X195678490Y-76097737D01*
X195396681Y-75981008D01*
X195097514Y-75921500D01*
X194792486Y-75921500D01*
X194493319Y-75981008D01*
X194211510Y-76097737D01*
X193957888Y-76267201D01*
X193893084Y-76332005D01*
X193838591Y-76230057D01*
X193751303Y-76123697D01*
X193644943Y-76036409D01*
X193523597Y-75971548D01*
X193391930Y-75931607D01*
X193255000Y-75918121D01*
X191555000Y-75918121D01*
X191418070Y-75931607D01*
X191286403Y-75971548D01*
X191165057Y-76036409D01*
X191058697Y-76123697D01*
X190971409Y-76230057D01*
X190906548Y-76351403D01*
X190866607Y-76483070D01*
X190863216Y-76517500D01*
X188629898Y-76517500D01*
X188602458Y-76466164D01*
X188484080Y-76321920D01*
X188339836Y-76203542D01*
X188175268Y-76115578D01*
X187996702Y-76061411D01*
X187811000Y-76043121D01*
X187136000Y-76043121D01*
X186950298Y-76061411D01*
X186771732Y-76115578D01*
X186607164Y-76203542D01*
X186462920Y-76321920D01*
X186436000Y-76354722D01*
X186409080Y-76321920D01*
X186264836Y-76203542D01*
X186100268Y-76115578D01*
X185921702Y-76061411D01*
X185736000Y-76043121D01*
X185061000Y-76043121D01*
X184875298Y-76061411D01*
X184696732Y-76115578D01*
X184532164Y-76203542D01*
X184387920Y-76321920D01*
X184269542Y-76466164D01*
X184181578Y-76630732D01*
X184127411Y-76809298D01*
X184109121Y-76995000D01*
X184109121Y-77268657D01*
X182047322Y-79330457D01*
X181964154Y-78912343D01*
X181647663Y-78148264D01*
X181188188Y-77460612D01*
X180603388Y-76875812D01*
X179915736Y-76416337D01*
X179151657Y-76099846D01*
X178340516Y-75938500D01*
X177513484Y-75938500D01*
X176702343Y-76099846D01*
X175938264Y-76416337D01*
X175250612Y-76875812D01*
X174665812Y-77460612D01*
X174206337Y-78148264D01*
X173889846Y-78912343D01*
X173728500Y-79723484D01*
X173443500Y-79723484D01*
X173443500Y-74891500D01*
X225336500Y-74891500D01*
X225336500Y-74965536D01*
%TA.AperFunction,Conductor*%
D28*
G36*
X225336500Y-74965536D02*
G01*
X225336501Y-74965546D01*
X225336500Y-94520876D01*
X225278961Y-94434762D01*
X225070238Y-94226039D01*
X224824806Y-94062046D01*
X224552096Y-93949086D01*
X224262589Y-93891500D01*
X223967411Y-93891500D01*
X223677904Y-93949086D01*
X223405194Y-94062046D01*
X223159762Y-94226039D01*
X222951039Y-94434762D01*
X222787046Y-94680194D01*
X222674086Y-94952904D01*
X222616500Y-95242411D01*
X222616500Y-95308611D01*
X222608943Y-95302409D01*
X222487597Y-95237548D01*
X222355930Y-95197607D01*
X222219000Y-95184121D01*
X221011000Y-95184121D01*
X220874070Y-95197607D01*
X220742403Y-95237548D01*
X220621057Y-95302409D01*
X220514697Y-95389697D01*
X220427409Y-95496057D01*
X220362548Y-95617403D01*
X220322607Y-95749070D01*
X220309121Y-95886000D01*
X220309121Y-97094000D01*
X220322607Y-97230930D01*
X220362548Y-97362597D01*
X220427409Y-97483943D01*
X220514697Y-97590303D01*
X220621057Y-97677591D01*
X220742403Y-97742452D01*
X220874070Y-97782393D01*
X220951308Y-97790000D01*
X220874070Y-97797607D01*
X220742403Y-97837548D01*
X220621057Y-97902409D01*
X220514697Y-97989697D01*
X220427409Y-98096057D01*
X220362548Y-98217403D01*
X220322607Y-98349070D01*
X220309121Y-98486000D01*
X220309121Y-99694000D01*
X220322607Y-99830930D01*
X220362548Y-99962597D01*
X220427409Y-100083943D01*
X220514697Y-100190303D01*
X220621057Y-100277591D01*
X220742403Y-100342452D01*
X220874070Y-100382393D01*
X221011000Y-100395879D01*
X222219000Y-100395879D01*
X222355930Y-100382393D01*
X222487597Y-100342452D01*
X222608943Y-100277591D01*
X222616500Y-100271389D01*
X222616500Y-100537589D01*
X222674086Y-100827096D01*
X222787046Y-101099806D01*
X222951039Y-101345238D01*
X223159762Y-101553961D01*
X223405194Y-101717954D01*
X223677904Y-101830914D01*
X223967411Y-101888500D01*
X224262589Y-101888500D01*
X224552096Y-101830914D01*
X224824806Y-101717954D01*
X225070238Y-101553961D01*
X225278961Y-101345238D01*
X225336500Y-101259125D01*
X225336500Y-107985535D01*
X225336501Y-107985545D01*
X225336500Y-109184464D01*
X225336500Y-109184465D01*
X225336501Y-119344455D01*
X225336500Y-119344465D01*
X225336500Y-119926500D01*
X173443500Y-119926500D01*
X173443500Y-115156484D01*
X173855500Y-115156484D01*
X173855500Y-115983516D01*
X174016846Y-116794657D01*
X174333337Y-117558736D01*
X174792812Y-118246388D01*
X175377612Y-118831188D01*
X176065264Y-119290663D01*
X176829343Y-119607154D01*
X177640484Y-119768500D01*
X178467516Y-119768500D01*
X179278657Y-119607154D01*
X180042736Y-119290663D01*
X180730388Y-118831188D01*
X181315188Y-118246388D01*
X181774663Y-117558736D01*
X182091154Y-116794657D01*
X182252500Y-115983516D01*
X182252500Y-115156484D01*
X182091154Y-114345343D01*
X181774663Y-113581264D01*
X181315188Y-112893612D01*
X180730388Y-112308812D01*
X180042736Y-111849337D01*
X179278657Y-111532846D01*
X178467516Y-111371500D01*
X177640484Y-111371500D01*
X176829343Y-111532846D01*
X176065264Y-111849337D01*
X175377612Y-112308812D01*
X174792812Y-112893612D01*
X174333337Y-113581264D01*
X174016846Y-114345343D01*
X173855500Y-115156484D01*
X173443500Y-115156484D01*
X173443500Y-110682000D01*
X181070120Y-110682000D01*
X181083606Y-110818930D01*
X181123547Y-110950598D01*
X181188408Y-111071944D01*
X181275696Y-111178304D01*
X181382056Y-111265592D01*
X181503402Y-111330453D01*
X181635070Y-111370394D01*
X181772000Y-111383880D01*
X182133875Y-111380500D01*
X182308500Y-111205875D01*
X182308500Y-110045500D01*
X181248125Y-110045500D01*
X181073500Y-110220125D01*
X181070120Y-110682000D01*
X173443500Y-110682000D01*
X173443500Y-106565000D01*
X173808121Y-106565000D01*
X173808121Y-108065000D01*
X173821607Y-108201930D01*
X173861548Y-108333597D01*
X173926409Y-108454943D01*
X174013697Y-108561303D01*
X174120057Y-108648591D01*
X174241403Y-108713452D01*
X174373070Y-108753393D01*
X174510000Y-108766879D01*
X175364840Y-108766879D01*
X175834407Y-109236446D01*
X175864232Y-109272788D01*
X176009269Y-109391816D01*
X176092005Y-109436039D01*
X176174740Y-109480262D01*
X176264514Y-109507494D01*
X176354287Y-109534727D01*
X176494225Y-109548510D01*
X176541010Y-109553118D01*
X176587795Y-109548510D01*
X177742205Y-109548510D01*
X177788990Y-109553118D01*
X177835775Y-109548510D01*
X177975713Y-109534727D01*
X178155259Y-109480262D01*
X178320731Y-109391816D01*
X178465768Y-109272788D01*
X178495597Y-109236441D01*
X179988386Y-107743652D01*
X180025421Y-107736285D01*
X180225335Y-107653478D01*
X180405253Y-107533261D01*
X180558261Y-107380253D01*
X180678478Y-107200335D01*
X180761285Y-107000421D01*
X180803500Y-106788193D01*
X180803500Y-106571807D01*
X180761285Y-106359579D01*
X180678478Y-106159665D01*
X180558261Y-105979747D01*
X180405253Y-105826739D01*
X180225335Y-105706522D01*
X180025421Y-105623715D01*
X179813193Y-105581500D01*
X179596807Y-105581500D01*
X179384579Y-105623715D01*
X179184665Y-105706522D01*
X179004747Y-105826739D01*
X178851739Y-105979747D01*
X178731522Y-106159665D01*
X178648715Y-106359579D01*
X178641348Y-106396614D01*
X177394452Y-107643510D01*
X176935549Y-107643510D01*
X176711879Y-107419840D01*
X176711879Y-106565000D01*
X176698393Y-106428070D01*
X176658452Y-106296403D01*
X176593591Y-106175057D01*
X176506303Y-106068697D01*
X176399943Y-105981409D01*
X176278597Y-105916548D01*
X176146930Y-105876607D01*
X176010000Y-105863121D01*
X174510000Y-105863121D01*
X174373070Y-105876607D01*
X174241403Y-105916548D01*
X174120057Y-105981409D01*
X174013697Y-106068697D01*
X173926409Y-106175057D01*
X173861548Y-106296403D01*
X173821607Y-106428070D01*
X173808121Y-106565000D01*
X173443500Y-106565000D01*
X173443500Y-103390000D01*
X173808121Y-103390000D01*
X173808121Y-104890000D01*
X173821607Y-105026930D01*
X173861548Y-105158597D01*
X173926409Y-105279943D01*
X174013697Y-105386303D01*
X174120057Y-105473591D01*
X174241403Y-105538452D01*
X174373070Y-105578393D01*
X174510000Y-105591879D01*
X176010000Y-105591879D01*
X176146930Y-105578393D01*
X176278597Y-105538452D01*
X176399943Y-105473591D01*
X176506303Y-105386303D01*
X176593591Y-105279943D01*
X176658452Y-105158597D01*
X176698393Y-105026930D01*
X176711879Y-104890000D01*
X176711879Y-103400159D01*
X179353386Y-100758652D01*
X179390421Y-100751285D01*
X179590335Y-100668478D01*
X179770253Y-100548261D01*
X179923261Y-100395253D01*
X180043478Y-100215335D01*
X180126285Y-100015421D01*
X180168500Y-99803193D01*
X180168500Y-99586807D01*
X180126285Y-99374579D01*
X180043478Y-99174665D01*
X179923261Y-98994747D01*
X179770253Y-98841739D01*
X179590335Y-98721522D01*
X179390421Y-98638715D01*
X179178193Y-98596500D01*
X178961807Y-98596500D01*
X178749579Y-98638715D01*
X178549665Y-98721522D01*
X178369747Y-98841739D01*
X178216739Y-98994747D01*
X178096522Y-99174665D01*
X178013715Y-99374579D01*
X178006348Y-99411614D01*
X176709427Y-100708535D01*
X176708500Y-100568125D01*
X176533875Y-100393500D01*
X175323500Y-100393500D01*
X175323500Y-101603875D01*
X175498125Y-101778500D01*
X175638535Y-101779427D01*
X174729841Y-102688121D01*
X174510000Y-102688121D01*
X174373070Y-102701607D01*
X174241403Y-102741548D01*
X174120057Y-102806409D01*
X174013697Y-102893697D01*
X173926409Y-103000057D01*
X173861548Y-103121403D01*
X173821607Y-103253070D01*
X173808121Y-103390000D01*
X173443500Y-103390000D01*
X173443500Y-101080000D01*
X173808120Y-101080000D01*
X173821606Y-101216930D01*
X173861547Y-101348598D01*
X173926408Y-101469944D01*
X174013696Y-101576304D01*
X174120056Y-101663592D01*
X174241402Y-101728453D01*
X174373070Y-101768394D01*
X174510000Y-101781880D01*
X175021875Y-101778500D01*
X175196500Y-101603875D01*
X175196500Y-100393500D01*
X173986125Y-100393500D01*
X173811500Y-100568125D01*
X173808120Y-101080000D01*
X173443500Y-101080000D01*
X173443500Y-99580000D01*
X173808120Y-99580000D01*
X173811500Y-100091875D01*
X173986125Y-100266500D01*
X175196500Y-100266500D01*
X175196500Y-99056125D01*
X175323500Y-99056125D01*
X175323500Y-100266500D01*
X176533875Y-100266500D01*
X176708500Y-100091875D01*
X176711880Y-99580000D01*
X176698394Y-99443070D01*
X176658453Y-99311402D01*
X176593592Y-99190056D01*
X176506304Y-99083696D01*
X176399944Y-98996408D01*
X176278598Y-98931547D01*
X176146930Y-98891606D01*
X176010000Y-98878120D01*
X175498125Y-98881500D01*
X175323500Y-99056125D01*
X175196500Y-99056125D01*
X175021875Y-98881500D01*
X174510000Y-98878120D01*
X174373070Y-98891606D01*
X174241402Y-98931547D01*
X174120056Y-98996408D01*
X174013696Y-99083696D01*
X173926408Y-99190056D01*
X173861547Y-99311402D01*
X173821606Y-99443070D01*
X173808120Y-99580000D01*
X173443500Y-99580000D01*
X173443500Y-79723484D01*
X173728500Y-79723484D01*
X173728500Y-80550516D01*
X173889846Y-81361657D01*
X174206337Y-82125736D01*
X174665812Y-82813388D01*
X175250612Y-83398188D01*
X175938264Y-83857663D01*
X176156650Y-83948121D01*
X174868000Y-83948121D01*
X174731070Y-83961607D01*
X174599403Y-84001548D01*
X174478057Y-84066409D01*
X174371697Y-84153697D01*
X174284409Y-84260057D01*
X174219548Y-84381403D01*
X174179607Y-84513070D01*
X174166121Y-84650000D01*
X174166121Y-88150000D01*
X174179607Y-88286930D01*
X174219548Y-88418597D01*
X174284409Y-88539943D01*
X174371697Y-88646303D01*
X174478057Y-88733591D01*
X174599403Y-88798452D01*
X174731070Y-88838393D01*
X174868000Y-88851879D01*
X176668000Y-88851879D01*
X176804930Y-88838393D01*
X176936597Y-88798452D01*
X177057943Y-88733591D01*
X177164303Y-88646303D01*
X177251591Y-88539943D01*
X177316452Y-88418597D01*
X177356393Y-88286930D01*
X177369879Y-88150000D01*
X177369879Y-87454100D01*
X177614508Y-87454100D01*
X177666290Y-87459200D01*
X177718072Y-87454100D01*
X177872930Y-87438848D01*
X178071628Y-87378573D01*
X178254750Y-87280693D01*
X178415258Y-87148968D01*
X178448277Y-87108734D01*
X182691340Y-82865672D01*
X182731569Y-82832657D01*
X182863294Y-82672149D01*
X182898689Y-82605930D01*
X182961174Y-82489028D01*
X183021449Y-82290329D01*
X183036724Y-82135250D01*
X183213665Y-82253478D01*
X183413579Y-82336285D01*
X183625807Y-82378500D01*
X183842193Y-82378500D01*
X184054421Y-82336285D01*
X184254335Y-82253478D01*
X184434253Y-82133261D01*
X184587261Y-81980253D01*
X184707478Y-81800335D01*
X184709664Y-81795057D01*
X184870903Y-81633819D01*
X184916297Y-81647589D01*
X185101999Y-81665879D01*
X185735083Y-81665879D01*
X185490841Y-81910121D01*
X185085999Y-81910121D01*
X184900297Y-81928411D01*
X184721731Y-81982578D01*
X184557164Y-82070541D01*
X184412920Y-82188920D01*
X184294541Y-82333164D01*
X184206578Y-82497731D01*
X184152411Y-82676297D01*
X184134121Y-82861999D01*
X184134121Y-83762001D01*
X184152411Y-83947703D01*
X184206578Y-84126269D01*
X184294541Y-84290836D01*
X184412920Y-84435080D01*
X184557164Y-84553459D01*
X184721731Y-84641422D01*
X184900297Y-84695589D01*
X185085999Y-84713879D01*
X185786001Y-84713879D01*
X185971703Y-84695589D01*
X186150269Y-84641422D01*
X186314836Y-84553459D01*
X186436000Y-84454021D01*
X186557164Y-84553459D01*
X186721731Y-84641422D01*
X186900297Y-84695589D01*
X187085999Y-84713879D01*
X187786001Y-84713879D01*
X187971703Y-84695589D01*
X188150269Y-84641422D01*
X188314836Y-84553459D01*
X188459080Y-84435080D01*
X188577459Y-84290836D01*
X188591536Y-84264500D01*
X190213411Y-84264500D01*
X190174490Y-84392807D01*
X190158121Y-84559000D01*
X190158121Y-84859000D01*
X190174490Y-85025193D01*
X190222966Y-85185000D01*
X190301688Y-85332279D01*
X190311307Y-85344000D01*
X190301688Y-85355721D01*
X190222966Y-85503000D01*
X190174490Y-85662807D01*
X190158121Y-85829000D01*
X190158121Y-86129000D01*
X190174490Y-86295193D01*
X190222966Y-86455000D01*
X190301688Y-86602279D01*
X190407631Y-86731369D01*
X190536721Y-86837312D01*
X190684000Y-86916034D01*
X190780900Y-86945428D01*
X190780901Y-88333989D01*
X190775800Y-88385780D01*
X190796152Y-88592419D01*
X190856428Y-88791118D01*
X190951426Y-88968848D01*
X190954308Y-88974240D01*
X191086033Y-89134748D01*
X191092204Y-89139812D01*
X191206349Y-89310643D01*
X191359357Y-89463651D01*
X191539275Y-89583868D01*
X191739189Y-89666675D01*
X191951417Y-89708890D01*
X192167803Y-89708890D01*
X192380031Y-89666675D01*
X192579945Y-89583868D01*
X192759863Y-89463651D01*
X192912871Y-89310643D01*
X193033088Y-89130725D01*
X193115895Y-88930811D01*
X193158110Y-88718583D01*
X193158110Y-88502197D01*
X193115895Y-88289969D01*
X193068274Y-88175000D01*
X193761120Y-88175000D01*
X193764500Y-88661875D01*
X193939125Y-88836500D01*
X194987000Y-88836500D01*
X194987000Y-87651125D01*
X194812375Y-87476500D01*
X194463000Y-87473120D01*
X194326070Y-87486606D01*
X194194402Y-87526547D01*
X194073056Y-87591408D01*
X193966696Y-87678696D01*
X193879408Y-87785056D01*
X193814547Y-87906402D01*
X193774606Y-88038070D01*
X193761120Y-88175000D01*
X193068274Y-88175000D01*
X193033088Y-88090055D01*
X192912871Y-87910137D01*
X192889100Y-87886366D01*
X192889100Y-86945428D01*
X192986000Y-86916034D01*
X193133279Y-86837312D01*
X193262369Y-86731369D01*
X193368312Y-86602279D01*
X193447034Y-86455000D01*
X193495510Y-86295193D01*
X193511879Y-86129000D01*
X193511879Y-85829000D01*
X193495510Y-85662807D01*
X193455645Y-85531388D01*
X193566807Y-85553500D01*
X193783193Y-85553500D01*
X193995421Y-85511285D01*
X194195335Y-85428478D01*
X194375253Y-85308261D01*
X194528261Y-85155253D01*
X194648478Y-84975335D01*
X194731285Y-84775421D01*
X194766773Y-84597011D01*
X195116791Y-84947030D01*
X195124490Y-85025193D01*
X195172966Y-85185000D01*
X195251688Y-85332279D01*
X195261307Y-85344000D01*
X195251688Y-85355721D01*
X195172966Y-85503000D01*
X195124490Y-85662807D01*
X195108121Y-85829000D01*
X195108121Y-86129000D01*
X195124490Y-86295193D01*
X195172966Y-86455000D01*
X195251688Y-86602279D01*
X195357631Y-86731369D01*
X195486721Y-86837312D01*
X195634000Y-86916034D01*
X195793807Y-86964510D01*
X195832500Y-86968321D01*
X195832501Y-87504070D01*
X195774930Y-87486606D01*
X195638000Y-87473120D01*
X195288625Y-87476500D01*
X195114000Y-87651125D01*
X195114000Y-88836500D01*
X195134000Y-88836500D01*
X195134000Y-88963500D01*
X195114000Y-88963500D01*
X195114000Y-88983500D01*
X194987000Y-88983500D01*
X194987000Y-88963500D01*
X193939125Y-88963500D01*
X193764500Y-89138125D01*
X193761120Y-89625000D01*
X193774606Y-89761930D01*
X193814547Y-89893598D01*
X193879408Y-90014944D01*
X193966696Y-90121304D01*
X193996758Y-90145975D01*
X193946541Y-90207164D01*
X193932464Y-90233500D01*
X190132539Y-90233500D01*
X189691500Y-89792462D01*
X189691500Y-89630903D01*
X189673796Y-89451152D01*
X189603835Y-89220522D01*
X189490225Y-89007971D01*
X189337331Y-88821669D01*
X189151028Y-88668775D01*
X188938477Y-88555165D01*
X188707847Y-88485204D01*
X188468000Y-88461581D01*
X188228152Y-88485204D01*
X187997522Y-88555165D01*
X187833000Y-88643103D01*
X187668477Y-88555165D01*
X187437847Y-88485204D01*
X187198000Y-88461581D01*
X186958152Y-88485204D01*
X186768639Y-88542692D01*
X186721597Y-88517548D01*
X186589930Y-88477607D01*
X186453000Y-88464121D01*
X185403000Y-88464121D01*
X185266070Y-88477607D01*
X185134403Y-88517548D01*
X185013057Y-88582409D01*
X184906697Y-88669697D01*
X184819409Y-88776057D01*
X184754548Y-88897403D01*
X184714607Y-89029070D01*
X184701121Y-89166000D01*
X184701121Y-90167501D01*
X183970539Y-90167501D01*
X183595500Y-89792462D01*
X183595500Y-89630903D01*
X183577796Y-89451152D01*
X183507835Y-89220522D01*
X183394225Y-89007971D01*
X183241331Y-88821669D01*
X183055028Y-88668775D01*
X182842477Y-88555165D01*
X182611847Y-88485204D01*
X182372000Y-88461581D01*
X182132152Y-88485204D01*
X181901522Y-88555165D01*
X181737000Y-88643103D01*
X181572477Y-88555165D01*
X181341847Y-88485204D01*
X181102000Y-88461581D01*
X180862152Y-88485204D01*
X180672639Y-88542692D01*
X180625597Y-88517548D01*
X180493930Y-88477607D01*
X180357000Y-88464121D01*
X179307000Y-88464121D01*
X179170070Y-88477607D01*
X179038403Y-88517548D01*
X178917057Y-88582409D01*
X178810697Y-88669697D01*
X178723409Y-88776057D01*
X178658548Y-88897403D01*
X178618607Y-89029070D01*
X178605121Y-89166000D01*
X178605121Y-89652157D01*
X177911379Y-90345900D01*
X177369879Y-90345900D01*
X177369879Y-89650000D01*
X177356393Y-89513070D01*
X177316452Y-89381403D01*
X177251591Y-89260057D01*
X177164303Y-89153697D01*
X177057943Y-89066409D01*
X176936597Y-89001548D01*
X176804930Y-88961607D01*
X176668000Y-88948121D01*
X174868000Y-88948121D01*
X174731070Y-88961607D01*
X174599403Y-89001548D01*
X174478057Y-89066409D01*
X174371697Y-89153697D01*
X174284409Y-89260057D01*
X174219548Y-89381403D01*
X174179607Y-89513070D01*
X174166121Y-89650000D01*
X174166121Y-93150000D01*
X174179607Y-93286930D01*
X174205901Y-93373608D01*
X174205900Y-95140525D01*
X174120057Y-95186409D01*
X174013697Y-95273697D01*
X173926409Y-95380057D01*
X173861548Y-95501403D01*
X173821607Y-95633070D01*
X173808121Y-95770000D01*
X173808121Y-97270000D01*
X173821607Y-97406930D01*
X173861548Y-97538597D01*
X173926409Y-97659943D01*
X174013697Y-97766303D01*
X174120057Y-97853591D01*
X174241403Y-97918452D01*
X174373070Y-97958393D01*
X174510000Y-97971879D01*
X176010000Y-97971879D01*
X176146930Y-97958393D01*
X176278597Y-97918452D01*
X176399943Y-97853591D01*
X176506303Y-97766303D01*
X176593591Y-97659943D01*
X176658452Y-97538597D01*
X176698393Y-97406930D01*
X176711879Y-97270000D01*
X176711879Y-95770000D01*
X176698393Y-95633070D01*
X176658452Y-95501403D01*
X176593591Y-95380057D01*
X176506303Y-95273697D01*
X176399943Y-95186409D01*
X176314100Y-95140525D01*
X176314100Y-94042000D01*
X181102120Y-94042000D01*
X181105500Y-94503875D01*
X181280125Y-94678500D01*
X182340500Y-94678500D01*
X182340500Y-93518125D01*
X182165875Y-93343500D01*
X181804000Y-93340120D01*
X181667070Y-93353606D01*
X181535402Y-93393547D01*
X181414056Y-93458408D01*
X181307696Y-93545696D01*
X181220408Y-93652056D01*
X181155547Y-93773402D01*
X181115606Y-93905070D01*
X181102120Y-94042000D01*
X176314100Y-94042000D01*
X176314100Y-93851879D01*
X176668000Y-93851879D01*
X176804930Y-93838393D01*
X176936597Y-93798452D01*
X177057943Y-93733591D01*
X177164303Y-93646303D01*
X177251591Y-93539943D01*
X177316452Y-93418597D01*
X177356393Y-93286930D01*
X177369879Y-93150000D01*
X177369879Y-92454100D01*
X178296218Y-92454100D01*
X178348000Y-92459200D01*
X178399782Y-92454100D01*
X178554640Y-92438848D01*
X178753338Y-92378573D01*
X178936460Y-92280693D01*
X179096968Y-92148968D01*
X179129987Y-92108734D01*
X179870843Y-91367879D01*
X180357000Y-91367879D01*
X180493930Y-91354393D01*
X180625597Y-91314452D01*
X180672639Y-91289307D01*
X180862153Y-91346796D01*
X181102000Y-91370419D01*
X181341848Y-91346796D01*
X181572478Y-91276835D01*
X181737001Y-91188897D01*
X181901523Y-91276835D01*
X182132153Y-91346796D01*
X182372000Y-91370419D01*
X182469753Y-91360791D01*
X182869394Y-91760432D01*
X182899223Y-91796779D01*
X183044260Y-91915807D01*
X183209732Y-92004253D01*
X183389278Y-92058718D01*
X183529216Y-92072501D01*
X183576001Y-92077109D01*
X183622786Y-92072501D01*
X186222460Y-92072501D01*
X184936833Y-93358128D01*
X184754001Y-93340121D01*
X184053999Y-93340121D01*
X183868297Y-93358411D01*
X183689731Y-93412578D01*
X183525164Y-93500541D01*
X183485223Y-93533320D01*
X183393944Y-93458408D01*
X183272598Y-93393547D01*
X183140930Y-93353606D01*
X183004000Y-93340120D01*
X182642125Y-93343500D01*
X182467500Y-93518125D01*
X182467500Y-94678500D01*
X182487500Y-94678500D01*
X182487500Y-94805500D01*
X182467500Y-94805500D01*
X182467500Y-94825500D01*
X182340500Y-94825500D01*
X182340500Y-94805500D01*
X181280125Y-94805500D01*
X181105500Y-94980125D01*
X181102120Y-95442000D01*
X181115606Y-95578930D01*
X181155547Y-95710598D01*
X181220408Y-95831944D01*
X181307696Y-95938304D01*
X181414056Y-96025592D01*
X181535402Y-96090453D01*
X181667070Y-96130394D01*
X181804000Y-96143880D01*
X181953049Y-96142488D01*
X181852297Y-96152411D01*
X181673731Y-96206578D01*
X181509164Y-96294541D01*
X181364920Y-96412920D01*
X181308309Y-96481900D01*
X181280778Y-96481900D01*
X181228999Y-96476800D01*
X181177220Y-96481900D01*
X181177218Y-96481900D01*
X181022360Y-96497152D01*
X180823662Y-96557427D01*
X180640540Y-96655307D01*
X180480032Y-96787032D01*
X180456430Y-96815791D01*
X180454665Y-96816522D01*
X180274747Y-96936739D01*
X180121739Y-97089747D01*
X180001522Y-97269665D01*
X179918715Y-97469579D01*
X179876500Y-97681807D01*
X179876500Y-97898193D01*
X179918715Y-98110421D01*
X180001522Y-98310335D01*
X180121739Y-98490253D01*
X180274747Y-98643261D01*
X180454665Y-98763478D01*
X180654579Y-98846285D01*
X180866807Y-98888500D01*
X181083193Y-98888500D01*
X181295421Y-98846285D01*
X181333900Y-98830346D01*
X181333900Y-98990717D01*
X181246541Y-99097164D01*
X181158578Y-99261731D01*
X181104411Y-99440297D01*
X181086121Y-99625999D01*
X181086121Y-100526001D01*
X181104411Y-100711703D01*
X181158578Y-100890269D01*
X181246541Y-101054836D01*
X181364920Y-101199080D01*
X181482683Y-101295726D01*
X181414056Y-101332408D01*
X181307696Y-101419696D01*
X181220408Y-101526056D01*
X181155547Y-101647402D01*
X181115606Y-101779070D01*
X181102120Y-101916000D01*
X181105500Y-102377875D01*
X181280125Y-102552500D01*
X182340500Y-102552500D01*
X182340500Y-102532500D01*
X182467500Y-102532500D01*
X182467500Y-102552500D01*
X182487500Y-102552500D01*
X182487500Y-102679500D01*
X182467500Y-102679500D01*
X182467500Y-102699500D01*
X182340500Y-102699500D01*
X182340500Y-102679500D01*
X181280125Y-102679500D01*
X181105500Y-102854125D01*
X181102120Y-103316000D01*
X181115606Y-103452930D01*
X181155547Y-103584598D01*
X181219122Y-103703538D01*
X181083193Y-103676500D01*
X180866807Y-103676500D01*
X180654579Y-103718715D01*
X180454665Y-103801522D01*
X180274747Y-103921739D01*
X180121739Y-104074747D01*
X180001522Y-104254665D01*
X179918715Y-104454579D01*
X179876500Y-104666807D01*
X179876500Y-104883193D01*
X179918715Y-105095421D01*
X180001522Y-105295335D01*
X180121739Y-105475253D01*
X180274747Y-105628261D01*
X180454665Y-105748478D01*
X180459942Y-105750664D01*
X180574016Y-105864738D01*
X180607032Y-105904968D01*
X180767540Y-106036693D01*
X180950662Y-106134573D01*
X181149360Y-106194848D01*
X181304218Y-106210100D01*
X181304220Y-106210100D01*
X181308669Y-106210538D01*
X181317901Y-106221787D01*
X181317900Y-106356717D01*
X181230541Y-106463164D01*
X181142578Y-106627731D01*
X181088411Y-106806297D01*
X181070121Y-106991999D01*
X181070121Y-107892001D01*
X181088411Y-108077703D01*
X181142578Y-108256269D01*
X181230541Y-108420836D01*
X181348920Y-108565080D01*
X181460372Y-108656547D01*
X181382056Y-108698408D01*
X181275696Y-108785696D01*
X181188408Y-108892056D01*
X181123547Y-109013402D01*
X181083606Y-109145070D01*
X181070120Y-109282000D01*
X181073500Y-109743875D01*
X181248125Y-109918500D01*
X182308500Y-109918500D01*
X182308500Y-109898500D01*
X182435500Y-109898500D01*
X182435500Y-109918500D01*
X182455500Y-109918500D01*
X182455500Y-110045500D01*
X182435500Y-110045500D01*
X182435500Y-111205875D01*
X182610125Y-111380500D01*
X182972000Y-111383880D01*
X183108930Y-111370394D01*
X183240598Y-111330453D01*
X183361944Y-111265592D01*
X183453223Y-111190680D01*
X183493164Y-111223459D01*
X183657731Y-111311422D01*
X183836297Y-111365589D01*
X184021999Y-111383879D01*
X184722001Y-111383879D01*
X184907703Y-111365589D01*
X185086269Y-111311422D01*
X185250836Y-111223459D01*
X185395080Y-111105080D01*
X185513459Y-110960836D01*
X185601422Y-110796269D01*
X185655589Y-110617703D01*
X185673879Y-110432001D01*
X185673879Y-109531999D01*
X185655589Y-109346297D01*
X185601422Y-109167731D01*
X185513459Y-109003164D01*
X185426100Y-108896718D01*
X185426100Y-108871111D01*
X187380826Y-110825837D01*
X187259747Y-110906739D01*
X187106739Y-111059747D01*
X186986522Y-111239665D01*
X186984336Y-111244943D01*
X186981262Y-111248017D01*
X186941033Y-111281032D01*
X186835611Y-111409490D01*
X186809307Y-111441541D01*
X186711428Y-111624662D01*
X186651152Y-111823361D01*
X186630800Y-112030000D01*
X186635901Y-112081791D01*
X186635901Y-113113580D01*
X186568836Y-113058541D01*
X186404269Y-112970578D01*
X186225703Y-112916411D01*
X186040001Y-112898121D01*
X185339999Y-112898121D01*
X185154297Y-112916411D01*
X184975731Y-112970578D01*
X184811164Y-113058541D01*
X184666920Y-113176920D01*
X184548541Y-113321164D01*
X184460578Y-113485731D01*
X184406411Y-113664297D01*
X184388121Y-113849999D01*
X184388121Y-114750001D01*
X184406411Y-114935703D01*
X184460578Y-115114269D01*
X184548541Y-115278836D01*
X184635900Y-115385283D01*
X184635901Y-116333129D01*
X184555403Y-116357548D01*
X184434057Y-116422409D01*
X184327697Y-116509697D01*
X184240409Y-116616057D01*
X184175548Y-116737403D01*
X184135607Y-116869070D01*
X184122121Y-117006000D01*
X184122121Y-118706000D01*
X184135607Y-118842930D01*
X184175548Y-118974597D01*
X184240409Y-119095943D01*
X184327697Y-119202303D01*
X184434057Y-119289591D01*
X184555403Y-119354452D01*
X184687070Y-119394393D01*
X184824000Y-119407879D01*
X186524000Y-119407879D01*
X186660930Y-119394393D01*
X186792597Y-119354452D01*
X186913943Y-119289591D01*
X187020303Y-119202303D01*
X187107591Y-119095943D01*
X187162084Y-118993995D01*
X187226888Y-119058799D01*
X187480510Y-119228263D01*
X187762319Y-119344992D01*
X188061486Y-119404500D01*
X188366514Y-119404500D01*
X188665681Y-119344992D01*
X188947490Y-119228263D01*
X189201112Y-119058799D01*
X189416799Y-118843112D01*
X189586263Y-118589490D01*
X189702992Y-118307681D01*
X189762500Y-118008514D01*
X189762500Y-117703486D01*
X189702992Y-117404319D01*
X189586263Y-117122510D01*
X189416799Y-116868888D01*
X189201112Y-116653201D01*
X188947490Y-116483737D01*
X188665681Y-116367008D01*
X188366514Y-116307500D01*
X188061486Y-116307500D01*
X187762319Y-116367008D01*
X187480510Y-116483737D01*
X187226888Y-116653201D01*
X187162084Y-116718005D01*
X187107591Y-116616057D01*
X187020303Y-116509697D01*
X186913943Y-116422409D01*
X186792597Y-116357548D01*
X186744100Y-116342837D01*
X186744100Y-115486421D01*
X186811164Y-115541459D01*
X186975731Y-115629422D01*
X187154297Y-115683589D01*
X187339999Y-115701879D01*
X188040001Y-115701879D01*
X188225703Y-115683589D01*
X188404269Y-115629422D01*
X188568836Y-115541459D01*
X188713080Y-115423080D01*
X188831459Y-115278836D01*
X188919422Y-115114269D01*
X188973589Y-114935703D01*
X188991879Y-114750001D01*
X188991879Y-113849999D01*
X188973589Y-113664297D01*
X188919422Y-113485731D01*
X188831459Y-113321164D01*
X188744100Y-113214718D01*
X188744100Y-112529414D01*
X188813261Y-112460253D01*
X188894163Y-112339175D01*
X189658727Y-113103739D01*
X189691742Y-113143968D01*
X189809733Y-113240800D01*
X189852250Y-113275693D01*
X190035371Y-113373573D01*
X190234070Y-113433848D01*
X190440710Y-113454200D01*
X190492492Y-113449100D01*
X193684379Y-113449100D01*
X194017901Y-113782623D01*
X194017900Y-115013772D01*
X193898918Y-115111418D01*
X193692602Y-115362816D01*
X193539295Y-115649633D01*
X193444889Y-115960847D01*
X193421000Y-116203396D01*
X193421000Y-116460603D01*
X193444889Y-116703152D01*
X193539295Y-117014366D01*
X193692602Y-117301183D01*
X193898918Y-117552582D01*
X194150316Y-117758898D01*
X194437133Y-117912205D01*
X194748347Y-118006611D01*
X195072000Y-118038488D01*
X195395652Y-118006611D01*
X195706866Y-117912205D01*
X195993683Y-117758898D01*
X196245082Y-117552582D01*
X196346664Y-117428803D01*
X196410720Y-117511741D01*
X196654692Y-117724343D01*
X196935452Y-117885264D01*
X197242212Y-117988319D01*
X197291200Y-117999033D01*
X197548500Y-117854509D01*
X197548500Y-116395500D01*
X197528500Y-116395500D01*
X197528500Y-116268500D01*
X197548500Y-116268500D01*
X197548500Y-114809491D01*
X197675500Y-114809491D01*
X197675500Y-116268500D01*
X197695500Y-116268500D01*
X197695500Y-116395500D01*
X197675500Y-116395500D01*
X197675500Y-117854509D01*
X197932800Y-117999033D01*
X197981788Y-117988319D01*
X198288548Y-117885264D01*
X198569308Y-117724343D01*
X198601976Y-117695876D01*
X198615909Y-117721943D01*
X198703197Y-117828303D01*
X198809557Y-117915591D01*
X198930903Y-117980452D01*
X199062570Y-118020393D01*
X199199500Y-118033879D01*
X201104500Y-118033879D01*
X201241430Y-118020393D01*
X201373097Y-117980452D01*
X201494443Y-117915591D01*
X201600803Y-117828303D01*
X201688091Y-117721943D01*
X201752952Y-117600597D01*
X201792893Y-117468930D01*
X201806379Y-117332000D01*
X201806379Y-115332000D01*
X201792893Y-115195070D01*
X201752952Y-115063403D01*
X201688091Y-114942057D01*
X201600803Y-114835697D01*
X201494443Y-114748409D01*
X201373097Y-114683548D01*
X201241430Y-114643607D01*
X201104500Y-114630121D01*
X199199500Y-114630121D01*
X199062570Y-114643607D01*
X198930903Y-114683548D01*
X198809557Y-114748409D01*
X198703197Y-114835697D01*
X198615909Y-114942057D01*
X198601976Y-114968124D01*
X198569308Y-114939657D01*
X198288548Y-114778736D01*
X197981788Y-114675681D01*
X197932800Y-114664967D01*
X197675500Y-114809491D01*
X197548500Y-114809491D01*
X197291200Y-114664967D01*
X197242212Y-114675681D01*
X196935452Y-114778736D01*
X196654692Y-114939657D01*
X196410720Y-115152259D01*
X196346664Y-115235197D01*
X196245082Y-115111418D01*
X196126100Y-115013772D01*
X196126100Y-113397778D01*
X196131200Y-113345999D01*
X196122071Y-113253312D01*
X196118496Y-113217010D01*
X196149747Y-113248261D01*
X196329665Y-113368478D01*
X196529579Y-113451285D01*
X196741807Y-113493500D01*
X196958193Y-113493500D01*
X197170421Y-113451285D01*
X197370335Y-113368478D01*
X197550253Y-113248261D01*
X197647758Y-113150756D01*
X197772721Y-113253312D01*
X197920000Y-113332034D01*
X198079807Y-113380510D01*
X198246000Y-113396879D01*
X199896000Y-113396879D01*
X200062193Y-113380510D01*
X200222000Y-113332034D01*
X200369279Y-113253312D01*
X200498369Y-113147369D01*
X200604312Y-113018279D01*
X200683034Y-112871000D01*
X200731510Y-112711193D01*
X200747879Y-112545000D01*
X200747879Y-112245000D01*
X200731510Y-112078807D01*
X200683034Y-111919000D01*
X200604312Y-111771721D01*
X200594693Y-111760000D01*
X200604312Y-111748279D01*
X200683034Y-111601000D01*
X200731510Y-111441193D01*
X200747879Y-111275000D01*
X200747879Y-110975000D01*
X200731510Y-110808807D01*
X200683034Y-110649000D01*
X200604312Y-110501721D01*
X200594693Y-110490000D01*
X200604312Y-110478279D01*
X200683034Y-110331000D01*
X200726496Y-110187722D01*
X200768705Y-110266688D01*
X200795308Y-110316460D01*
X200927033Y-110476968D01*
X200967262Y-110509983D01*
X206273500Y-115816222D01*
X206273500Y-115971589D01*
X206331086Y-116261096D01*
X206444046Y-116533806D01*
X206608039Y-116779238D01*
X206816762Y-116987961D01*
X207062194Y-117151954D01*
X207334904Y-117264914D01*
X207624411Y-117322500D01*
X207919589Y-117322500D01*
X208209096Y-117264914D01*
X208481806Y-117151954D01*
X208727238Y-116987961D01*
X208906121Y-116809078D01*
X210376724Y-116809078D01*
X210439102Y-117078419D01*
X210699831Y-117216806D01*
X210982548Y-117301669D01*
X211276389Y-117329745D01*
X211570061Y-117299957D01*
X211852279Y-117213448D01*
X212104898Y-117078419D01*
X212167276Y-116809078D01*
X211272000Y-115913803D01*
X210376724Y-116809078D01*
X208906121Y-116809078D01*
X208935961Y-116779238D01*
X209099954Y-116533806D01*
X209212914Y-116261096D01*
X209270500Y-115971589D01*
X209270500Y-115828389D01*
X209766255Y-115828389D01*
X209796043Y-116122061D01*
X209882552Y-116404279D01*
X210017581Y-116656898D01*
X210286922Y-116719276D01*
X211182197Y-115824000D01*
X211361803Y-115824000D01*
X212257078Y-116719276D01*
X212526419Y-116656898D01*
X212664806Y-116396169D01*
X212749669Y-116113452D01*
X212777745Y-115819611D01*
X212747957Y-115525939D01*
X212661448Y-115243721D01*
X212614819Y-115156484D01*
X216781500Y-115156484D01*
X216781500Y-115983516D01*
X216942846Y-116794657D01*
X217259337Y-117558736D01*
X217718812Y-118246388D01*
X218303612Y-118831188D01*
X218991264Y-119290663D01*
X219755343Y-119607154D01*
X220566484Y-119768500D01*
X221393516Y-119768500D01*
X222204657Y-119607154D01*
X222968736Y-119290663D01*
X223656388Y-118831188D01*
X224241188Y-118246388D01*
X224700663Y-117558736D01*
X225017154Y-116794657D01*
X225178500Y-115983516D01*
X225178500Y-115156484D01*
X225017154Y-114345343D01*
X224700663Y-113581264D01*
X224241188Y-112893612D01*
X223656388Y-112308812D01*
X222968736Y-111849337D01*
X222204657Y-111532846D01*
X221393516Y-111371500D01*
X220566484Y-111371500D01*
X219755343Y-111532846D01*
X218991264Y-111849337D01*
X218303612Y-112308812D01*
X217718812Y-112893612D01*
X217259337Y-113581264D01*
X216942846Y-114345343D01*
X216781500Y-115156484D01*
X212614819Y-115156484D01*
X212526419Y-114991102D01*
X212257078Y-114928724D01*
X211361803Y-115824000D01*
X211182197Y-115824000D01*
X210286922Y-114928724D01*
X210017581Y-114991102D01*
X209879194Y-115251831D01*
X209794331Y-115534548D01*
X209766255Y-115828389D01*
X209270500Y-115828389D01*
X209270500Y-115676411D01*
X209212914Y-115386904D01*
X209099954Y-115114194D01*
X208935961Y-114868762D01*
X208906121Y-114838922D01*
X210376724Y-114838922D01*
X211272000Y-115734197D01*
X212167276Y-114838922D01*
X212104898Y-114569581D01*
X211844169Y-114431194D01*
X211561452Y-114346331D01*
X211267611Y-114318255D01*
X210973939Y-114348043D01*
X210691721Y-114434552D01*
X210439102Y-114569581D01*
X210376724Y-114838922D01*
X208906121Y-114838922D01*
X208727238Y-114660039D01*
X208481806Y-114496046D01*
X208209096Y-114383086D01*
X207919589Y-114325500D01*
X207764222Y-114325500D01*
X203543548Y-110104827D01*
X203687500Y-109960875D01*
X203687500Y-108775500D01*
X203814500Y-108775500D01*
X203814500Y-109960875D01*
X203989125Y-110135500D01*
X204338500Y-110138880D01*
X204475430Y-110125394D01*
X204607098Y-110085453D01*
X204728444Y-110020592D01*
X204834804Y-109933304D01*
X204922092Y-109826944D01*
X204986953Y-109705598D01*
X205026894Y-109573930D01*
X205040380Y-109437000D01*
X205037000Y-108950125D01*
X204862375Y-108775500D01*
X203814500Y-108775500D01*
X203687500Y-108775500D01*
X203667500Y-108775500D01*
X203667500Y-108648500D01*
X203687500Y-108648500D01*
X203687500Y-107463125D01*
X203814500Y-107463125D01*
X203814500Y-108648500D01*
X204862375Y-108648500D01*
X205037000Y-108473875D01*
X205039484Y-108116000D01*
X216888121Y-108116000D01*
X216888121Y-109816000D01*
X216901607Y-109952930D01*
X216941548Y-110084597D01*
X217006409Y-110205943D01*
X217093697Y-110312303D01*
X217200057Y-110399591D01*
X217321403Y-110464452D01*
X217453070Y-110504393D01*
X217590000Y-110517879D01*
X219290000Y-110517879D01*
X219426930Y-110504393D01*
X219558597Y-110464452D01*
X219679943Y-110399591D01*
X219786303Y-110312303D01*
X219873591Y-110205943D01*
X219930871Y-110098780D01*
X220121951Y-110255036D01*
X220389917Y-110397665D01*
X220675247Y-110484215D01*
X220916500Y-110338407D01*
X220916500Y-109029500D01*
X221043500Y-109029500D01*
X221043500Y-110338407D01*
X221284753Y-110484215D01*
X221570083Y-110397665D01*
X221838049Y-110255036D01*
X222073040Y-110062871D01*
X222266026Y-109828553D01*
X222409591Y-109561088D01*
X222498218Y-109270754D01*
X222352575Y-109029500D01*
X221043500Y-109029500D01*
X220916500Y-109029500D01*
X220896500Y-109029500D01*
X220896500Y-108902500D01*
X220916500Y-108902500D01*
X220916500Y-107593593D01*
X221043500Y-107593593D01*
X221043500Y-108902500D01*
X222352575Y-108902500D01*
X222498218Y-108661246D01*
X222409591Y-108370912D01*
X222266026Y-108103447D01*
X222073040Y-107869129D01*
X221838049Y-107676964D01*
X221570083Y-107534335D01*
X221284753Y-107447785D01*
X221043500Y-107593593D01*
X220916500Y-107593593D01*
X220675247Y-107447785D01*
X220389917Y-107534335D01*
X220121951Y-107676964D01*
X219930871Y-107833220D01*
X219873591Y-107726057D01*
X219786303Y-107619697D01*
X219679943Y-107532409D01*
X219558597Y-107467548D01*
X219426930Y-107427607D01*
X219290000Y-107414121D01*
X217590000Y-107414121D01*
X217453070Y-107427607D01*
X217321403Y-107467548D01*
X217200057Y-107532409D01*
X217093697Y-107619697D01*
X217006409Y-107726057D01*
X216941548Y-107847403D01*
X216901607Y-107979070D01*
X216888121Y-108116000D01*
X205039484Y-108116000D01*
X205040380Y-107987000D01*
X205026894Y-107850070D01*
X204986953Y-107718402D01*
X204922092Y-107597056D01*
X204834804Y-107490696D01*
X204728444Y-107403408D01*
X204607098Y-107338547D01*
X204475430Y-107298606D01*
X204338500Y-107285120D01*
X203989125Y-107288500D01*
X203814500Y-107463125D01*
X203687500Y-107463125D01*
X203512875Y-107288500D01*
X203163500Y-107285120D01*
X203026570Y-107298606D01*
X202894902Y-107338547D01*
X202773556Y-107403408D01*
X202667196Y-107490696D01*
X202639089Y-107524945D01*
X202542336Y-107445542D01*
X202377768Y-107357578D01*
X202199202Y-107303411D01*
X202013500Y-107285121D01*
X201338500Y-107285121D01*
X201152798Y-107303411D01*
X200974232Y-107357578D01*
X200809664Y-107445542D01*
X200705655Y-107530900D01*
X199507623Y-107530900D01*
X198594490Y-106617769D01*
X198594490Y-105649879D01*
X199896000Y-105649879D01*
X200062193Y-105633510D01*
X200222000Y-105585034D01*
X200369279Y-105506312D01*
X200498369Y-105400369D01*
X200604312Y-105271279D01*
X200683034Y-105124000D01*
X200731510Y-104964193D01*
X200747879Y-104798000D01*
X200747879Y-104498000D01*
X200731510Y-104331807D01*
X200683034Y-104172000D01*
X200604312Y-104024721D01*
X200594693Y-104013000D01*
X200604312Y-104001279D01*
X200683034Y-103854000D01*
X200731510Y-103694193D01*
X200747879Y-103528000D01*
X200747879Y-103228000D01*
X200731510Y-103061807D01*
X200683034Y-102902000D01*
X200604312Y-102754721D01*
X200594693Y-102743000D01*
X200604312Y-102731279D01*
X200683034Y-102584000D01*
X200731510Y-102424193D01*
X200747879Y-102258000D01*
X200747879Y-101958000D01*
X200731510Y-101791807D01*
X200683034Y-101632000D01*
X200628274Y-101529550D01*
X200629592Y-101527944D01*
X200694453Y-101406598D01*
X200734394Y-101274930D01*
X200747880Y-101138000D01*
X200744500Y-101076125D01*
X200569875Y-100901500D01*
X199134500Y-100901500D01*
X199134500Y-100921500D01*
X199007500Y-100921500D01*
X199007500Y-100901500D01*
X197572125Y-100901500D01*
X197397500Y-101076125D01*
X197394120Y-101138000D01*
X197407606Y-101274930D01*
X197447547Y-101406598D01*
X197512408Y-101527944D01*
X197513726Y-101529550D01*
X197458966Y-101632000D01*
X197410490Y-101791807D01*
X197397751Y-101921145D01*
X196450663Y-100974058D01*
X197440755Y-99983967D01*
X197458966Y-100044000D01*
X197513726Y-100146450D01*
X197512408Y-100148056D01*
X197447547Y-100269402D01*
X197407606Y-100401070D01*
X197394120Y-100538000D01*
X197397500Y-100599875D01*
X197572125Y-100774500D01*
X199007500Y-100774500D01*
X199007500Y-100754500D01*
X199134500Y-100754500D01*
X199134500Y-100774500D01*
X200569875Y-100774500D01*
X200744500Y-100599875D01*
X200747880Y-100538000D01*
X200734394Y-100401070D01*
X200694453Y-100269402D01*
X200629592Y-100148056D01*
X200628274Y-100146450D01*
X200683034Y-100044000D01*
X200731510Y-99884193D01*
X200747879Y-99718000D01*
X200747879Y-99418000D01*
X200731510Y-99251807D01*
X200683034Y-99092000D01*
X200604312Y-98944721D01*
X200594693Y-98933000D01*
X200604312Y-98921279D01*
X200683034Y-98774000D01*
X200731510Y-98614193D01*
X200747879Y-98448000D01*
X200747879Y-98148000D01*
X200731510Y-97981807D01*
X200683034Y-97822000D01*
X200604312Y-97674721D01*
X200594693Y-97663000D01*
X200604312Y-97651279D01*
X200683034Y-97504000D01*
X200731510Y-97344193D01*
X200747879Y-97178000D01*
X200747879Y-96878000D01*
X200731510Y-96711807D01*
X200683034Y-96552000D01*
X200604312Y-96404721D01*
X200498369Y-96275631D01*
X200369279Y-96169688D01*
X200222000Y-96090966D01*
X200062193Y-96042490D01*
X199896000Y-96026121D01*
X198594490Y-96026121D01*
X198594490Y-95932231D01*
X200563739Y-93962983D01*
X200603968Y-93929968D01*
X200735693Y-93769460D01*
X200791667Y-93664739D01*
X200818089Y-93643055D01*
X200846196Y-93677304D01*
X200952556Y-93764592D01*
X201073902Y-93829453D01*
X201205570Y-93869394D01*
X201342500Y-93882880D01*
X201691875Y-93879500D01*
X201866500Y-93704875D01*
X201866500Y-92519500D01*
X201993500Y-92519500D01*
X201993500Y-93704875D01*
X202168125Y-93879500D01*
X202517500Y-93882880D01*
X202654430Y-93869394D01*
X202786098Y-93829453D01*
X202907444Y-93764592D01*
X203013804Y-93677304D01*
X203101092Y-93570944D01*
X203165953Y-93449598D01*
X203205894Y-93317930D01*
X203219380Y-93181000D01*
X203216000Y-92694125D01*
X203041375Y-92519500D01*
X201993500Y-92519500D01*
X201866500Y-92519500D01*
X201846500Y-92519500D01*
X201846500Y-92392500D01*
X201866500Y-92392500D01*
X201866500Y-92372500D01*
X201993500Y-92372500D01*
X201993500Y-92392500D01*
X203041375Y-92392500D01*
X203216000Y-92217875D01*
X203219380Y-91731000D01*
X203205894Y-91594070D01*
X203165953Y-91462402D01*
X203101092Y-91341056D01*
X203013815Y-91234710D01*
X203415017Y-91234710D01*
X203462920Y-91293080D01*
X203533500Y-91351004D01*
X203533501Y-92679206D01*
X203528892Y-92726000D01*
X203547283Y-92912722D01*
X203601749Y-93092269D01*
X203690194Y-93257740D01*
X203749580Y-93330102D01*
X203809223Y-93402778D01*
X203845565Y-93432603D01*
X204041348Y-93628386D01*
X204048715Y-93665421D01*
X204131522Y-93865335D01*
X204251739Y-94045253D01*
X204287919Y-94081433D01*
X204271399Y-94101563D01*
X204182194Y-94210260D01*
X204093749Y-94375731D01*
X204066306Y-94466197D01*
X203991070Y-94473607D01*
X203859403Y-94513548D01*
X203738057Y-94578409D01*
X203631697Y-94665697D01*
X203544409Y-94772057D01*
X203479548Y-94893403D01*
X203439607Y-95025070D01*
X203426121Y-95162000D01*
X203426121Y-96862000D01*
X203439607Y-96998930D01*
X203479548Y-97130597D01*
X203544409Y-97251943D01*
X203631697Y-97358303D01*
X203738057Y-97445591D01*
X203859403Y-97510452D01*
X203991070Y-97550393D01*
X204128000Y-97563879D01*
X205828000Y-97563879D01*
X205964930Y-97550393D01*
X206096597Y-97510452D01*
X206217943Y-97445591D01*
X206324303Y-97358303D01*
X206411591Y-97251943D01*
X206463900Y-97154080D01*
X206463901Y-100269047D01*
X206451303Y-100253697D01*
X206344943Y-100166409D01*
X206223597Y-100101548D01*
X206091930Y-100061607D01*
X205955000Y-100048121D01*
X204255000Y-100048121D01*
X204118070Y-100061607D01*
X203986403Y-100101548D01*
X203865057Y-100166409D01*
X203758697Y-100253697D01*
X203671409Y-100360057D01*
X203606548Y-100481403D01*
X203566607Y-100613070D01*
X203553121Y-100750000D01*
X203553121Y-102450000D01*
X203566607Y-102586930D01*
X203606548Y-102718597D01*
X203671409Y-102839943D01*
X203758697Y-102946303D01*
X203865057Y-103033591D01*
X203986403Y-103098452D01*
X204118070Y-103138393D01*
X204255000Y-103151879D01*
X205955000Y-103151879D01*
X206091930Y-103138393D01*
X206223597Y-103098452D01*
X206344943Y-103033591D01*
X206451303Y-102946303D01*
X206538591Y-102839943D01*
X206590900Y-102742079D01*
X206590901Y-103891983D01*
X206526403Y-103911548D01*
X206405057Y-103976409D01*
X206298697Y-104063697D01*
X206211409Y-104170057D01*
X206156916Y-104272005D01*
X206092112Y-104207201D01*
X205838490Y-104037737D01*
X205556681Y-103921008D01*
X205257514Y-103861500D01*
X204952486Y-103861500D01*
X204653319Y-103921008D01*
X204371510Y-104037737D01*
X204117888Y-104207201D01*
X203902201Y-104422888D01*
X203732737Y-104676510D01*
X203616008Y-104958319D01*
X203556500Y-105257486D01*
X203556500Y-105562514D01*
X203616008Y-105861681D01*
X203732737Y-106143490D01*
X203902201Y-106397112D01*
X204117888Y-106612799D01*
X204371510Y-106782263D01*
X204653319Y-106898992D01*
X204952486Y-106958500D01*
X205257514Y-106958500D01*
X205556681Y-106898992D01*
X205838490Y-106782263D01*
X206092112Y-106612799D01*
X206156916Y-106547995D01*
X206211409Y-106649943D01*
X206298697Y-106756303D01*
X206405057Y-106843591D01*
X206526403Y-106908452D01*
X206658070Y-106948393D01*
X206795000Y-106961879D01*
X208495000Y-106961879D01*
X208631930Y-106948393D01*
X208763597Y-106908452D01*
X208884943Y-106843591D01*
X208991303Y-106756303D01*
X209078591Y-106649943D01*
X209143452Y-106528597D01*
X209183393Y-106396930D01*
X209196879Y-106260000D01*
X209196879Y-105125078D01*
X210559724Y-105125078D01*
X210622102Y-105394419D01*
X210882831Y-105532806D01*
X211165548Y-105617669D01*
X211459389Y-105645745D01*
X211753061Y-105615957D01*
X212035279Y-105529448D01*
X212287898Y-105394419D01*
X212350276Y-105125078D01*
X211455000Y-104229803D01*
X210559724Y-105125078D01*
X209196879Y-105125078D01*
X209196879Y-104560000D01*
X209183393Y-104423070D01*
X209143452Y-104291403D01*
X209078591Y-104170057D01*
X209057526Y-104144389D01*
X209949255Y-104144389D01*
X209979043Y-104438061D01*
X210065552Y-104720279D01*
X210200581Y-104972898D01*
X210469922Y-105035276D01*
X211365197Y-104140000D01*
X211544803Y-104140000D01*
X212440078Y-105035276D01*
X212709419Y-104972898D01*
X212847806Y-104712169D01*
X212932669Y-104429452D01*
X212960745Y-104135611D01*
X212946220Y-103992411D01*
X220116500Y-103992411D01*
X220116500Y-104287589D01*
X220174086Y-104577096D01*
X220287046Y-104849806D01*
X220451039Y-105095238D01*
X220659762Y-105303961D01*
X220905194Y-105467954D01*
X221177904Y-105580914D01*
X221467411Y-105638500D01*
X221762589Y-105638500D01*
X222052096Y-105580914D01*
X222324806Y-105467954D01*
X222570238Y-105303961D01*
X222778961Y-105095238D01*
X222942954Y-104849806D01*
X223055914Y-104577096D01*
X223113500Y-104287589D01*
X223113500Y-103992411D01*
X223055914Y-103702904D01*
X222942954Y-103430194D01*
X222778961Y-103184762D01*
X222570238Y-102976039D01*
X222324806Y-102812046D01*
X222052096Y-102699086D01*
X221762589Y-102641500D01*
X221467411Y-102641500D01*
X221177904Y-102699086D01*
X220905194Y-102812046D01*
X220659762Y-102976039D01*
X220451039Y-103184762D01*
X220287046Y-103430194D01*
X220174086Y-103702904D01*
X220116500Y-103992411D01*
X212946220Y-103992411D01*
X212930957Y-103841939D01*
X212844448Y-103559721D01*
X212709419Y-103307102D01*
X212440078Y-103244724D01*
X211544803Y-104140000D01*
X211365197Y-104140000D01*
X210469922Y-103244724D01*
X210200581Y-103307102D01*
X210062194Y-103567831D01*
X209977331Y-103850548D01*
X209949255Y-104144389D01*
X209057526Y-104144389D01*
X208991303Y-104063697D01*
X208884943Y-103976409D01*
X208763597Y-103911548D01*
X208699100Y-103891983D01*
X208699100Y-103154922D01*
X210559724Y-103154922D01*
X211455000Y-104050197D01*
X212350276Y-103154922D01*
X212287898Y-102885581D01*
X212027169Y-102747194D01*
X211744452Y-102662331D01*
X211450611Y-102634255D01*
X211156939Y-102664043D01*
X210874721Y-102750552D01*
X210622102Y-102885581D01*
X210559724Y-103154922D01*
X208699100Y-103154922D01*
X208699100Y-102735811D01*
X208847799Y-102587112D01*
X209017263Y-102333490D01*
X209133992Y-102051681D01*
X209193500Y-101752514D01*
X209193500Y-101447486D01*
X209133992Y-101148319D01*
X209017263Y-100866510D01*
X208847799Y-100612888D01*
X208632112Y-100397201D01*
X208572100Y-100357102D01*
X208572100Y-97663618D01*
X214216500Y-97663618D01*
X214216500Y-98116382D01*
X214304831Y-98560448D01*
X214478096Y-98978748D01*
X214729639Y-99355208D01*
X215049792Y-99675361D01*
X215426252Y-99926904D01*
X215844552Y-100100169D01*
X216288618Y-100188500D01*
X216741382Y-100188500D01*
X217185448Y-100100169D01*
X217603748Y-99926904D01*
X217980208Y-99675361D01*
X218300361Y-99355208D01*
X218551904Y-98978748D01*
X218725169Y-98560448D01*
X218813500Y-98116382D01*
X218813500Y-97663618D01*
X218725169Y-97219552D01*
X218551904Y-96801252D01*
X218300361Y-96424792D01*
X217980208Y-96104639D01*
X217603748Y-95853096D01*
X217185448Y-95679831D01*
X216741382Y-95591500D01*
X216288618Y-95591500D01*
X215844552Y-95679831D01*
X215426252Y-95853096D01*
X215049792Y-96104639D01*
X214729639Y-96424792D01*
X214478096Y-96801252D01*
X214304831Y-97219552D01*
X214216500Y-97663618D01*
X208572100Y-97663618D01*
X208572100Y-97147811D01*
X208720799Y-96999112D01*
X208788000Y-96898538D01*
X208855201Y-96999112D01*
X209070888Y-97214799D01*
X209324510Y-97384263D01*
X209606319Y-97500992D01*
X209905486Y-97560500D01*
X210210514Y-97560500D01*
X210509681Y-97500992D01*
X210791490Y-97384263D01*
X211045112Y-97214799D01*
X211260799Y-96999112D01*
X211430263Y-96745490D01*
X211546992Y-96463681D01*
X211606500Y-96164514D01*
X211606500Y-95859486D01*
X211546992Y-95560319D01*
X211430263Y-95278510D01*
X211260799Y-95024888D01*
X211045112Y-94809201D01*
X210791490Y-94639737D01*
X210509681Y-94523008D01*
X210210514Y-94463500D01*
X209905486Y-94463500D01*
X209606319Y-94523008D01*
X209324510Y-94639737D01*
X209070888Y-94809201D01*
X208855201Y-95024888D01*
X208788000Y-95125462D01*
X208720799Y-95024888D01*
X208505112Y-94809201D01*
X208251490Y-94639737D01*
X207969681Y-94523008D01*
X207670514Y-94463500D01*
X207365486Y-94463500D01*
X207066319Y-94523008D01*
X206784510Y-94639737D01*
X206530888Y-94809201D01*
X206466084Y-94874005D01*
X206411591Y-94772057D01*
X206359028Y-94708010D01*
X208563387Y-92503651D01*
X208600421Y-92496285D01*
X208800335Y-92413478D01*
X208980253Y-92293261D01*
X209133261Y-92140253D01*
X209253478Y-91960335D01*
X209336285Y-91760421D01*
X209378500Y-91548193D01*
X209378500Y-91331807D01*
X209345123Y-91164012D01*
X209425000Y-91171879D01*
X211075000Y-91171879D01*
X211241193Y-91155510D01*
X211350014Y-91122500D01*
X212043215Y-91122500D01*
X212090000Y-91127108D01*
X212136785Y-91122500D01*
X212276723Y-91108717D01*
X212456269Y-91054252D01*
X212621741Y-90965806D01*
X212766778Y-90846778D01*
X212796607Y-90810431D01*
X213523121Y-90083918D01*
X213523121Y-90320000D01*
X213539490Y-90486193D01*
X213587966Y-90646000D01*
X213666688Y-90793279D01*
X213772631Y-90922369D01*
X213901721Y-91028312D01*
X214049000Y-91107034D01*
X214208807Y-91155510D01*
X214375000Y-91171879D01*
X216025000Y-91171879D01*
X216191193Y-91155510D01*
X216300014Y-91122500D01*
X219547962Y-91122500D01*
X219923121Y-91497660D01*
X219923121Y-91915000D01*
X219941411Y-92100702D01*
X219995578Y-92279268D01*
X220083542Y-92443836D01*
X220201920Y-92588080D01*
X220346164Y-92706458D01*
X220510732Y-92794422D01*
X220689298Y-92848589D01*
X220875000Y-92866879D01*
X221550000Y-92866879D01*
X221735702Y-92848589D01*
X221914268Y-92794422D01*
X222078836Y-92706458D01*
X222175589Y-92627055D01*
X222203696Y-92661304D01*
X222310056Y-92748592D01*
X222431402Y-92813453D01*
X222563070Y-92853394D01*
X222700000Y-92866880D01*
X223049375Y-92863500D01*
X223224000Y-92688875D01*
X223224000Y-91503500D01*
X223351000Y-91503500D01*
X223351000Y-92688875D01*
X223525625Y-92863500D01*
X223875000Y-92866880D01*
X224011930Y-92853394D01*
X224143598Y-92813453D01*
X224264944Y-92748592D01*
X224371304Y-92661304D01*
X224458592Y-92554944D01*
X224523453Y-92433598D01*
X224563394Y-92301930D01*
X224576880Y-92165000D01*
X224573500Y-91678125D01*
X224398875Y-91503500D01*
X223351000Y-91503500D01*
X223224000Y-91503500D01*
X223204000Y-91503500D01*
X223204000Y-91376500D01*
X223224000Y-91376500D01*
X223224000Y-90191125D01*
X223202875Y-90170000D01*
X223224000Y-90148875D01*
X223224000Y-88963500D01*
X223351000Y-88963500D01*
X223351000Y-90148875D01*
X223372125Y-90170000D01*
X223351000Y-90191125D01*
X223351000Y-91376500D01*
X224398875Y-91376500D01*
X224573500Y-91201875D01*
X224576880Y-90715000D01*
X224563394Y-90578070D01*
X224523453Y-90446402D01*
X224458592Y-90325056D01*
X224371304Y-90218696D01*
X224311968Y-90170000D01*
X224371304Y-90121304D01*
X224458592Y-90014944D01*
X224523453Y-89893598D01*
X224563394Y-89761930D01*
X224576880Y-89625000D01*
X224573500Y-89138125D01*
X224398875Y-88963500D01*
X223351000Y-88963500D01*
X223224000Y-88963500D01*
X223204000Y-88963500D01*
X223204000Y-88836500D01*
X223224000Y-88836500D01*
X223224000Y-87651125D01*
X223202875Y-87630000D01*
X223224000Y-87608875D01*
X223224000Y-86423500D01*
X223351000Y-86423500D01*
X223351000Y-87608875D01*
X223372125Y-87630000D01*
X223351000Y-87651125D01*
X223351000Y-88836500D01*
X224398875Y-88836500D01*
X224573500Y-88661875D01*
X224576880Y-88175000D01*
X224563394Y-88038070D01*
X224523453Y-87906402D01*
X224458592Y-87785056D01*
X224371304Y-87678696D01*
X224311968Y-87630000D01*
X224371304Y-87581304D01*
X224458592Y-87474944D01*
X224523453Y-87353598D01*
X224563394Y-87221930D01*
X224576880Y-87085000D01*
X224573500Y-86598125D01*
X224398875Y-86423500D01*
X223351000Y-86423500D01*
X223224000Y-86423500D01*
X223204000Y-86423500D01*
X223204000Y-86296500D01*
X223224000Y-86296500D01*
X223224000Y-85111125D01*
X223351000Y-85111125D01*
X223351000Y-86296500D01*
X224398875Y-86296500D01*
X224573500Y-86121875D01*
X224576880Y-85635000D01*
X224563394Y-85498070D01*
X224523453Y-85366402D01*
X224458592Y-85245056D01*
X224371304Y-85138696D01*
X224264944Y-85051408D01*
X224143598Y-84986547D01*
X224011930Y-84946606D01*
X223875000Y-84933120D01*
X223525625Y-84936500D01*
X223351000Y-85111125D01*
X223224000Y-85111125D01*
X223049375Y-84936500D01*
X222700000Y-84933120D01*
X222563070Y-84946606D01*
X222431402Y-84986547D01*
X222310056Y-85051408D01*
X222203696Y-85138696D01*
X222175589Y-85172945D01*
X222078836Y-85093542D01*
X221914268Y-85005578D01*
X221735702Y-84951411D01*
X221550000Y-84933121D01*
X220875000Y-84933121D01*
X220689298Y-84951411D01*
X220510732Y-85005578D01*
X220346164Y-85093542D01*
X220201920Y-85211920D01*
X220124793Y-85305900D01*
X216319100Y-85305900D01*
X216319100Y-84780696D01*
X216321285Y-84775421D01*
X216363500Y-84563193D01*
X216363500Y-84346807D01*
X216321285Y-84134579D01*
X216238478Y-83934665D01*
X216118261Y-83754747D01*
X215965253Y-83601739D01*
X215785335Y-83481522D01*
X215585421Y-83398715D01*
X215373193Y-83356500D01*
X215156807Y-83356500D01*
X214944579Y-83398715D01*
X214744665Y-83481522D01*
X214564747Y-83601739D01*
X214411739Y-83754747D01*
X214291522Y-83934665D01*
X214208715Y-84134579D01*
X214166500Y-84346807D01*
X214166500Y-84563193D01*
X214208715Y-84775421D01*
X214210900Y-84780696D01*
X214210900Y-85374284D01*
X214208807Y-85374490D01*
X214049000Y-85422966D01*
X213901721Y-85501688D01*
X213772631Y-85607631D01*
X213666688Y-85736721D01*
X213587966Y-85884000D01*
X213539490Y-86043807D01*
X213523121Y-86210000D01*
X213523121Y-86446082D01*
X209908917Y-82831879D01*
X210400000Y-82831879D01*
X210536930Y-82818393D01*
X210668597Y-82778452D01*
X210789943Y-82713591D01*
X210896303Y-82626303D01*
X210983591Y-82519943D01*
X211038084Y-82417995D01*
X211102888Y-82482799D01*
X211356510Y-82652263D01*
X211638319Y-82768992D01*
X211937486Y-82828500D01*
X212242514Y-82828500D01*
X212541681Y-82768992D01*
X212823490Y-82652263D01*
X213077112Y-82482799D01*
X213292799Y-82267112D01*
X213462263Y-82013490D01*
X213578992Y-81731681D01*
X213638500Y-81432514D01*
X213638500Y-81127486D01*
X213578992Y-80828319D01*
X213462263Y-80546510D01*
X213292799Y-80292888D01*
X213077112Y-80077201D01*
X212823490Y-79907737D01*
X212541681Y-79791008D01*
X212242514Y-79731500D01*
X211937486Y-79731500D01*
X211638319Y-79791008D01*
X211356510Y-79907737D01*
X211102888Y-80077201D01*
X211038084Y-80142005D01*
X210983591Y-80040057D01*
X210896303Y-79933697D01*
X210789943Y-79846409D01*
X210668597Y-79781548D01*
X210536930Y-79741607D01*
X210400000Y-79728121D01*
X208700000Y-79728121D01*
X208563070Y-79741607D01*
X208431403Y-79781548D01*
X208310057Y-79846409D01*
X208203697Y-79933697D01*
X208116409Y-80040057D01*
X208051548Y-80161403D01*
X208011607Y-80293070D01*
X207998121Y-80430000D01*
X207998121Y-81631501D01*
X206168539Y-81631501D01*
X204133522Y-79596484D01*
X216781500Y-79596484D01*
X216781500Y-80423516D01*
X216942846Y-81234657D01*
X217259337Y-81998736D01*
X217718812Y-82686388D01*
X218303612Y-83271188D01*
X218991264Y-83730663D01*
X219755343Y-84047154D01*
X220566484Y-84208500D01*
X221393516Y-84208500D01*
X222204657Y-84047154D01*
X222968736Y-83730663D01*
X223656388Y-83271188D01*
X224241188Y-82686388D01*
X224700663Y-81998736D01*
X225017154Y-81234657D01*
X225178500Y-80423516D01*
X225178500Y-79596484D01*
X225017154Y-78785343D01*
X224700663Y-78021264D01*
X224241188Y-77333612D01*
X223656388Y-76748812D01*
X222968736Y-76289337D01*
X222204657Y-75972846D01*
X221393516Y-75811500D01*
X220566484Y-75811500D01*
X219755343Y-75972846D01*
X218991264Y-76289337D01*
X218303612Y-76748812D01*
X217718812Y-77333612D01*
X217259337Y-78021264D01*
X216942846Y-78785343D01*
X216781500Y-79596484D01*
X204133522Y-79596484D01*
X203521854Y-78984816D01*
X203651681Y-78958992D01*
X203933490Y-78842263D01*
X204187112Y-78672799D01*
X204402799Y-78457112D01*
X204572263Y-78203490D01*
X204688992Y-77921681D01*
X204748500Y-77622514D01*
X204748500Y-77317486D01*
X204688992Y-77018319D01*
X204572263Y-76736510D01*
X204494414Y-76620000D01*
X207998121Y-76620000D01*
X207998121Y-78320000D01*
X208011607Y-78456930D01*
X208051548Y-78588597D01*
X208116409Y-78709943D01*
X208203697Y-78816303D01*
X208310057Y-78903591D01*
X208431403Y-78968452D01*
X208563070Y-79008393D01*
X208700000Y-79021879D01*
X210400000Y-79021879D01*
X210536930Y-79008393D01*
X210668597Y-78968452D01*
X210789943Y-78903591D01*
X210896303Y-78816303D01*
X210983591Y-78709943D01*
X211038084Y-78607995D01*
X211102888Y-78672799D01*
X211356510Y-78842263D01*
X211638319Y-78958992D01*
X211937486Y-79018500D01*
X212242514Y-79018500D01*
X212541681Y-78958992D01*
X212823490Y-78842263D01*
X213077112Y-78672799D01*
X213292799Y-78457112D01*
X213462263Y-78203490D01*
X213578992Y-77921681D01*
X213638500Y-77622514D01*
X213638500Y-77317486D01*
X213578992Y-77018319D01*
X213462263Y-76736510D01*
X213292799Y-76482888D01*
X213077112Y-76267201D01*
X212823490Y-76097737D01*
X212541681Y-75981008D01*
X212242514Y-75921500D01*
X211937486Y-75921500D01*
X211638319Y-75981008D01*
X211356510Y-76097737D01*
X211102888Y-76267201D01*
X211038084Y-76332005D01*
X210983591Y-76230057D01*
X210896303Y-76123697D01*
X210789943Y-76036409D01*
X210668597Y-75971548D01*
X210536930Y-75931607D01*
X210400000Y-75918121D01*
X208700000Y-75918121D01*
X208563070Y-75931607D01*
X208431403Y-75971548D01*
X208310057Y-76036409D01*
X208203697Y-76123697D01*
X208116409Y-76230057D01*
X208051548Y-76351403D01*
X208011607Y-76483070D01*
X207998121Y-76620000D01*
X204494414Y-76620000D01*
X204402799Y-76482888D01*
X204187112Y-76267201D01*
X203933490Y-76097737D01*
X203651681Y-75981008D01*
X203352514Y-75921500D01*
X203142221Y-75921500D01*
X202576386Y-75355665D01*
X202543367Y-75315431D01*
X202382859Y-75183706D01*
X202199737Y-75085826D01*
X202001039Y-75025551D01*
X201846181Y-75010299D01*
X201794399Y-75005199D01*
X201742617Y-75010299D01*
X199417301Y-75010299D01*
X199365519Y-75005199D01*
X199313737Y-75010299D01*
X199158879Y-75025551D01*
X198960181Y-75085826D01*
X198777059Y-75183706D01*
X198616551Y-75315431D01*
X198583536Y-75355660D01*
X196493500Y-77445697D01*
X196493500Y-77317486D01*
X196433992Y-77018319D01*
X196317263Y-76736510D01*
X196147799Y-76482888D01*
X195932112Y-76267201D01*
X195678490Y-76097737D01*
X195396681Y-75981008D01*
X195097514Y-75921500D01*
X194792486Y-75921500D01*
X194493319Y-75981008D01*
X194211510Y-76097737D01*
X193957888Y-76267201D01*
X193893084Y-76332005D01*
X193838591Y-76230057D01*
X193751303Y-76123697D01*
X193644943Y-76036409D01*
X193523597Y-75971548D01*
X193391930Y-75931607D01*
X193255000Y-75918121D01*
X191555000Y-75918121D01*
X191418070Y-75931607D01*
X191286403Y-75971548D01*
X191165057Y-76036409D01*
X191058697Y-76123697D01*
X190971409Y-76230057D01*
X190906548Y-76351403D01*
X190866607Y-76483070D01*
X190863216Y-76517500D01*
X188629898Y-76517500D01*
X188602458Y-76466164D01*
X188484080Y-76321920D01*
X188339836Y-76203542D01*
X188175268Y-76115578D01*
X187996702Y-76061411D01*
X187811000Y-76043121D01*
X187136000Y-76043121D01*
X186950298Y-76061411D01*
X186771732Y-76115578D01*
X186607164Y-76203542D01*
X186462920Y-76321920D01*
X186436000Y-76354722D01*
X186409080Y-76321920D01*
X186264836Y-76203542D01*
X186100268Y-76115578D01*
X185921702Y-76061411D01*
X185736000Y-76043121D01*
X185061000Y-76043121D01*
X184875298Y-76061411D01*
X184696732Y-76115578D01*
X184532164Y-76203542D01*
X184387920Y-76321920D01*
X184269542Y-76466164D01*
X184181578Y-76630732D01*
X184127411Y-76809298D01*
X184109121Y-76995000D01*
X184109121Y-77268657D01*
X182047322Y-79330457D01*
X181964154Y-78912343D01*
X181647663Y-78148264D01*
X181188188Y-77460612D01*
X180603388Y-76875812D01*
X179915736Y-76416337D01*
X179151657Y-76099846D01*
X178340516Y-75938500D01*
X177513484Y-75938500D01*
X176702343Y-76099846D01*
X175938264Y-76416337D01*
X175250612Y-76875812D01*
X174665812Y-77460612D01*
X174206337Y-78148264D01*
X173889846Y-78912343D01*
X173728500Y-79723484D01*
X173443500Y-79723484D01*
X173443500Y-74891500D01*
X225336500Y-74891500D01*
X225336500Y-74965536D01*
G37*
%TD.AperFunction*%
D27*
X189206259Y-91981806D02*
X189371731Y-92070252D01*
X189541661Y-92121800D01*
X189551277Y-92124717D01*
X189737999Y-92143108D01*
X189784784Y-92138500D01*
X193932464Y-92138500D01*
X193946541Y-92164836D01*
X194064920Y-92309080D01*
X194085641Y-92326085D01*
X193995421Y-92288715D01*
X193783193Y-92246500D01*
X193566807Y-92246500D01*
X193354579Y-92288715D01*
X193154665Y-92371522D01*
X192974747Y-92491739D01*
X192821739Y-92644747D01*
X192701522Y-92824665D01*
X192618715Y-93024579D01*
X192576500Y-93236807D01*
X192576500Y-93453193D01*
X192618715Y-93665421D01*
X192701522Y-93865335D01*
X192821739Y-94045253D01*
X192974747Y-94198261D01*
X193154665Y-94318478D01*
X193354579Y-94401285D01*
X193566807Y-94443500D01*
X193783193Y-94443500D01*
X193927298Y-94414836D01*
X193946541Y-94450836D01*
X194064920Y-94595080D01*
X194209164Y-94713459D01*
X194373731Y-94801422D01*
X194552297Y-94855589D01*
X194737999Y-94873879D01*
X194928083Y-94873879D01*
X193775841Y-96026121D01*
X193296000Y-96026121D01*
X193129807Y-96042490D01*
X192970000Y-96090966D01*
X192822721Y-96169688D01*
X192693631Y-96275631D01*
X192587688Y-96404721D01*
X192508966Y-96552000D01*
X192460490Y-96711807D01*
X192444121Y-96878000D01*
X192444121Y-97178000D01*
X192460490Y-97344193D01*
X192508966Y-97504000D01*
X192587688Y-97651279D01*
X192597307Y-97663000D01*
X192587688Y-97674721D01*
X192508966Y-97822000D01*
X192460490Y-97981807D01*
X192444121Y-98148000D01*
X192444121Y-98448000D01*
X192450612Y-98513900D01*
X191797879Y-98513900D01*
X191797879Y-97194000D01*
X191784393Y-97057070D01*
X191744452Y-96925403D01*
X191679591Y-96804057D01*
X191592303Y-96697697D01*
X191485943Y-96610409D01*
X191364597Y-96545548D01*
X191232930Y-96505607D01*
X191096000Y-96492121D01*
X189396000Y-96492121D01*
X189259070Y-96505607D01*
X189127403Y-96545548D01*
X189006057Y-96610409D01*
X188899697Y-96697697D01*
X188812409Y-96804057D01*
X188747548Y-96925403D01*
X188707607Y-97057070D01*
X188694121Y-97194000D01*
X188694121Y-98894000D01*
X188707607Y-99030930D01*
X188747548Y-99162597D01*
X188812409Y-99283943D01*
X188899697Y-99390303D01*
X189006057Y-99477591D01*
X189108005Y-99532084D01*
X189043201Y-99596888D01*
X188873737Y-99850510D01*
X188757008Y-100132319D01*
X188697500Y-100431486D01*
X188697500Y-100736514D01*
X188757008Y-101035681D01*
X188873737Y-101317490D01*
X189043201Y-101571112D01*
X189258888Y-101786799D01*
X189359462Y-101854000D01*
X189258888Y-101921201D01*
X189043201Y-102136888D01*
X188873737Y-102390510D01*
X188757008Y-102672319D01*
X188697500Y-102971486D01*
X188697500Y-103276514D01*
X188757008Y-103575681D01*
X188873737Y-103857490D01*
X189043201Y-104111112D01*
X189258888Y-104326799D01*
X189512510Y-104496263D01*
X189794319Y-104612992D01*
X190093486Y-104672500D01*
X190398514Y-104672500D01*
X190697681Y-104612992D01*
X190979490Y-104496263D01*
X191233112Y-104326799D01*
X191448799Y-104111112D01*
X191618263Y-103857490D01*
X191734992Y-103575681D01*
X191794500Y-103276514D01*
X191794500Y-102971486D01*
X191734992Y-102672319D01*
X191618263Y-102390510D01*
X191448799Y-102136888D01*
X191233112Y-101921201D01*
X191132538Y-101854000D01*
X191233112Y-101786799D01*
X191448799Y-101571112D01*
X191618263Y-101317490D01*
X191734992Y-101035681D01*
X191794500Y-100736514D01*
X191794500Y-100622100D01*
X192450612Y-100622100D01*
X192444121Y-100688000D01*
X192444121Y-100988000D01*
X192460490Y-101154193D01*
X192508966Y-101314000D01*
X192587688Y-101461279D01*
X192597307Y-101473000D01*
X192587688Y-101484721D01*
X192508966Y-101632000D01*
X192460490Y-101791807D01*
X192444121Y-101958000D01*
X192444121Y-102258000D01*
X192460490Y-102424193D01*
X192508966Y-102584000D01*
X192587688Y-102731279D01*
X192597307Y-102743000D01*
X192587688Y-102754721D01*
X192508966Y-102902000D01*
X192460490Y-103061807D01*
X192444121Y-103228000D01*
X192444121Y-103528000D01*
X192460490Y-103694193D01*
X192508966Y-103854000D01*
X192587688Y-104001279D01*
X192597307Y-104013000D01*
X192587688Y-104024721D01*
X192508966Y-104172000D01*
X192460490Y-104331807D01*
X192444121Y-104498000D01*
X192444121Y-104798000D01*
X192460490Y-104964193D01*
X192508966Y-105124000D01*
X192587688Y-105271279D01*
X192693631Y-105400369D01*
X192822721Y-105506312D01*
X192970000Y-105585034D01*
X193129807Y-105633510D01*
X193296000Y-105649879D01*
X194946000Y-105649879D01*
X195112193Y-105633510D01*
X195208543Y-105604283D01*
X195158715Y-105724579D01*
X195116500Y-105936807D01*
X195116500Y-106153193D01*
X195158715Y-106365421D01*
X195241522Y-106565335D01*
X195262500Y-106596731D01*
X195262500Y-107605576D01*
X195232930Y-107596606D01*
X195096000Y-107583120D01*
X194359125Y-107586500D01*
X194184500Y-107761125D01*
X194184500Y-108521500D01*
X194204500Y-108521500D01*
X194204500Y-108648500D01*
X194184500Y-108648500D01*
X194184500Y-108668500D01*
X194057500Y-108668500D01*
X194057500Y-108648500D01*
X192622125Y-108648500D01*
X192447500Y-108823125D01*
X192444120Y-108885000D01*
X192448345Y-108927900D01*
X190960433Y-108927900D01*
X191020051Y-108724490D01*
X191042724Y-108469714D01*
X191022774Y-108285000D01*
X192444120Y-108285000D01*
X192447500Y-108346875D01*
X192622125Y-108521500D01*
X194057500Y-108521500D01*
X194057500Y-107761125D01*
X193882875Y-107586500D01*
X193146000Y-107583120D01*
X193009070Y-107596606D01*
X192877402Y-107636547D01*
X192756056Y-107701408D01*
X192649696Y-107788696D01*
X192562408Y-107895056D01*
X192497547Y-108016402D01*
X192457606Y-108148070D01*
X192444120Y-108285000D01*
X191022774Y-108285000D01*
X191015258Y-108215412D01*
X190938706Y-107971354D01*
X190829665Y-107767349D01*
X190580781Y-107729021D01*
X189827803Y-108482000D01*
X189841945Y-108496142D01*
X189752142Y-108585945D01*
X189738000Y-108571803D01*
X189723858Y-108585945D01*
X189634055Y-108496142D01*
X189648197Y-108482000D01*
X188895219Y-107729021D01*
X188646335Y-107767349D01*
X188527890Y-107994054D01*
X188455949Y-108239510D01*
X188433276Y-108494286D01*
X188460742Y-108748588D01*
X188537294Y-108992646D01*
X188546729Y-109010297D01*
X187175651Y-107639219D01*
X188985021Y-107639219D01*
X189738000Y-108392197D01*
X190490979Y-107639219D01*
X190452651Y-107390335D01*
X190225946Y-107271890D01*
X189980490Y-107199949D01*
X189725714Y-107177276D01*
X189471412Y-107204742D01*
X189227354Y-107281294D01*
X189023349Y-107390335D01*
X188985021Y-107639219D01*
X187175651Y-107639219D01*
X186581710Y-107045279D01*
X186581710Y-106347392D01*
X186586810Y-106295610D01*
X186566458Y-106088970D01*
X186555453Y-106052693D01*
X186506183Y-105890272D01*
X186408303Y-105707150D01*
X186276578Y-105546642D01*
X186236349Y-105513627D01*
X185878721Y-105156000D01*
X187398739Y-103635983D01*
X187438968Y-103602968D01*
X187570693Y-103442460D01*
X187621254Y-103347866D01*
X187668573Y-103259339D01*
X187728848Y-103060640D01*
X187749200Y-102854000D01*
X187744100Y-102802218D01*
X187744100Y-99889782D01*
X187749200Y-99838000D01*
X187728848Y-99631360D01*
X187668573Y-99432661D01*
X187570693Y-99249540D01*
X187526185Y-99195307D01*
X187438968Y-99089032D01*
X187398739Y-99056017D01*
X185689879Y-97347158D01*
X185689879Y-97085999D01*
X185671589Y-96900297D01*
X185617422Y-96721731D01*
X185529459Y-96557164D01*
X185411080Y-96412920D01*
X185266836Y-96294541D01*
X185102269Y-96206578D01*
X184923703Y-96152411D01*
X184795538Y-96139788D01*
X184939703Y-96125589D01*
X185118269Y-96071422D01*
X185282836Y-95983459D01*
X185427080Y-95865080D01*
X185545459Y-95720836D01*
X185633422Y-95556269D01*
X185687589Y-95377703D01*
X185695920Y-95293118D01*
X189096944Y-91892094D01*
X189206259Y-91981806D01*
%TA.AperFunction,Conductor*%
D28*
G36*
X189206259Y-91981806D02*
G01*
X189371731Y-92070252D01*
X189541661Y-92121800D01*
X189551277Y-92124717D01*
X189737999Y-92143108D01*
X189784784Y-92138500D01*
X193932464Y-92138500D01*
X193946541Y-92164836D01*
X194064920Y-92309080D01*
X194085641Y-92326085D01*
X193995421Y-92288715D01*
X193783193Y-92246500D01*
X193566807Y-92246500D01*
X193354579Y-92288715D01*
X193154665Y-92371522D01*
X192974747Y-92491739D01*
X192821739Y-92644747D01*
X192701522Y-92824665D01*
X192618715Y-93024579D01*
X192576500Y-93236807D01*
X192576500Y-93453193D01*
X192618715Y-93665421D01*
X192701522Y-93865335D01*
X192821739Y-94045253D01*
X192974747Y-94198261D01*
X193154665Y-94318478D01*
X193354579Y-94401285D01*
X193566807Y-94443500D01*
X193783193Y-94443500D01*
X193927298Y-94414836D01*
X193946541Y-94450836D01*
X194064920Y-94595080D01*
X194209164Y-94713459D01*
X194373731Y-94801422D01*
X194552297Y-94855589D01*
X194737999Y-94873879D01*
X194928083Y-94873879D01*
X193775841Y-96026121D01*
X193296000Y-96026121D01*
X193129807Y-96042490D01*
X192970000Y-96090966D01*
X192822721Y-96169688D01*
X192693631Y-96275631D01*
X192587688Y-96404721D01*
X192508966Y-96552000D01*
X192460490Y-96711807D01*
X192444121Y-96878000D01*
X192444121Y-97178000D01*
X192460490Y-97344193D01*
X192508966Y-97504000D01*
X192587688Y-97651279D01*
X192597307Y-97663000D01*
X192587688Y-97674721D01*
X192508966Y-97822000D01*
X192460490Y-97981807D01*
X192444121Y-98148000D01*
X192444121Y-98448000D01*
X192450612Y-98513900D01*
X191797879Y-98513900D01*
X191797879Y-97194000D01*
X191784393Y-97057070D01*
X191744452Y-96925403D01*
X191679591Y-96804057D01*
X191592303Y-96697697D01*
X191485943Y-96610409D01*
X191364597Y-96545548D01*
X191232930Y-96505607D01*
X191096000Y-96492121D01*
X189396000Y-96492121D01*
X189259070Y-96505607D01*
X189127403Y-96545548D01*
X189006057Y-96610409D01*
X188899697Y-96697697D01*
X188812409Y-96804057D01*
X188747548Y-96925403D01*
X188707607Y-97057070D01*
X188694121Y-97194000D01*
X188694121Y-98894000D01*
X188707607Y-99030930D01*
X188747548Y-99162597D01*
X188812409Y-99283943D01*
X188899697Y-99390303D01*
X189006057Y-99477591D01*
X189108005Y-99532084D01*
X189043201Y-99596888D01*
X188873737Y-99850510D01*
X188757008Y-100132319D01*
X188697500Y-100431486D01*
X188697500Y-100736514D01*
X188757008Y-101035681D01*
X188873737Y-101317490D01*
X189043201Y-101571112D01*
X189258888Y-101786799D01*
X189359462Y-101854000D01*
X189258888Y-101921201D01*
X189043201Y-102136888D01*
X188873737Y-102390510D01*
X188757008Y-102672319D01*
X188697500Y-102971486D01*
X188697500Y-103276514D01*
X188757008Y-103575681D01*
X188873737Y-103857490D01*
X189043201Y-104111112D01*
X189258888Y-104326799D01*
X189512510Y-104496263D01*
X189794319Y-104612992D01*
X190093486Y-104672500D01*
X190398514Y-104672500D01*
X190697681Y-104612992D01*
X190979490Y-104496263D01*
X191233112Y-104326799D01*
X191448799Y-104111112D01*
X191618263Y-103857490D01*
X191734992Y-103575681D01*
X191794500Y-103276514D01*
X191794500Y-102971486D01*
X191734992Y-102672319D01*
X191618263Y-102390510D01*
X191448799Y-102136888D01*
X191233112Y-101921201D01*
X191132538Y-101854000D01*
X191233112Y-101786799D01*
X191448799Y-101571112D01*
X191618263Y-101317490D01*
X191734992Y-101035681D01*
X191794500Y-100736514D01*
X191794500Y-100622100D01*
X192450612Y-100622100D01*
X192444121Y-100688000D01*
X192444121Y-100988000D01*
X192460490Y-101154193D01*
X192508966Y-101314000D01*
X192587688Y-101461279D01*
X192597307Y-101473000D01*
X192587688Y-101484721D01*
X192508966Y-101632000D01*
X192460490Y-101791807D01*
X192444121Y-101958000D01*
X192444121Y-102258000D01*
X192460490Y-102424193D01*
X192508966Y-102584000D01*
X192587688Y-102731279D01*
X192597307Y-102743000D01*
X192587688Y-102754721D01*
X192508966Y-102902000D01*
X192460490Y-103061807D01*
X192444121Y-103228000D01*
X192444121Y-103528000D01*
X192460490Y-103694193D01*
X192508966Y-103854000D01*
X192587688Y-104001279D01*
X192597307Y-104013000D01*
X192587688Y-104024721D01*
X192508966Y-104172000D01*
X192460490Y-104331807D01*
X192444121Y-104498000D01*
X192444121Y-104798000D01*
X192460490Y-104964193D01*
X192508966Y-105124000D01*
X192587688Y-105271279D01*
X192693631Y-105400369D01*
X192822721Y-105506312D01*
X192970000Y-105585034D01*
X193129807Y-105633510D01*
X193296000Y-105649879D01*
X194946000Y-105649879D01*
X195112193Y-105633510D01*
X195208543Y-105604283D01*
X195158715Y-105724579D01*
X195116500Y-105936807D01*
X195116500Y-106153193D01*
X195158715Y-106365421D01*
X195241522Y-106565335D01*
X195262500Y-106596731D01*
X195262500Y-107605576D01*
X195232930Y-107596606D01*
X195096000Y-107583120D01*
X194359125Y-107586500D01*
X194184500Y-107761125D01*
X194184500Y-108521500D01*
X194204500Y-108521500D01*
X194204500Y-108648500D01*
X194184500Y-108648500D01*
X194184500Y-108668500D01*
X194057500Y-108668500D01*
X194057500Y-108648500D01*
X192622125Y-108648500D01*
X192447500Y-108823125D01*
X192444120Y-108885000D01*
X192448345Y-108927900D01*
X190960433Y-108927900D01*
X191020051Y-108724490D01*
X191042724Y-108469714D01*
X191022774Y-108285000D01*
X192444120Y-108285000D01*
X192447500Y-108346875D01*
X192622125Y-108521500D01*
X194057500Y-108521500D01*
X194057500Y-107761125D01*
X193882875Y-107586500D01*
X193146000Y-107583120D01*
X193009070Y-107596606D01*
X192877402Y-107636547D01*
X192756056Y-107701408D01*
X192649696Y-107788696D01*
X192562408Y-107895056D01*
X192497547Y-108016402D01*
X192457606Y-108148070D01*
X192444120Y-108285000D01*
X191022774Y-108285000D01*
X191015258Y-108215412D01*
X190938706Y-107971354D01*
X190829665Y-107767349D01*
X190580781Y-107729021D01*
X189827803Y-108482000D01*
X189841945Y-108496142D01*
X189752142Y-108585945D01*
X189738000Y-108571803D01*
X189723858Y-108585945D01*
X189634055Y-108496142D01*
X189648197Y-108482000D01*
X188895219Y-107729021D01*
X188646335Y-107767349D01*
X188527890Y-107994054D01*
X188455949Y-108239510D01*
X188433276Y-108494286D01*
X188460742Y-108748588D01*
X188537294Y-108992646D01*
X188546729Y-109010297D01*
X187175651Y-107639219D01*
X188985021Y-107639219D01*
X189738000Y-108392197D01*
X190490979Y-107639219D01*
X190452651Y-107390335D01*
X190225946Y-107271890D01*
X189980490Y-107199949D01*
X189725714Y-107177276D01*
X189471412Y-107204742D01*
X189227354Y-107281294D01*
X189023349Y-107390335D01*
X188985021Y-107639219D01*
X187175651Y-107639219D01*
X186581710Y-107045279D01*
X186581710Y-106347392D01*
X186586810Y-106295610D01*
X186566458Y-106088970D01*
X186555453Y-106052693D01*
X186506183Y-105890272D01*
X186408303Y-105707150D01*
X186276578Y-105546642D01*
X186236349Y-105513627D01*
X185878721Y-105156000D01*
X187398739Y-103635983D01*
X187438968Y-103602968D01*
X187570693Y-103442460D01*
X187621254Y-103347866D01*
X187668573Y-103259339D01*
X187728848Y-103060640D01*
X187749200Y-102854000D01*
X187744100Y-102802218D01*
X187744100Y-99889782D01*
X187749200Y-99838000D01*
X187728848Y-99631360D01*
X187668573Y-99432661D01*
X187570693Y-99249540D01*
X187526185Y-99195307D01*
X187438968Y-99089032D01*
X187398739Y-99056017D01*
X185689879Y-97347158D01*
X185689879Y-97085999D01*
X185671589Y-96900297D01*
X185617422Y-96721731D01*
X185529459Y-96557164D01*
X185411080Y-96412920D01*
X185266836Y-96294541D01*
X185102269Y-96206578D01*
X184923703Y-96152411D01*
X184795538Y-96139788D01*
X184939703Y-96125589D01*
X185118269Y-96071422D01*
X185282836Y-95983459D01*
X185427080Y-95865080D01*
X185545459Y-95720836D01*
X185633422Y-95556269D01*
X185687589Y-95377703D01*
X185695920Y-95293118D01*
X189096944Y-91892094D01*
X189206259Y-91981806D01*
G37*
%TD.AperFunction*%
D27*
X201699349Y-83895665D02*
X201926054Y-84014110D01*
X202171510Y-84086051D01*
X202292291Y-84096800D01*
X202292290Y-87345914D01*
X202287190Y-87397696D01*
X202294851Y-87475482D01*
X202189625Y-87476500D01*
X202015000Y-87651125D01*
X202015000Y-88836500D01*
X203062875Y-88836500D01*
X203179532Y-88719843D01*
X203290234Y-88810693D01*
X203367288Y-88851879D01*
X203473355Y-88908573D01*
X203588817Y-88943598D01*
X203462920Y-89046920D01*
X203397602Y-89126510D01*
X203225885Y-89126510D01*
X203062875Y-88963500D01*
X202015000Y-88963500D01*
X202015000Y-88983500D01*
X201888000Y-88983500D01*
X201888000Y-88963500D01*
X201868000Y-88963500D01*
X201868000Y-88836500D01*
X201888000Y-88836500D01*
X201888000Y-87651125D01*
X201713375Y-87476500D01*
X201364000Y-87473120D01*
X201227070Y-87486606D01*
X201095402Y-87526547D01*
X200974056Y-87591408D01*
X200867696Y-87678696D01*
X200839589Y-87712945D01*
X200829000Y-87704255D01*
X200829000Y-86258285D01*
X200833608Y-86211500D01*
X200815217Y-86024777D01*
X200796862Y-85964269D01*
X200760752Y-85845231D01*
X200672306Y-85679759D01*
X200553278Y-85534722D01*
X200516931Y-85504893D01*
X200453652Y-85441614D01*
X200446285Y-85404579D01*
X200363478Y-85204665D01*
X200243261Y-85024747D01*
X200141776Y-84923262D01*
X200962539Y-84102500D01*
X201041891Y-84102500D01*
X201292759Y-84052599D01*
X201529070Y-83954716D01*
X201691708Y-83846045D01*
X201699349Y-83895665D01*
%TA.AperFunction,Conductor*%
D28*
G36*
X201699349Y-83895665D02*
G01*
X201926054Y-84014110D01*
X202171510Y-84086051D01*
X202292291Y-84096800D01*
X202292290Y-87345914D01*
X202287190Y-87397696D01*
X202294851Y-87475482D01*
X202189625Y-87476500D01*
X202015000Y-87651125D01*
X202015000Y-88836500D01*
X203062875Y-88836500D01*
X203179532Y-88719843D01*
X203290234Y-88810693D01*
X203367288Y-88851879D01*
X203473355Y-88908573D01*
X203588817Y-88943598D01*
X203462920Y-89046920D01*
X203397602Y-89126510D01*
X203225885Y-89126510D01*
X203062875Y-88963500D01*
X202015000Y-88963500D01*
X202015000Y-88983500D01*
X201888000Y-88983500D01*
X201888000Y-88963500D01*
X201868000Y-88963500D01*
X201868000Y-88836500D01*
X201888000Y-88836500D01*
X201888000Y-87651125D01*
X201713375Y-87476500D01*
X201364000Y-87473120D01*
X201227070Y-87486606D01*
X201095402Y-87526547D01*
X200974056Y-87591408D01*
X200867696Y-87678696D01*
X200839589Y-87712945D01*
X200829000Y-87704255D01*
X200829000Y-86258285D01*
X200833608Y-86211500D01*
X200815217Y-86024777D01*
X200796862Y-85964269D01*
X200760752Y-85845231D01*
X200672306Y-85679759D01*
X200553278Y-85534722D01*
X200516931Y-85504893D01*
X200453652Y-85441614D01*
X200446285Y-85404579D01*
X200363478Y-85204665D01*
X200243261Y-85024747D01*
X200141776Y-84923262D01*
X200962539Y-84102500D01*
X201041891Y-84102500D01*
X201292759Y-84052599D01*
X201529070Y-83954716D01*
X201691708Y-83846045D01*
X201699349Y-83895665D01*
G37*
%TD.AperFunction*%
D27*
X205067394Y-83224432D02*
X205097223Y-83260779D01*
X205242260Y-83379807D01*
X205407732Y-83468253D01*
X205587278Y-83522718D01*
X205727216Y-83536501D01*
X205774001Y-83541109D01*
X205820786Y-83536501D01*
X207919463Y-83536501D01*
X209743229Y-85360268D01*
X209275000Y-85358120D01*
X209138070Y-85371606D01*
X209006402Y-85411547D01*
X208885056Y-85476408D01*
X208778696Y-85563696D01*
X208691408Y-85670056D01*
X208626547Y-85791402D01*
X208586606Y-85923070D01*
X208573120Y-86060000D01*
X208576500Y-86121875D01*
X208751125Y-86296500D01*
X210186500Y-86296500D01*
X210186500Y-86276500D01*
X210313500Y-86276500D01*
X210313500Y-86296500D01*
X210333500Y-86296500D01*
X210333500Y-86423500D01*
X210313500Y-86423500D01*
X210313500Y-86443500D01*
X210186500Y-86443500D01*
X210186500Y-86423500D01*
X208751125Y-86423500D01*
X208576500Y-86598125D01*
X208573120Y-86660000D01*
X208586606Y-86796930D01*
X208610561Y-86875900D01*
X207803879Y-86875900D01*
X207803879Y-86163999D01*
X207785589Y-85978297D01*
X207759901Y-85893613D01*
X207863261Y-85790253D01*
X207983478Y-85610335D01*
X208066285Y-85410421D01*
X208108500Y-85198193D01*
X208108500Y-84981807D01*
X208066285Y-84769579D01*
X207983478Y-84569665D01*
X207863261Y-84389747D01*
X207710253Y-84236739D01*
X207530335Y-84116522D01*
X207330421Y-84033715D01*
X207118193Y-83991500D01*
X206901807Y-83991500D01*
X206689579Y-84033715D01*
X206489665Y-84116522D01*
X206309747Y-84236739D01*
X206156739Y-84389747D01*
X206036522Y-84569665D01*
X205953715Y-84769579D01*
X205946348Y-84806614D01*
X205861565Y-84891397D01*
X205825223Y-84921222D01*
X205795399Y-84957563D01*
X205706194Y-85066260D01*
X205617749Y-85231731D01*
X205568705Y-85393405D01*
X205491944Y-85330408D01*
X205370598Y-85265547D01*
X205238930Y-85225606D01*
X205102000Y-85212120D01*
X204740125Y-85215500D01*
X204565500Y-85390125D01*
X204565500Y-86550500D01*
X204585500Y-86550500D01*
X204585500Y-86677500D01*
X204565500Y-86677500D01*
X204565500Y-86697500D01*
X204438500Y-86697500D01*
X204438500Y-86677500D01*
X204418500Y-86677500D01*
X204418500Y-86550500D01*
X204438500Y-86550500D01*
X204438500Y-85390125D01*
X204400490Y-85352115D01*
X204400490Y-84018521D01*
X204543734Y-83875277D01*
X204583968Y-83842258D01*
X204715693Y-83681750D01*
X204813573Y-83498628D01*
X204873848Y-83299930D01*
X204889100Y-83145072D01*
X204889100Y-83145071D01*
X204894200Y-83093290D01*
X204889606Y-83046644D01*
X205067394Y-83224432D01*
%TA.AperFunction,Conductor*%
D28*
G36*
X205067394Y-83224432D02*
G01*
X205097223Y-83260779D01*
X205242260Y-83379807D01*
X205407732Y-83468253D01*
X205587278Y-83522718D01*
X205727216Y-83536501D01*
X205774001Y-83541109D01*
X205820786Y-83536501D01*
X207919463Y-83536501D01*
X209743229Y-85360268D01*
X209275000Y-85358120D01*
X209138070Y-85371606D01*
X209006402Y-85411547D01*
X208885056Y-85476408D01*
X208778696Y-85563696D01*
X208691408Y-85670056D01*
X208626547Y-85791402D01*
X208586606Y-85923070D01*
X208573120Y-86060000D01*
X208576500Y-86121875D01*
X208751125Y-86296500D01*
X210186500Y-86296500D01*
X210186500Y-86276500D01*
X210313500Y-86276500D01*
X210313500Y-86296500D01*
X210333500Y-86296500D01*
X210333500Y-86423500D01*
X210313500Y-86423500D01*
X210313500Y-86443500D01*
X210186500Y-86443500D01*
X210186500Y-86423500D01*
X208751125Y-86423500D01*
X208576500Y-86598125D01*
X208573120Y-86660000D01*
X208586606Y-86796930D01*
X208610561Y-86875900D01*
X207803879Y-86875900D01*
X207803879Y-86163999D01*
X207785589Y-85978297D01*
X207759901Y-85893613D01*
X207863261Y-85790253D01*
X207983478Y-85610335D01*
X208066285Y-85410421D01*
X208108500Y-85198193D01*
X208108500Y-84981807D01*
X208066285Y-84769579D01*
X207983478Y-84569665D01*
X207863261Y-84389747D01*
X207710253Y-84236739D01*
X207530335Y-84116522D01*
X207330421Y-84033715D01*
X207118193Y-83991500D01*
X206901807Y-83991500D01*
X206689579Y-84033715D01*
X206489665Y-84116522D01*
X206309747Y-84236739D01*
X206156739Y-84389747D01*
X206036522Y-84569665D01*
X205953715Y-84769579D01*
X205946348Y-84806614D01*
X205861565Y-84891397D01*
X205825223Y-84921222D01*
X205795399Y-84957563D01*
X205706194Y-85066260D01*
X205617749Y-85231731D01*
X205568705Y-85393405D01*
X205491944Y-85330408D01*
X205370598Y-85265547D01*
X205238930Y-85225606D01*
X205102000Y-85212120D01*
X204740125Y-85215500D01*
X204565500Y-85390125D01*
X204565500Y-86550500D01*
X204585500Y-86550500D01*
X204585500Y-86677500D01*
X204565500Y-86677500D01*
X204565500Y-86697500D01*
X204438500Y-86697500D01*
X204438500Y-86677500D01*
X204418500Y-86677500D01*
X204418500Y-86550500D01*
X204438500Y-86550500D01*
X204438500Y-85390125D01*
X204400490Y-85352115D01*
X204400490Y-84018521D01*
X204543734Y-83875277D01*
X204583968Y-83842258D01*
X204715693Y-83681750D01*
X204813573Y-83498628D01*
X204873848Y-83299930D01*
X204889100Y-83145072D01*
X204889100Y-83145071D01*
X204894200Y-83093290D01*
X204889606Y-83046644D01*
X205067394Y-83224432D01*
G37*
%TD.AperFunction*%
D27*
X201450172Y-81620604D02*
X201292759Y-81555401D01*
X201041891Y-81505500D01*
X200786109Y-81505500D01*
X200535241Y-81555401D01*
X200298930Y-81653284D01*
X200086254Y-81795389D01*
X199905389Y-81976254D01*
X199763284Y-82188930D01*
X199665401Y-82425241D01*
X199615500Y-82676109D01*
X199615500Y-82755461D01*
X198614462Y-83756500D01*
X198460156Y-83756500D01*
X198461880Y-83739000D01*
X198458500Y-83677125D01*
X198283875Y-83502500D01*
X196848500Y-83502500D01*
X196848500Y-83522500D01*
X196721500Y-83522500D01*
X196721500Y-83502500D01*
X196701500Y-83502500D01*
X196701500Y-83375500D01*
X196721500Y-83375500D01*
X196721500Y-83355500D01*
X196848500Y-83355500D01*
X196848500Y-83375500D01*
X198283875Y-83375500D01*
X198458500Y-83200875D01*
X198461880Y-83139000D01*
X198448394Y-83002070D01*
X198408453Y-82870402D01*
X198343592Y-82749056D01*
X198342274Y-82747450D01*
X198397034Y-82645000D01*
X198445510Y-82485193D01*
X198461879Y-82319000D01*
X198461879Y-82019000D01*
X198445510Y-81852807D01*
X198397034Y-81693000D01*
X198318312Y-81545721D01*
X198212369Y-81416631D01*
X198083279Y-81310688D01*
X197936000Y-81231966D01*
X197839100Y-81202572D01*
X197839100Y-81074146D01*
X198011807Y-81108500D01*
X198228193Y-81108500D01*
X198440421Y-81066285D01*
X198445696Y-81064100D01*
X200893669Y-81064100D01*
X201450172Y-81620604D01*
%TA.AperFunction,Conductor*%
D28*
G36*
X201450172Y-81620604D02*
G01*
X201292759Y-81555401D01*
X201041891Y-81505500D01*
X200786109Y-81505500D01*
X200535241Y-81555401D01*
X200298930Y-81653284D01*
X200086254Y-81795389D01*
X199905389Y-81976254D01*
X199763284Y-82188930D01*
X199665401Y-82425241D01*
X199615500Y-82676109D01*
X199615500Y-82755461D01*
X198614462Y-83756500D01*
X198460156Y-83756500D01*
X198461880Y-83739000D01*
X198458500Y-83677125D01*
X198283875Y-83502500D01*
X196848500Y-83502500D01*
X196848500Y-83522500D01*
X196721500Y-83522500D01*
X196721500Y-83502500D01*
X196701500Y-83502500D01*
X196701500Y-83375500D01*
X196721500Y-83375500D01*
X196721500Y-83355500D01*
X196848500Y-83355500D01*
X196848500Y-83375500D01*
X198283875Y-83375500D01*
X198458500Y-83200875D01*
X198461880Y-83139000D01*
X198448394Y-83002070D01*
X198408453Y-82870402D01*
X198343592Y-82749056D01*
X198342274Y-82747450D01*
X198397034Y-82645000D01*
X198445510Y-82485193D01*
X198461879Y-82319000D01*
X198461879Y-82019000D01*
X198445510Y-81852807D01*
X198397034Y-81693000D01*
X198318312Y-81545721D01*
X198212369Y-81416631D01*
X198083279Y-81310688D01*
X197936000Y-81231966D01*
X197839100Y-81202572D01*
X197839100Y-81074146D01*
X198011807Y-81108500D01*
X198228193Y-81108500D01*
X198440421Y-81066285D01*
X198445696Y-81064100D01*
X200893669Y-81064100D01*
X201450172Y-81620604D01*
G37*
%TD.AperFunction*%
D27*
X202517945Y-82789858D02*
X202503803Y-82804000D01*
X202517945Y-82818142D01*
X202428142Y-82907945D01*
X202414000Y-82893803D01*
X202399858Y-82907945D01*
X202310055Y-82818142D01*
X202324197Y-82804000D01*
X202310055Y-82789858D01*
X202399858Y-82700055D01*
X202414000Y-82714197D01*
X202428142Y-82700055D01*
X202517945Y-82789858D01*
%TA.AperFunction,Conductor*%
D28*
G36*
X202517945Y-82789858D02*
G01*
X202503803Y-82804000D01*
X202517945Y-82818142D01*
X202428142Y-82907945D01*
X202414000Y-82893803D01*
X202399858Y-82907945D01*
X202310055Y-82818142D01*
X202324197Y-82804000D01*
X202310055Y-82789858D01*
X202399858Y-82700055D01*
X202414000Y-82714197D01*
X202428142Y-82700055D01*
X202517945Y-82789858D01*
G37*
%TD.AperFunction*%
D27*
X193957888Y-78672799D02*
X194211510Y-78842263D01*
X194493319Y-78958992D01*
X194792486Y-79018500D01*
X195097514Y-79018500D01*
X195396681Y-78958992D01*
X195678490Y-78842263D01*
X195730901Y-78807243D01*
X195730900Y-81202572D01*
X195634000Y-81231966D01*
X195486721Y-81310688D01*
X195357631Y-81416631D01*
X195251688Y-81545721D01*
X195172966Y-81693000D01*
X195124490Y-81852807D01*
X195108121Y-82019000D01*
X195108121Y-82319000D01*
X195124490Y-82485193D01*
X195128653Y-82498917D01*
X195002585Y-82486500D01*
X194955800Y-82481892D01*
X194909015Y-82486500D01*
X193510156Y-82486500D01*
X193511880Y-82469000D01*
X193508500Y-82407125D01*
X193333875Y-82232500D01*
X191898500Y-82232500D01*
X191898500Y-82252500D01*
X191771500Y-82252500D01*
X191771500Y-82232500D01*
X190336125Y-82232500D01*
X190209125Y-82359500D01*
X189407291Y-82359500D01*
X189441478Y-82308335D01*
X189524285Y-82108421D01*
X189566500Y-81896193D01*
X189566500Y-81869000D01*
X190158120Y-81869000D01*
X190161500Y-81930875D01*
X190336125Y-82105500D01*
X191771500Y-82105500D01*
X191771500Y-81345125D01*
X191898500Y-81345125D01*
X191898500Y-82105500D01*
X193333875Y-82105500D01*
X193508500Y-81930875D01*
X193511880Y-81869000D01*
X193498394Y-81732070D01*
X193458453Y-81600402D01*
X193393592Y-81479056D01*
X193306304Y-81372696D01*
X193199944Y-81285408D01*
X193078598Y-81220547D01*
X192946930Y-81180606D01*
X192810000Y-81167120D01*
X192073125Y-81170500D01*
X191898500Y-81345125D01*
X191771500Y-81345125D01*
X191596875Y-81170500D01*
X190860000Y-81167120D01*
X190723070Y-81180606D01*
X190591402Y-81220547D01*
X190470056Y-81285408D01*
X190363696Y-81372696D01*
X190276408Y-81479056D01*
X190211547Y-81600402D01*
X190171606Y-81732070D01*
X190158120Y-81869000D01*
X189566500Y-81869000D01*
X189566500Y-81679807D01*
X189524285Y-81467579D01*
X189441478Y-81267665D01*
X189321261Y-81087747D01*
X189297614Y-81064100D01*
X193349304Y-81064100D01*
X193354579Y-81066285D01*
X193566807Y-81108500D01*
X193783193Y-81108500D01*
X193995421Y-81066285D01*
X194195335Y-80983478D01*
X194375253Y-80863261D01*
X194528261Y-80710253D01*
X194648478Y-80530335D01*
X194731285Y-80330421D01*
X194773500Y-80118193D01*
X194773500Y-79901807D01*
X194731285Y-79689579D01*
X194648478Y-79489665D01*
X194528261Y-79309747D01*
X194375253Y-79156739D01*
X194195335Y-79036522D01*
X193995421Y-78953715D01*
X193783193Y-78911500D01*
X193630146Y-78911500D01*
X193644943Y-78903591D01*
X193751303Y-78816303D01*
X193838591Y-78709943D01*
X193893084Y-78607995D01*
X193957888Y-78672799D01*
%TA.AperFunction,Conductor*%
D28*
G36*
X193957888Y-78672799D02*
G01*
X194211510Y-78842263D01*
X194493319Y-78958992D01*
X194792486Y-79018500D01*
X195097514Y-79018500D01*
X195396681Y-78958992D01*
X195678490Y-78842263D01*
X195730901Y-78807243D01*
X195730900Y-81202572D01*
X195634000Y-81231966D01*
X195486721Y-81310688D01*
X195357631Y-81416631D01*
X195251688Y-81545721D01*
X195172966Y-81693000D01*
X195124490Y-81852807D01*
X195108121Y-82019000D01*
X195108121Y-82319000D01*
X195124490Y-82485193D01*
X195128653Y-82498917D01*
X195002585Y-82486500D01*
X194955800Y-82481892D01*
X194909015Y-82486500D01*
X193510156Y-82486500D01*
X193511880Y-82469000D01*
X193508500Y-82407125D01*
X193333875Y-82232500D01*
X191898500Y-82232500D01*
X191898500Y-82252500D01*
X191771500Y-82252500D01*
X191771500Y-82232500D01*
X190336125Y-82232500D01*
X190209125Y-82359500D01*
X189407291Y-82359500D01*
X189441478Y-82308335D01*
X189524285Y-82108421D01*
X189566500Y-81896193D01*
X189566500Y-81869000D01*
X190158120Y-81869000D01*
X190161500Y-81930875D01*
X190336125Y-82105500D01*
X191771500Y-82105500D01*
X191771500Y-81345125D01*
X191898500Y-81345125D01*
X191898500Y-82105500D01*
X193333875Y-82105500D01*
X193508500Y-81930875D01*
X193511880Y-81869000D01*
X193498394Y-81732070D01*
X193458453Y-81600402D01*
X193393592Y-81479056D01*
X193306304Y-81372696D01*
X193199944Y-81285408D01*
X193078598Y-81220547D01*
X192946930Y-81180606D01*
X192810000Y-81167120D01*
X192073125Y-81170500D01*
X191898500Y-81345125D01*
X191771500Y-81345125D01*
X191596875Y-81170500D01*
X190860000Y-81167120D01*
X190723070Y-81180606D01*
X190591402Y-81220547D01*
X190470056Y-81285408D01*
X190363696Y-81372696D01*
X190276408Y-81479056D01*
X190211547Y-81600402D01*
X190171606Y-81732070D01*
X190158120Y-81869000D01*
X189566500Y-81869000D01*
X189566500Y-81679807D01*
X189524285Y-81467579D01*
X189441478Y-81267665D01*
X189321261Y-81087747D01*
X189297614Y-81064100D01*
X193349304Y-81064100D01*
X193354579Y-81066285D01*
X193566807Y-81108500D01*
X193783193Y-81108500D01*
X193995421Y-81066285D01*
X194195335Y-80983478D01*
X194375253Y-80863261D01*
X194528261Y-80710253D01*
X194648478Y-80530335D01*
X194731285Y-80330421D01*
X194773500Y-80118193D01*
X194773500Y-79901807D01*
X194731285Y-79689579D01*
X194648478Y-79489665D01*
X194528261Y-79309747D01*
X194375253Y-79156739D01*
X194195335Y-79036522D01*
X193995421Y-78953715D01*
X193783193Y-78911500D01*
X193630146Y-78911500D01*
X193644943Y-78903591D01*
X193751303Y-78816303D01*
X193838591Y-78709943D01*
X193893084Y-78607995D01*
X193957888Y-78672799D01*
G37*
%TD.AperFunction*%
%TD*%
M02*
