%TF.GenerationSoftware,KiCad,Pcbnew,5.1.9-73d0e3b20d~88~ubuntu20.04.1*%
%TF.CreationDate,2021-04-18T23:12:54+02:00*%
%TF.ProjectId,interrupter,696e7465-7272-4757-9074-65722e6b6963,rev?*%
%TF.SameCoordinates,Original*%
%TF.FileFunction,Other,Fab,Top*%
%FSLAX46Y46*%
G04 Gerber Fmt 4.6, Leading zero omitted, Abs format (unit mm)*
G04 Created by KiCad (PCBNEW 5.1.9-73d0e3b20d~88~ubuntu20.04.1) date 2021-04-18 23:12:54*
%MOMM*%
%LPD*%
G01*
G04 APERTURE LIST*
%ADD10C,0.100000*%
%ADD11C,0.010000*%
%ADD12C,0.150000*%
%ADD13C,0.015000*%
%ADD14C,0.080000*%
%ADD15C,0.120000*%
G04 APERTURE END LIST*
D10*
%TO.C,D1*%
X177268000Y-86600000D02*
X177268000Y-91200000D01*
X177268000Y-91200000D02*
X174268000Y-91200000D01*
X174268000Y-86600000D02*
X177268000Y-86600000D01*
X174268000Y-86600000D02*
X174268000Y-91200000D01*
X175769020Y-89549440D02*
X175769020Y-90451140D01*
X175769020Y-88398820D02*
X175769020Y-87400600D01*
X174968920Y-89549440D02*
X176569120Y-89549440D01*
X176518320Y-88398820D02*
X174968920Y-88398820D01*
X175769020Y-89549440D02*
X176518320Y-88398820D01*
X175769020Y-89549440D02*
X174968920Y-88398820D01*
%TO.C,J2*%
X189484000Y-119126000D02*
X184404000Y-119126000D01*
X189484000Y-116586000D02*
X189484000Y-119126000D01*
X185039000Y-116586000D02*
X189484000Y-116586000D01*
X184404000Y-117221000D02*
X185039000Y-116586000D01*
X184404000Y-119126000D02*
X184404000Y-117221000D01*
%TO.C,J3*%
X196215000Y-78740000D02*
X191135000Y-78740000D01*
X196215000Y-76200000D02*
X196215000Y-78740000D01*
X191770000Y-76200000D02*
X196215000Y-76200000D01*
X191135000Y-76835000D02*
X191770000Y-76200000D01*
X191135000Y-78740000D02*
X191135000Y-76835000D01*
D11*
%TO.C,U6*%
G36*
X236515000Y-93684750D02*
G01*
X236515000Y-102090000D01*
X227522560Y-102090000D01*
X227522560Y-93684750D01*
X236515000Y-93684750D01*
G37*
X236515000Y-93684750D02*
X236515000Y-102090000D01*
X227522560Y-102090000D01*
X227522560Y-93684750D01*
X236515000Y-93684750D01*
G36*
X236515000Y-95087800D02*
G01*
X236515000Y-100690000D01*
X225217940Y-100690000D01*
X225217940Y-95087800D01*
X236515000Y-95087800D01*
G37*
X236515000Y-95087800D02*
X236515000Y-100690000D01*
X225217940Y-100690000D01*
X225217940Y-95087800D01*
X236515000Y-95087800D01*
D10*
%TO.C,U5*%
X210775000Y-86790000D02*
X211750000Y-85815000D01*
X210775000Y-90715000D02*
X210775000Y-86790000D01*
X214675000Y-90715000D02*
X210775000Y-90715000D01*
X214675000Y-85815000D02*
X214675000Y-90715000D01*
X211750000Y-85815000D02*
X214675000Y-85815000D01*
%TO.C,U4*%
X194646000Y-97488000D02*
X195621000Y-96513000D01*
X194646000Y-105163000D02*
X194646000Y-97488000D01*
X198546000Y-105163000D02*
X194646000Y-105163000D01*
X198546000Y-96513000D02*
X198546000Y-105163000D01*
X195621000Y-96513000D02*
X198546000Y-96513000D01*
%TO.C,U3*%
X192360000Y-82599000D02*
X193335000Y-81624000D01*
X192360000Y-86524000D02*
X192360000Y-82599000D01*
X196260000Y-86524000D02*
X192360000Y-86524000D01*
X196260000Y-81624000D02*
X196260000Y-86524000D01*
X193335000Y-81624000D02*
X196260000Y-81624000D01*
%TO.C,U2*%
X194646000Y-109015000D02*
X195621000Y-108040000D01*
X194646000Y-112940000D02*
X194646000Y-109015000D01*
X198546000Y-112940000D02*
X194646000Y-112940000D01*
X198546000Y-108040000D02*
X198546000Y-112940000D01*
X195621000Y-108040000D02*
X198546000Y-108040000D01*
%TO.C,U1*%
X195762000Y-119482000D02*
X195762000Y-118212000D01*
X199462000Y-119482000D02*
X199462000Y-118212000D01*
X202612000Y-118212000D02*
X192612000Y-118212000D01*
X192612000Y-119482000D02*
X202612000Y-119482000D01*
X192612000Y-115082000D02*
X192612000Y-119482000D01*
X202612000Y-115082000D02*
X192612000Y-115082000D01*
X202612000Y-119482000D02*
X202612000Y-115082000D01*
%TO.C,R15*%
X197088000Y-91811000D02*
X195088000Y-91811000D01*
X197088000Y-90561000D02*
X197088000Y-91811000D01*
X195088000Y-90561000D02*
X197088000Y-90561000D01*
X195088000Y-91811000D02*
X195088000Y-90561000D01*
%TO.C,R14*%
X221615000Y-104140000D02*
X219685000Y-104140000D01*
X211455000Y-104140000D02*
X213385000Y-104140000D01*
X219685000Y-102890000D02*
X213385000Y-102890000D01*
X219685000Y-105390000D02*
X219685000Y-102890000D01*
X213385000Y-105390000D02*
X219685000Y-105390000D01*
X213385000Y-102890000D02*
X213385000Y-105390000D01*
%TO.C,R13*%
X184404000Y-95367000D02*
X182404000Y-95367000D01*
X184404000Y-94117000D02*
X184404000Y-95367000D01*
X182404000Y-94117000D02*
X184404000Y-94117000D01*
X182404000Y-95367000D02*
X182404000Y-94117000D01*
%TO.C,R12*%
X204486000Y-89545000D02*
X206486000Y-89545000D01*
X204486000Y-90795000D02*
X204486000Y-89545000D01*
X206486000Y-90795000D02*
X204486000Y-90795000D01*
X206486000Y-89545000D02*
X206486000Y-90795000D01*
%TO.C,R11*%
X195088000Y-92847000D02*
X197088000Y-92847000D01*
X195088000Y-94097000D02*
X195088000Y-92847000D01*
X197088000Y-94097000D02*
X195088000Y-94097000D01*
X197088000Y-92847000D02*
X197088000Y-94097000D01*
%TO.C,R10*%
X204502000Y-85989000D02*
X206502000Y-85989000D01*
X204502000Y-87239000D02*
X204502000Y-85989000D01*
X206502000Y-87239000D02*
X204502000Y-87239000D01*
X206502000Y-85989000D02*
X206502000Y-87239000D01*
%TO.C,R9*%
X184404000Y-103241000D02*
X182404000Y-103241000D01*
X184404000Y-101991000D02*
X184404000Y-103241000D01*
X182404000Y-101991000D02*
X184404000Y-101991000D01*
X182404000Y-103241000D02*
X182404000Y-101991000D01*
%TO.C,R8*%
X182372000Y-109357000D02*
X184372000Y-109357000D01*
X182372000Y-110607000D02*
X182372000Y-109357000D01*
X184372000Y-110607000D02*
X182372000Y-110607000D01*
X184372000Y-109357000D02*
X184372000Y-110607000D01*
%TO.C,R7*%
X184388000Y-100701000D02*
X182388000Y-100701000D01*
X184388000Y-99451000D02*
X184388000Y-100701000D01*
X182388000Y-99451000D02*
X184388000Y-99451000D01*
X182388000Y-100701000D02*
X182388000Y-99451000D01*
%TO.C,R6*%
X182372000Y-106817000D02*
X184372000Y-106817000D01*
X182372000Y-108067000D02*
X182372000Y-106817000D01*
X184372000Y-108067000D02*
X182372000Y-108067000D01*
X184372000Y-106817000D02*
X184372000Y-108067000D01*
%TO.C,R5*%
X184388000Y-98161000D02*
X182388000Y-98161000D01*
X184388000Y-96911000D02*
X184388000Y-98161000D01*
X182388000Y-96911000D02*
X184388000Y-96911000D01*
X182388000Y-98161000D02*
X182388000Y-96911000D01*
%TO.C,R4*%
X182388000Y-104531000D02*
X184388000Y-104531000D01*
X182388000Y-105781000D02*
X182388000Y-104531000D01*
X184388000Y-105781000D02*
X182388000Y-105781000D01*
X184388000Y-104531000D02*
X184388000Y-105781000D01*
%TO.C,R3*%
X187436000Y-83937000D02*
X185436000Y-83937000D01*
X187436000Y-82687000D02*
X187436000Y-83937000D01*
X185436000Y-82687000D02*
X187436000Y-82687000D01*
X185436000Y-83937000D02*
X185436000Y-82687000D01*
%TO.C,R2*%
X187452000Y-80889000D02*
X185452000Y-80889000D01*
X187452000Y-79639000D02*
X187452000Y-80889000D01*
X185452000Y-79639000D02*
X187452000Y-79639000D01*
X185452000Y-80889000D02*
X185452000Y-79639000D01*
%TO.C,R1*%
X185690000Y-113675000D02*
X187690000Y-113675000D01*
X185690000Y-114925000D02*
X185690000Y-113675000D01*
X187690000Y-114925000D02*
X185690000Y-114925000D01*
X187690000Y-113675000D02*
X187690000Y-114925000D01*
%TO.C,Q2*%
X185428000Y-91666000D02*
X188928000Y-91666000D01*
X185444375Y-91669625D02*
G75*
G02*
X187198000Y-87436000I1753625J1753625D01*
G01*
X188951625Y-91669625D02*
G75*
G03*
X187198000Y-87436000I-1753625J1753625D01*
G01*
%TO.C,Q1*%
X179332000Y-91666000D02*
X182832000Y-91666000D01*
X179348375Y-91669625D02*
G75*
G02*
X181102000Y-87436000I1753625J1753625D01*
G01*
X182855625Y-91669625D02*
G75*
G03*
X181102000Y-87436000I-1753625J1753625D01*
G01*
%TO.C,J10*%
X208915000Y-102870000D02*
X203835000Y-102870000D01*
X208915000Y-100330000D02*
X208915000Y-102870000D01*
X204470000Y-100330000D02*
X208915000Y-100330000D01*
X203835000Y-100965000D02*
X204470000Y-100330000D01*
X203835000Y-102870000D02*
X203835000Y-100965000D01*
%TO.C,J8*%
X211328000Y-97282000D02*
X203708000Y-97282000D01*
X211328000Y-94742000D02*
X211328000Y-97282000D01*
X204343000Y-94742000D02*
X211328000Y-94742000D01*
X203708000Y-95377000D02*
X204343000Y-94742000D01*
X203708000Y-97282000D02*
X203708000Y-95377000D01*
%TO.C,J7*%
X203835000Y-104140000D02*
X208915000Y-104140000D01*
X203835000Y-106680000D02*
X203835000Y-104140000D01*
X208280000Y-106680000D02*
X203835000Y-106680000D01*
X208915000Y-106045000D02*
X208280000Y-106680000D01*
X208915000Y-104140000D02*
X208915000Y-106045000D01*
%TO.C,J6*%
X213360000Y-82550000D02*
X208280000Y-82550000D01*
X213360000Y-80010000D02*
X213360000Y-82550000D01*
X208915000Y-80010000D02*
X213360000Y-80010000D01*
X208280000Y-80645000D02*
X208915000Y-80010000D01*
X208280000Y-82550000D02*
X208280000Y-80645000D01*
%TO.C,J5*%
X213360000Y-78740000D02*
X208280000Y-78740000D01*
X213360000Y-76200000D02*
X213360000Y-78740000D01*
X208915000Y-76200000D02*
X213360000Y-76200000D01*
X208280000Y-76835000D02*
X208915000Y-76200000D01*
X208280000Y-78740000D02*
X208280000Y-76835000D01*
%TO.C,J4*%
X188976000Y-104394000D02*
X188976000Y-96774000D01*
X191516000Y-104394000D02*
X188976000Y-104394000D01*
X191516000Y-97409000D02*
X191516000Y-104394000D01*
X190881000Y-96774000D02*
X191516000Y-97409000D01*
X188976000Y-96774000D02*
X190881000Y-96774000D01*
%TO.C,J1*%
X222250000Y-110236000D02*
X217170000Y-110236000D01*
X222250000Y-107696000D02*
X222250000Y-110236000D01*
X217805000Y-107696000D02*
X222250000Y-107696000D01*
X217170000Y-108331000D02*
X217805000Y-107696000D01*
X217170000Y-110236000D02*
X217170000Y-108331000D01*
%TO.C,C11*%
X221250000Y-88275000D02*
X223250000Y-88275000D01*
X221250000Y-89525000D02*
X221250000Y-88275000D01*
X223250000Y-89525000D02*
X221250000Y-89525000D01*
X223250000Y-88275000D02*
X223250000Y-89525000D01*
%TO.C,C10*%
X223250000Y-92065000D02*
X221250000Y-92065000D01*
X223250000Y-90815000D02*
X223250000Y-92065000D01*
X221250000Y-90815000D02*
X223250000Y-90815000D01*
X221250000Y-92065000D02*
X221250000Y-90815000D01*
%TO.C,C9*%
X213522000Y-115824000D02*
G75*
G03*
X213522000Y-115824000I-4000000J0D01*
G01*
%TO.C,C8*%
X203713500Y-109337000D02*
X201713500Y-109337000D01*
X203713500Y-108087000D02*
X203713500Y-109337000D01*
X201713500Y-108087000D02*
X203713500Y-108087000D01*
X201713500Y-109337000D02*
X201713500Y-108087000D01*
%TO.C,C7*%
X201892500Y-93081000D02*
X199892500Y-93081000D01*
X201892500Y-91831000D02*
X201892500Y-93081000D01*
X199892500Y-91831000D02*
X201892500Y-91831000D01*
X199892500Y-93081000D02*
X199892500Y-91831000D01*
%TO.C,C6*%
X191738000Y-109232000D02*
G75*
G03*
X191738000Y-109232000I-2000000J0D01*
G01*
%TO.C,C5*%
X201914000Y-89525000D02*
X199914000Y-89525000D01*
X201914000Y-88275000D02*
X201914000Y-89525000D01*
X199914000Y-88275000D02*
X201914000Y-88275000D01*
X199914000Y-89525000D02*
X199914000Y-88275000D01*
%TO.C,C4*%
X203664000Y-82804000D02*
G75*
G03*
X203664000Y-82804000I-2000000J0D01*
G01*
%TO.C,C3*%
X197088000Y-89525000D02*
X195088000Y-89525000D01*
X197088000Y-88275000D02*
X197088000Y-89525000D01*
X195088000Y-88275000D02*
X197088000Y-88275000D01*
X195088000Y-89525000D02*
X195088000Y-88275000D01*
%TO.C,C2*%
X223250000Y-86985000D02*
X221250000Y-86985000D01*
X223250000Y-85735000D02*
X223250000Y-86985000D01*
X221250000Y-85735000D02*
X223250000Y-85735000D01*
X221250000Y-86985000D02*
X221250000Y-85735000D01*
%TO.C,C1*%
X187436000Y-78095000D02*
X185436000Y-78095000D01*
X187436000Y-76845000D02*
X187436000Y-78095000D01*
X185436000Y-76845000D02*
X187436000Y-76845000D01*
X185436000Y-78095000D02*
X185436000Y-76845000D01*
%TO.C,J9*%
X204470000Y-78740000D02*
X199390000Y-78740000D01*
X204470000Y-76200000D02*
X204470000Y-78740000D01*
X200025000Y-76200000D02*
X204470000Y-76200000D01*
X199390000Y-76835000D02*
X200025000Y-76200000D01*
X199390000Y-78740000D02*
X199390000Y-76835000D01*
%TD*%
%TO.C,D1*%
D12*
X178820380Y-90971428D02*
X178820380Y-91542857D01*
X178820380Y-91257142D02*
X177820380Y-91257142D01*
X177963238Y-91352380D01*
X178058476Y-91447619D01*
X178106095Y-91542857D01*
X178153714Y-90542857D02*
X178820380Y-90542857D01*
X178248952Y-90542857D02*
X178201333Y-90495238D01*
X178153714Y-90400000D01*
X178153714Y-90257142D01*
X178201333Y-90161904D01*
X178296571Y-90114285D01*
X178820380Y-90114285D01*
X178153714Y-89209523D02*
X178820380Y-89209523D01*
X177772761Y-89447619D02*
X178487047Y-89685714D01*
X178487047Y-89066666D01*
X177820380Y-88495238D02*
X177820380Y-88400000D01*
X177868000Y-88304761D01*
X177915619Y-88257142D01*
X178010857Y-88209523D01*
X178201333Y-88161904D01*
X178439428Y-88161904D01*
X178629904Y-88209523D01*
X178725142Y-88257142D01*
X178772761Y-88304761D01*
X178820380Y-88400000D01*
X178820380Y-88495238D01*
X178772761Y-88590476D01*
X178725142Y-88638095D01*
X178629904Y-88685714D01*
X178439428Y-88733333D01*
X178201333Y-88733333D01*
X178010857Y-88685714D01*
X177915619Y-88638095D01*
X177868000Y-88590476D01*
X177820380Y-88495238D01*
X177820380Y-87542857D02*
X177820380Y-87447619D01*
X177868000Y-87352380D01*
X177915619Y-87304761D01*
X178010857Y-87257142D01*
X178201333Y-87209523D01*
X178439428Y-87209523D01*
X178629904Y-87257142D01*
X178725142Y-87304761D01*
X178772761Y-87352380D01*
X178820380Y-87447619D01*
X178820380Y-87542857D01*
X178772761Y-87638095D01*
X178725142Y-87685714D01*
X178629904Y-87733333D01*
X178439428Y-87780952D01*
X178201333Y-87780952D01*
X178010857Y-87733333D01*
X177915619Y-87685714D01*
X177868000Y-87638095D01*
X177820380Y-87542857D01*
X177820380Y-86876190D02*
X177820380Y-86209523D01*
X178820380Y-86638095D01*
X173720380Y-89638095D02*
X172720380Y-89638095D01*
X172720380Y-89400000D01*
X172768000Y-89257142D01*
X172863238Y-89161904D01*
X172958476Y-89114285D01*
X173148952Y-89066666D01*
X173291809Y-89066666D01*
X173482285Y-89114285D01*
X173577523Y-89161904D01*
X173672761Y-89257142D01*
X173720380Y-89400000D01*
X173720380Y-89638095D01*
X173720380Y-88114285D02*
X173720380Y-88685714D01*
X173720380Y-88400000D02*
X172720380Y-88400000D01*
X172863238Y-88495238D01*
X172958476Y-88590476D01*
X173006095Y-88685714D01*
%TO.C,OUT*%
X174260000Y-108517380D02*
X174450476Y-108517380D01*
X174545714Y-108565000D01*
X174640952Y-108660238D01*
X174688571Y-108850714D01*
X174688571Y-109184047D01*
X174640952Y-109374523D01*
X174545714Y-109469761D01*
X174450476Y-109517380D01*
X174260000Y-109517380D01*
X174164761Y-109469761D01*
X174069523Y-109374523D01*
X174021904Y-109184047D01*
X174021904Y-108850714D01*
X174069523Y-108660238D01*
X174164761Y-108565000D01*
X174260000Y-108517380D01*
X175117142Y-108517380D02*
X175117142Y-109326904D01*
X175164761Y-109422142D01*
X175212380Y-109469761D01*
X175307619Y-109517380D01*
X175498095Y-109517380D01*
X175593333Y-109469761D01*
X175640952Y-109422142D01*
X175688571Y-109326904D01*
X175688571Y-108517380D01*
X176021904Y-108517380D02*
X176593333Y-108517380D01*
X176307619Y-109517380D02*
X176307619Y-108517380D01*
X174260000Y-105117380D02*
X174450476Y-105117380D01*
X174545714Y-105165000D01*
X174640952Y-105260238D01*
X174688571Y-105450714D01*
X174688571Y-105784047D01*
X174640952Y-105974523D01*
X174545714Y-106069761D01*
X174450476Y-106117380D01*
X174260000Y-106117380D01*
X174164761Y-106069761D01*
X174069523Y-105974523D01*
X174021904Y-105784047D01*
X174021904Y-105450714D01*
X174069523Y-105260238D01*
X174164761Y-105165000D01*
X174260000Y-105117380D01*
X175117142Y-105117380D02*
X175117142Y-105926904D01*
X175164761Y-106022142D01*
X175212380Y-106069761D01*
X175307619Y-106117380D01*
X175498095Y-106117380D01*
X175593333Y-106069761D01*
X175640952Y-106022142D01*
X175688571Y-105926904D01*
X175688571Y-105117380D01*
X176021904Y-105117380D02*
X176593333Y-105117380D01*
X176307619Y-106117380D02*
X176307619Y-105117380D01*
%TO.C,BME*%
X174307619Y-105818571D02*
X174450476Y-105866190D01*
X174498095Y-105913809D01*
X174545714Y-106009047D01*
X174545714Y-106151904D01*
X174498095Y-106247142D01*
X174450476Y-106294761D01*
X174355238Y-106342380D01*
X173974285Y-106342380D01*
X173974285Y-105342380D01*
X174307619Y-105342380D01*
X174402857Y-105390000D01*
X174450476Y-105437619D01*
X174498095Y-105532857D01*
X174498095Y-105628095D01*
X174450476Y-105723333D01*
X174402857Y-105770952D01*
X174307619Y-105818571D01*
X173974285Y-105818571D01*
X174974285Y-106342380D02*
X174974285Y-105342380D01*
X175307619Y-106056666D01*
X175640952Y-105342380D01*
X175640952Y-106342380D01*
X176117142Y-105818571D02*
X176450476Y-105818571D01*
X176593333Y-106342380D02*
X176117142Y-106342380D01*
X176117142Y-105342380D01*
X176593333Y-105342380D01*
X174307619Y-102418571D02*
X174450476Y-102466190D01*
X174498095Y-102513809D01*
X174545714Y-102609047D01*
X174545714Y-102751904D01*
X174498095Y-102847142D01*
X174450476Y-102894761D01*
X174355238Y-102942380D01*
X173974285Y-102942380D01*
X173974285Y-101942380D01*
X174307619Y-101942380D01*
X174402857Y-101990000D01*
X174450476Y-102037619D01*
X174498095Y-102132857D01*
X174498095Y-102228095D01*
X174450476Y-102323333D01*
X174402857Y-102370952D01*
X174307619Y-102418571D01*
X173974285Y-102418571D01*
X174974285Y-102942380D02*
X174974285Y-101942380D01*
X175307619Y-102656666D01*
X175640952Y-101942380D01*
X175640952Y-102942380D01*
X176117142Y-102418571D02*
X176450476Y-102418571D01*
X176593333Y-102942380D02*
X176117142Y-102942380D01*
X176117142Y-101942380D01*
X176593333Y-101942380D01*
%TO.C,9V*%
X174640952Y-98722380D02*
X174831428Y-98722380D01*
X174926666Y-98674761D01*
X174974285Y-98627142D01*
X175069523Y-98484285D01*
X175117142Y-98293809D01*
X175117142Y-97912857D01*
X175069523Y-97817619D01*
X175021904Y-97770000D01*
X174926666Y-97722380D01*
X174736190Y-97722380D01*
X174640952Y-97770000D01*
X174593333Y-97817619D01*
X174545714Y-97912857D01*
X174545714Y-98150952D01*
X174593333Y-98246190D01*
X174640952Y-98293809D01*
X174736190Y-98341428D01*
X174926666Y-98341428D01*
X175021904Y-98293809D01*
X175069523Y-98246190D01*
X175117142Y-98150952D01*
X175402857Y-97722380D02*
X175736190Y-98722380D01*
X176069523Y-97722380D01*
X174640952Y-95322380D02*
X174831428Y-95322380D01*
X174926666Y-95274761D01*
X174974285Y-95227142D01*
X175069523Y-95084285D01*
X175117142Y-94893809D01*
X175117142Y-94512857D01*
X175069523Y-94417619D01*
X175021904Y-94370000D01*
X174926666Y-94322380D01*
X174736190Y-94322380D01*
X174640952Y-94370000D01*
X174593333Y-94417619D01*
X174545714Y-94512857D01*
X174545714Y-94750952D01*
X174593333Y-94846190D01*
X174640952Y-94893809D01*
X174736190Y-94941428D01*
X174926666Y-94941428D01*
X175021904Y-94893809D01*
X175069523Y-94846190D01*
X175117142Y-94750952D01*
X175402857Y-94322380D02*
X175736190Y-95322380D01*
X176069523Y-94322380D01*
%TO.C,GND*%
X174498095Y-101580000D02*
X174402857Y-101532380D01*
X174260000Y-101532380D01*
X174117142Y-101580000D01*
X174021904Y-101675238D01*
X173974285Y-101770476D01*
X173926666Y-101960952D01*
X173926666Y-102103809D01*
X173974285Y-102294285D01*
X174021904Y-102389523D01*
X174117142Y-102484761D01*
X174260000Y-102532380D01*
X174355238Y-102532380D01*
X174498095Y-102484761D01*
X174545714Y-102437142D01*
X174545714Y-102103809D01*
X174355238Y-102103809D01*
X174974285Y-102532380D02*
X174974285Y-101532380D01*
X175545714Y-102532380D01*
X175545714Y-101532380D01*
X176021904Y-102532380D02*
X176021904Y-101532380D01*
X176260000Y-101532380D01*
X176402857Y-101580000D01*
X176498095Y-101675238D01*
X176545714Y-101770476D01*
X176593333Y-101960952D01*
X176593333Y-102103809D01*
X176545714Y-102294285D01*
X176498095Y-102389523D01*
X176402857Y-102484761D01*
X176260000Y-102532380D01*
X176021904Y-102532380D01*
X174498095Y-98180000D02*
X174402857Y-98132380D01*
X174260000Y-98132380D01*
X174117142Y-98180000D01*
X174021904Y-98275238D01*
X173974285Y-98370476D01*
X173926666Y-98560952D01*
X173926666Y-98703809D01*
X173974285Y-98894285D01*
X174021904Y-98989523D01*
X174117142Y-99084761D01*
X174260000Y-99132380D01*
X174355238Y-99132380D01*
X174498095Y-99084761D01*
X174545714Y-99037142D01*
X174545714Y-98703809D01*
X174355238Y-98703809D01*
X174974285Y-99132380D02*
X174974285Y-98132380D01*
X175545714Y-99132380D01*
X175545714Y-98132380D01*
X176021904Y-99132380D02*
X176021904Y-98132380D01*
X176260000Y-98132380D01*
X176402857Y-98180000D01*
X176498095Y-98275238D01*
X176545714Y-98370476D01*
X176593333Y-98560952D01*
X176593333Y-98703809D01*
X176545714Y-98894285D01*
X176498095Y-98989523D01*
X176402857Y-99084761D01*
X176260000Y-99132380D01*
X176021904Y-99132380D01*
%TO.C,J2*%
X191436380Y-118927428D02*
X191436380Y-119498857D01*
X191436380Y-119213142D02*
X190436380Y-119213142D01*
X190579238Y-119308380D01*
X190674476Y-119403619D01*
X190722095Y-119498857D01*
X190436380Y-118308380D02*
X190436380Y-118213142D01*
X190484000Y-118117904D01*
X190531619Y-118070285D01*
X190626857Y-118022666D01*
X190817333Y-117975047D01*
X191055428Y-117975047D01*
X191245904Y-118022666D01*
X191341142Y-118070285D01*
X191388761Y-118117904D01*
X191436380Y-118213142D01*
X191436380Y-118308380D01*
X191388761Y-118403619D01*
X191341142Y-118451238D01*
X191245904Y-118498857D01*
X191055428Y-118546476D01*
X190817333Y-118546476D01*
X190626857Y-118498857D01*
X190531619Y-118451238D01*
X190484000Y-118403619D01*
X190436380Y-118308380D01*
X190436380Y-117356000D02*
X190436380Y-117260761D01*
X190484000Y-117165523D01*
X190531619Y-117117904D01*
X190626857Y-117070285D01*
X190817333Y-117022666D01*
X191055428Y-117022666D01*
X191245904Y-117070285D01*
X191341142Y-117117904D01*
X191388761Y-117165523D01*
X191436380Y-117260761D01*
X191436380Y-117356000D01*
X191388761Y-117451238D01*
X191341142Y-117498857D01*
X191245904Y-117546476D01*
X191055428Y-117594095D01*
X190817333Y-117594095D01*
X190626857Y-117546476D01*
X190531619Y-117498857D01*
X190484000Y-117451238D01*
X190436380Y-117356000D01*
X191436380Y-116594095D02*
X190436380Y-116594095D01*
X191055428Y-116498857D02*
X191436380Y-116213142D01*
X190769714Y-116213142D02*
X191150666Y-116594095D01*
X186610666Y-117308380D02*
X186610666Y-118022666D01*
X186563047Y-118165523D01*
X186467809Y-118260761D01*
X186324952Y-118308380D01*
X186229714Y-118308380D01*
X187039238Y-117403619D02*
X187086857Y-117356000D01*
X187182095Y-117308380D01*
X187420190Y-117308380D01*
X187515428Y-117356000D01*
X187563047Y-117403619D01*
X187610666Y-117498857D01*
X187610666Y-117594095D01*
X187563047Y-117736952D01*
X186991619Y-118308380D01*
X187610666Y-118308380D01*
%TO.C,REF\u002A\u002A*%
X231823809Y-113482380D02*
X231823809Y-112482380D01*
X232157142Y-113196666D01*
X232490476Y-112482380D01*
X232490476Y-113482380D01*
X233109523Y-113482380D02*
X233014285Y-113434761D01*
X232966666Y-113387142D01*
X232919047Y-113291904D01*
X232919047Y-113006190D01*
X232966666Y-112910952D01*
X233014285Y-112863333D01*
X233109523Y-112815714D01*
X233252380Y-112815714D01*
X233347619Y-112863333D01*
X233395238Y-112910952D01*
X233442857Y-113006190D01*
X233442857Y-113291904D01*
X233395238Y-113387142D01*
X233347619Y-113434761D01*
X233252380Y-113482380D01*
X233109523Y-113482380D01*
X234300000Y-112815714D02*
X234300000Y-113482380D01*
X233871428Y-112815714D02*
X233871428Y-113339523D01*
X233919047Y-113434761D01*
X234014285Y-113482380D01*
X234157142Y-113482380D01*
X234252380Y-113434761D01*
X234300000Y-113387142D01*
X234776190Y-112815714D02*
X234776190Y-113482380D01*
X234776190Y-112910952D02*
X234823809Y-112863333D01*
X234919047Y-112815714D01*
X235061904Y-112815714D01*
X235157142Y-112863333D01*
X235204761Y-112958571D01*
X235204761Y-113482380D01*
X235538095Y-112815714D02*
X235919047Y-112815714D01*
X235680952Y-112482380D02*
X235680952Y-113339523D01*
X235728571Y-113434761D01*
X235823809Y-113482380D01*
X235919047Y-113482380D01*
X236252380Y-113482380D02*
X236252380Y-112815714D01*
X236252380Y-112482380D02*
X236204761Y-112530000D01*
X236252380Y-112577619D01*
X236300000Y-112530000D01*
X236252380Y-112482380D01*
X236252380Y-112577619D01*
X236728571Y-112815714D02*
X236728571Y-113482380D01*
X236728571Y-112910952D02*
X236776190Y-112863333D01*
X236871428Y-112815714D01*
X237014285Y-112815714D01*
X237109523Y-112863333D01*
X237157142Y-112958571D01*
X237157142Y-113482380D01*
X238061904Y-112815714D02*
X238061904Y-113625238D01*
X238014285Y-113720476D01*
X237966666Y-113768095D01*
X237871428Y-113815714D01*
X237728571Y-113815714D01*
X237633333Y-113768095D01*
X238061904Y-113434761D02*
X237966666Y-113482380D01*
X237776190Y-113482380D01*
X237680952Y-113434761D01*
X237633333Y-113387142D01*
X237585714Y-113291904D01*
X237585714Y-113006190D01*
X237633333Y-112910952D01*
X237680952Y-112863333D01*
X237776190Y-112815714D01*
X237966666Y-112815714D01*
X238061904Y-112863333D01*
X238538095Y-113482380D02*
X238538095Y-112482380D01*
X238538095Y-112958571D02*
X239109523Y-112958571D01*
X239109523Y-113482380D02*
X239109523Y-112482380D01*
X239728571Y-113482380D02*
X239633333Y-113434761D01*
X239585714Y-113387142D01*
X239538095Y-113291904D01*
X239538095Y-113006190D01*
X239585714Y-112910952D01*
X239633333Y-112863333D01*
X239728571Y-112815714D01*
X239871428Y-112815714D01*
X239966666Y-112863333D01*
X240014285Y-112910952D01*
X240061904Y-113006190D01*
X240061904Y-113291904D01*
X240014285Y-113387142D01*
X239966666Y-113434761D01*
X239871428Y-113482380D01*
X239728571Y-113482380D01*
X240633333Y-113482380D02*
X240538095Y-113434761D01*
X240490476Y-113339523D01*
X240490476Y-112482380D01*
X241395238Y-113434761D02*
X241300000Y-113482380D01*
X241109523Y-113482380D01*
X241014285Y-113434761D01*
X240966666Y-113339523D01*
X240966666Y-112958571D01*
X241014285Y-112863333D01*
X241109523Y-112815714D01*
X241300000Y-112815714D01*
X241395238Y-112863333D01*
X241442857Y-112958571D01*
X241442857Y-113053809D01*
X240966666Y-113149047D01*
X241633333Y-113577619D02*
X242395238Y-113577619D01*
X242538095Y-112482380D02*
X243157142Y-112482380D01*
X242823809Y-112863333D01*
X242966666Y-112863333D01*
X243061904Y-112910952D01*
X243109523Y-112958571D01*
X243157142Y-113053809D01*
X243157142Y-113291904D01*
X243109523Y-113387142D01*
X243061904Y-113434761D01*
X242966666Y-113482380D01*
X242680952Y-113482380D01*
X242585714Y-113434761D01*
X242538095Y-113387142D01*
X243585714Y-113387142D02*
X243633333Y-113434761D01*
X243585714Y-113482380D01*
X243538095Y-113434761D01*
X243585714Y-113387142D01*
X243585714Y-113482380D01*
X244538095Y-112482380D02*
X244061904Y-112482380D01*
X244014285Y-112958571D01*
X244061904Y-112910952D01*
X244157142Y-112863333D01*
X244395238Y-112863333D01*
X244490476Y-112910952D01*
X244538095Y-112958571D01*
X244585714Y-113053809D01*
X244585714Y-113291904D01*
X244538095Y-113387142D01*
X244490476Y-113434761D01*
X244395238Y-113482380D01*
X244157142Y-113482380D01*
X244061904Y-113434761D01*
X244014285Y-113387142D01*
X245014285Y-113482380D02*
X245014285Y-112815714D01*
X245014285Y-112910952D02*
X245061904Y-112863333D01*
X245157142Y-112815714D01*
X245300000Y-112815714D01*
X245395238Y-112863333D01*
X245442857Y-112958571D01*
X245442857Y-113482380D01*
X245442857Y-112958571D02*
X245490476Y-112863333D01*
X245585714Y-112815714D01*
X245728571Y-112815714D01*
X245823809Y-112863333D01*
X245871428Y-112958571D01*
X245871428Y-113482380D01*
X246347619Y-113482380D02*
X246347619Y-112815714D01*
X246347619Y-112910952D02*
X246395238Y-112863333D01*
X246490476Y-112815714D01*
X246633333Y-112815714D01*
X246728571Y-112863333D01*
X246776190Y-112958571D01*
X246776190Y-113482380D01*
X246776190Y-112958571D02*
X246823809Y-112863333D01*
X246919047Y-112815714D01*
X247061904Y-112815714D01*
X247157142Y-112863333D01*
X247204761Y-112958571D01*
X247204761Y-113482380D01*
X247442857Y-113577619D02*
X248204761Y-113577619D01*
X248442857Y-113482380D02*
X248442857Y-112482380D01*
X248823809Y-112482380D01*
X248919047Y-112530000D01*
X248966666Y-112577619D01*
X249014285Y-112672857D01*
X249014285Y-112815714D01*
X248966666Y-112910952D01*
X248919047Y-112958571D01*
X248823809Y-113006190D01*
X248442857Y-113006190D01*
X249871428Y-113482380D02*
X249871428Y-112958571D01*
X249823809Y-112863333D01*
X249728571Y-112815714D01*
X249538095Y-112815714D01*
X249442857Y-112863333D01*
X249871428Y-113434761D02*
X249776190Y-113482380D01*
X249538095Y-113482380D01*
X249442857Y-113434761D01*
X249395238Y-113339523D01*
X249395238Y-113244285D01*
X249442857Y-113149047D01*
X249538095Y-113101428D01*
X249776190Y-113101428D01*
X249871428Y-113053809D01*
X250776190Y-113482380D02*
X250776190Y-112482380D01*
X250776190Y-113434761D02*
X250680952Y-113482380D01*
X250490476Y-113482380D01*
X250395238Y-113434761D01*
X250347619Y-113387142D01*
X250300000Y-113291904D01*
X250300000Y-113006190D01*
X250347619Y-112910952D01*
X250395238Y-112863333D01*
X250490476Y-112815714D01*
X250680952Y-112815714D01*
X250776190Y-112863333D01*
X219946666Y-116022380D02*
X219613333Y-115546190D01*
X219375238Y-116022380D02*
X219375238Y-115022380D01*
X219756190Y-115022380D01*
X219851428Y-115070000D01*
X219899047Y-115117619D01*
X219946666Y-115212857D01*
X219946666Y-115355714D01*
X219899047Y-115450952D01*
X219851428Y-115498571D01*
X219756190Y-115546190D01*
X219375238Y-115546190D01*
X220375238Y-115498571D02*
X220708571Y-115498571D01*
X220851428Y-116022380D02*
X220375238Y-116022380D01*
X220375238Y-115022380D01*
X220851428Y-115022380D01*
X221613333Y-115498571D02*
X221280000Y-115498571D01*
X221280000Y-116022380D02*
X221280000Y-115022380D01*
X221756190Y-115022380D01*
X222280000Y-115022380D02*
X222280000Y-115260476D01*
X222041904Y-115165238D02*
X222280000Y-115260476D01*
X222518095Y-115165238D01*
X222137142Y-115450952D02*
X222280000Y-115260476D01*
X222422857Y-115450952D01*
X223041904Y-115022380D02*
X223041904Y-115260476D01*
X222803809Y-115165238D02*
X223041904Y-115260476D01*
X223280000Y-115165238D01*
X222899047Y-115450952D02*
X223041904Y-115260476D01*
X223184761Y-115450952D01*
X188897809Y-113482380D02*
X188897809Y-112482380D01*
X189231142Y-113196666D01*
X189564476Y-112482380D01*
X189564476Y-113482380D01*
X190183523Y-113482380D02*
X190088285Y-113434761D01*
X190040666Y-113387142D01*
X189993047Y-113291904D01*
X189993047Y-113006190D01*
X190040666Y-112910952D01*
X190088285Y-112863333D01*
X190183523Y-112815714D01*
X190326380Y-112815714D01*
X190421619Y-112863333D01*
X190469238Y-112910952D01*
X190516857Y-113006190D01*
X190516857Y-113291904D01*
X190469238Y-113387142D01*
X190421619Y-113434761D01*
X190326380Y-113482380D01*
X190183523Y-113482380D01*
X191374000Y-112815714D02*
X191374000Y-113482380D01*
X190945428Y-112815714D02*
X190945428Y-113339523D01*
X190993047Y-113434761D01*
X191088285Y-113482380D01*
X191231142Y-113482380D01*
X191326380Y-113434761D01*
X191374000Y-113387142D01*
X191850190Y-112815714D02*
X191850190Y-113482380D01*
X191850190Y-112910952D02*
X191897809Y-112863333D01*
X191993047Y-112815714D01*
X192135904Y-112815714D01*
X192231142Y-112863333D01*
X192278761Y-112958571D01*
X192278761Y-113482380D01*
X192612095Y-112815714D02*
X192993047Y-112815714D01*
X192754952Y-112482380D02*
X192754952Y-113339523D01*
X192802571Y-113434761D01*
X192897809Y-113482380D01*
X192993047Y-113482380D01*
X193326380Y-113482380D02*
X193326380Y-112815714D01*
X193326380Y-112482380D02*
X193278761Y-112530000D01*
X193326380Y-112577619D01*
X193374000Y-112530000D01*
X193326380Y-112482380D01*
X193326380Y-112577619D01*
X193802571Y-112815714D02*
X193802571Y-113482380D01*
X193802571Y-112910952D02*
X193850190Y-112863333D01*
X193945428Y-112815714D01*
X194088285Y-112815714D01*
X194183523Y-112863333D01*
X194231142Y-112958571D01*
X194231142Y-113482380D01*
X195135904Y-112815714D02*
X195135904Y-113625238D01*
X195088285Y-113720476D01*
X195040666Y-113768095D01*
X194945428Y-113815714D01*
X194802571Y-113815714D01*
X194707333Y-113768095D01*
X195135904Y-113434761D02*
X195040666Y-113482380D01*
X194850190Y-113482380D01*
X194754952Y-113434761D01*
X194707333Y-113387142D01*
X194659714Y-113291904D01*
X194659714Y-113006190D01*
X194707333Y-112910952D01*
X194754952Y-112863333D01*
X194850190Y-112815714D01*
X195040666Y-112815714D01*
X195135904Y-112863333D01*
X195612095Y-113482380D02*
X195612095Y-112482380D01*
X195612095Y-112958571D02*
X196183523Y-112958571D01*
X196183523Y-113482380D02*
X196183523Y-112482380D01*
X196802571Y-113482380D02*
X196707333Y-113434761D01*
X196659714Y-113387142D01*
X196612095Y-113291904D01*
X196612095Y-113006190D01*
X196659714Y-112910952D01*
X196707333Y-112863333D01*
X196802571Y-112815714D01*
X196945428Y-112815714D01*
X197040666Y-112863333D01*
X197088285Y-112910952D01*
X197135904Y-113006190D01*
X197135904Y-113291904D01*
X197088285Y-113387142D01*
X197040666Y-113434761D01*
X196945428Y-113482380D01*
X196802571Y-113482380D01*
X197707333Y-113482380D02*
X197612095Y-113434761D01*
X197564476Y-113339523D01*
X197564476Y-112482380D01*
X198469238Y-113434761D02*
X198374000Y-113482380D01*
X198183523Y-113482380D01*
X198088285Y-113434761D01*
X198040666Y-113339523D01*
X198040666Y-112958571D01*
X198088285Y-112863333D01*
X198183523Y-112815714D01*
X198374000Y-112815714D01*
X198469238Y-112863333D01*
X198516857Y-112958571D01*
X198516857Y-113053809D01*
X198040666Y-113149047D01*
X198707333Y-113577619D02*
X199469238Y-113577619D01*
X199612095Y-112482380D02*
X200231142Y-112482380D01*
X199897809Y-112863333D01*
X200040666Y-112863333D01*
X200135904Y-112910952D01*
X200183523Y-112958571D01*
X200231142Y-113053809D01*
X200231142Y-113291904D01*
X200183523Y-113387142D01*
X200135904Y-113434761D01*
X200040666Y-113482380D01*
X199754952Y-113482380D01*
X199659714Y-113434761D01*
X199612095Y-113387142D01*
X200659714Y-113387142D02*
X200707333Y-113434761D01*
X200659714Y-113482380D01*
X200612095Y-113434761D01*
X200659714Y-113387142D01*
X200659714Y-113482380D01*
X201612095Y-112482380D02*
X201135904Y-112482380D01*
X201088285Y-112958571D01*
X201135904Y-112910952D01*
X201231142Y-112863333D01*
X201469238Y-112863333D01*
X201564476Y-112910952D01*
X201612095Y-112958571D01*
X201659714Y-113053809D01*
X201659714Y-113291904D01*
X201612095Y-113387142D01*
X201564476Y-113434761D01*
X201469238Y-113482380D01*
X201231142Y-113482380D01*
X201135904Y-113434761D01*
X201088285Y-113387142D01*
X202088285Y-113482380D02*
X202088285Y-112815714D01*
X202088285Y-112910952D02*
X202135904Y-112863333D01*
X202231142Y-112815714D01*
X202374000Y-112815714D01*
X202469238Y-112863333D01*
X202516857Y-112958571D01*
X202516857Y-113482380D01*
X202516857Y-112958571D02*
X202564476Y-112863333D01*
X202659714Y-112815714D01*
X202802571Y-112815714D01*
X202897809Y-112863333D01*
X202945428Y-112958571D01*
X202945428Y-113482380D01*
X203421619Y-113482380D02*
X203421619Y-112815714D01*
X203421619Y-112910952D02*
X203469238Y-112863333D01*
X203564476Y-112815714D01*
X203707333Y-112815714D01*
X203802571Y-112863333D01*
X203850190Y-112958571D01*
X203850190Y-113482380D01*
X203850190Y-112958571D02*
X203897809Y-112863333D01*
X203993047Y-112815714D01*
X204135904Y-112815714D01*
X204231142Y-112863333D01*
X204278761Y-112958571D01*
X204278761Y-113482380D01*
X204516857Y-113577619D02*
X205278761Y-113577619D01*
X205516857Y-113482380D02*
X205516857Y-112482380D01*
X205897809Y-112482380D01*
X205993047Y-112530000D01*
X206040666Y-112577619D01*
X206088285Y-112672857D01*
X206088285Y-112815714D01*
X206040666Y-112910952D01*
X205993047Y-112958571D01*
X205897809Y-113006190D01*
X205516857Y-113006190D01*
X206945428Y-113482380D02*
X206945428Y-112958571D01*
X206897809Y-112863333D01*
X206802571Y-112815714D01*
X206612095Y-112815714D01*
X206516857Y-112863333D01*
X206945428Y-113434761D02*
X206850190Y-113482380D01*
X206612095Y-113482380D01*
X206516857Y-113434761D01*
X206469238Y-113339523D01*
X206469238Y-113244285D01*
X206516857Y-113149047D01*
X206612095Y-113101428D01*
X206850190Y-113101428D01*
X206945428Y-113053809D01*
X207850190Y-113482380D02*
X207850190Y-112482380D01*
X207850190Y-113434761D02*
X207754952Y-113482380D01*
X207564476Y-113482380D01*
X207469238Y-113434761D01*
X207421619Y-113387142D01*
X207374000Y-113291904D01*
X207374000Y-113006190D01*
X207421619Y-112910952D01*
X207469238Y-112863333D01*
X207564476Y-112815714D01*
X207754952Y-112815714D01*
X207850190Y-112863333D01*
X177020666Y-116022380D02*
X176687333Y-115546190D01*
X176449238Y-116022380D02*
X176449238Y-115022380D01*
X176830190Y-115022380D01*
X176925428Y-115070000D01*
X176973047Y-115117619D01*
X177020666Y-115212857D01*
X177020666Y-115355714D01*
X176973047Y-115450952D01*
X176925428Y-115498571D01*
X176830190Y-115546190D01*
X176449238Y-115546190D01*
X177449238Y-115498571D02*
X177782571Y-115498571D01*
X177925428Y-116022380D02*
X177449238Y-116022380D01*
X177449238Y-115022380D01*
X177925428Y-115022380D01*
X178687333Y-115498571D02*
X178354000Y-115498571D01*
X178354000Y-116022380D02*
X178354000Y-115022380D01*
X178830190Y-115022380D01*
X179354000Y-115022380D02*
X179354000Y-115260476D01*
X179115904Y-115165238D02*
X179354000Y-115260476D01*
X179592095Y-115165238D01*
X179211142Y-115450952D02*
X179354000Y-115260476D01*
X179496857Y-115450952D01*
X180115904Y-115022380D02*
X180115904Y-115260476D01*
X179877809Y-115165238D02*
X180115904Y-115260476D01*
X180354000Y-115165238D01*
X179973047Y-115450952D02*
X180115904Y-115260476D01*
X180258761Y-115450952D01*
%TO.C,J3*%
X197167380Y-78112857D02*
X197167380Y-78589047D01*
X197643571Y-78636666D01*
X197595952Y-78589047D01*
X197548333Y-78493809D01*
X197548333Y-78255714D01*
X197595952Y-78160476D01*
X197643571Y-78112857D01*
X197738809Y-78065238D01*
X197976904Y-78065238D01*
X198072142Y-78112857D01*
X198119761Y-78160476D01*
X198167380Y-78255714D01*
X198167380Y-78493809D01*
X198119761Y-78589047D01*
X198072142Y-78636666D01*
X197167380Y-77446190D02*
X197167380Y-77350952D01*
X197215000Y-77255714D01*
X197262619Y-77208095D01*
X197357857Y-77160476D01*
X197548333Y-77112857D01*
X197786428Y-77112857D01*
X197976904Y-77160476D01*
X198072142Y-77208095D01*
X198119761Y-77255714D01*
X198167380Y-77350952D01*
X198167380Y-77446190D01*
X198119761Y-77541428D01*
X198072142Y-77589047D01*
X197976904Y-77636666D01*
X197786428Y-77684285D01*
X197548333Y-77684285D01*
X197357857Y-77636666D01*
X197262619Y-77589047D01*
X197215000Y-77541428D01*
X197167380Y-77446190D01*
X198167380Y-76684285D02*
X197167380Y-76684285D01*
X197786428Y-76589047D02*
X198167380Y-76303333D01*
X197500714Y-76303333D02*
X197881666Y-76684285D01*
X193341666Y-76922380D02*
X193341666Y-77636666D01*
X193294047Y-77779523D01*
X193198809Y-77874761D01*
X193055952Y-77922380D01*
X192960714Y-77922380D01*
X193722619Y-76922380D02*
X194341666Y-76922380D01*
X194008333Y-77303333D01*
X194151190Y-77303333D01*
X194246428Y-77350952D01*
X194294047Y-77398571D01*
X194341666Y-77493809D01*
X194341666Y-77731904D01*
X194294047Y-77827142D01*
X194246428Y-77874761D01*
X194151190Y-77922380D01*
X193865476Y-77922380D01*
X193770238Y-77874761D01*
X193722619Y-77827142D01*
%TO.C,REF\u002A\u002A*%
X188770809Y-78049380D02*
X188770809Y-77049380D01*
X189104142Y-77763666D01*
X189437476Y-77049380D01*
X189437476Y-78049380D01*
X190056523Y-78049380D02*
X189961285Y-78001761D01*
X189913666Y-77954142D01*
X189866047Y-77858904D01*
X189866047Y-77573190D01*
X189913666Y-77477952D01*
X189961285Y-77430333D01*
X190056523Y-77382714D01*
X190199380Y-77382714D01*
X190294619Y-77430333D01*
X190342238Y-77477952D01*
X190389857Y-77573190D01*
X190389857Y-77858904D01*
X190342238Y-77954142D01*
X190294619Y-78001761D01*
X190199380Y-78049380D01*
X190056523Y-78049380D01*
X191247000Y-77382714D02*
X191247000Y-78049380D01*
X190818428Y-77382714D02*
X190818428Y-77906523D01*
X190866047Y-78001761D01*
X190961285Y-78049380D01*
X191104142Y-78049380D01*
X191199380Y-78001761D01*
X191247000Y-77954142D01*
X191723190Y-77382714D02*
X191723190Y-78049380D01*
X191723190Y-77477952D02*
X191770809Y-77430333D01*
X191866047Y-77382714D01*
X192008904Y-77382714D01*
X192104142Y-77430333D01*
X192151761Y-77525571D01*
X192151761Y-78049380D01*
X192485095Y-77382714D02*
X192866047Y-77382714D01*
X192627952Y-77049380D02*
X192627952Y-77906523D01*
X192675571Y-78001761D01*
X192770809Y-78049380D01*
X192866047Y-78049380D01*
X193199380Y-78049380D02*
X193199380Y-77382714D01*
X193199380Y-77049380D02*
X193151761Y-77097000D01*
X193199380Y-77144619D01*
X193247000Y-77097000D01*
X193199380Y-77049380D01*
X193199380Y-77144619D01*
X193675571Y-77382714D02*
X193675571Y-78049380D01*
X193675571Y-77477952D02*
X193723190Y-77430333D01*
X193818428Y-77382714D01*
X193961285Y-77382714D01*
X194056523Y-77430333D01*
X194104142Y-77525571D01*
X194104142Y-78049380D01*
X195008904Y-77382714D02*
X195008904Y-78192238D01*
X194961285Y-78287476D01*
X194913666Y-78335095D01*
X194818428Y-78382714D01*
X194675571Y-78382714D01*
X194580333Y-78335095D01*
X195008904Y-78001761D02*
X194913666Y-78049380D01*
X194723190Y-78049380D01*
X194627952Y-78001761D01*
X194580333Y-77954142D01*
X194532714Y-77858904D01*
X194532714Y-77573190D01*
X194580333Y-77477952D01*
X194627952Y-77430333D01*
X194723190Y-77382714D01*
X194913666Y-77382714D01*
X195008904Y-77430333D01*
X195485095Y-78049380D02*
X195485095Y-77049380D01*
X195485095Y-77525571D02*
X196056523Y-77525571D01*
X196056523Y-78049380D02*
X196056523Y-77049380D01*
X196675571Y-78049380D02*
X196580333Y-78001761D01*
X196532714Y-77954142D01*
X196485095Y-77858904D01*
X196485095Y-77573190D01*
X196532714Y-77477952D01*
X196580333Y-77430333D01*
X196675571Y-77382714D01*
X196818428Y-77382714D01*
X196913666Y-77430333D01*
X196961285Y-77477952D01*
X197008904Y-77573190D01*
X197008904Y-77858904D01*
X196961285Y-77954142D01*
X196913666Y-78001761D01*
X196818428Y-78049380D01*
X196675571Y-78049380D01*
X197580333Y-78049380D02*
X197485095Y-78001761D01*
X197437476Y-77906523D01*
X197437476Y-77049380D01*
X198342238Y-78001761D02*
X198247000Y-78049380D01*
X198056523Y-78049380D01*
X197961285Y-78001761D01*
X197913666Y-77906523D01*
X197913666Y-77525571D01*
X197961285Y-77430333D01*
X198056523Y-77382714D01*
X198247000Y-77382714D01*
X198342238Y-77430333D01*
X198389857Y-77525571D01*
X198389857Y-77620809D01*
X197913666Y-77716047D01*
X198580333Y-78144619D02*
X199342238Y-78144619D01*
X199485095Y-77049380D02*
X200104142Y-77049380D01*
X199770809Y-77430333D01*
X199913666Y-77430333D01*
X200008904Y-77477952D01*
X200056523Y-77525571D01*
X200104142Y-77620809D01*
X200104142Y-77858904D01*
X200056523Y-77954142D01*
X200008904Y-78001761D01*
X199913666Y-78049380D01*
X199627952Y-78049380D01*
X199532714Y-78001761D01*
X199485095Y-77954142D01*
X200532714Y-77954142D02*
X200580333Y-78001761D01*
X200532714Y-78049380D01*
X200485095Y-78001761D01*
X200532714Y-77954142D01*
X200532714Y-78049380D01*
X201485095Y-77049380D02*
X201008904Y-77049380D01*
X200961285Y-77525571D01*
X201008904Y-77477952D01*
X201104142Y-77430333D01*
X201342238Y-77430333D01*
X201437476Y-77477952D01*
X201485095Y-77525571D01*
X201532714Y-77620809D01*
X201532714Y-77858904D01*
X201485095Y-77954142D01*
X201437476Y-78001761D01*
X201342238Y-78049380D01*
X201104142Y-78049380D01*
X201008904Y-78001761D01*
X200961285Y-77954142D01*
X201961285Y-78049380D02*
X201961285Y-77382714D01*
X201961285Y-77477952D02*
X202008904Y-77430333D01*
X202104142Y-77382714D01*
X202247000Y-77382714D01*
X202342238Y-77430333D01*
X202389857Y-77525571D01*
X202389857Y-78049380D01*
X202389857Y-77525571D02*
X202437476Y-77430333D01*
X202532714Y-77382714D01*
X202675571Y-77382714D01*
X202770809Y-77430333D01*
X202818428Y-77525571D01*
X202818428Y-78049380D01*
X203294619Y-78049380D02*
X203294619Y-77382714D01*
X203294619Y-77477952D02*
X203342238Y-77430333D01*
X203437476Y-77382714D01*
X203580333Y-77382714D01*
X203675571Y-77430333D01*
X203723190Y-77525571D01*
X203723190Y-78049380D01*
X203723190Y-77525571D02*
X203770809Y-77430333D01*
X203866047Y-77382714D01*
X204008904Y-77382714D01*
X204104142Y-77430333D01*
X204151761Y-77525571D01*
X204151761Y-78049380D01*
X204389857Y-78144619D02*
X205151761Y-78144619D01*
X205389857Y-78049380D02*
X205389857Y-77049380D01*
X205770809Y-77049380D01*
X205866047Y-77097000D01*
X205913666Y-77144619D01*
X205961285Y-77239857D01*
X205961285Y-77382714D01*
X205913666Y-77477952D01*
X205866047Y-77525571D01*
X205770809Y-77573190D01*
X205389857Y-77573190D01*
X206818428Y-78049380D02*
X206818428Y-77525571D01*
X206770809Y-77430333D01*
X206675571Y-77382714D01*
X206485095Y-77382714D01*
X206389857Y-77430333D01*
X206818428Y-78001761D02*
X206723190Y-78049380D01*
X206485095Y-78049380D01*
X206389857Y-78001761D01*
X206342238Y-77906523D01*
X206342238Y-77811285D01*
X206389857Y-77716047D01*
X206485095Y-77668428D01*
X206723190Y-77668428D01*
X206818428Y-77620809D01*
X207723190Y-78049380D02*
X207723190Y-77049380D01*
X207723190Y-78001761D02*
X207627952Y-78049380D01*
X207437476Y-78049380D01*
X207342238Y-78001761D01*
X207294619Y-77954142D01*
X207247000Y-77858904D01*
X207247000Y-77573190D01*
X207294619Y-77477952D01*
X207342238Y-77430333D01*
X207437476Y-77382714D01*
X207627952Y-77382714D01*
X207723190Y-77430333D01*
X176893666Y-80589380D02*
X176560333Y-80113190D01*
X176322238Y-80589380D02*
X176322238Y-79589380D01*
X176703190Y-79589380D01*
X176798428Y-79637000D01*
X176846047Y-79684619D01*
X176893666Y-79779857D01*
X176893666Y-79922714D01*
X176846047Y-80017952D01*
X176798428Y-80065571D01*
X176703190Y-80113190D01*
X176322238Y-80113190D01*
X177322238Y-80065571D02*
X177655571Y-80065571D01*
X177798428Y-80589380D02*
X177322238Y-80589380D01*
X177322238Y-79589380D01*
X177798428Y-79589380D01*
X178560333Y-80065571D02*
X178227000Y-80065571D01*
X178227000Y-80589380D02*
X178227000Y-79589380D01*
X178703190Y-79589380D01*
X179227000Y-79589380D02*
X179227000Y-79827476D01*
X178988904Y-79732238D02*
X179227000Y-79827476D01*
X179465095Y-79732238D01*
X179084142Y-80017952D02*
X179227000Y-79827476D01*
X179369857Y-80017952D01*
X179988904Y-79589380D02*
X179988904Y-79827476D01*
X179750809Y-79732238D02*
X179988904Y-79827476D01*
X180227000Y-79732238D01*
X179846047Y-80017952D02*
X179988904Y-79827476D01*
X180131761Y-80017952D01*
X208963809Y-84907380D02*
X208963809Y-83907380D01*
X209297142Y-84621666D01*
X209630476Y-83907380D01*
X209630476Y-84907380D01*
X210249523Y-84907380D02*
X210154285Y-84859761D01*
X210106666Y-84812142D01*
X210059047Y-84716904D01*
X210059047Y-84431190D01*
X210106666Y-84335952D01*
X210154285Y-84288333D01*
X210249523Y-84240714D01*
X210392380Y-84240714D01*
X210487619Y-84288333D01*
X210535238Y-84335952D01*
X210582857Y-84431190D01*
X210582857Y-84716904D01*
X210535238Y-84812142D01*
X210487619Y-84859761D01*
X210392380Y-84907380D01*
X210249523Y-84907380D01*
X211440000Y-84240714D02*
X211440000Y-84907380D01*
X211011428Y-84240714D02*
X211011428Y-84764523D01*
X211059047Y-84859761D01*
X211154285Y-84907380D01*
X211297142Y-84907380D01*
X211392380Y-84859761D01*
X211440000Y-84812142D01*
X211916190Y-84240714D02*
X211916190Y-84907380D01*
X211916190Y-84335952D02*
X211963809Y-84288333D01*
X212059047Y-84240714D01*
X212201904Y-84240714D01*
X212297142Y-84288333D01*
X212344761Y-84383571D01*
X212344761Y-84907380D01*
X212678095Y-84240714D02*
X213059047Y-84240714D01*
X212820952Y-83907380D02*
X212820952Y-84764523D01*
X212868571Y-84859761D01*
X212963809Y-84907380D01*
X213059047Y-84907380D01*
X213392380Y-84907380D02*
X213392380Y-84240714D01*
X213392380Y-83907380D02*
X213344761Y-83955000D01*
X213392380Y-84002619D01*
X213440000Y-83955000D01*
X213392380Y-83907380D01*
X213392380Y-84002619D01*
X213868571Y-84240714D02*
X213868571Y-84907380D01*
X213868571Y-84335952D02*
X213916190Y-84288333D01*
X214011428Y-84240714D01*
X214154285Y-84240714D01*
X214249523Y-84288333D01*
X214297142Y-84383571D01*
X214297142Y-84907380D01*
X215201904Y-84240714D02*
X215201904Y-85050238D01*
X215154285Y-85145476D01*
X215106666Y-85193095D01*
X215011428Y-85240714D01*
X214868571Y-85240714D01*
X214773333Y-85193095D01*
X215201904Y-84859761D02*
X215106666Y-84907380D01*
X214916190Y-84907380D01*
X214820952Y-84859761D01*
X214773333Y-84812142D01*
X214725714Y-84716904D01*
X214725714Y-84431190D01*
X214773333Y-84335952D01*
X214820952Y-84288333D01*
X214916190Y-84240714D01*
X215106666Y-84240714D01*
X215201904Y-84288333D01*
X215678095Y-84907380D02*
X215678095Y-83907380D01*
X215678095Y-84383571D02*
X216249523Y-84383571D01*
X216249523Y-84907380D02*
X216249523Y-83907380D01*
X216868571Y-84907380D02*
X216773333Y-84859761D01*
X216725714Y-84812142D01*
X216678095Y-84716904D01*
X216678095Y-84431190D01*
X216725714Y-84335952D01*
X216773333Y-84288333D01*
X216868571Y-84240714D01*
X217011428Y-84240714D01*
X217106666Y-84288333D01*
X217154285Y-84335952D01*
X217201904Y-84431190D01*
X217201904Y-84716904D01*
X217154285Y-84812142D01*
X217106666Y-84859761D01*
X217011428Y-84907380D01*
X216868571Y-84907380D01*
X217773333Y-84907380D02*
X217678095Y-84859761D01*
X217630476Y-84764523D01*
X217630476Y-83907380D01*
X218535238Y-84859761D02*
X218440000Y-84907380D01*
X218249523Y-84907380D01*
X218154285Y-84859761D01*
X218106666Y-84764523D01*
X218106666Y-84383571D01*
X218154285Y-84288333D01*
X218249523Y-84240714D01*
X218440000Y-84240714D01*
X218535238Y-84288333D01*
X218582857Y-84383571D01*
X218582857Y-84478809D01*
X218106666Y-84574047D01*
X218773333Y-85002619D02*
X219535238Y-85002619D01*
X219678095Y-83907380D02*
X220297142Y-83907380D01*
X219963809Y-84288333D01*
X220106666Y-84288333D01*
X220201904Y-84335952D01*
X220249523Y-84383571D01*
X220297142Y-84478809D01*
X220297142Y-84716904D01*
X220249523Y-84812142D01*
X220201904Y-84859761D01*
X220106666Y-84907380D01*
X219820952Y-84907380D01*
X219725714Y-84859761D01*
X219678095Y-84812142D01*
X220725714Y-84812142D02*
X220773333Y-84859761D01*
X220725714Y-84907380D01*
X220678095Y-84859761D01*
X220725714Y-84812142D01*
X220725714Y-84907380D01*
X221678095Y-83907380D02*
X221201904Y-83907380D01*
X221154285Y-84383571D01*
X221201904Y-84335952D01*
X221297142Y-84288333D01*
X221535238Y-84288333D01*
X221630476Y-84335952D01*
X221678095Y-84383571D01*
X221725714Y-84478809D01*
X221725714Y-84716904D01*
X221678095Y-84812142D01*
X221630476Y-84859761D01*
X221535238Y-84907380D01*
X221297142Y-84907380D01*
X221201904Y-84859761D01*
X221154285Y-84812142D01*
X222154285Y-84907380D02*
X222154285Y-84240714D01*
X222154285Y-84335952D02*
X222201904Y-84288333D01*
X222297142Y-84240714D01*
X222440000Y-84240714D01*
X222535238Y-84288333D01*
X222582857Y-84383571D01*
X222582857Y-84907380D01*
X222582857Y-84383571D02*
X222630476Y-84288333D01*
X222725714Y-84240714D01*
X222868571Y-84240714D01*
X222963809Y-84288333D01*
X223011428Y-84383571D01*
X223011428Y-84907380D01*
X223487619Y-84907380D02*
X223487619Y-84240714D01*
X223487619Y-84335952D02*
X223535238Y-84288333D01*
X223630476Y-84240714D01*
X223773333Y-84240714D01*
X223868571Y-84288333D01*
X223916190Y-84383571D01*
X223916190Y-84907380D01*
X223916190Y-84383571D02*
X223963809Y-84288333D01*
X224059047Y-84240714D01*
X224201904Y-84240714D01*
X224297142Y-84288333D01*
X224344761Y-84383571D01*
X224344761Y-84907380D01*
X224582857Y-85002619D02*
X225344761Y-85002619D01*
X225582857Y-84907380D02*
X225582857Y-83907380D01*
X225963809Y-83907380D01*
X226059047Y-83955000D01*
X226106666Y-84002619D01*
X226154285Y-84097857D01*
X226154285Y-84240714D01*
X226106666Y-84335952D01*
X226059047Y-84383571D01*
X225963809Y-84431190D01*
X225582857Y-84431190D01*
X227011428Y-84907380D02*
X227011428Y-84383571D01*
X226963809Y-84288333D01*
X226868571Y-84240714D01*
X226678095Y-84240714D01*
X226582857Y-84288333D01*
X227011428Y-84859761D02*
X226916190Y-84907380D01*
X226678095Y-84907380D01*
X226582857Y-84859761D01*
X226535238Y-84764523D01*
X226535238Y-84669285D01*
X226582857Y-84574047D01*
X226678095Y-84526428D01*
X226916190Y-84526428D01*
X227011428Y-84478809D01*
X227916190Y-84907380D02*
X227916190Y-83907380D01*
X227916190Y-84859761D02*
X227820952Y-84907380D01*
X227630476Y-84907380D01*
X227535238Y-84859761D01*
X227487619Y-84812142D01*
X227440000Y-84716904D01*
X227440000Y-84431190D01*
X227487619Y-84335952D01*
X227535238Y-84288333D01*
X227630476Y-84240714D01*
X227820952Y-84240714D01*
X227916190Y-84288333D01*
X219946666Y-80462380D02*
X219613333Y-79986190D01*
X219375238Y-80462380D02*
X219375238Y-79462380D01*
X219756190Y-79462380D01*
X219851428Y-79510000D01*
X219899047Y-79557619D01*
X219946666Y-79652857D01*
X219946666Y-79795714D01*
X219899047Y-79890952D01*
X219851428Y-79938571D01*
X219756190Y-79986190D01*
X219375238Y-79986190D01*
X220375238Y-79938571D02*
X220708571Y-79938571D01*
X220851428Y-80462380D02*
X220375238Y-80462380D01*
X220375238Y-79462380D01*
X220851428Y-79462380D01*
X221613333Y-79938571D02*
X221280000Y-79938571D01*
X221280000Y-80462380D02*
X221280000Y-79462380D01*
X221756190Y-79462380D01*
X222280000Y-79462380D02*
X222280000Y-79700476D01*
X222041904Y-79605238D02*
X222280000Y-79700476D01*
X222518095Y-79605238D01*
X222137142Y-79890952D02*
X222280000Y-79700476D01*
X222422857Y-79890952D01*
X223041904Y-79462380D02*
X223041904Y-79700476D01*
X222803809Y-79605238D02*
X223041904Y-79700476D01*
X223280000Y-79605238D01*
X222899047Y-79890952D02*
X223041904Y-79700476D01*
X223184761Y-79890952D01*
%TO.C,U6*%
D13*
X221971205Y-99571028D02*
X221183803Y-99571028D01*
X221558757Y-98933607D02*
X221558757Y-99196075D01*
X221971205Y-99196075D02*
X221183803Y-99196075D01*
X221183803Y-98821121D01*
X221558757Y-98521159D02*
X221558757Y-98258691D01*
X221971205Y-98146205D02*
X221971205Y-98521159D01*
X221183803Y-98521159D01*
X221183803Y-98146205D01*
X221971205Y-97771252D02*
X221971205Y-97621271D01*
X221933710Y-97546280D01*
X221896215Y-97508785D01*
X221783729Y-97433794D01*
X221633747Y-97396299D01*
X221333785Y-97396299D01*
X221258794Y-97433794D01*
X221221299Y-97471289D01*
X221183803Y-97546280D01*
X221183803Y-97696261D01*
X221221299Y-97771252D01*
X221258794Y-97808747D01*
X221333785Y-97846243D01*
X221521261Y-97846243D01*
X221596252Y-97808747D01*
X221633747Y-97771252D01*
X221671243Y-97696261D01*
X221671243Y-97546280D01*
X221633747Y-97471289D01*
X221596252Y-97433794D01*
X221521261Y-97396299D01*
X221971205Y-96646392D02*
X221971205Y-97096336D01*
X221971205Y-96871364D02*
X221183803Y-96871364D01*
X221296289Y-96946355D01*
X221371280Y-97021345D01*
X221408775Y-97096336D01*
X221746233Y-96346429D02*
X221746233Y-95971476D01*
X221971205Y-96421420D02*
X221183803Y-96158953D01*
X221971205Y-95896485D01*
%TO.C,U5*%
D12*
X210058333Y-92117380D02*
X210058333Y-91117380D01*
X210629761Y-92117380D01*
X210629761Y-91117380D01*
X211105952Y-91593571D02*
X211439285Y-91593571D01*
X211582142Y-92117380D02*
X211105952Y-92117380D01*
X211105952Y-91117380D01*
X211582142Y-91117380D01*
X212486904Y-91117380D02*
X212010714Y-91117380D01*
X211963095Y-91593571D01*
X212010714Y-91545952D01*
X212105952Y-91498333D01*
X212344047Y-91498333D01*
X212439285Y-91545952D01*
X212486904Y-91593571D01*
X212534523Y-91688809D01*
X212534523Y-91926904D01*
X212486904Y-92022142D01*
X212439285Y-92069761D01*
X212344047Y-92117380D01*
X212105952Y-92117380D01*
X212010714Y-92069761D01*
X211963095Y-92022142D01*
X213439285Y-91117380D02*
X212963095Y-91117380D01*
X212915476Y-91593571D01*
X212963095Y-91545952D01*
X213058333Y-91498333D01*
X213296428Y-91498333D01*
X213391666Y-91545952D01*
X213439285Y-91593571D01*
X213486904Y-91688809D01*
X213486904Y-91926904D01*
X213439285Y-92022142D01*
X213391666Y-92069761D01*
X213296428Y-92117380D01*
X213058333Y-92117380D01*
X212963095Y-92069761D01*
X212915476Y-92022142D01*
X214391666Y-91117380D02*
X213915476Y-91117380D01*
X213867857Y-91593571D01*
X213915476Y-91545952D01*
X214010714Y-91498333D01*
X214248809Y-91498333D01*
X214344047Y-91545952D01*
X214391666Y-91593571D01*
X214439285Y-91688809D01*
X214439285Y-91926904D01*
X214391666Y-92022142D01*
X214344047Y-92069761D01*
X214248809Y-92117380D01*
X214010714Y-92117380D01*
X213915476Y-92069761D01*
X213867857Y-92022142D01*
X214867857Y-92117380D02*
X214867857Y-91117380D01*
X215105952Y-91117380D01*
X215248809Y-91165000D01*
X215344047Y-91260238D01*
X215391666Y-91355476D01*
X215439285Y-91545952D01*
X215439285Y-91688809D01*
X215391666Y-91879285D01*
X215344047Y-91974523D01*
X215248809Y-92069761D01*
X215105952Y-92117380D01*
X214867857Y-92117380D01*
X211978333Y-87728333D02*
X211978333Y-88521666D01*
X212025000Y-88615000D01*
X212071666Y-88661666D01*
X212165000Y-88708333D01*
X212351666Y-88708333D01*
X212445000Y-88661666D01*
X212491666Y-88615000D01*
X212538333Y-88521666D01*
X212538333Y-87728333D01*
X213471666Y-87728333D02*
X213005000Y-87728333D01*
X212958333Y-88195000D01*
X213005000Y-88148333D01*
X213098333Y-88101666D01*
X213331666Y-88101666D01*
X213425000Y-88148333D01*
X213471666Y-88195000D01*
X213518333Y-88288333D01*
X213518333Y-88521666D01*
X213471666Y-88615000D01*
X213425000Y-88661666D01*
X213331666Y-88708333D01*
X213098333Y-88708333D01*
X213005000Y-88661666D01*
X212958333Y-88615000D01*
%TO.C,U4*%
X194905523Y-106570380D02*
X194429333Y-106570380D01*
X194429333Y-105570380D01*
X195238857Y-106570380D02*
X195238857Y-105570380D01*
X195572190Y-106284666D01*
X195905523Y-105570380D01*
X195905523Y-106570380D01*
X196286476Y-105570380D02*
X196905523Y-105570380D01*
X196572190Y-105951333D01*
X196715047Y-105951333D01*
X196810285Y-105998952D01*
X196857904Y-106046571D01*
X196905523Y-106141809D01*
X196905523Y-106379904D01*
X196857904Y-106475142D01*
X196810285Y-106522761D01*
X196715047Y-106570380D01*
X196429333Y-106570380D01*
X196334095Y-106522761D01*
X196286476Y-106475142D01*
X197286476Y-105665619D02*
X197334095Y-105618000D01*
X197429333Y-105570380D01*
X197667428Y-105570380D01*
X197762666Y-105618000D01*
X197810285Y-105665619D01*
X197857904Y-105760857D01*
X197857904Y-105856095D01*
X197810285Y-105998952D01*
X197238857Y-106570380D01*
X197857904Y-106570380D01*
X198715047Y-105903714D02*
X198715047Y-106570380D01*
X198476952Y-105522761D02*
X198238857Y-106237047D01*
X198857904Y-106237047D01*
X195849333Y-100301333D02*
X195849333Y-101094666D01*
X195896000Y-101188000D01*
X195942666Y-101234666D01*
X196036000Y-101281333D01*
X196222666Y-101281333D01*
X196316000Y-101234666D01*
X196362666Y-101188000D01*
X196409333Y-101094666D01*
X196409333Y-100301333D01*
X197296000Y-100628000D02*
X197296000Y-101281333D01*
X197062666Y-100254666D02*
X196829333Y-100954666D01*
X197436000Y-100954666D01*
%TO.C,U3*%
X191643333Y-87926380D02*
X191643333Y-86926380D01*
X192214761Y-87926380D01*
X192214761Y-86926380D01*
X192690952Y-87402571D02*
X193024285Y-87402571D01*
X193167142Y-87926380D02*
X192690952Y-87926380D01*
X192690952Y-86926380D01*
X193167142Y-86926380D01*
X194071904Y-86926380D02*
X193595714Y-86926380D01*
X193548095Y-87402571D01*
X193595714Y-87354952D01*
X193690952Y-87307333D01*
X193929047Y-87307333D01*
X194024285Y-87354952D01*
X194071904Y-87402571D01*
X194119523Y-87497809D01*
X194119523Y-87735904D01*
X194071904Y-87831142D01*
X194024285Y-87878761D01*
X193929047Y-87926380D01*
X193690952Y-87926380D01*
X193595714Y-87878761D01*
X193548095Y-87831142D01*
X195024285Y-86926380D02*
X194548095Y-86926380D01*
X194500476Y-87402571D01*
X194548095Y-87354952D01*
X194643333Y-87307333D01*
X194881428Y-87307333D01*
X194976666Y-87354952D01*
X195024285Y-87402571D01*
X195071904Y-87497809D01*
X195071904Y-87735904D01*
X195024285Y-87831142D01*
X194976666Y-87878761D01*
X194881428Y-87926380D01*
X194643333Y-87926380D01*
X194548095Y-87878761D01*
X194500476Y-87831142D01*
X195976666Y-86926380D02*
X195500476Y-86926380D01*
X195452857Y-87402571D01*
X195500476Y-87354952D01*
X195595714Y-87307333D01*
X195833809Y-87307333D01*
X195929047Y-87354952D01*
X195976666Y-87402571D01*
X196024285Y-87497809D01*
X196024285Y-87735904D01*
X195976666Y-87831142D01*
X195929047Y-87878761D01*
X195833809Y-87926380D01*
X195595714Y-87926380D01*
X195500476Y-87878761D01*
X195452857Y-87831142D01*
X196452857Y-87926380D02*
X196452857Y-86926380D01*
X196690952Y-86926380D01*
X196833809Y-86974000D01*
X196929047Y-87069238D01*
X196976666Y-87164476D01*
X197024285Y-87354952D01*
X197024285Y-87497809D01*
X196976666Y-87688285D01*
X196929047Y-87783523D01*
X196833809Y-87878761D01*
X196690952Y-87926380D01*
X196452857Y-87926380D01*
X193563333Y-83537333D02*
X193563333Y-84330666D01*
X193610000Y-84424000D01*
X193656666Y-84470666D01*
X193750000Y-84517333D01*
X193936666Y-84517333D01*
X194030000Y-84470666D01*
X194076666Y-84424000D01*
X194123333Y-84330666D01*
X194123333Y-83537333D01*
X194496666Y-83537333D02*
X195103333Y-83537333D01*
X194776666Y-83910666D01*
X194916666Y-83910666D01*
X195010000Y-83957333D01*
X195056666Y-84004000D01*
X195103333Y-84097333D01*
X195103333Y-84330666D01*
X195056666Y-84424000D01*
X195010000Y-84470666D01*
X194916666Y-84517333D01*
X194636666Y-84517333D01*
X194543333Y-84470666D01*
X194496666Y-84424000D01*
%TO.C,U2*%
X193929333Y-114342380D02*
X193929333Y-113342380D01*
X194500761Y-114342380D01*
X194500761Y-113342380D01*
X194976952Y-113818571D02*
X195310285Y-113818571D01*
X195453142Y-114342380D02*
X194976952Y-114342380D01*
X194976952Y-113342380D01*
X195453142Y-113342380D01*
X196357904Y-113342380D02*
X195881714Y-113342380D01*
X195834095Y-113818571D01*
X195881714Y-113770952D01*
X195976952Y-113723333D01*
X196215047Y-113723333D01*
X196310285Y-113770952D01*
X196357904Y-113818571D01*
X196405523Y-113913809D01*
X196405523Y-114151904D01*
X196357904Y-114247142D01*
X196310285Y-114294761D01*
X196215047Y-114342380D01*
X195976952Y-114342380D01*
X195881714Y-114294761D01*
X195834095Y-114247142D01*
X197310285Y-113342380D02*
X196834095Y-113342380D01*
X196786476Y-113818571D01*
X196834095Y-113770952D01*
X196929333Y-113723333D01*
X197167428Y-113723333D01*
X197262666Y-113770952D01*
X197310285Y-113818571D01*
X197357904Y-113913809D01*
X197357904Y-114151904D01*
X197310285Y-114247142D01*
X197262666Y-114294761D01*
X197167428Y-114342380D01*
X196929333Y-114342380D01*
X196834095Y-114294761D01*
X196786476Y-114247142D01*
X198262666Y-113342380D02*
X197786476Y-113342380D01*
X197738857Y-113818571D01*
X197786476Y-113770952D01*
X197881714Y-113723333D01*
X198119809Y-113723333D01*
X198215047Y-113770952D01*
X198262666Y-113818571D01*
X198310285Y-113913809D01*
X198310285Y-114151904D01*
X198262666Y-114247142D01*
X198215047Y-114294761D01*
X198119809Y-114342380D01*
X197881714Y-114342380D01*
X197786476Y-114294761D01*
X197738857Y-114247142D01*
X198738857Y-114342380D02*
X198738857Y-113342380D01*
X198976952Y-113342380D01*
X199119809Y-113390000D01*
X199215047Y-113485238D01*
X199262666Y-113580476D01*
X199310285Y-113770952D01*
X199310285Y-113913809D01*
X199262666Y-114104285D01*
X199215047Y-114199523D01*
X199119809Y-114294761D01*
X198976952Y-114342380D01*
X198738857Y-114342380D01*
X195849333Y-109953333D02*
X195849333Y-110746666D01*
X195896000Y-110840000D01*
X195942666Y-110886666D01*
X196036000Y-110933333D01*
X196222666Y-110933333D01*
X196316000Y-110886666D01*
X196362666Y-110840000D01*
X196409333Y-110746666D01*
X196409333Y-109953333D01*
X196829333Y-110046666D02*
X196876000Y-110000000D01*
X196969333Y-109953333D01*
X197202666Y-109953333D01*
X197296000Y-110000000D01*
X197342666Y-110046666D01*
X197389333Y-110140000D01*
X197389333Y-110233333D01*
X197342666Y-110373333D01*
X196782666Y-110933333D01*
X197389333Y-110933333D01*
%TO.C,U1*%
X192731047Y-114284380D02*
X192254857Y-114284380D01*
X192254857Y-113284380D01*
X193064380Y-114284380D02*
X193064380Y-113284380D01*
X193397714Y-113998666D01*
X193731047Y-113284380D01*
X193731047Y-114284380D01*
X194112000Y-113284380D02*
X194778666Y-113284380D01*
X194350095Y-114284380D01*
X195302476Y-113712952D02*
X195207238Y-113665333D01*
X195159619Y-113617714D01*
X195112000Y-113522476D01*
X195112000Y-113474857D01*
X195159619Y-113379619D01*
X195207238Y-113332000D01*
X195302476Y-113284380D01*
X195492952Y-113284380D01*
X195588190Y-113332000D01*
X195635809Y-113379619D01*
X195683428Y-113474857D01*
X195683428Y-113522476D01*
X195635809Y-113617714D01*
X195588190Y-113665333D01*
X195492952Y-113712952D01*
X195302476Y-113712952D01*
X195207238Y-113760571D01*
X195159619Y-113808190D01*
X195112000Y-113903428D01*
X195112000Y-114093904D01*
X195159619Y-114189142D01*
X195207238Y-114236761D01*
X195302476Y-114284380D01*
X195492952Y-114284380D01*
X195588190Y-114236761D01*
X195635809Y-114189142D01*
X195683428Y-114093904D01*
X195683428Y-113903428D01*
X195635809Y-113808190D01*
X195588190Y-113760571D01*
X195492952Y-113712952D01*
X196302476Y-113284380D02*
X196397714Y-113284380D01*
X196492952Y-113332000D01*
X196540571Y-113379619D01*
X196588190Y-113474857D01*
X196635809Y-113665333D01*
X196635809Y-113903428D01*
X196588190Y-114093904D01*
X196540571Y-114189142D01*
X196492952Y-114236761D01*
X196397714Y-114284380D01*
X196302476Y-114284380D01*
X196207238Y-114236761D01*
X196159619Y-114189142D01*
X196112000Y-114093904D01*
X196064380Y-113903428D01*
X196064380Y-113665333D01*
X196112000Y-113474857D01*
X196159619Y-113379619D01*
X196207238Y-113332000D01*
X196302476Y-113284380D01*
X197112000Y-114284380D02*
X197302476Y-114284380D01*
X197397714Y-114236761D01*
X197445333Y-114189142D01*
X197540571Y-114046285D01*
X197588190Y-113855809D01*
X197588190Y-113474857D01*
X197540571Y-113379619D01*
X197492952Y-113332000D01*
X197397714Y-113284380D01*
X197207238Y-113284380D01*
X197112000Y-113332000D01*
X197064380Y-113379619D01*
X197016761Y-113474857D01*
X197016761Y-113712952D01*
X197064380Y-113808190D01*
X197112000Y-113855809D01*
X197207238Y-113903428D01*
X197397714Y-113903428D01*
X197492952Y-113855809D01*
X197540571Y-113808190D01*
X197588190Y-113712952D01*
X197778666Y-114379619D02*
X198540571Y-114379619D01*
X198635809Y-113284380D02*
X199207238Y-113284380D01*
X198921523Y-114284380D02*
X198921523Y-113284380D01*
X199731047Y-113284380D02*
X199921523Y-113284380D01*
X200016761Y-113332000D01*
X200112000Y-113427238D01*
X200159619Y-113617714D01*
X200159619Y-113951047D01*
X200112000Y-114141523D01*
X200016761Y-114236761D01*
X199921523Y-114284380D01*
X199731047Y-114284380D01*
X199635809Y-114236761D01*
X199540571Y-114141523D01*
X199492952Y-113951047D01*
X199492952Y-113617714D01*
X199540571Y-113427238D01*
X199635809Y-113332000D01*
X199731047Y-113284380D01*
X200540571Y-113379619D02*
X200588190Y-113332000D01*
X200683428Y-113284380D01*
X200921523Y-113284380D01*
X201016761Y-113332000D01*
X201064380Y-113379619D01*
X201112000Y-113474857D01*
X201112000Y-113570095D01*
X201064380Y-113712952D01*
X200492952Y-114284380D01*
X201112000Y-114284380D01*
X201492952Y-113379619D02*
X201540571Y-113332000D01*
X201635809Y-113284380D01*
X201873904Y-113284380D01*
X201969142Y-113332000D01*
X202016761Y-113379619D01*
X202064380Y-113474857D01*
X202064380Y-113570095D01*
X202016761Y-113712952D01*
X201445333Y-114284380D01*
X202064380Y-114284380D01*
X202683428Y-113284380D02*
X202778666Y-113284380D01*
X202873904Y-113332000D01*
X202921523Y-113379619D01*
X202969142Y-113474857D01*
X203016761Y-113665333D01*
X203016761Y-113903428D01*
X202969142Y-114093904D01*
X202921523Y-114189142D01*
X202873904Y-114236761D01*
X202778666Y-114284380D01*
X202683428Y-114284380D01*
X202588190Y-114236761D01*
X202540571Y-114189142D01*
X202492952Y-114093904D01*
X202445333Y-113903428D01*
X202445333Y-113665333D01*
X202492952Y-113474857D01*
X202540571Y-113379619D01*
X202588190Y-113332000D01*
X202683428Y-113284380D01*
X196850095Y-120054380D02*
X196850095Y-120863904D01*
X196897714Y-120959142D01*
X196945333Y-121006761D01*
X197040571Y-121054380D01*
X197231047Y-121054380D01*
X197326285Y-121006761D01*
X197373904Y-120959142D01*
X197421523Y-120863904D01*
X197421523Y-120054380D01*
X198421523Y-121054380D02*
X197850095Y-121054380D01*
X198135809Y-121054380D02*
X198135809Y-120054380D01*
X198040571Y-120197238D01*
X197945333Y-120292476D01*
X197850095Y-120340095D01*
%TO.C,R15*%
X195968952Y-93288380D02*
X195397523Y-93288380D01*
X195683238Y-93288380D02*
X195683238Y-92288380D01*
X195588000Y-92431238D01*
X195492761Y-92526476D01*
X195397523Y-92574095D01*
X196397523Y-93288380D02*
X196397523Y-92288380D01*
X196492761Y-92907428D02*
X196778476Y-93288380D01*
X196778476Y-92621714D02*
X196397523Y-93002666D01*
D14*
X195766571Y-91412190D02*
X195599904Y-91174095D01*
X195480857Y-91412190D02*
X195480857Y-90912190D01*
X195671333Y-90912190D01*
X195718952Y-90936000D01*
X195742761Y-90959809D01*
X195766571Y-91007428D01*
X195766571Y-91078857D01*
X195742761Y-91126476D01*
X195718952Y-91150285D01*
X195671333Y-91174095D01*
X195480857Y-91174095D01*
X196242761Y-91412190D02*
X195957047Y-91412190D01*
X196099904Y-91412190D02*
X196099904Y-90912190D01*
X196052285Y-90983619D01*
X196004666Y-91031238D01*
X195957047Y-91055047D01*
X196695142Y-90912190D02*
X196457047Y-90912190D01*
X196433238Y-91150285D01*
X196457047Y-91126476D01*
X196504666Y-91102666D01*
X196623714Y-91102666D01*
X196671333Y-91126476D01*
X196695142Y-91150285D01*
X196718952Y-91197904D01*
X196718952Y-91316952D01*
X196695142Y-91364571D01*
X196671333Y-91388380D01*
X196623714Y-91412190D01*
X196504666Y-91412190D01*
X196457047Y-91388380D01*
X196433238Y-91364571D01*
%TO.C,R14*%
D12*
X216844523Y-106962380D02*
X216511190Y-106486190D01*
X216273095Y-106962380D02*
X216273095Y-105962380D01*
X216654047Y-105962380D01*
X216749285Y-106010000D01*
X216796904Y-106057619D01*
X216844523Y-106152857D01*
X216844523Y-106295714D01*
X216796904Y-106390952D01*
X216749285Y-106438571D01*
X216654047Y-106486190D01*
X216273095Y-106486190D01*
X215892142Y-104592380D02*
X215558809Y-104116190D01*
X215320714Y-104592380D02*
X215320714Y-103592380D01*
X215701666Y-103592380D01*
X215796904Y-103640000D01*
X215844523Y-103687619D01*
X215892142Y-103782857D01*
X215892142Y-103925714D01*
X215844523Y-104020952D01*
X215796904Y-104068571D01*
X215701666Y-104116190D01*
X215320714Y-104116190D01*
X216844523Y-104592380D02*
X216273095Y-104592380D01*
X216558809Y-104592380D02*
X216558809Y-103592380D01*
X216463571Y-103735238D01*
X216368333Y-103830476D01*
X216273095Y-103878095D01*
X217701666Y-103925714D02*
X217701666Y-104592380D01*
X217463571Y-103544761D02*
X217225476Y-104259047D01*
X217844523Y-104259047D01*
%TO.C,R13*%
X182237333Y-95939619D02*
X182284952Y-95892000D01*
X182380190Y-95844380D01*
X182618285Y-95844380D01*
X182713523Y-95892000D01*
X182761142Y-95939619D01*
X182808761Y-96034857D01*
X182808761Y-96130095D01*
X182761142Y-96272952D01*
X182189714Y-96844380D01*
X182808761Y-96844380D01*
X183189714Y-95939619D02*
X183237333Y-95892000D01*
X183332571Y-95844380D01*
X183570666Y-95844380D01*
X183665904Y-95892000D01*
X183713523Y-95939619D01*
X183761142Y-96034857D01*
X183761142Y-96130095D01*
X183713523Y-96272952D01*
X183142095Y-96844380D01*
X183761142Y-96844380D01*
X184189714Y-96844380D02*
X184189714Y-95844380D01*
X184284952Y-96463428D02*
X184570666Y-96844380D01*
X184570666Y-96177714D02*
X184189714Y-96558666D01*
D14*
X183082571Y-94968190D02*
X182915904Y-94730095D01*
X182796857Y-94968190D02*
X182796857Y-94468190D01*
X182987333Y-94468190D01*
X183034952Y-94492000D01*
X183058761Y-94515809D01*
X183082571Y-94563428D01*
X183082571Y-94634857D01*
X183058761Y-94682476D01*
X183034952Y-94706285D01*
X182987333Y-94730095D01*
X182796857Y-94730095D01*
X183558761Y-94968190D02*
X183273047Y-94968190D01*
X183415904Y-94968190D02*
X183415904Y-94468190D01*
X183368285Y-94539619D01*
X183320666Y-94587238D01*
X183273047Y-94611047D01*
X183725428Y-94468190D02*
X184034952Y-94468190D01*
X183868285Y-94658666D01*
X183939714Y-94658666D01*
X183987333Y-94682476D01*
X184011142Y-94706285D01*
X184034952Y-94753904D01*
X184034952Y-94872952D01*
X184011142Y-94920571D01*
X183987333Y-94944380D01*
X183939714Y-94968190D01*
X183796857Y-94968190D01*
X183749238Y-94944380D01*
X183725428Y-94920571D01*
%TO.C,R12*%
D12*
X204414571Y-88972380D02*
X203843142Y-88972380D01*
X204128857Y-88972380D02*
X204128857Y-87972380D01*
X204033619Y-88115238D01*
X203938380Y-88210476D01*
X203843142Y-88258095D01*
X205033619Y-87972380D02*
X205128857Y-87972380D01*
X205224095Y-88020000D01*
X205271714Y-88067619D01*
X205319333Y-88162857D01*
X205366952Y-88353333D01*
X205366952Y-88591428D01*
X205319333Y-88781904D01*
X205271714Y-88877142D01*
X205224095Y-88924761D01*
X205128857Y-88972380D01*
X205033619Y-88972380D01*
X204938380Y-88924761D01*
X204890761Y-88877142D01*
X204843142Y-88781904D01*
X204795523Y-88591428D01*
X204795523Y-88353333D01*
X204843142Y-88162857D01*
X204890761Y-88067619D01*
X204938380Y-88020000D01*
X205033619Y-87972380D01*
X205986000Y-87972380D02*
X206081238Y-87972380D01*
X206176476Y-88020000D01*
X206224095Y-88067619D01*
X206271714Y-88162857D01*
X206319333Y-88353333D01*
X206319333Y-88591428D01*
X206271714Y-88781904D01*
X206224095Y-88877142D01*
X206176476Y-88924761D01*
X206081238Y-88972380D01*
X205986000Y-88972380D01*
X205890761Y-88924761D01*
X205843142Y-88877142D01*
X205795523Y-88781904D01*
X205747904Y-88591428D01*
X205747904Y-88353333D01*
X205795523Y-88162857D01*
X205843142Y-88067619D01*
X205890761Y-88020000D01*
X205986000Y-87972380D01*
X206747904Y-88972380D02*
X206747904Y-87972380D01*
X206843142Y-88591428D02*
X207128857Y-88972380D01*
X207128857Y-88305714D02*
X206747904Y-88686666D01*
D14*
X205164571Y-90396190D02*
X204997904Y-90158095D01*
X204878857Y-90396190D02*
X204878857Y-89896190D01*
X205069333Y-89896190D01*
X205116952Y-89920000D01*
X205140761Y-89943809D01*
X205164571Y-89991428D01*
X205164571Y-90062857D01*
X205140761Y-90110476D01*
X205116952Y-90134285D01*
X205069333Y-90158095D01*
X204878857Y-90158095D01*
X205640761Y-90396190D02*
X205355047Y-90396190D01*
X205497904Y-90396190D02*
X205497904Y-89896190D01*
X205450285Y-89967619D01*
X205402666Y-90015238D01*
X205355047Y-90039047D01*
X205831238Y-89943809D02*
X205855047Y-89920000D01*
X205902666Y-89896190D01*
X206021714Y-89896190D01*
X206069333Y-89920000D01*
X206093142Y-89943809D01*
X206116952Y-89991428D01*
X206116952Y-90039047D01*
X206093142Y-90110476D01*
X205807428Y-90396190D01*
X206116952Y-90396190D01*
%TO.C,R11*%
D12*
X194921333Y-92274380D02*
X194349904Y-92274380D01*
X194635619Y-92274380D02*
X194635619Y-91274380D01*
X194540380Y-91417238D01*
X194445142Y-91512476D01*
X194349904Y-91560095D01*
X195540380Y-91274380D02*
X195635619Y-91274380D01*
X195730857Y-91322000D01*
X195778476Y-91369619D01*
X195826095Y-91464857D01*
X195873714Y-91655333D01*
X195873714Y-91893428D01*
X195826095Y-92083904D01*
X195778476Y-92179142D01*
X195730857Y-92226761D01*
X195635619Y-92274380D01*
X195540380Y-92274380D01*
X195445142Y-92226761D01*
X195397523Y-92179142D01*
X195349904Y-92083904D01*
X195302285Y-91893428D01*
X195302285Y-91655333D01*
X195349904Y-91464857D01*
X195397523Y-91369619D01*
X195445142Y-91322000D01*
X195540380Y-91274380D01*
X196492761Y-91274380D02*
X196588000Y-91274380D01*
X196683238Y-91322000D01*
X196730857Y-91369619D01*
X196778476Y-91464857D01*
X196826095Y-91655333D01*
X196826095Y-91893428D01*
X196778476Y-92083904D01*
X196730857Y-92179142D01*
X196683238Y-92226761D01*
X196588000Y-92274380D01*
X196492761Y-92274380D01*
X196397523Y-92226761D01*
X196349904Y-92179142D01*
X196302285Y-92083904D01*
X196254666Y-91893428D01*
X196254666Y-91655333D01*
X196302285Y-91464857D01*
X196349904Y-91369619D01*
X196397523Y-91322000D01*
X196492761Y-91274380D01*
X197826095Y-92274380D02*
X197492761Y-91798190D01*
X197254666Y-92274380D02*
X197254666Y-91274380D01*
X197635619Y-91274380D01*
X197730857Y-91322000D01*
X197778476Y-91369619D01*
X197826095Y-91464857D01*
X197826095Y-91607714D01*
X197778476Y-91702952D01*
X197730857Y-91750571D01*
X197635619Y-91798190D01*
X197254666Y-91798190D01*
D14*
X195766571Y-93698190D02*
X195599904Y-93460095D01*
X195480857Y-93698190D02*
X195480857Y-93198190D01*
X195671333Y-93198190D01*
X195718952Y-93222000D01*
X195742761Y-93245809D01*
X195766571Y-93293428D01*
X195766571Y-93364857D01*
X195742761Y-93412476D01*
X195718952Y-93436285D01*
X195671333Y-93460095D01*
X195480857Y-93460095D01*
X196242761Y-93698190D02*
X195957047Y-93698190D01*
X196099904Y-93698190D02*
X196099904Y-93198190D01*
X196052285Y-93269619D01*
X196004666Y-93317238D01*
X195957047Y-93341047D01*
X196718952Y-93698190D02*
X196433238Y-93698190D01*
X196576095Y-93698190D02*
X196576095Y-93198190D01*
X196528476Y-93269619D01*
X196480857Y-93317238D01*
X196433238Y-93341047D01*
%TO.C,R10*%
D12*
X208287952Y-87066380D02*
X207716523Y-87066380D01*
X208002238Y-87066380D02*
X208002238Y-86066380D01*
X207907000Y-86209238D01*
X207811761Y-86304476D01*
X207716523Y-86352095D01*
X208716523Y-87066380D02*
X208716523Y-86066380D01*
X208811761Y-86685428D02*
X209097476Y-87066380D01*
X209097476Y-86399714D02*
X208716523Y-86780666D01*
D14*
X205180571Y-86840190D02*
X205013904Y-86602095D01*
X204894857Y-86840190D02*
X204894857Y-86340190D01*
X205085333Y-86340190D01*
X205132952Y-86364000D01*
X205156761Y-86387809D01*
X205180571Y-86435428D01*
X205180571Y-86506857D01*
X205156761Y-86554476D01*
X205132952Y-86578285D01*
X205085333Y-86602095D01*
X204894857Y-86602095D01*
X205656761Y-86840190D02*
X205371047Y-86840190D01*
X205513904Y-86840190D02*
X205513904Y-86340190D01*
X205466285Y-86411619D01*
X205418666Y-86459238D01*
X205371047Y-86483047D01*
X205966285Y-86340190D02*
X206013904Y-86340190D01*
X206061523Y-86364000D01*
X206085333Y-86387809D01*
X206109142Y-86435428D01*
X206132952Y-86530666D01*
X206132952Y-86649714D01*
X206109142Y-86744952D01*
X206085333Y-86792571D01*
X206061523Y-86816380D01*
X206013904Y-86840190D01*
X205966285Y-86840190D01*
X205918666Y-86816380D01*
X205894857Y-86792571D01*
X205871047Y-86744952D01*
X205847238Y-86649714D01*
X205847238Y-86530666D01*
X205871047Y-86435428D01*
X205894857Y-86387809D01*
X205918666Y-86364000D01*
X205966285Y-86340190D01*
%TO.C,R9*%
D12*
X182237333Y-104718380D02*
X181665904Y-104718380D01*
X181951619Y-104718380D02*
X181951619Y-103718380D01*
X181856380Y-103861238D01*
X181761142Y-103956476D01*
X181665904Y-104004095D01*
X182856380Y-103718380D02*
X182951619Y-103718380D01*
X183046857Y-103766000D01*
X183094476Y-103813619D01*
X183142095Y-103908857D01*
X183189714Y-104099333D01*
X183189714Y-104337428D01*
X183142095Y-104527904D01*
X183094476Y-104623142D01*
X183046857Y-104670761D01*
X182951619Y-104718380D01*
X182856380Y-104718380D01*
X182761142Y-104670761D01*
X182713523Y-104623142D01*
X182665904Y-104527904D01*
X182618285Y-104337428D01*
X182618285Y-104099333D01*
X182665904Y-103908857D01*
X182713523Y-103813619D01*
X182761142Y-103766000D01*
X182856380Y-103718380D01*
X183808761Y-103718380D02*
X183904000Y-103718380D01*
X183999238Y-103766000D01*
X184046857Y-103813619D01*
X184094476Y-103908857D01*
X184142095Y-104099333D01*
X184142095Y-104337428D01*
X184094476Y-104527904D01*
X184046857Y-104623142D01*
X183999238Y-104670761D01*
X183904000Y-104718380D01*
X183808761Y-104718380D01*
X183713523Y-104670761D01*
X183665904Y-104623142D01*
X183618285Y-104527904D01*
X183570666Y-104337428D01*
X183570666Y-104099333D01*
X183618285Y-103908857D01*
X183665904Y-103813619D01*
X183713523Y-103766000D01*
X183808761Y-103718380D01*
X185142095Y-104718380D02*
X184808761Y-104242190D01*
X184570666Y-104718380D02*
X184570666Y-103718380D01*
X184951619Y-103718380D01*
X185046857Y-103766000D01*
X185094476Y-103813619D01*
X185142095Y-103908857D01*
X185142095Y-104051714D01*
X185094476Y-104146952D01*
X185046857Y-104194571D01*
X184951619Y-104242190D01*
X184570666Y-104242190D01*
D14*
X183320666Y-102842190D02*
X183154000Y-102604095D01*
X183034952Y-102842190D02*
X183034952Y-102342190D01*
X183225428Y-102342190D01*
X183273047Y-102366000D01*
X183296857Y-102389809D01*
X183320666Y-102437428D01*
X183320666Y-102508857D01*
X183296857Y-102556476D01*
X183273047Y-102580285D01*
X183225428Y-102604095D01*
X183034952Y-102604095D01*
X183558761Y-102842190D02*
X183654000Y-102842190D01*
X183701619Y-102818380D01*
X183725428Y-102794571D01*
X183773047Y-102723142D01*
X183796857Y-102627904D01*
X183796857Y-102437428D01*
X183773047Y-102389809D01*
X183749238Y-102366000D01*
X183701619Y-102342190D01*
X183606380Y-102342190D01*
X183558761Y-102366000D01*
X183534952Y-102389809D01*
X183511142Y-102437428D01*
X183511142Y-102556476D01*
X183534952Y-102604095D01*
X183558761Y-102627904D01*
X183606380Y-102651714D01*
X183701619Y-102651714D01*
X183749238Y-102627904D01*
X183773047Y-102604095D01*
X183796857Y-102556476D01*
%TO.C,R8*%
D12*
X183252952Y-108784380D02*
X182681523Y-108784380D01*
X182967238Y-108784380D02*
X182967238Y-107784380D01*
X182872000Y-107927238D01*
X182776761Y-108022476D01*
X182681523Y-108070095D01*
X183681523Y-108784380D02*
X183681523Y-107784380D01*
X183776761Y-108403428D02*
X184062476Y-108784380D01*
X184062476Y-108117714D02*
X183681523Y-108498666D01*
D14*
X183288666Y-110208190D02*
X183122000Y-109970095D01*
X183002952Y-110208190D02*
X183002952Y-109708190D01*
X183193428Y-109708190D01*
X183241047Y-109732000D01*
X183264857Y-109755809D01*
X183288666Y-109803428D01*
X183288666Y-109874857D01*
X183264857Y-109922476D01*
X183241047Y-109946285D01*
X183193428Y-109970095D01*
X183002952Y-109970095D01*
X183574380Y-109922476D02*
X183526761Y-109898666D01*
X183502952Y-109874857D01*
X183479142Y-109827238D01*
X183479142Y-109803428D01*
X183502952Y-109755809D01*
X183526761Y-109732000D01*
X183574380Y-109708190D01*
X183669619Y-109708190D01*
X183717238Y-109732000D01*
X183741047Y-109755809D01*
X183764857Y-109803428D01*
X183764857Y-109827238D01*
X183741047Y-109874857D01*
X183717238Y-109898666D01*
X183669619Y-109922476D01*
X183574380Y-109922476D01*
X183526761Y-109946285D01*
X183502952Y-109970095D01*
X183479142Y-110017714D01*
X183479142Y-110112952D01*
X183502952Y-110160571D01*
X183526761Y-110184380D01*
X183574380Y-110208190D01*
X183669619Y-110208190D01*
X183717238Y-110184380D01*
X183741047Y-110160571D01*
X183764857Y-110112952D01*
X183764857Y-110017714D01*
X183741047Y-109970095D01*
X183717238Y-109946285D01*
X183669619Y-109922476D01*
%TO.C,R7*%
D12*
X183268952Y-102178380D02*
X182697523Y-102178380D01*
X182983238Y-102178380D02*
X182983238Y-101178380D01*
X182888000Y-101321238D01*
X182792761Y-101416476D01*
X182697523Y-101464095D01*
X183697523Y-102178380D02*
X183697523Y-101178380D01*
X183792761Y-101797428D02*
X184078476Y-102178380D01*
X184078476Y-101511714D02*
X183697523Y-101892666D01*
D14*
X183304666Y-100302190D02*
X183138000Y-100064095D01*
X183018952Y-100302190D02*
X183018952Y-99802190D01*
X183209428Y-99802190D01*
X183257047Y-99826000D01*
X183280857Y-99849809D01*
X183304666Y-99897428D01*
X183304666Y-99968857D01*
X183280857Y-100016476D01*
X183257047Y-100040285D01*
X183209428Y-100064095D01*
X183018952Y-100064095D01*
X183471333Y-99802190D02*
X183804666Y-99802190D01*
X183590380Y-100302190D01*
%TO.C,R6*%
D12*
X183252952Y-106244380D02*
X182681523Y-106244380D01*
X182967238Y-106244380D02*
X182967238Y-105244380D01*
X182872000Y-105387238D01*
X182776761Y-105482476D01*
X182681523Y-105530095D01*
X183681523Y-106244380D02*
X183681523Y-105244380D01*
X183776761Y-105863428D02*
X184062476Y-106244380D01*
X184062476Y-105577714D02*
X183681523Y-105958666D01*
D14*
X183288666Y-107668190D02*
X183122000Y-107430095D01*
X183002952Y-107668190D02*
X183002952Y-107168190D01*
X183193428Y-107168190D01*
X183241047Y-107192000D01*
X183264857Y-107215809D01*
X183288666Y-107263428D01*
X183288666Y-107334857D01*
X183264857Y-107382476D01*
X183241047Y-107406285D01*
X183193428Y-107430095D01*
X183002952Y-107430095D01*
X183717238Y-107168190D02*
X183622000Y-107168190D01*
X183574380Y-107192000D01*
X183550571Y-107215809D01*
X183502952Y-107287238D01*
X183479142Y-107382476D01*
X183479142Y-107572952D01*
X183502952Y-107620571D01*
X183526761Y-107644380D01*
X183574380Y-107668190D01*
X183669619Y-107668190D01*
X183717238Y-107644380D01*
X183741047Y-107620571D01*
X183764857Y-107572952D01*
X183764857Y-107453904D01*
X183741047Y-107406285D01*
X183717238Y-107382476D01*
X183669619Y-107358666D01*
X183574380Y-107358666D01*
X183526761Y-107382476D01*
X183502952Y-107406285D01*
X183479142Y-107453904D01*
%TO.C,R5*%
D12*
X181983238Y-98733619D02*
X182030857Y-98686000D01*
X182126095Y-98638380D01*
X182364190Y-98638380D01*
X182459428Y-98686000D01*
X182507047Y-98733619D01*
X182554666Y-98828857D01*
X182554666Y-98924095D01*
X182507047Y-99066952D01*
X181935619Y-99638380D01*
X182554666Y-99638380D01*
X182983238Y-99543142D02*
X183030857Y-99590761D01*
X182983238Y-99638380D01*
X182935619Y-99590761D01*
X182983238Y-99543142D01*
X182983238Y-99638380D01*
X183411809Y-98733619D02*
X183459428Y-98686000D01*
X183554666Y-98638380D01*
X183792761Y-98638380D01*
X183888000Y-98686000D01*
X183935619Y-98733619D01*
X183983238Y-98828857D01*
X183983238Y-98924095D01*
X183935619Y-99066952D01*
X183364190Y-99638380D01*
X183983238Y-99638380D01*
X184411809Y-99638380D02*
X184411809Y-98638380D01*
X184507047Y-99257428D02*
X184792761Y-99638380D01*
X184792761Y-98971714D02*
X184411809Y-99352666D01*
D14*
X183304666Y-97762190D02*
X183138000Y-97524095D01*
X183018952Y-97762190D02*
X183018952Y-97262190D01*
X183209428Y-97262190D01*
X183257047Y-97286000D01*
X183280857Y-97309809D01*
X183304666Y-97357428D01*
X183304666Y-97428857D01*
X183280857Y-97476476D01*
X183257047Y-97500285D01*
X183209428Y-97524095D01*
X183018952Y-97524095D01*
X183757047Y-97262190D02*
X183518952Y-97262190D01*
X183495142Y-97500285D01*
X183518952Y-97476476D01*
X183566571Y-97452666D01*
X183685619Y-97452666D01*
X183733238Y-97476476D01*
X183757047Y-97500285D01*
X183780857Y-97547904D01*
X183780857Y-97666952D01*
X183757047Y-97714571D01*
X183733238Y-97738380D01*
X183685619Y-97762190D01*
X183566571Y-97762190D01*
X183518952Y-97738380D01*
X183495142Y-97714571D01*
%TO.C,R4*%
D12*
X181935619Y-102958380D02*
X182554666Y-102958380D01*
X182221333Y-103339333D01*
X182364190Y-103339333D01*
X182459428Y-103386952D01*
X182507047Y-103434571D01*
X182554666Y-103529809D01*
X182554666Y-103767904D01*
X182507047Y-103863142D01*
X182459428Y-103910761D01*
X182364190Y-103958380D01*
X182078476Y-103958380D01*
X181983238Y-103910761D01*
X181935619Y-103863142D01*
X182983238Y-103863142D02*
X183030857Y-103910761D01*
X182983238Y-103958380D01*
X182935619Y-103910761D01*
X182983238Y-103863142D01*
X182983238Y-103958380D01*
X183364190Y-102958380D02*
X183983238Y-102958380D01*
X183649904Y-103339333D01*
X183792761Y-103339333D01*
X183888000Y-103386952D01*
X183935619Y-103434571D01*
X183983238Y-103529809D01*
X183983238Y-103767904D01*
X183935619Y-103863142D01*
X183888000Y-103910761D01*
X183792761Y-103958380D01*
X183507047Y-103958380D01*
X183411809Y-103910761D01*
X183364190Y-103863142D01*
X184411809Y-103958380D02*
X184411809Y-102958380D01*
X184507047Y-103577428D02*
X184792761Y-103958380D01*
X184792761Y-103291714D02*
X184411809Y-103672666D01*
D14*
X183304666Y-105382190D02*
X183138000Y-105144095D01*
X183018952Y-105382190D02*
X183018952Y-104882190D01*
X183209428Y-104882190D01*
X183257047Y-104906000D01*
X183280857Y-104929809D01*
X183304666Y-104977428D01*
X183304666Y-105048857D01*
X183280857Y-105096476D01*
X183257047Y-105120285D01*
X183209428Y-105144095D01*
X183018952Y-105144095D01*
X183733238Y-105048857D02*
X183733238Y-105382190D01*
X183614190Y-104858380D02*
X183495142Y-105215523D01*
X183804666Y-105215523D01*
%TO.C,R3*%
D12*
X185507428Y-84414380D02*
X185316952Y-84414380D01*
X185221714Y-84462000D01*
X185174095Y-84509619D01*
X185078857Y-84652476D01*
X185031238Y-84842952D01*
X185031238Y-85223904D01*
X185078857Y-85319142D01*
X185126476Y-85366761D01*
X185221714Y-85414380D01*
X185412190Y-85414380D01*
X185507428Y-85366761D01*
X185555047Y-85319142D01*
X185602666Y-85223904D01*
X185602666Y-84985809D01*
X185555047Y-84890571D01*
X185507428Y-84842952D01*
X185412190Y-84795333D01*
X185221714Y-84795333D01*
X185126476Y-84842952D01*
X185078857Y-84890571D01*
X185031238Y-84985809D01*
X186031238Y-85319142D02*
X186078857Y-85366761D01*
X186031238Y-85414380D01*
X185983619Y-85366761D01*
X186031238Y-85319142D01*
X186031238Y-85414380D01*
X186650285Y-84842952D02*
X186555047Y-84795333D01*
X186507428Y-84747714D01*
X186459809Y-84652476D01*
X186459809Y-84604857D01*
X186507428Y-84509619D01*
X186555047Y-84462000D01*
X186650285Y-84414380D01*
X186840761Y-84414380D01*
X186936000Y-84462000D01*
X186983619Y-84509619D01*
X187031238Y-84604857D01*
X187031238Y-84652476D01*
X186983619Y-84747714D01*
X186936000Y-84795333D01*
X186840761Y-84842952D01*
X186650285Y-84842952D01*
X186555047Y-84890571D01*
X186507428Y-84938190D01*
X186459809Y-85033428D01*
X186459809Y-85223904D01*
X186507428Y-85319142D01*
X186555047Y-85366761D01*
X186650285Y-85414380D01*
X186840761Y-85414380D01*
X186936000Y-85366761D01*
X186983619Y-85319142D01*
X187031238Y-85223904D01*
X187031238Y-85033428D01*
X186983619Y-84938190D01*
X186936000Y-84890571D01*
X186840761Y-84842952D01*
X187459809Y-85414380D02*
X187459809Y-84414380D01*
X187555047Y-85033428D02*
X187840761Y-85414380D01*
X187840761Y-84747714D02*
X187459809Y-85128666D01*
D14*
X186352666Y-83538190D02*
X186186000Y-83300095D01*
X186066952Y-83538190D02*
X186066952Y-83038190D01*
X186257428Y-83038190D01*
X186305047Y-83062000D01*
X186328857Y-83085809D01*
X186352666Y-83133428D01*
X186352666Y-83204857D01*
X186328857Y-83252476D01*
X186305047Y-83276285D01*
X186257428Y-83300095D01*
X186066952Y-83300095D01*
X186519333Y-83038190D02*
X186828857Y-83038190D01*
X186662190Y-83228666D01*
X186733619Y-83228666D01*
X186781238Y-83252476D01*
X186805047Y-83276285D01*
X186828857Y-83323904D01*
X186828857Y-83442952D01*
X186805047Y-83490571D01*
X186781238Y-83514380D01*
X186733619Y-83538190D01*
X186590761Y-83538190D01*
X186543142Y-83514380D01*
X186519333Y-83490571D01*
%TO.C,R2*%
D12*
X186332952Y-82366380D02*
X185761523Y-82366380D01*
X186047238Y-82366380D02*
X186047238Y-81366380D01*
X185952000Y-81509238D01*
X185856761Y-81604476D01*
X185761523Y-81652095D01*
X186761523Y-82366380D02*
X186761523Y-81366380D01*
X186856761Y-81985428D02*
X187142476Y-82366380D01*
X187142476Y-81699714D02*
X186761523Y-82080666D01*
D14*
X186368666Y-80490190D02*
X186202000Y-80252095D01*
X186082952Y-80490190D02*
X186082952Y-79990190D01*
X186273428Y-79990190D01*
X186321047Y-80014000D01*
X186344857Y-80037809D01*
X186368666Y-80085428D01*
X186368666Y-80156857D01*
X186344857Y-80204476D01*
X186321047Y-80228285D01*
X186273428Y-80252095D01*
X186082952Y-80252095D01*
X186559142Y-80037809D02*
X186582952Y-80014000D01*
X186630571Y-79990190D01*
X186749619Y-79990190D01*
X186797238Y-80014000D01*
X186821047Y-80037809D01*
X186844857Y-80085428D01*
X186844857Y-80133047D01*
X186821047Y-80204476D01*
X186535333Y-80490190D01*
X186844857Y-80490190D01*
%TO.C,R1*%
D12*
X185761428Y-112435714D02*
X185761428Y-113102380D01*
X185523333Y-112054761D02*
X185285238Y-112769047D01*
X185904285Y-112769047D01*
X186285238Y-113007142D02*
X186332857Y-113054761D01*
X186285238Y-113102380D01*
X186237619Y-113054761D01*
X186285238Y-113007142D01*
X186285238Y-113102380D01*
X186666190Y-112102380D02*
X187332857Y-112102380D01*
X186904285Y-113102380D01*
X187713809Y-113102380D02*
X187713809Y-112102380D01*
X187809047Y-112721428D02*
X188094761Y-113102380D01*
X188094761Y-112435714D02*
X187713809Y-112816666D01*
D14*
X186606666Y-114526190D02*
X186440000Y-114288095D01*
X186320952Y-114526190D02*
X186320952Y-114026190D01*
X186511428Y-114026190D01*
X186559047Y-114050000D01*
X186582857Y-114073809D01*
X186606666Y-114121428D01*
X186606666Y-114192857D01*
X186582857Y-114240476D01*
X186559047Y-114264285D01*
X186511428Y-114288095D01*
X186320952Y-114288095D01*
X187082857Y-114526190D02*
X186797142Y-114526190D01*
X186940000Y-114526190D02*
X186940000Y-114026190D01*
X186892380Y-114097619D01*
X186844761Y-114145238D01*
X186797142Y-114169047D01*
%TO.C,Q2*%
D12*
X185340857Y-92634571D02*
X185483714Y-92682190D01*
X185531333Y-92729809D01*
X185578952Y-92825047D01*
X185578952Y-92967904D01*
X185531333Y-93063142D01*
X185483714Y-93110761D01*
X185388476Y-93158380D01*
X185007523Y-93158380D01*
X185007523Y-92158380D01*
X185340857Y-92158380D01*
X185436095Y-92206000D01*
X185483714Y-92253619D01*
X185531333Y-92348857D01*
X185531333Y-92444095D01*
X185483714Y-92539333D01*
X185436095Y-92586952D01*
X185340857Y-92634571D01*
X185007523Y-92634571D01*
X186578952Y-93063142D02*
X186531333Y-93110761D01*
X186388476Y-93158380D01*
X186293238Y-93158380D01*
X186150380Y-93110761D01*
X186055142Y-93015523D01*
X186007523Y-92920285D01*
X185959904Y-92729809D01*
X185959904Y-92586952D01*
X186007523Y-92396476D01*
X186055142Y-92301238D01*
X186150380Y-92206000D01*
X186293238Y-92158380D01*
X186388476Y-92158380D01*
X186531333Y-92206000D01*
X186578952Y-92253619D01*
X186912285Y-92158380D02*
X187531333Y-92158380D01*
X187198000Y-92539333D01*
X187340857Y-92539333D01*
X187436095Y-92586952D01*
X187483714Y-92634571D01*
X187531333Y-92729809D01*
X187531333Y-92967904D01*
X187483714Y-93063142D01*
X187436095Y-93110761D01*
X187340857Y-93158380D01*
X187055142Y-93158380D01*
X186959904Y-93110761D01*
X186912285Y-93063142D01*
X187864666Y-92158380D02*
X188483714Y-92158380D01*
X188150380Y-92539333D01*
X188293238Y-92539333D01*
X188388476Y-92586952D01*
X188436095Y-92634571D01*
X188483714Y-92729809D01*
X188483714Y-92967904D01*
X188436095Y-93063142D01*
X188388476Y-93110761D01*
X188293238Y-93158380D01*
X188007523Y-93158380D01*
X187912285Y-93110761D01*
X187864666Y-93063142D01*
X188817047Y-92158380D02*
X189483714Y-92158380D01*
X189055142Y-93158380D01*
X187102761Y-90463619D02*
X187007523Y-90416000D01*
X186912285Y-90320761D01*
X186769428Y-90177904D01*
X186674190Y-90130285D01*
X186578952Y-90130285D01*
X186626571Y-90368380D02*
X186531333Y-90320761D01*
X186436095Y-90225523D01*
X186388476Y-90035047D01*
X186388476Y-89701714D01*
X186436095Y-89511238D01*
X186531333Y-89416000D01*
X186626571Y-89368380D01*
X186817047Y-89368380D01*
X186912285Y-89416000D01*
X187007523Y-89511238D01*
X187055142Y-89701714D01*
X187055142Y-90035047D01*
X187007523Y-90225523D01*
X186912285Y-90320761D01*
X186817047Y-90368380D01*
X186626571Y-90368380D01*
X187436095Y-89463619D02*
X187483714Y-89416000D01*
X187578952Y-89368380D01*
X187817047Y-89368380D01*
X187912285Y-89416000D01*
X187959904Y-89463619D01*
X188007523Y-89558857D01*
X188007523Y-89654095D01*
X187959904Y-89796952D01*
X187388476Y-90368380D01*
X188007523Y-90368380D01*
%TO.C,Q1*%
X179244857Y-92634571D02*
X179387714Y-92682190D01*
X179435333Y-92729809D01*
X179482952Y-92825047D01*
X179482952Y-92967904D01*
X179435333Y-93063142D01*
X179387714Y-93110761D01*
X179292476Y-93158380D01*
X178911523Y-93158380D01*
X178911523Y-92158380D01*
X179244857Y-92158380D01*
X179340095Y-92206000D01*
X179387714Y-92253619D01*
X179435333Y-92348857D01*
X179435333Y-92444095D01*
X179387714Y-92539333D01*
X179340095Y-92586952D01*
X179244857Y-92634571D01*
X178911523Y-92634571D01*
X180482952Y-93063142D02*
X180435333Y-93110761D01*
X180292476Y-93158380D01*
X180197238Y-93158380D01*
X180054380Y-93110761D01*
X179959142Y-93015523D01*
X179911523Y-92920285D01*
X179863904Y-92729809D01*
X179863904Y-92586952D01*
X179911523Y-92396476D01*
X179959142Y-92301238D01*
X180054380Y-92206000D01*
X180197238Y-92158380D01*
X180292476Y-92158380D01*
X180435333Y-92206000D01*
X180482952Y-92253619D01*
X180816285Y-92158380D02*
X181435333Y-92158380D01*
X181102000Y-92539333D01*
X181244857Y-92539333D01*
X181340095Y-92586952D01*
X181387714Y-92634571D01*
X181435333Y-92729809D01*
X181435333Y-92967904D01*
X181387714Y-93063142D01*
X181340095Y-93110761D01*
X181244857Y-93158380D01*
X180959142Y-93158380D01*
X180863904Y-93110761D01*
X180816285Y-93063142D01*
X181768666Y-92158380D02*
X182387714Y-92158380D01*
X182054380Y-92539333D01*
X182197238Y-92539333D01*
X182292476Y-92586952D01*
X182340095Y-92634571D01*
X182387714Y-92729809D01*
X182387714Y-92967904D01*
X182340095Y-93063142D01*
X182292476Y-93110761D01*
X182197238Y-93158380D01*
X181911523Y-93158380D01*
X181816285Y-93110761D01*
X181768666Y-93063142D01*
X182721047Y-92158380D02*
X183387714Y-92158380D01*
X182959142Y-93158380D01*
X181006761Y-90463619D02*
X180911523Y-90416000D01*
X180816285Y-90320761D01*
X180673428Y-90177904D01*
X180578190Y-90130285D01*
X180482952Y-90130285D01*
X180530571Y-90368380D02*
X180435333Y-90320761D01*
X180340095Y-90225523D01*
X180292476Y-90035047D01*
X180292476Y-89701714D01*
X180340095Y-89511238D01*
X180435333Y-89416000D01*
X180530571Y-89368380D01*
X180721047Y-89368380D01*
X180816285Y-89416000D01*
X180911523Y-89511238D01*
X180959142Y-89701714D01*
X180959142Y-90035047D01*
X180911523Y-90225523D01*
X180816285Y-90320761D01*
X180721047Y-90368380D01*
X180530571Y-90368380D01*
X181911523Y-90368380D02*
X181340095Y-90368380D01*
X181625809Y-90368380D02*
X181625809Y-89368380D01*
X181530571Y-89511238D01*
X181435333Y-89606476D01*
X181340095Y-89654095D01*
%TO.C,J10*%
X210343571Y-103861904D02*
X210391190Y-103719047D01*
X210438809Y-103671428D01*
X210534047Y-103623809D01*
X210676904Y-103623809D01*
X210772142Y-103671428D01*
X210819761Y-103719047D01*
X210867380Y-103814285D01*
X210867380Y-104195238D01*
X209867380Y-104195238D01*
X209867380Y-103861904D01*
X209915000Y-103766666D01*
X209962619Y-103719047D01*
X210057857Y-103671428D01*
X210153095Y-103671428D01*
X210248333Y-103719047D01*
X210295952Y-103766666D01*
X210343571Y-103861904D01*
X210343571Y-104195238D01*
X209867380Y-103195238D02*
X210676904Y-103195238D01*
X210772142Y-103147619D01*
X210819761Y-103100000D01*
X210867380Y-103004761D01*
X210867380Y-102814285D01*
X210819761Y-102719047D01*
X210772142Y-102671428D01*
X210676904Y-102623809D01*
X209867380Y-102623809D01*
X209867380Y-102290476D02*
X209867380Y-101719047D01*
X210867380Y-102004761D02*
X209867380Y-102004761D01*
X209867380Y-101528571D02*
X209867380Y-100957142D01*
X210867380Y-101242857D02*
X209867380Y-101242857D01*
X209867380Y-100433333D02*
X209867380Y-100242857D01*
X209915000Y-100147619D01*
X210010238Y-100052380D01*
X210200714Y-100004761D01*
X210534047Y-100004761D01*
X210724523Y-100052380D01*
X210819761Y-100147619D01*
X210867380Y-100242857D01*
X210867380Y-100433333D01*
X210819761Y-100528571D01*
X210724523Y-100623809D01*
X210534047Y-100671428D01*
X210200714Y-100671428D01*
X210010238Y-100623809D01*
X209915000Y-100528571D01*
X209867380Y-100433333D01*
X210867380Y-99576190D02*
X209867380Y-99576190D01*
X210867380Y-99004761D01*
X209867380Y-99004761D01*
X205565476Y-101052380D02*
X205565476Y-101766666D01*
X205517857Y-101909523D01*
X205422619Y-102004761D01*
X205279761Y-102052380D01*
X205184523Y-102052380D01*
X206565476Y-102052380D02*
X205994047Y-102052380D01*
X206279761Y-102052380D02*
X206279761Y-101052380D01*
X206184523Y-101195238D01*
X206089285Y-101290476D01*
X205994047Y-101338095D01*
X207184523Y-101052380D02*
X207279761Y-101052380D01*
X207375000Y-101100000D01*
X207422619Y-101147619D01*
X207470238Y-101242857D01*
X207517857Y-101433333D01*
X207517857Y-101671428D01*
X207470238Y-101861904D01*
X207422619Y-101957142D01*
X207375000Y-102004761D01*
X207279761Y-102052380D01*
X207184523Y-102052380D01*
X207089285Y-102004761D01*
X207041666Y-101957142D01*
X206994047Y-101861904D01*
X206946428Y-101671428D01*
X206946428Y-101433333D01*
X206994047Y-101242857D01*
X207041666Y-101147619D01*
X207089285Y-101100000D01*
X207184523Y-101052380D01*
%TO.C,J8*%
X213232761Y-96869142D02*
X213280380Y-96726285D01*
X213280380Y-96488190D01*
X213232761Y-96392952D01*
X213185142Y-96345333D01*
X213089904Y-96297714D01*
X212994666Y-96297714D01*
X212899428Y-96345333D01*
X212851809Y-96392952D01*
X212804190Y-96488190D01*
X212756571Y-96678666D01*
X212708952Y-96773904D01*
X212661333Y-96821523D01*
X212566095Y-96869142D01*
X212470857Y-96869142D01*
X212375619Y-96821523D01*
X212328000Y-96773904D01*
X212280380Y-96678666D01*
X212280380Y-96440571D01*
X212328000Y-96297714D01*
X212280380Y-95964380D02*
X213280380Y-95726285D01*
X212566095Y-95535809D01*
X213280380Y-95345333D01*
X212280380Y-95107238D01*
X207184666Y-95464380D02*
X207184666Y-96178666D01*
X207137047Y-96321523D01*
X207041809Y-96416761D01*
X206898952Y-96464380D01*
X206803714Y-96464380D01*
X207803714Y-95892952D02*
X207708476Y-95845333D01*
X207660857Y-95797714D01*
X207613238Y-95702476D01*
X207613238Y-95654857D01*
X207660857Y-95559619D01*
X207708476Y-95512000D01*
X207803714Y-95464380D01*
X207994190Y-95464380D01*
X208089428Y-95512000D01*
X208137047Y-95559619D01*
X208184666Y-95654857D01*
X208184666Y-95702476D01*
X208137047Y-95797714D01*
X208089428Y-95845333D01*
X207994190Y-95892952D01*
X207803714Y-95892952D01*
X207708476Y-95940571D01*
X207660857Y-95988190D01*
X207613238Y-96083428D01*
X207613238Y-96273904D01*
X207660857Y-96369142D01*
X207708476Y-96416761D01*
X207803714Y-96464380D01*
X207994190Y-96464380D01*
X208089428Y-96416761D01*
X208137047Y-96369142D01*
X208184666Y-96273904D01*
X208184666Y-96083428D01*
X208137047Y-95988190D01*
X208089428Y-95940571D01*
X207994190Y-95892952D01*
%TO.C,J7*%
X210589761Y-106267142D02*
X210637380Y-106124285D01*
X210637380Y-105886190D01*
X210589761Y-105790952D01*
X210542142Y-105743333D01*
X210446904Y-105695714D01*
X210351666Y-105695714D01*
X210256428Y-105743333D01*
X210208809Y-105790952D01*
X210161190Y-105886190D01*
X210113571Y-106076666D01*
X210065952Y-106171904D01*
X210018333Y-106219523D01*
X209923095Y-106267142D01*
X209827857Y-106267142D01*
X209732619Y-106219523D01*
X209685000Y-106171904D01*
X209637380Y-106076666D01*
X209637380Y-105838571D01*
X209685000Y-105695714D01*
X209637380Y-105362380D02*
X210637380Y-105124285D01*
X209923095Y-104933809D01*
X210637380Y-104743333D01*
X209637380Y-104505238D01*
X206041666Y-104862380D02*
X206041666Y-105576666D01*
X205994047Y-105719523D01*
X205898809Y-105814761D01*
X205755952Y-105862380D01*
X205660714Y-105862380D01*
X206422619Y-104862380D02*
X207089285Y-104862380D01*
X206660714Y-105862380D01*
%TO.C,J6*%
X214987142Y-87113333D02*
X215034761Y-87160952D01*
X215082380Y-87303809D01*
X215082380Y-87399047D01*
X215034761Y-87541904D01*
X214939523Y-87637142D01*
X214844285Y-87684761D01*
X214653809Y-87732380D01*
X214510952Y-87732380D01*
X214320476Y-87684761D01*
X214225238Y-87637142D01*
X214130000Y-87541904D01*
X214082380Y-87399047D01*
X214082380Y-87303809D01*
X214130000Y-87160952D01*
X214177619Y-87113333D01*
X215082380Y-86541904D02*
X215034761Y-86637142D01*
X214987142Y-86684761D01*
X214891904Y-86732380D01*
X214606190Y-86732380D01*
X214510952Y-86684761D01*
X214463333Y-86637142D01*
X214415714Y-86541904D01*
X214415714Y-86399047D01*
X214463333Y-86303809D01*
X214510952Y-86256190D01*
X214606190Y-86208571D01*
X214891904Y-86208571D01*
X214987142Y-86256190D01*
X215034761Y-86303809D01*
X215082380Y-86399047D01*
X215082380Y-86541904D01*
X214415714Y-85780000D02*
X215082380Y-85780000D01*
X214510952Y-85780000D02*
X214463333Y-85732380D01*
X214415714Y-85637142D01*
X214415714Y-85494285D01*
X214463333Y-85399047D01*
X214558571Y-85351428D01*
X215082380Y-85351428D01*
X214415714Y-84875238D02*
X215082380Y-84875238D01*
X214510952Y-84875238D02*
X214463333Y-84827619D01*
X214415714Y-84732380D01*
X214415714Y-84589523D01*
X214463333Y-84494285D01*
X214558571Y-84446666D01*
X215082380Y-84446666D01*
X215177619Y-84208571D02*
X215177619Y-83446666D01*
X214082380Y-83018095D02*
X214082380Y-82922857D01*
X214130000Y-82827619D01*
X214177619Y-82780000D01*
X214272857Y-82732380D01*
X214463333Y-82684761D01*
X214701428Y-82684761D01*
X214891904Y-82732380D01*
X214987142Y-82780000D01*
X215034761Y-82827619D01*
X215082380Y-82922857D01*
X215082380Y-83018095D01*
X215034761Y-83113333D01*
X214987142Y-83160952D01*
X214891904Y-83208571D01*
X214701428Y-83256190D01*
X214463333Y-83256190D01*
X214272857Y-83208571D01*
X214177619Y-83160952D01*
X214130000Y-83113333D01*
X214082380Y-83018095D01*
X215082380Y-81732380D02*
X215082380Y-82303809D01*
X215082380Y-82018095D02*
X214082380Y-82018095D01*
X214225238Y-82113333D01*
X214320476Y-82208571D01*
X214368095Y-82303809D01*
X215082380Y-81399047D02*
X214415714Y-80875238D01*
X214415714Y-81399047D02*
X215082380Y-80875238D01*
X214082380Y-80303809D02*
X214082380Y-80208571D01*
X214130000Y-80113333D01*
X214177619Y-80065714D01*
X214272857Y-80018095D01*
X214463333Y-79970476D01*
X214701428Y-79970476D01*
X214891904Y-80018095D01*
X214987142Y-80065714D01*
X215034761Y-80113333D01*
X215082380Y-80208571D01*
X215082380Y-80303809D01*
X215034761Y-80399047D01*
X214987142Y-80446666D01*
X214891904Y-80494285D01*
X214701428Y-80541904D01*
X214463333Y-80541904D01*
X214272857Y-80494285D01*
X214177619Y-80446666D01*
X214130000Y-80399047D01*
X214082380Y-80303809D01*
X214177619Y-79589523D02*
X214130000Y-79541904D01*
X214082380Y-79446666D01*
X214082380Y-79208571D01*
X214130000Y-79113333D01*
X214177619Y-79065714D01*
X214272857Y-79018095D01*
X214368095Y-79018095D01*
X214510952Y-79065714D01*
X215082380Y-79637142D01*
X215082380Y-79018095D01*
X215177619Y-78827619D02*
X215177619Y-78065714D01*
X215082380Y-77827619D02*
X214082380Y-77827619D01*
X214796666Y-77494285D01*
X214082380Y-77160952D01*
X215082380Y-77160952D01*
X215082380Y-76256190D02*
X214558571Y-76256190D01*
X214463333Y-76303809D01*
X214415714Y-76399047D01*
X214415714Y-76589523D01*
X214463333Y-76684761D01*
X215034761Y-76256190D02*
X215082380Y-76351428D01*
X215082380Y-76589523D01*
X215034761Y-76684761D01*
X214939523Y-76732380D01*
X214844285Y-76732380D01*
X214749047Y-76684761D01*
X214701428Y-76589523D01*
X214701428Y-76351428D01*
X214653809Y-76256190D01*
X215082380Y-75637142D02*
X215034761Y-75732380D01*
X214939523Y-75780000D01*
X214082380Y-75780000D01*
X215034761Y-74875238D02*
X215082380Y-74970476D01*
X215082380Y-75160952D01*
X215034761Y-75256190D01*
X214939523Y-75303809D01*
X214558571Y-75303809D01*
X214463333Y-75256190D01*
X214415714Y-75160952D01*
X214415714Y-74970476D01*
X214463333Y-74875238D01*
X214558571Y-74827619D01*
X214653809Y-74827619D01*
X214749047Y-75303809D01*
X210486666Y-80732380D02*
X210486666Y-81446666D01*
X210439047Y-81589523D01*
X210343809Y-81684761D01*
X210200952Y-81732380D01*
X210105714Y-81732380D01*
X211391428Y-80732380D02*
X211200952Y-80732380D01*
X211105714Y-80780000D01*
X211058095Y-80827619D01*
X210962857Y-80970476D01*
X210915238Y-81160952D01*
X210915238Y-81541904D01*
X210962857Y-81637142D01*
X211010476Y-81684761D01*
X211105714Y-81732380D01*
X211296190Y-81732380D01*
X211391428Y-81684761D01*
X211439047Y-81637142D01*
X211486666Y-81541904D01*
X211486666Y-81303809D01*
X211439047Y-81208571D01*
X211391428Y-81160952D01*
X211296190Y-81113333D01*
X211105714Y-81113333D01*
X211010476Y-81160952D01*
X210962857Y-81208571D01*
X210915238Y-81303809D01*
%TO.C,J5*%
X214987142Y-83303333D02*
X215034761Y-83350952D01*
X215082380Y-83493809D01*
X215082380Y-83589047D01*
X215034761Y-83731904D01*
X214939523Y-83827142D01*
X214844285Y-83874761D01*
X214653809Y-83922380D01*
X214510952Y-83922380D01*
X214320476Y-83874761D01*
X214225238Y-83827142D01*
X214130000Y-83731904D01*
X214082380Y-83589047D01*
X214082380Y-83493809D01*
X214130000Y-83350952D01*
X214177619Y-83303333D01*
X215082380Y-82731904D02*
X215034761Y-82827142D01*
X214987142Y-82874761D01*
X214891904Y-82922380D01*
X214606190Y-82922380D01*
X214510952Y-82874761D01*
X214463333Y-82827142D01*
X214415714Y-82731904D01*
X214415714Y-82589047D01*
X214463333Y-82493809D01*
X214510952Y-82446190D01*
X214606190Y-82398571D01*
X214891904Y-82398571D01*
X214987142Y-82446190D01*
X215034761Y-82493809D01*
X215082380Y-82589047D01*
X215082380Y-82731904D01*
X214415714Y-81970000D02*
X215082380Y-81970000D01*
X214510952Y-81970000D02*
X214463333Y-81922380D01*
X214415714Y-81827142D01*
X214415714Y-81684285D01*
X214463333Y-81589047D01*
X214558571Y-81541428D01*
X215082380Y-81541428D01*
X214415714Y-81065238D02*
X215082380Y-81065238D01*
X214510952Y-81065238D02*
X214463333Y-81017619D01*
X214415714Y-80922380D01*
X214415714Y-80779523D01*
X214463333Y-80684285D01*
X214558571Y-80636666D01*
X215082380Y-80636666D01*
X215177619Y-80398571D02*
X215177619Y-79636666D01*
X214082380Y-79208095D02*
X214082380Y-79112857D01*
X214130000Y-79017619D01*
X214177619Y-78970000D01*
X214272857Y-78922380D01*
X214463333Y-78874761D01*
X214701428Y-78874761D01*
X214891904Y-78922380D01*
X214987142Y-78970000D01*
X215034761Y-79017619D01*
X215082380Y-79112857D01*
X215082380Y-79208095D01*
X215034761Y-79303333D01*
X214987142Y-79350952D01*
X214891904Y-79398571D01*
X214701428Y-79446190D01*
X214463333Y-79446190D01*
X214272857Y-79398571D01*
X214177619Y-79350952D01*
X214130000Y-79303333D01*
X214082380Y-79208095D01*
X215082380Y-77922380D02*
X215082380Y-78493809D01*
X215082380Y-78208095D02*
X214082380Y-78208095D01*
X214225238Y-78303333D01*
X214320476Y-78398571D01*
X214368095Y-78493809D01*
X215082380Y-77589047D02*
X214415714Y-77065238D01*
X214415714Y-77589047D02*
X215082380Y-77065238D01*
X214082380Y-76493809D02*
X214082380Y-76398571D01*
X214130000Y-76303333D01*
X214177619Y-76255714D01*
X214272857Y-76208095D01*
X214463333Y-76160476D01*
X214701428Y-76160476D01*
X214891904Y-76208095D01*
X214987142Y-76255714D01*
X215034761Y-76303333D01*
X215082380Y-76398571D01*
X215082380Y-76493809D01*
X215034761Y-76589047D01*
X214987142Y-76636666D01*
X214891904Y-76684285D01*
X214701428Y-76731904D01*
X214463333Y-76731904D01*
X214272857Y-76684285D01*
X214177619Y-76636666D01*
X214130000Y-76589047D01*
X214082380Y-76493809D01*
X214177619Y-75779523D02*
X214130000Y-75731904D01*
X214082380Y-75636666D01*
X214082380Y-75398571D01*
X214130000Y-75303333D01*
X214177619Y-75255714D01*
X214272857Y-75208095D01*
X214368095Y-75208095D01*
X214510952Y-75255714D01*
X215082380Y-75827142D01*
X215082380Y-75208095D01*
X215177619Y-75017619D02*
X215177619Y-74255714D01*
X215082380Y-74017619D02*
X214082380Y-74017619D01*
X214796666Y-73684285D01*
X214082380Y-73350952D01*
X215082380Y-73350952D01*
X215082380Y-72446190D02*
X214558571Y-72446190D01*
X214463333Y-72493809D01*
X214415714Y-72589047D01*
X214415714Y-72779523D01*
X214463333Y-72874761D01*
X215034761Y-72446190D02*
X215082380Y-72541428D01*
X215082380Y-72779523D01*
X215034761Y-72874761D01*
X214939523Y-72922380D01*
X214844285Y-72922380D01*
X214749047Y-72874761D01*
X214701428Y-72779523D01*
X214701428Y-72541428D01*
X214653809Y-72446190D01*
X215082380Y-71827142D02*
X215034761Y-71922380D01*
X214939523Y-71970000D01*
X214082380Y-71970000D01*
X215034761Y-71065238D02*
X215082380Y-71160476D01*
X215082380Y-71350952D01*
X215034761Y-71446190D01*
X214939523Y-71493809D01*
X214558571Y-71493809D01*
X214463333Y-71446190D01*
X214415714Y-71350952D01*
X214415714Y-71160476D01*
X214463333Y-71065238D01*
X214558571Y-71017619D01*
X214653809Y-71017619D01*
X214749047Y-71493809D01*
X210486666Y-76922380D02*
X210486666Y-77636666D01*
X210439047Y-77779523D01*
X210343809Y-77874761D01*
X210200952Y-77922380D01*
X210105714Y-77922380D01*
X211439047Y-76922380D02*
X210962857Y-76922380D01*
X210915238Y-77398571D01*
X210962857Y-77350952D01*
X211058095Y-77303333D01*
X211296190Y-77303333D01*
X211391428Y-77350952D01*
X211439047Y-77398571D01*
X211486666Y-77493809D01*
X211486666Y-77731904D01*
X211439047Y-77827142D01*
X211391428Y-77874761D01*
X211296190Y-77922380D01*
X211058095Y-77922380D01*
X210962857Y-77874761D01*
X210915238Y-77827142D01*
%TO.C,J4*%
X184412666Y-106251142D02*
X184365047Y-106298761D01*
X184222190Y-106346380D01*
X184126952Y-106346380D01*
X183984095Y-106298761D01*
X183888857Y-106203523D01*
X183841238Y-106108285D01*
X183793619Y-105917809D01*
X183793619Y-105774952D01*
X183841238Y-105584476D01*
X183888857Y-105489238D01*
X183984095Y-105394000D01*
X184126952Y-105346380D01*
X184222190Y-105346380D01*
X184365047Y-105394000D01*
X184412666Y-105441619D01*
X184984095Y-106346380D02*
X184888857Y-106298761D01*
X184841238Y-106251142D01*
X184793619Y-106155904D01*
X184793619Y-105870190D01*
X184841238Y-105774952D01*
X184888857Y-105727333D01*
X184984095Y-105679714D01*
X185126952Y-105679714D01*
X185222190Y-105727333D01*
X185269809Y-105774952D01*
X185317428Y-105870190D01*
X185317428Y-106155904D01*
X185269809Y-106251142D01*
X185222190Y-106298761D01*
X185126952Y-106346380D01*
X184984095Y-106346380D01*
X185746000Y-105679714D02*
X185746000Y-106346380D01*
X185746000Y-105774952D02*
X185793619Y-105727333D01*
X185888857Y-105679714D01*
X186031714Y-105679714D01*
X186126952Y-105727333D01*
X186174571Y-105822571D01*
X186174571Y-106346380D01*
X186650761Y-105679714D02*
X186650761Y-106346380D01*
X186650761Y-105774952D02*
X186698380Y-105727333D01*
X186793619Y-105679714D01*
X186936476Y-105679714D01*
X187031714Y-105727333D01*
X187079333Y-105822571D01*
X187079333Y-106346380D01*
X187317428Y-106441619D02*
X188079333Y-106441619D01*
X188507904Y-105346380D02*
X188603142Y-105346380D01*
X188698380Y-105394000D01*
X188746000Y-105441619D01*
X188793619Y-105536857D01*
X188841238Y-105727333D01*
X188841238Y-105965428D01*
X188793619Y-106155904D01*
X188746000Y-106251142D01*
X188698380Y-106298761D01*
X188603142Y-106346380D01*
X188507904Y-106346380D01*
X188412666Y-106298761D01*
X188365047Y-106251142D01*
X188317428Y-106155904D01*
X188269809Y-105965428D01*
X188269809Y-105727333D01*
X188317428Y-105536857D01*
X188365047Y-105441619D01*
X188412666Y-105394000D01*
X188507904Y-105346380D01*
X189793619Y-106346380D02*
X189222190Y-106346380D01*
X189507904Y-106346380D02*
X189507904Y-105346380D01*
X189412666Y-105489238D01*
X189317428Y-105584476D01*
X189222190Y-105632095D01*
X190126952Y-106346380D02*
X190650761Y-105679714D01*
X190126952Y-105679714D02*
X190650761Y-106346380D01*
X191222190Y-105346380D02*
X191317428Y-105346380D01*
X191412666Y-105394000D01*
X191460285Y-105441619D01*
X191507904Y-105536857D01*
X191555523Y-105727333D01*
X191555523Y-105965428D01*
X191507904Y-106155904D01*
X191460285Y-106251142D01*
X191412666Y-106298761D01*
X191317428Y-106346380D01*
X191222190Y-106346380D01*
X191126952Y-106298761D01*
X191079333Y-106251142D01*
X191031714Y-106155904D01*
X190984095Y-105965428D01*
X190984095Y-105727333D01*
X191031714Y-105536857D01*
X191079333Y-105441619D01*
X191126952Y-105394000D01*
X191222190Y-105346380D01*
X191888857Y-105346380D02*
X192507904Y-105346380D01*
X192174571Y-105727333D01*
X192317428Y-105727333D01*
X192412666Y-105774952D01*
X192460285Y-105822571D01*
X192507904Y-105917809D01*
X192507904Y-106155904D01*
X192460285Y-106251142D01*
X192412666Y-106298761D01*
X192317428Y-106346380D01*
X192031714Y-106346380D01*
X191936476Y-106298761D01*
X191888857Y-106251142D01*
X192698380Y-106441619D02*
X193460285Y-106441619D01*
X193698380Y-106346380D02*
X193698380Y-105346380D01*
X194031714Y-106060666D01*
X194365047Y-105346380D01*
X194365047Y-106346380D01*
X195269809Y-106346380D02*
X195269809Y-105822571D01*
X195222190Y-105727333D01*
X195126952Y-105679714D01*
X194936476Y-105679714D01*
X194841238Y-105727333D01*
X195269809Y-106298761D02*
X195174571Y-106346380D01*
X194936476Y-106346380D01*
X194841238Y-106298761D01*
X194793619Y-106203523D01*
X194793619Y-106108285D01*
X194841238Y-106013047D01*
X194936476Y-105965428D01*
X195174571Y-105965428D01*
X195269809Y-105917809D01*
X195888857Y-106346380D02*
X195793619Y-106298761D01*
X195746000Y-106203523D01*
X195746000Y-105346380D01*
X196650761Y-106298761D02*
X196555523Y-106346380D01*
X196365047Y-106346380D01*
X196269809Y-106298761D01*
X196222190Y-106203523D01*
X196222190Y-105822571D01*
X196269809Y-105727333D01*
X196365047Y-105679714D01*
X196555523Y-105679714D01*
X196650761Y-105727333D01*
X196698380Y-105822571D01*
X196698380Y-105917809D01*
X196222190Y-106013047D01*
X189698380Y-100917333D02*
X190412666Y-100917333D01*
X190555523Y-100964952D01*
X190650761Y-101060190D01*
X190698380Y-101203047D01*
X190698380Y-101298285D01*
X190031714Y-100012571D02*
X190698380Y-100012571D01*
X189650761Y-100250666D02*
X190365047Y-100488761D01*
X190365047Y-99869714D01*
%TO.C,J1*%
X224202380Y-111275523D02*
X223202380Y-111275523D01*
X223202380Y-110894571D01*
X223250000Y-110799333D01*
X223297619Y-110751714D01*
X223392857Y-110704095D01*
X223535714Y-110704095D01*
X223630952Y-110751714D01*
X223678571Y-110799333D01*
X223726190Y-110894571D01*
X223726190Y-111275523D01*
X223202380Y-110085047D02*
X223202380Y-109894571D01*
X223250000Y-109799333D01*
X223345238Y-109704095D01*
X223535714Y-109656476D01*
X223869047Y-109656476D01*
X224059523Y-109704095D01*
X224154761Y-109799333D01*
X224202380Y-109894571D01*
X224202380Y-110085047D01*
X224154761Y-110180285D01*
X224059523Y-110275523D01*
X223869047Y-110323142D01*
X223535714Y-110323142D01*
X223345238Y-110275523D01*
X223250000Y-110180285D01*
X223202380Y-110085047D01*
X223202380Y-109323142D02*
X224202380Y-109085047D01*
X223488095Y-108894571D01*
X224202380Y-108704095D01*
X223202380Y-108466000D01*
X223678571Y-108085047D02*
X223678571Y-107751714D01*
X224202380Y-107608857D02*
X224202380Y-108085047D01*
X223202380Y-108085047D01*
X223202380Y-107608857D01*
X224202380Y-106608857D02*
X223726190Y-106942190D01*
X224202380Y-107180285D02*
X223202380Y-107180285D01*
X223202380Y-106799333D01*
X223250000Y-106704095D01*
X223297619Y-106656476D01*
X223392857Y-106608857D01*
X223535714Y-106608857D01*
X223630952Y-106656476D01*
X223678571Y-106704095D01*
X223726190Y-106799333D01*
X223726190Y-107180285D01*
X219376666Y-108418380D02*
X219376666Y-109132666D01*
X219329047Y-109275523D01*
X219233809Y-109370761D01*
X219090952Y-109418380D01*
X218995714Y-109418380D01*
X220376666Y-109418380D02*
X219805238Y-109418380D01*
X220090952Y-109418380D02*
X220090952Y-108418380D01*
X219995714Y-108561238D01*
X219900476Y-108656476D01*
X219805238Y-108704095D01*
%TO.C,C11*%
X224893333Y-88685714D02*
X224893333Y-89352380D01*
X224655238Y-88304761D02*
X224417142Y-89019047D01*
X225036190Y-89019047D01*
X225321904Y-88352380D02*
X225988571Y-88352380D01*
X225560000Y-89352380D01*
X226369523Y-88685714D02*
X226369523Y-89352380D01*
X226369523Y-88780952D02*
X226417142Y-88733333D01*
X226512380Y-88685714D01*
X226655238Y-88685714D01*
X226750476Y-88733333D01*
X226798095Y-88828571D01*
X226798095Y-89352380D01*
X227607619Y-88828571D02*
X227274285Y-88828571D01*
X227274285Y-89352380D02*
X227274285Y-88352380D01*
X227750476Y-88352380D01*
D14*
X221928571Y-89078571D02*
X221904761Y-89102380D01*
X221833333Y-89126190D01*
X221785714Y-89126190D01*
X221714285Y-89102380D01*
X221666666Y-89054761D01*
X221642857Y-89007142D01*
X221619047Y-88911904D01*
X221619047Y-88840476D01*
X221642857Y-88745238D01*
X221666666Y-88697619D01*
X221714285Y-88650000D01*
X221785714Y-88626190D01*
X221833333Y-88626190D01*
X221904761Y-88650000D01*
X221928571Y-88673809D01*
X222404761Y-89126190D02*
X222119047Y-89126190D01*
X222261904Y-89126190D02*
X222261904Y-88626190D01*
X222214285Y-88697619D01*
X222166666Y-88745238D01*
X222119047Y-88769047D01*
X222880952Y-89126190D02*
X222595238Y-89126190D01*
X222738095Y-89126190D02*
X222738095Y-88626190D01*
X222690476Y-88697619D01*
X222642857Y-88745238D01*
X222595238Y-88769047D01*
%TO.C,C10*%
D12*
X224914880Y-91892380D02*
X224343452Y-91892380D01*
X224629166Y-91892380D02*
X224629166Y-90892380D01*
X224533928Y-91035238D01*
X224438690Y-91130476D01*
X224343452Y-91178095D01*
X225533928Y-90892380D02*
X225629166Y-90892380D01*
X225724404Y-90940000D01*
X225772023Y-90987619D01*
X225819642Y-91082857D01*
X225867261Y-91273333D01*
X225867261Y-91511428D01*
X225819642Y-91701904D01*
X225772023Y-91797142D01*
X225724404Y-91844761D01*
X225629166Y-91892380D01*
X225533928Y-91892380D01*
X225438690Y-91844761D01*
X225391071Y-91797142D01*
X225343452Y-91701904D01*
X225295833Y-91511428D01*
X225295833Y-91273333D01*
X225343452Y-91082857D01*
X225391071Y-90987619D01*
X225438690Y-90940000D01*
X225533928Y-90892380D01*
X226486309Y-90892380D02*
X226581547Y-90892380D01*
X226676785Y-90940000D01*
X226724404Y-90987619D01*
X226772023Y-91082857D01*
X226819642Y-91273333D01*
X226819642Y-91511428D01*
X226772023Y-91701904D01*
X226724404Y-91797142D01*
X226676785Y-91844761D01*
X226581547Y-91892380D01*
X226486309Y-91892380D01*
X226391071Y-91844761D01*
X226343452Y-91797142D01*
X226295833Y-91701904D01*
X226248214Y-91511428D01*
X226248214Y-91273333D01*
X226295833Y-91082857D01*
X226343452Y-90987619D01*
X226391071Y-90940000D01*
X226486309Y-90892380D01*
X227248214Y-91225714D02*
X227248214Y-91892380D01*
X227248214Y-91320952D02*
X227295833Y-91273333D01*
X227391071Y-91225714D01*
X227533928Y-91225714D01*
X227629166Y-91273333D01*
X227676785Y-91368571D01*
X227676785Y-91892380D01*
X228486309Y-91368571D02*
X228152976Y-91368571D01*
X228152976Y-91892380D02*
X228152976Y-90892380D01*
X228629166Y-90892380D01*
D14*
X221928571Y-91618571D02*
X221904761Y-91642380D01*
X221833333Y-91666190D01*
X221785714Y-91666190D01*
X221714285Y-91642380D01*
X221666666Y-91594761D01*
X221642857Y-91547142D01*
X221619047Y-91451904D01*
X221619047Y-91380476D01*
X221642857Y-91285238D01*
X221666666Y-91237619D01*
X221714285Y-91190000D01*
X221785714Y-91166190D01*
X221833333Y-91166190D01*
X221904761Y-91190000D01*
X221928571Y-91213809D01*
X222404761Y-91666190D02*
X222119047Y-91666190D01*
X222261904Y-91666190D02*
X222261904Y-91166190D01*
X222214285Y-91237619D01*
X222166666Y-91285238D01*
X222119047Y-91309047D01*
X222714285Y-91166190D02*
X222761904Y-91166190D01*
X222809523Y-91190000D01*
X222833333Y-91213809D01*
X222857142Y-91261428D01*
X222880952Y-91356666D01*
X222880952Y-91475714D01*
X222857142Y-91570952D01*
X222833333Y-91618571D01*
X222809523Y-91642380D01*
X222761904Y-91666190D01*
X222714285Y-91666190D01*
X222666666Y-91642380D01*
X222642857Y-91618571D01*
X222619047Y-91570952D01*
X222595238Y-91475714D01*
X222595238Y-91356666D01*
X222619047Y-91261428D01*
X222642857Y-91213809D01*
X222666666Y-91190000D01*
X222714285Y-91166190D01*
%TO.C,C9*%
D12*
X207974380Y-121526380D02*
X207402952Y-121526380D01*
X207688666Y-121526380D02*
X207688666Y-120526380D01*
X207593428Y-120669238D01*
X207498190Y-120764476D01*
X207402952Y-120812095D01*
X208593428Y-120526380D02*
X208688666Y-120526380D01*
X208783904Y-120574000D01*
X208831523Y-120621619D01*
X208879142Y-120716857D01*
X208926761Y-120907333D01*
X208926761Y-121145428D01*
X208879142Y-121335904D01*
X208831523Y-121431142D01*
X208783904Y-121478761D01*
X208688666Y-121526380D01*
X208593428Y-121526380D01*
X208498190Y-121478761D01*
X208450571Y-121431142D01*
X208402952Y-121335904D01*
X208355333Y-121145428D01*
X208355333Y-120907333D01*
X208402952Y-120716857D01*
X208450571Y-120621619D01*
X208498190Y-120574000D01*
X208593428Y-120526380D01*
X209545809Y-120526380D02*
X209641047Y-120526380D01*
X209736285Y-120574000D01*
X209783904Y-120621619D01*
X209831523Y-120716857D01*
X209879142Y-120907333D01*
X209879142Y-121145428D01*
X209831523Y-121335904D01*
X209783904Y-121431142D01*
X209736285Y-121478761D01*
X209641047Y-121526380D01*
X209545809Y-121526380D01*
X209450571Y-121478761D01*
X209402952Y-121431142D01*
X209355333Y-121335904D01*
X209307714Y-121145428D01*
X209307714Y-120907333D01*
X209355333Y-120716857D01*
X209402952Y-120621619D01*
X209450571Y-120574000D01*
X209545809Y-120526380D01*
X210736285Y-120859714D02*
X210736285Y-121526380D01*
X210307714Y-120859714D02*
X210307714Y-121383523D01*
X210355333Y-121478761D01*
X210450571Y-121526380D01*
X210593428Y-121526380D01*
X210688666Y-121478761D01*
X210736285Y-121431142D01*
X211545809Y-121002571D02*
X211212476Y-121002571D01*
X211212476Y-121526380D02*
X211212476Y-120526380D01*
X211688666Y-120526380D01*
X209355333Y-116181142D02*
X209307714Y-116228761D01*
X209164857Y-116276380D01*
X209069619Y-116276380D01*
X208926761Y-116228761D01*
X208831523Y-116133523D01*
X208783904Y-116038285D01*
X208736285Y-115847809D01*
X208736285Y-115704952D01*
X208783904Y-115514476D01*
X208831523Y-115419238D01*
X208926761Y-115324000D01*
X209069619Y-115276380D01*
X209164857Y-115276380D01*
X209307714Y-115324000D01*
X209355333Y-115371619D01*
X209831523Y-116276380D02*
X210022000Y-116276380D01*
X210117238Y-116228761D01*
X210164857Y-116181142D01*
X210260095Y-116038285D01*
X210307714Y-115847809D01*
X210307714Y-115466857D01*
X210260095Y-115371619D01*
X210212476Y-115324000D01*
X210117238Y-115276380D01*
X209926761Y-115276380D01*
X209831523Y-115324000D01*
X209783904Y-115371619D01*
X209736285Y-115466857D01*
X209736285Y-115704952D01*
X209783904Y-115800190D01*
X209831523Y-115847809D01*
X209926761Y-115895428D01*
X210117238Y-115895428D01*
X210212476Y-115847809D01*
X210260095Y-115800190D01*
X210307714Y-115704952D01*
%TO.C,C8*%
X201165880Y-110844380D02*
X200594452Y-110844380D01*
X200880166Y-110844380D02*
X200880166Y-109844380D01*
X200784928Y-109987238D01*
X200689690Y-110082476D01*
X200594452Y-110130095D01*
X201784928Y-109844380D02*
X201880166Y-109844380D01*
X201975404Y-109892000D01*
X202023023Y-109939619D01*
X202070642Y-110034857D01*
X202118261Y-110225333D01*
X202118261Y-110463428D01*
X202070642Y-110653904D01*
X202023023Y-110749142D01*
X201975404Y-110796761D01*
X201880166Y-110844380D01*
X201784928Y-110844380D01*
X201689690Y-110796761D01*
X201642071Y-110749142D01*
X201594452Y-110653904D01*
X201546833Y-110463428D01*
X201546833Y-110225333D01*
X201594452Y-110034857D01*
X201642071Y-109939619D01*
X201689690Y-109892000D01*
X201784928Y-109844380D01*
X202737309Y-109844380D02*
X202832547Y-109844380D01*
X202927785Y-109892000D01*
X202975404Y-109939619D01*
X203023023Y-110034857D01*
X203070642Y-110225333D01*
X203070642Y-110463428D01*
X203023023Y-110653904D01*
X202975404Y-110749142D01*
X202927785Y-110796761D01*
X202832547Y-110844380D01*
X202737309Y-110844380D01*
X202642071Y-110796761D01*
X202594452Y-110749142D01*
X202546833Y-110653904D01*
X202499214Y-110463428D01*
X202499214Y-110225333D01*
X202546833Y-110034857D01*
X202594452Y-109939619D01*
X202642071Y-109892000D01*
X202737309Y-109844380D01*
X203499214Y-110177714D02*
X203499214Y-110844380D01*
X203499214Y-110272952D02*
X203546833Y-110225333D01*
X203642071Y-110177714D01*
X203784928Y-110177714D01*
X203880166Y-110225333D01*
X203927785Y-110320571D01*
X203927785Y-110844380D01*
X204737309Y-110320571D02*
X204403976Y-110320571D01*
X204403976Y-110844380D02*
X204403976Y-109844380D01*
X204880166Y-109844380D01*
D14*
X202630166Y-108890571D02*
X202606357Y-108914380D01*
X202534928Y-108938190D01*
X202487309Y-108938190D01*
X202415880Y-108914380D01*
X202368261Y-108866761D01*
X202344452Y-108819142D01*
X202320642Y-108723904D01*
X202320642Y-108652476D01*
X202344452Y-108557238D01*
X202368261Y-108509619D01*
X202415880Y-108462000D01*
X202487309Y-108438190D01*
X202534928Y-108438190D01*
X202606357Y-108462000D01*
X202630166Y-108485809D01*
X202915880Y-108652476D02*
X202868261Y-108628666D01*
X202844452Y-108604857D01*
X202820642Y-108557238D01*
X202820642Y-108533428D01*
X202844452Y-108485809D01*
X202868261Y-108462000D01*
X202915880Y-108438190D01*
X203011119Y-108438190D01*
X203058738Y-108462000D01*
X203082547Y-108485809D01*
X203106357Y-108533428D01*
X203106357Y-108557238D01*
X203082547Y-108604857D01*
X203058738Y-108628666D01*
X203011119Y-108652476D01*
X202915880Y-108652476D01*
X202868261Y-108676285D01*
X202844452Y-108700095D01*
X202820642Y-108747714D01*
X202820642Y-108842952D01*
X202844452Y-108890571D01*
X202868261Y-108914380D01*
X202915880Y-108938190D01*
X203011119Y-108938190D01*
X203058738Y-108914380D01*
X203082547Y-108890571D01*
X203106357Y-108842952D01*
X203106357Y-108747714D01*
X203082547Y-108700095D01*
X203058738Y-108676285D01*
X203011119Y-108652476D01*
%TO.C,C7*%
D12*
X199344880Y-94588380D02*
X198773452Y-94588380D01*
X199059166Y-94588380D02*
X199059166Y-93588380D01*
X198963928Y-93731238D01*
X198868690Y-93826476D01*
X198773452Y-93874095D01*
X199963928Y-93588380D02*
X200059166Y-93588380D01*
X200154404Y-93636000D01*
X200202023Y-93683619D01*
X200249642Y-93778857D01*
X200297261Y-93969333D01*
X200297261Y-94207428D01*
X200249642Y-94397904D01*
X200202023Y-94493142D01*
X200154404Y-94540761D01*
X200059166Y-94588380D01*
X199963928Y-94588380D01*
X199868690Y-94540761D01*
X199821071Y-94493142D01*
X199773452Y-94397904D01*
X199725833Y-94207428D01*
X199725833Y-93969333D01*
X199773452Y-93778857D01*
X199821071Y-93683619D01*
X199868690Y-93636000D01*
X199963928Y-93588380D01*
X200916309Y-93588380D02*
X201011547Y-93588380D01*
X201106785Y-93636000D01*
X201154404Y-93683619D01*
X201202023Y-93778857D01*
X201249642Y-93969333D01*
X201249642Y-94207428D01*
X201202023Y-94397904D01*
X201154404Y-94493142D01*
X201106785Y-94540761D01*
X201011547Y-94588380D01*
X200916309Y-94588380D01*
X200821071Y-94540761D01*
X200773452Y-94493142D01*
X200725833Y-94397904D01*
X200678214Y-94207428D01*
X200678214Y-93969333D01*
X200725833Y-93778857D01*
X200773452Y-93683619D01*
X200821071Y-93636000D01*
X200916309Y-93588380D01*
X201678214Y-93921714D02*
X201678214Y-94588380D01*
X201678214Y-94016952D02*
X201725833Y-93969333D01*
X201821071Y-93921714D01*
X201963928Y-93921714D01*
X202059166Y-93969333D01*
X202106785Y-94064571D01*
X202106785Y-94588380D01*
X202916309Y-94064571D02*
X202582976Y-94064571D01*
X202582976Y-94588380D02*
X202582976Y-93588380D01*
X203059166Y-93588380D01*
D14*
X200809166Y-92634571D02*
X200785357Y-92658380D01*
X200713928Y-92682190D01*
X200666309Y-92682190D01*
X200594880Y-92658380D01*
X200547261Y-92610761D01*
X200523452Y-92563142D01*
X200499642Y-92467904D01*
X200499642Y-92396476D01*
X200523452Y-92301238D01*
X200547261Y-92253619D01*
X200594880Y-92206000D01*
X200666309Y-92182190D01*
X200713928Y-92182190D01*
X200785357Y-92206000D01*
X200809166Y-92229809D01*
X200975833Y-92182190D02*
X201309166Y-92182190D01*
X201094880Y-92682190D01*
%TO.C,C6*%
D12*
X192440380Y-110922476D02*
X192440380Y-110303428D01*
X192821333Y-110636761D01*
X192821333Y-110493904D01*
X192868952Y-110398666D01*
X192916571Y-110351047D01*
X193011809Y-110303428D01*
X193249904Y-110303428D01*
X193345142Y-110351047D01*
X193392761Y-110398666D01*
X193440380Y-110493904D01*
X193440380Y-110779619D01*
X193392761Y-110874857D01*
X193345142Y-110922476D01*
X192440380Y-109970095D02*
X192440380Y-109351047D01*
X192821333Y-109684380D01*
X192821333Y-109541523D01*
X192868952Y-109446285D01*
X192916571Y-109398666D01*
X193011809Y-109351047D01*
X193249904Y-109351047D01*
X193345142Y-109398666D01*
X193392761Y-109446285D01*
X193440380Y-109541523D01*
X193440380Y-109827238D01*
X193392761Y-109922476D01*
X193345142Y-109970095D01*
X192773714Y-108493904D02*
X193440380Y-108493904D01*
X192773714Y-108922476D02*
X193297523Y-108922476D01*
X193392761Y-108874857D01*
X193440380Y-108779619D01*
X193440380Y-108636761D01*
X193392761Y-108541523D01*
X193345142Y-108493904D01*
X192916571Y-107684380D02*
X192916571Y-108017714D01*
X193440380Y-108017714D02*
X192440380Y-108017714D01*
X192440380Y-107541523D01*
D15*
X190023714Y-109365333D02*
X190061809Y-109403428D01*
X190099904Y-109517714D01*
X190099904Y-109593904D01*
X190061809Y-109708190D01*
X189985619Y-109784380D01*
X189909428Y-109822476D01*
X189757047Y-109860571D01*
X189642761Y-109860571D01*
X189490380Y-109822476D01*
X189414190Y-109784380D01*
X189338000Y-109708190D01*
X189299904Y-109593904D01*
X189299904Y-109517714D01*
X189338000Y-109403428D01*
X189376095Y-109365333D01*
X189299904Y-108679619D02*
X189299904Y-108832000D01*
X189338000Y-108908190D01*
X189376095Y-108946285D01*
X189490380Y-109022476D01*
X189642761Y-109060571D01*
X189947523Y-109060571D01*
X190023714Y-109022476D01*
X190061809Y-108984380D01*
X190099904Y-108908190D01*
X190099904Y-108755809D01*
X190061809Y-108679619D01*
X190023714Y-108641523D01*
X189947523Y-108603428D01*
X189757047Y-108603428D01*
X189680857Y-108641523D01*
X189642761Y-108679619D01*
X189604666Y-108755809D01*
X189604666Y-108908190D01*
X189642761Y-108984380D01*
X189680857Y-109022476D01*
X189757047Y-109060571D01*
%TO.C,C5*%
D12*
X199366380Y-91032380D02*
X198794952Y-91032380D01*
X199080666Y-91032380D02*
X199080666Y-90032380D01*
X198985428Y-90175238D01*
X198890190Y-90270476D01*
X198794952Y-90318095D01*
X199985428Y-90032380D02*
X200080666Y-90032380D01*
X200175904Y-90080000D01*
X200223523Y-90127619D01*
X200271142Y-90222857D01*
X200318761Y-90413333D01*
X200318761Y-90651428D01*
X200271142Y-90841904D01*
X200223523Y-90937142D01*
X200175904Y-90984761D01*
X200080666Y-91032380D01*
X199985428Y-91032380D01*
X199890190Y-90984761D01*
X199842571Y-90937142D01*
X199794952Y-90841904D01*
X199747333Y-90651428D01*
X199747333Y-90413333D01*
X199794952Y-90222857D01*
X199842571Y-90127619D01*
X199890190Y-90080000D01*
X199985428Y-90032380D01*
X200937809Y-90032380D02*
X201033047Y-90032380D01*
X201128285Y-90080000D01*
X201175904Y-90127619D01*
X201223523Y-90222857D01*
X201271142Y-90413333D01*
X201271142Y-90651428D01*
X201223523Y-90841904D01*
X201175904Y-90937142D01*
X201128285Y-90984761D01*
X201033047Y-91032380D01*
X200937809Y-91032380D01*
X200842571Y-90984761D01*
X200794952Y-90937142D01*
X200747333Y-90841904D01*
X200699714Y-90651428D01*
X200699714Y-90413333D01*
X200747333Y-90222857D01*
X200794952Y-90127619D01*
X200842571Y-90080000D01*
X200937809Y-90032380D01*
X201699714Y-90365714D02*
X201699714Y-91032380D01*
X201699714Y-90460952D02*
X201747333Y-90413333D01*
X201842571Y-90365714D01*
X201985428Y-90365714D01*
X202080666Y-90413333D01*
X202128285Y-90508571D01*
X202128285Y-91032380D01*
X202937809Y-90508571D02*
X202604476Y-90508571D01*
X202604476Y-91032380D02*
X202604476Y-90032380D01*
X203080666Y-90032380D01*
D14*
X200830666Y-89078571D02*
X200806857Y-89102380D01*
X200735428Y-89126190D01*
X200687809Y-89126190D01*
X200616380Y-89102380D01*
X200568761Y-89054761D01*
X200544952Y-89007142D01*
X200521142Y-88911904D01*
X200521142Y-88840476D01*
X200544952Y-88745238D01*
X200568761Y-88697619D01*
X200616380Y-88650000D01*
X200687809Y-88626190D01*
X200735428Y-88626190D01*
X200806857Y-88650000D01*
X200830666Y-88673809D01*
X201283047Y-88626190D02*
X201044952Y-88626190D01*
X201021142Y-88864285D01*
X201044952Y-88840476D01*
X201092571Y-88816666D01*
X201211619Y-88816666D01*
X201259238Y-88840476D01*
X201283047Y-88864285D01*
X201306857Y-88911904D01*
X201306857Y-89030952D01*
X201283047Y-89078571D01*
X201259238Y-89102380D01*
X201211619Y-89126190D01*
X201092571Y-89126190D01*
X201044952Y-89102380D01*
X201021142Y-89078571D01*
%TO.C,C4*%
D12*
X201068761Y-86506380D02*
X200497333Y-86506380D01*
X200783047Y-86506380D02*
X200783047Y-85506380D01*
X200687809Y-85649238D01*
X200592571Y-85744476D01*
X200497333Y-85792095D01*
X201925904Y-85839714D02*
X201925904Y-86506380D01*
X201497333Y-85839714D02*
X201497333Y-86363523D01*
X201544952Y-86458761D01*
X201640190Y-86506380D01*
X201783047Y-86506380D01*
X201878285Y-86458761D01*
X201925904Y-86411142D01*
X202735428Y-85982571D02*
X202402095Y-85982571D01*
X202402095Y-86506380D02*
X202402095Y-85506380D01*
X202878285Y-85506380D01*
D15*
X201530666Y-83089714D02*
X201492571Y-83127809D01*
X201378285Y-83165904D01*
X201302095Y-83165904D01*
X201187809Y-83127809D01*
X201111619Y-83051619D01*
X201073523Y-82975428D01*
X201035428Y-82823047D01*
X201035428Y-82708761D01*
X201073523Y-82556380D01*
X201111619Y-82480190D01*
X201187809Y-82404000D01*
X201302095Y-82365904D01*
X201378285Y-82365904D01*
X201492571Y-82404000D01*
X201530666Y-82442095D01*
X202216380Y-82632571D02*
X202216380Y-83165904D01*
X202025904Y-82327809D02*
X201835428Y-82899238D01*
X202330666Y-82899238D01*
%TO.C,C3*%
D12*
X195016571Y-91032380D02*
X194445142Y-91032380D01*
X194730857Y-91032380D02*
X194730857Y-90032380D01*
X194635619Y-90175238D01*
X194540380Y-90270476D01*
X194445142Y-90318095D01*
X195635619Y-90032380D02*
X195730857Y-90032380D01*
X195826095Y-90080000D01*
X195873714Y-90127619D01*
X195921333Y-90222857D01*
X195968952Y-90413333D01*
X195968952Y-90651428D01*
X195921333Y-90841904D01*
X195873714Y-90937142D01*
X195826095Y-90984761D01*
X195730857Y-91032380D01*
X195635619Y-91032380D01*
X195540380Y-90984761D01*
X195492761Y-90937142D01*
X195445142Y-90841904D01*
X195397523Y-90651428D01*
X195397523Y-90413333D01*
X195445142Y-90222857D01*
X195492761Y-90127619D01*
X195540380Y-90080000D01*
X195635619Y-90032380D01*
X196397523Y-90365714D02*
X196397523Y-91032380D01*
X196397523Y-90460952D02*
X196445142Y-90413333D01*
X196540380Y-90365714D01*
X196683238Y-90365714D01*
X196778476Y-90413333D01*
X196826095Y-90508571D01*
X196826095Y-91032380D01*
X197635619Y-90508571D02*
X197302285Y-90508571D01*
X197302285Y-91032380D02*
X197302285Y-90032380D01*
X197778476Y-90032380D01*
D14*
X196004666Y-89078571D02*
X195980857Y-89102380D01*
X195909428Y-89126190D01*
X195861809Y-89126190D01*
X195790380Y-89102380D01*
X195742761Y-89054761D01*
X195718952Y-89007142D01*
X195695142Y-88911904D01*
X195695142Y-88840476D01*
X195718952Y-88745238D01*
X195742761Y-88697619D01*
X195790380Y-88650000D01*
X195861809Y-88626190D01*
X195909428Y-88626190D01*
X195980857Y-88650000D01*
X196004666Y-88673809D01*
X196171333Y-88626190D02*
X196480857Y-88626190D01*
X196314190Y-88816666D01*
X196385619Y-88816666D01*
X196433238Y-88840476D01*
X196457047Y-88864285D01*
X196480857Y-88911904D01*
X196480857Y-89030952D01*
X196457047Y-89078571D01*
X196433238Y-89102380D01*
X196385619Y-89126190D01*
X196242761Y-89126190D01*
X196195142Y-89102380D01*
X196171333Y-89078571D01*
%TO.C,C2*%
D12*
X225147380Y-86812380D02*
X224575952Y-86812380D01*
X224861666Y-86812380D02*
X224861666Y-85812380D01*
X224766428Y-85955238D01*
X224671190Y-86050476D01*
X224575952Y-86098095D01*
X225766428Y-85812380D02*
X225861666Y-85812380D01*
X225956904Y-85860000D01*
X226004523Y-85907619D01*
X226052142Y-86002857D01*
X226099761Y-86193333D01*
X226099761Y-86431428D01*
X226052142Y-86621904D01*
X226004523Y-86717142D01*
X225956904Y-86764761D01*
X225861666Y-86812380D01*
X225766428Y-86812380D01*
X225671190Y-86764761D01*
X225623571Y-86717142D01*
X225575952Y-86621904D01*
X225528333Y-86431428D01*
X225528333Y-86193333D01*
X225575952Y-86002857D01*
X225623571Y-85907619D01*
X225671190Y-85860000D01*
X225766428Y-85812380D01*
X226718809Y-85812380D02*
X226814047Y-85812380D01*
X226909285Y-85860000D01*
X226956904Y-85907619D01*
X227004523Y-86002857D01*
X227052142Y-86193333D01*
X227052142Y-86431428D01*
X227004523Y-86621904D01*
X226956904Y-86717142D01*
X226909285Y-86764761D01*
X226814047Y-86812380D01*
X226718809Y-86812380D01*
X226623571Y-86764761D01*
X226575952Y-86717142D01*
X226528333Y-86621904D01*
X226480714Y-86431428D01*
X226480714Y-86193333D01*
X226528333Y-86002857D01*
X226575952Y-85907619D01*
X226623571Y-85860000D01*
X226718809Y-85812380D01*
X227480714Y-86145714D02*
X227480714Y-86812380D01*
X227480714Y-86240952D02*
X227528333Y-86193333D01*
X227623571Y-86145714D01*
X227766428Y-86145714D01*
X227861666Y-86193333D01*
X227909285Y-86288571D01*
X227909285Y-86812380D01*
X228718809Y-86288571D02*
X228385476Y-86288571D01*
X228385476Y-86812380D02*
X228385476Y-85812380D01*
X228861666Y-85812380D01*
D14*
X222166666Y-86538571D02*
X222142857Y-86562380D01*
X222071428Y-86586190D01*
X222023809Y-86586190D01*
X221952380Y-86562380D01*
X221904761Y-86514761D01*
X221880952Y-86467142D01*
X221857142Y-86371904D01*
X221857142Y-86300476D01*
X221880952Y-86205238D01*
X221904761Y-86157619D01*
X221952380Y-86110000D01*
X222023809Y-86086190D01*
X222071428Y-86086190D01*
X222142857Y-86110000D01*
X222166666Y-86133809D01*
X222357142Y-86133809D02*
X222380952Y-86110000D01*
X222428571Y-86086190D01*
X222547619Y-86086190D01*
X222595238Y-86110000D01*
X222619047Y-86133809D01*
X222642857Y-86181428D01*
X222642857Y-86229047D01*
X222619047Y-86300476D01*
X222333333Y-86586190D01*
X222642857Y-86586190D01*
%TO.C,C1*%
D12*
X185364571Y-79602380D02*
X184793142Y-79602380D01*
X185078857Y-79602380D02*
X185078857Y-78602380D01*
X184983619Y-78745238D01*
X184888380Y-78840476D01*
X184793142Y-78888095D01*
X185983619Y-78602380D02*
X186078857Y-78602380D01*
X186174095Y-78650000D01*
X186221714Y-78697619D01*
X186269333Y-78792857D01*
X186316952Y-78983333D01*
X186316952Y-79221428D01*
X186269333Y-79411904D01*
X186221714Y-79507142D01*
X186174095Y-79554761D01*
X186078857Y-79602380D01*
X185983619Y-79602380D01*
X185888380Y-79554761D01*
X185840761Y-79507142D01*
X185793142Y-79411904D01*
X185745523Y-79221428D01*
X185745523Y-78983333D01*
X185793142Y-78792857D01*
X185840761Y-78697619D01*
X185888380Y-78650000D01*
X185983619Y-78602380D01*
X186745523Y-78935714D02*
X186745523Y-79602380D01*
X186745523Y-79030952D02*
X186793142Y-78983333D01*
X186888380Y-78935714D01*
X187031238Y-78935714D01*
X187126476Y-78983333D01*
X187174095Y-79078571D01*
X187174095Y-79602380D01*
X187983619Y-79078571D02*
X187650285Y-79078571D01*
X187650285Y-79602380D02*
X187650285Y-78602380D01*
X188126476Y-78602380D01*
D14*
X186352666Y-77648571D02*
X186328857Y-77672380D01*
X186257428Y-77696190D01*
X186209809Y-77696190D01*
X186138380Y-77672380D01*
X186090761Y-77624761D01*
X186066952Y-77577142D01*
X186043142Y-77481904D01*
X186043142Y-77410476D01*
X186066952Y-77315238D01*
X186090761Y-77267619D01*
X186138380Y-77220000D01*
X186209809Y-77196190D01*
X186257428Y-77196190D01*
X186328857Y-77220000D01*
X186352666Y-77243809D01*
X186828857Y-77696190D02*
X186543142Y-77696190D01*
X186686000Y-77696190D02*
X186686000Y-77196190D01*
X186638380Y-77267619D01*
X186590761Y-77315238D01*
X186543142Y-77339047D01*
%TO.C,J9*%
D12*
X197953333Y-78192380D02*
X197477142Y-78192380D01*
X197429523Y-78668571D01*
X197477142Y-78620952D01*
X197572380Y-78573333D01*
X197810476Y-78573333D01*
X197905714Y-78620952D01*
X197953333Y-78668571D01*
X198000952Y-78763809D01*
X198000952Y-79001904D01*
X197953333Y-79097142D01*
X197905714Y-79144761D01*
X197810476Y-79192380D01*
X197572380Y-79192380D01*
X197477142Y-79144761D01*
X197429523Y-79097142D01*
X198429523Y-79192380D02*
X198429523Y-78192380D01*
X198524761Y-78811428D02*
X198810476Y-79192380D01*
X198810476Y-78525714D02*
X198429523Y-78906666D01*
X201596666Y-76922380D02*
X201596666Y-77636666D01*
X201549047Y-77779523D01*
X201453809Y-77874761D01*
X201310952Y-77922380D01*
X201215714Y-77922380D01*
X202120476Y-77922380D02*
X202310952Y-77922380D01*
X202406190Y-77874761D01*
X202453809Y-77827142D01*
X202549047Y-77684285D01*
X202596666Y-77493809D01*
X202596666Y-77112857D01*
X202549047Y-77017619D01*
X202501428Y-76970000D01*
X202406190Y-76922380D01*
X202215714Y-76922380D01*
X202120476Y-76970000D01*
X202072857Y-77017619D01*
X202025238Y-77112857D01*
X202025238Y-77350952D01*
X202072857Y-77446190D01*
X202120476Y-77493809D01*
X202215714Y-77541428D01*
X202406190Y-77541428D01*
X202501428Y-77493809D01*
X202549047Y-77446190D01*
X202596666Y-77350952D01*
%TD*%
M02*
